<?xml version="1.0" standalone="no"?>
<!DOCTYPE svg PUBLIC "-//W3C//DTD SVG 1.1//EN" "http://www.w3.org/Graphics/SVG/1.1/DTD/svg11.dtd" >
<svg>
<metadata>
Created by FontForge 20090914 at Fri Jul 11 17:58:08 2014
 By www-data
Converted by Andrey V. Panov from TeX fonts. Some glyphs are copied from Blue Sky fonts released by AMS.
</metadata>
<defs>
<font id="CMUSerif-Italic" horiz-adv-x="1046" >
  <font-face 
    font-family="CMU Serif"
    font-weight="500"
    font-style="italic"
    font-stretch="normal"
    units-per-em="2048"
    panose-1="2 0 6 3 0 0 0 0 0 0"
    ascent="1638"
    descent="-410"
    x-height="904.997"
    cap-height="1399"
    bbox="-2054 -725.002 2896 1905"
    underline-thickness="102"
    underline-position="-205"
    slope="-14.04"
    unicode-range="U+000D-U+FB04"
  />
<missing-glyph horiz-adv-x="1556" 
d="M20 20v1547h1516v-1547h-1516zM143 229l566 566l-566 563v-1129zM215 143h1126l-563 566zM215 1444l563 -565l563 565h-1126zM848 795l565 -566v1129z" />
    <glyph glyph-name="uniFB00" unicode="ff" horiz-adv-x="1255" 
d="M-51 -285c0 34 10.4941 60.998 31.4941 80.998s44.5 30 70.5 30c22 0 38.833 -6.5 50.5 -19.5s17.5 -29.167 17.5 -48.5c0 -52 -30 -84 -90 -96c27.333 -24.667 54 -37 80 -37c19.333 0 36 5.83301 50 17.5s26.5 31.167 37.5 58.5s18.833 50.166 23.5 68.499l22 87.5
c16.667 70.667 40.834 186.167 72.501 346.5l82.5 427.5l37 188c-9.33301 0 -23.666 -0.333008 -42.999 -1s-33.666 -1 -42.999 -1h-33c-34 0 -52.333 7 -55 21c-2.66699 8 -1.33398 16.833 3.99902 26.5s14.333 15.167 27 16.5h57h98
c2.66699 16.667 7.83398 44.334 15.501 83.001l16.5 83.5c3.33301 17 9.16602 42.667 17.499 77s15.5 59.666 21.5 75.999s15.167 38.166 27.5 65.499s25 47.833 38 61.5s29 29.667 48 48s39.833 31.5 62.5 39.5s48.334 15.167 77.001 21.5s60 9.5 94 9.5h2
c65.333 -1.33301 117.5 -14.666 156.5 -39.999s58.5 -58.333 58.5 -99c0 -28.667 -9.16699 -54 -27.5 -76s-42.5 -33 -72.5 -33c-20.667 0 -37.5 6.16699 -50.5 18.5s-19.5 28.166 -19.5 47.499c0 48 27.333 80 82 96c-38 26 -81 39 -129 39
c-34 0 -68.333 -7.83301 -103 -23.5s-60.334 -37.167 -77.001 -64.5c-9.33301 -16.667 -19.5 -44.167 -30.5 -82.5s-20 -74.833 -27 -109.5l-25.5 -131c-10 -52.667 -17 -88.334 -21 -107.001h475c40.667 252.667 86.334 409.667 137.001 471c53.333 62.667 114 94 182 94
c45.333 0 86 -12.333 122 -37s54 -58 54 -100c0 -31.333 -10.167 -57.666 -30.5 -78.999s-43.5 -32 -69.5 -32c-20.667 0 -37.167 5.83301 -49.5 17.5s-18.5 27.834 -18.5 48.501c0 22 7.5 42.5 22.5 61.5s36.167 31.167 63.5 36.5c-28.667 24.667 -57.334 37 -86.001 37
c-22 0 -42.167 -7.5 -60.5 -22.5s-32.166 -33.5 -41.499 -55.5c-18 -39.333 -49.333 -186 -94 -440h164c30 0 45 -9 45 -27c0 -22 -13.667 -33.667 -41 -35h-180c-90 -466.667 -144 -737 -162 -811c-38 -147.333 -87.333 -251.666 -148 -312.999
c-5.33301 -5.33301 -10.666 -11 -15.999 -17c-74 -66.667 -148.333 -100 -223 -100c-49.333 0 -94.166 11.667 -134.499 35s-60.5 57.333 -60.5 102c0 28.667 9.5 54.334 28.5 77.001s42.833 34 71.5 34c20.667 0 37.5 -6.16699 50.5 -18.5s19.5 -28.166 19.5 -47.499
c0 -20.667 -7.16699 -40.167 -21.5 -58.5s-35.166 -30.833 -62.499 -37.5c36.667 -26 73.667 -39 111 -39c40.667 0 80.167 17.833 118.5 53.5s66.833 80.834 85.5 135.501c18 52 41 144.833 69 278.5s57.667 284.167 89 451.5s48.333 259 51 275h-473v-2
c-5.33301 -35.333 -28.833 -157.833 -70.5 -367.5l-74.5 -371.5c-15.333 -62.667 -29.833 -117.334 -43.5 -164.001s-33 -98.667 -58 -156s-55.333 -101.333 -91 -132s-75.167 -46 -118.5 -46c-42 0 -79.5 12 -112.5 36s-49.5 57 -49.5 99z" />
    <glyph glyph-name="uniFB01" unicode="fi" horiz-adv-x="1150" 
d="M-51 -285c0 34 10.498 60.9951 31.498 80.9951s44.5 30 70.5 30c22 0 38.833 -6.5 50.5 -19.5s17.5 -29.167 17.5 -48.5c0 -52 -30 -84 -90 -96c27.333 -24.667 54 -37 80 -37c22 0 40 6.83301 54 20.5s29.167 45.167 45.5 94.5s32.166 108.333 47.499 177
s36.333 170.667 63 306l99 508c2.66699 9.33301 5.33398 24 8.00098 44s5.33398 34.667 8.00098 44c-9.33301 0 -23.666 -0.333008 -42.999 -1s-33.666 -1 -42.999 -1h-29c-40.667 0 -61 11 -61 33c0 20.667 19 31 57 31h131v2c13.333 87.333 26.666 157.666 39.999 210.999
s31.5 104.833 54.5 154.5s51 87.5 84 113.5s74.667 46.5 125 61.5s111.833 22.5 184.5 22.5c108 0 182.833 -15.667 224.5 -47s62.5 -67.666 62.5 -108.999c0 -31.333 -9.66699 -58.166 -29 -80.499s-43.333 -33.5 -72 -33.5c-20.667 0 -37.334 6.33301 -50.001 19
s-19 28.667 -19 48c0 22 7.5 42.5 22.5 61.5s36.833 30.5 65.5 34.5c-45.333 39.333 -115 59.333 -209 60c-142 0 -230.667 -50 -266 -150c-1.33301 -1.33301 -2 -2.66602 -2 -3.99902c-10.667 -30 -23 -75.333 -37 -136s-25 -113.167 -33 -157.5s-12 -67.833 -12 -70.5h491
c28.667 0 43 -8.33301 43 -25c0 -5.33301 -2.66699 -19 -8 -41l-143 -573c-13.333 -54.667 -20.333 -100.667 -21 -138c0 -53.333 17 -79.666 51 -78.999c20.667 0 40.5 12.833 59.5 38.5s33 51.834 42 78.501s18.167 58 27.5 94l17 53c5.33301 16.667 16 24.667 32 24
c19.333 0 29 -8.16699 29 -24.5s-11 -59.166 -33 -128.499c-40.667 -121.333 -100 -182.333 -178 -183c-50.667 0 -91.667 17.833 -123 53.5s-47 79.5 -47 131.5c0 20.667 6.33301 57.334 19 110.001l137 547h-408v-2c-6.66699 -38 -29.834 -160.167 -69.501 -366.5
s-63.5 -326.5 -71.5 -360.5c-10.667 -50.667 -21.167 -95 -31.5 -133s-25 -82.333 -44 -133s-39.167 -92.334 -60.5 -125.001s-47.666 -60.667 -78.999 -84s-64.666 -35 -99.999 -35c-42 0 -79.5 12 -112.5 36s-49.5 57 -49.5 99z" />
    <glyph glyph-name="uniFB02" unicode="fl" horiz-adv-x="1204" 
d="M-51 -285c0 28.667 9.49316 54.335 28.4932 77.002s43.5 34 73.5 34c22 0 38.833 -6.5 50.5 -19.5s17.5 -29.167 17.5 -48.5c0 -52 -30 -84 -90 -96c27.333 -24.667 54 -37 80 -37c42 0 75.667 38.333 101 115s63.333 244 114 502
c72.667 378 109.334 570.333 110.001 577c-9.33301 0 -23.666 -0.333008 -42.999 -1s-33.666 -1 -42.999 -1h-29c-40.667 0 -61 11 -61 33c0 20.667 19 31 57 31h131v2c13.333 82 25.333 146.5 36 193.5s26.834 97.5 48.501 151.5s46.834 94.667 75.501 122
s67 50.166 115 68.499s104.667 27.5 170 27.5h2c48 0 89 -4.5 123 -13.5s59.167 -18.5 75.5 -28.5s29 -23.667 38 -41s13.833 -29.333 14.5 -36l3 -31c13.333 60 23.166 95.833 29.499 107.5s18.833 17.5 37.5 17.5h48c27.333 0 41 -8.66699 41 -26l-7 -31l-272 -1092
c-20.667 -91.333 -31 -148 -31 -170c0 -52 18 -77.667 54 -77c31.333 0 57.5 22.5 78.5 67.5s38 91.333 51 139s23 73.5 30 77.5s15.833 4.66699 26.5 2s16.667 -8 18 -16c1.33301 -4 0 -16.333 -4 -37c-24.667 -94 -51.667 -164.333 -81 -211s-70.666 -70 -123.999 -70
c-39.333 0 -77.833 14.833 -115.5 44.5s-56.5 76.5 -56.5 140.5c0 12 9 58.333 27 139l131 518h-461l-98 -510c-39.333 -204.667 -73.666 -352 -102.999 -442s-65.333 -159.667 -108 -209c-45.333 -52 -94.333 -78 -147 -78c-45.333 0 -83.666 12.667 -114.999 38
s-47 57.666 -47 96.999zM579.993 881.001l461.999 0.000976562l95 374c-23.333 -38 -54.333 -57 -93 -57c-19.333 0 -35.333 6.16699 -48 18.5s-19 28.166 -19 47.499c0 48 26 80 78 96c-39.333 26 -92 39 -158 39c-88.667 0 -155 -25.333 -199 -76
c-39.333 -46 -78.666 -193.333 -117.999 -442z" />
    <glyph glyph-name="uniFB03" unicode="ffi" horiz-adv-x="1804" 
d="M-51 -285c0 32.667 10.1719 59.3369 30.5049 80.0039s44.166 31 71.499 31c22 0 38.833 -6.5 50.5 -19.5s17.5 -29.167 17.5 -48.5c0 -52 -30 -84 -90 -96c27.333 -24.667 54 -37 80 -37c19.333 0 36 5.83301 50 17.5s26.5 31.167 37.5 58.5s18.833 50.166 23.5 68.499
l22 87.5c16.667 70.667 40.834 186.167 72.501 346.5l82.5 427.5l37 188c-9.33301 0 -24 -0.333008 -44 -1s-34.667 -1 -44 -1h-31c-34 0 -52.333 7 -55 21c-2.66699 8 -1.66699 16.833 3 26.5s14 15.167 28 16.5h57h98c31.333 168 54.666 272.333 69.999 313
c42 124 116.333 201.667 223 233c42 12 91.333 18.333 148 19c66.667 0 124.667 -10.667 174 -32s74 -57 74 -107c0 -34 -10.667 -60.667 -32 -80s-45 -29 -71 -29c-45.333 0 -67.666 22 -66.999 66c0 23.333 7.83301 43.833 23.5 61.5s33.5 29.167 53.5 34.5
c-38 26 -88.333 39 -151 39c-88.667 0 -154.334 -26.667 -197.001 -80c-9.33301 -12 -18.5 -29 -27.5 -51s-17.167 -49.333 -24.5 -82l-20.5 -91c-6.33301 -28 -13.5 -64.167 -21.5 -108.5s-14.667 -79.5 -20 -105.5h495c32.667 166.667 56.667 271.667 72 315
c40.667 113.333 111.667 187 213 221c57.333 19.333 128.333 29 213 29c200.667 0 301 -52 301 -156c0 -38 -11 -66.5 -33 -85.5s-44.333 -28.5 -67 -28.5c-20.667 0 -37.5 6 -50.5 18s-19.5 28.333 -19.5 49c0 22 7.5 42.167 22.5 60.5s36.833 30.166 65.5 35.499
c-45.333 39.333 -118.333 59.333 -219 60c-38 0 -71.833 -3.16699 -101.5 -9.5s-55 -13.833 -76 -22.5s-39.667 -23.334 -56 -44.001s-29.333 -39.167 -39 -55.5s-19.334 -41.833 -29.001 -76.5s-16.834 -63.334 -21.501 -86.001s-11.334 -58.167 -20.001 -106.5
s-16.667 -87.5 -24 -117.5h518c28.667 0 43 -8.33301 43 -25c0 -8 -2 -21.667 -6 -41l-143 -575c-15.333 -57.333 -23 -103.333 -23 -138c0 -52 17.333 -77.667 52 -77c20.667 0 40.167 12.167 58.5 36.5s32.166 50.166 41.499 77.499s18.833 58.166 28.5 92.499
s15.167 53.5 16.5 57.5c5.33301 16.667 16.333 24.667 33 24c19.333 0 28.833 -8.16699 28.5 -24.5s-11.166 -59.166 -32.499 -128.499c-40.667 -121.333 -100.334 -182.333 -179.001 -183c-50.667 0 -91.5 17.833 -122.5 53.5s-46.5 79.5 -46.5 131.5
c0 20.667 6 57.334 18 110.001l137 547h-434c-2.66699 -18 -8.5 -49.5 -17.5 -94.5l-42 -218l-57.5 -295.5c-31.333 -157.333 -61.333 -272.833 -90 -346.5s-65.334 -132.167 -110.001 -175.5c-76.667 -74 -156.667 -111 -240 -111c-52 0 -99.5 11.667 -142.5 35
s-64.5 58 -64.5 104c0 28.667 9.83301 54 29.5 76s43.834 33 72.501 33c23.333 0 40.5 -7.16699 51.5 -21.5s16.5 -28.5 16.5 -42.5c0 -50.667 -27.333 -83.334 -82 -98.001c32.667 -26 71.667 -39 117 -39c46.667 0 90.334 19.833 131.001 59.5s68 80.5 82 122.5
c18 49.333 44.667 158.333 80 327s66 324.667 92 468l41 217h-494c-6.66699 -38 -29.834 -159 -69.501 -363s-63.5 -323.333 -71.5 -358c-12 -53.333 -22.833 -98.666 -32.5 -135.999s-24 -82.333 -43 -135s-38.833 -95 -59.5 -127s-46.667 -60 -78 -84
s-65.333 -36 -102 -36c-42 0 -79.5 12 -112.5 36s-49.5 57 -49.5 99z" />
    <glyph glyph-name="uniFB04" unicode="ffl" horiz-adv-x="1830" 
d="M-51 -285c0 34 10.5029 61.001 31.5029 81.001s44.5 30 70.5 30c22 0 38.833 -6.5 50.5 -19.5s17.5 -29.167 17.5 -48.5c0 -52 -30 -84 -90 -96c27.333 -24.667 54 -37 80 -37c19.333 0 36 5.83301 50 17.5s26.5 31.167 37.5 58.5s18.833 50.166 23.5 68.499l22 87.5
c16.667 70.667 40.834 186.167 72.501 346.5l82.5 427.5l37 188c-9.33301 0 -24 -0.333008 -44 -1s-34.667 -1 -44 -1h-31c-34 0 -52.333 7 -55 21c-2.66699 8 -1.33398 16.833 3.99902 26.5s14.333 15.167 27 16.5h57h98c22 113.333 37.5 190 46.5 230
s22.333 82.333 40 127s39.5 80.667 65.5 108c64 66.667 152 100 264 100h4c65.333 -1.33301 117.5 -14.666 156.5 -39.999s58.5 -58.333 58.5 -99c0 -28.667 -9.16699 -54 -27.5 -76s-42.5 -33 -72.5 -33c-20.667 0 -37.167 6.16699 -49.5 18.5s-18.5 28.166 -18.5 47.499
c0 48 26.667 80 80 96c-44 26 -86.333 39 -127 39c-34 0 -68.667 -7.83301 -104 -23.5s-61.333 -37.167 -78 -64.5c-9.33301 -16.667 -19.5 -44.167 -30.5 -82.5s-20 -74.833 -27 -109.5l-25.5 -131c-10 -52.667 -17 -88.334 -21 -107.001h495
c10.667 68 20.5 123.167 29.5 165.5s21 87.666 36 135.999s32.5 86.5 52.5 114.5s45 54.333 75 79s66.167 42.5 108.5 53.5s91.5 16.5 147.5 16.5c166.667 0 250 -50 250 -150h2c13.333 61.333 22.666 97.5 27.999 108.5s17.666 16.5 36.999 16.5h49
c27.333 0 41 -8.66699 41 -26c0 -4 -1 -9.5 -3 -16.5s-3 -11.167 -3 -12.5l-274 -1094c-19.333 -86 -29 -142.667 -29 -170c0 -52 17 -77.667 51 -77c23.333 0 44.833 14 64.5 42s34.334 59 44.001 93l29 98c9.66699 31.333 17.834 48.333 24.501 51
c6.66699 4 15.5 4.66699 26.5 2s17.167 -8 18.5 -16l-6 -37c-24.667 -95.333 -51.334 -166 -80.001 -212s-69.667 -69 -123 -69c-40.667 0 -79.5 14.833 -116.5 44.5s-55.5 76.5 -55.5 140.5c0 24.667 4 53.334 12 86.001l144 571h-459l-34.5 -180.5l-32 -169.5l-28 -148.5
c-11 -58.333 -20.167 -104.5 -27.5 -138.5s-16.5 -72.833 -27.5 -116.5s-20.5 -79.167 -28.5 -106.5s-17.167 -56 -27.5 -86s-21 -55.167 -32 -75.5s-22.5 -38.833 -34.5 -55.5c-28.667 -40.667 -68.667 -78.167 -120 -112.5s-107 -51.5 -167 -51.5
c-53.333 0 -101.166 11.667 -143.499 35s-63.5 58 -63.5 104c0 30 9.83301 55.667 29.5 77s43.167 32 70.5 32c19.333 0 35.833 -6.16699 49.5 -18.5s20.5 -28.166 20.5 -47.499c0 -20.667 -7.16699 -40.167 -21.5 -58.5s-34.5 -30.833 -60.5 -37.5
c35.333 -26 74.333 -39 117 -39c44 0 87 19.333 129 58c27.333 24.667 49.166 51.5 65.499 80.5s32.666 76 48.999 141s30.333 127.833 42 188.5l59.5 308l83 418h-496v-2c-5.33301 -35.333 -28.5 -156.5 -69.5 -363.5l-73.5 -367.5
c-15.333 -64 -29.833 -119.667 -43.5 -167s-33 -100 -58 -158s-55.333 -102.667 -91 -134s-75.834 -47 -120.501 -47c-42 0 -79.5 12 -112.5 36s-49.5 57 -49.5 99zM1208 881.001l462.998 0.000976562l94 374h-2c-23.333 -38 -53.333 -57 -90 -57
c-19.333 0 -35.666 6.16699 -48.999 18.5s-20 28.166 -20 47.499c0 48 26.333 80 79 96c-39.333 26 -91.666 39 -156.999 39c-88.667 0 -155 -25.333 -199 -76c-40 -46 -79.667 -193.333 -119 -442z" />
    <glyph glyph-name=".notdef" horiz-adv-x="1556" 
d="M20 20v1547h1516v-1547h-1516zM143 229l566 566l-566 563v-1129zM215 143h1126l-563 566zM215 1444l563 -565l563 565h-1126zM848 795l565 -566v1129z" />
    <glyph glyph-name=".notdef" horiz-adv-x="1556" 
d="M20 20v1547h1516v-1547h-1516zM143 229l566 566l-566 563v-1129zM215 143h1126l-563 566zM215 1444l563 -565l563 565h-1126zM848 795l565 -566v1129z" />
    <glyph glyph-name="uni000D" unicode="&#xd;" horiz-adv-x="681" 
 />
    <glyph glyph-name="space" unicode=" " horiz-adv-x="733" 
 />
    <glyph glyph-name="exclam" unicode="!" horiz-adv-x="628" 
d="M229 88c0 34 14.001 63.999 42.001 89.999s57.667 39 89 39c24.667 0 46 -8.16699 64 -24.5s27 -37.5 27 -63.5c0 -31.333 -13.333 -60.666 -40 -87.999s-57.334 -41 -92.001 -41c-26 0 -47.5 8.5 -64.5 25.5s-25.5 37.833 -25.5 62.5zM385.001 411.999
c0 9.33301 0.666992 15.999 2 19.999l154 903c15.333 87.333 59.666 131 132.999 131c24.667 0 45.834 -7.5 63.501 -22.5s26.5 -34.833 26.5 -59.5c0 -9.33301 -4.66699 -29.666 -14 -60.999l-295 -899c-9.33301 -27.333 -23 -41 -41 -41c-19.333 0 -29 9.66699 -29 29z
" />
    <glyph glyph-name="quotedbl" unicode="&#x22;" 
d="M520 721c0 9.33301 16.833 119.501 50.5 330.501s52.5 321.167 56.5 330.5c16.667 38 46.667 58.667 90 62c20.667 0 37.667 -5.83301 51 -17.5s20 -27.834 20 -48.501c0 -18 -5.33301 -40.333 -16 -67l-203 -588c-6.66699 -20.667 -16 -31 -28 -31
c-14 0 -21 9.66699 -21 29zM838 725.001c0 9.33301 16.332 118.166 48.999 326.499s51.667 318.5 57 330.5c16.667 38 45.334 58.667 86.001 62h2c20.667 0 37.834 -6.16699 51.501 -18.5s20.5 -28.166 20.5 -47.499c0 -8 -5.66699 -30.333 -17 -67l-200 -588
c-6.66699 -20.667 -16.334 -31 -29.001 -31c-13.333 0 -20 11 -20 33z" />
    <glyph glyph-name="numbersign" unicode="#" horiz-adv-x="1675" 
d="M238 313.5c0 15 17.001 22.499 51.001 22.499h336l176 352h-410c-35.333 0 -53 7.5 -53 22.5s15.667 22.5 47 22.5h440c207.333 416.667 317.333 636 330 658c10.667 18 20.334 26.667 29.001 26c23.333 0 27.333 -15.667 12 -47l-319 -637h397
c206 416.667 315.333 636 328 658c10.667 18 20.667 26.667 30 26c22 0 25.333 -15.667 10 -47l-317 -637h315c31.333 0 47.166 -7.5 47.499 -22.5s-16.167 -22.5 -49.5 -22.5h-338l-176 -352h412c35.333 0 53 -7.5 53 -22.5s-16.333 -22.5 -49 -22.5h-440l-305 -613
c-24.667 -48 -42.667 -71.667 -54 -71c-12 0 -18 5.33301 -18 16c0 13.333 22.667 64 68 152l258 516h-396l-305 -613c-24.667 -48 -42.334 -71.667 -53.001 -71c-12 0 -18.333 5.33301 -19 16c0 16.667 22 67.334 66 152.001l260 516h-317c-31.333 0 -47 7.5 -47 22.5z
M678.001 335.999h395l176 352h-397z" />
    <glyph glyph-name="dollar" unicode="$" 
d="M231 252c0 135.333 38.3359 203.003 115.003 203.003c22 0 38.833 -6.5 50.5 -19.5s17.5 -29.167 17.5 -48.5c0 -24.667 -9.33301 -46.5 -28 -65.5s-44.334 -28.5 -77.001 -28.5h-12v-33c0 -132.667 67.667 -205.667 203 -219l155 623
c-165.333 38 -247.666 136 -246.999 294c0 113.333 42.333 219.166 127 317.499s189.667 154.5 315 168.5c12 50.667 23 79.334 33 86.001c4 2.66699 9.33301 4 16 4c19.333 0 29 -8.33301 29 -25c0 -2.66699 -5 -24.334 -15 -65.001
c78 -6.66699 140.167 -31.834 186.5 -75.501s69.5 -105.167 69.5 -184.5c0 -125.333 -36.667 -188.333 -110 -189c-22 0 -39.167 6.5 -51.5 19.5s-18.5 29.167 -18.5 48.5c0 24.667 9.16699 46.5 27.5 65.5s44.166 28.5 77.499 28.5h12c0 23.333 -1.33301 43.5 -4 60.5
s-9.83398 38.833 -21.501 65.5s-32.834 48.167 -63.501 64.5s-70 27.166 -118 32.499l-141 -565c84.667 -23.333 146 -60 184 -110c38 -52 57 -117.667 57 -197c0 -124 -43.667 -239.333 -131 -346s-194.333 -168.334 -321 -185.001
c-5.33301 -24.667 -9.5 -41.667 -12.5 -51s-7.5 -18.166 -13.5 -26.499s-13.667 -12.5 -23 -12.5c-18 0 -27 9.66699 -27 29c0 9.33301 4 30.666 12 63.999c-82 6.66699 -144.5 33.834 -187.5 81.501s-64.5 111.167 -64.5 190.5zM522.003 1036
c0 -106.667 56.001 -173.332 168.001 -199.999c2.66699 -1.33301 4.66699 -2 6 -2l138 544c-92.667 -16.667 -167.834 -59.334 -225.501 -128.001s-86.5 -140 -86.5 -214zM565.004 43.0049c87.333 13.333 162.5 59.332 225.5 137.999s94.5 162.334 94.5 251.001
c0 42 -6.83301 77.833 -20.5 107.5s-33.167 52 -58.5 67s-42.5 24.167 -51.5 27.5s-22.167 7 -39.5 11z" />
    <glyph glyph-name="percent" unicode="%" horiz-adv-x="1673" 
d="M297 -74c0 9.33301 7.33203 22.999 21.999 40.999l1174 1362v2c-86 -39.333 -169.333 -59 -250 -59c-105.333 0 -194.666 28.667 -267.999 86c4 -19.333 6 -46 6 -80c0 -134 -38.833 -262 -116.5 -384s-161.167 -183 -250.5 -183c-57.333 0 -104 24.5 -140 73.5
s-54 115.167 -54 198.5c0 132.667 41.667 258 125 376s171.333 177 264 177c50.667 0 91.667 -22 123 -66c75.333 -102.667 179.666 -153.667 312.999 -153c75.333 0 149.166 17 221.499 51s130.833 77.667 175.5 131c20.667 24.667 38 37 52 37
c10.667 0 19.834 -4.16699 27.501 -12.5s11.5 -17.833 11.5 -28.5c0 -9.33301 -7.66699 -23.666 -23 -42.999l-1329 -1540c-15.333 -18 -29.666 -27 -42.999 -27c-10.667 0 -20.167 4.16699 -28.5 12.5s-12.5 17.833 -12.5 28.5zM523.999 919.999
c0 -109.333 31.334 -164 94.001 -164c66.667 0 133.667 58 201 174s101 235.333 101 358c0 54.667 -9 102.167 -27 142.5s-46 60.5 -84 60.5c-40.667 0 -79.834 -22.5 -117.501 -67.5s-68.167 -99.333 -91.5 -163s-41.833 -126.5 -55.5 -188.5s-20.5 -112.667 -20.5 -152z
M1051 157.999c0 131.333 41.166 256.334 123.499 375.001s171.5 178 267.5 178c60 0 103.667 -27 131 -81s41 -113 41 -177c0 -128.667 -38.667 -255.5 -116 -380.5s-161.666 -187.5 -252.999 -187.5c-58.667 0 -105.667 25.667 -141 77s-53 116.666 -53 195.999zM1155 94
c0 -109.333 31.332 -164 93.999 -164c42 0 86.667 26.333 134 79s87 121 119 205s48 167 48 249c0 60 -9.5 108.833 -28.5 146.5s-45.5 56.5 -79.5 56.5c-56 0 -107.167 -39 -153.5 -117s-80.166 -160 -101.499 -246s-32 -155.667 -32 -209z" />
    <glyph glyph-name="ampersand" unicode="&#x26;" horiz-adv-x="1568" 
d="M258 360c0 50.667 15.3379 116.327 46.0049 196.994s79 156.334 145 227.001l6 13c0 2.66699 -1.33301 7.33398 -4 14.001c-12 38 -18.333 79 -19 123c0 130 45.5 251.167 136.5 363.5s190.833 168.5 299.5 168.5c68 0 121.167 -22.833 159.5 -68.5
s57.5 -101.167 57.5 -166.5c0 -108 -36 -162 -108 -162c-24.667 0 -42.834 6.83301 -54.501 20.5s-17.5 28.834 -17.5 45.501c0 2.66699 0.333008 6.33398 1 11.001s3.16699 12.834 7.5 24.501s10.166 21.834 17.499 30.501s18.833 16.5 34.5 23.5s34.5 10.5 56.5 10.5
c-1.33301 66.667 -17.333 114.334 -48 143.001s-66 43 -106 43c-60 0 -114.833 -31.333 -164.5 -94s-86.834 -135 -111.501 -217s-38.334 -160.667 -41.001 -236c69.333 46.667 136.333 70 201 70c38 0 69 -10.833 93 -32.5s36 -51.834 36 -90.501
c0 -48 -19.833 -91 -59.5 -129s-85.5 -57 -137.5 -57c-66.667 0 -122 21.667 -166 65c-24.667 -45.333 -48.167 -106.5 -70.5 -183.5s-33.5 -142.833 -33.5 -197.5c0 -58.667 11.167 -109.834 33.5 -153.501s52.666 -77 90.999 -100s78 -39.667 119 -50
s83.167 -15.5 126.5 -15.5c101.333 0 192.333 16.667 273 50s144.167 74.666 190.5 123.999s84.5 104.333 114.5 165s50.167 114.834 60.5 162.501s15.5 90.834 15.5 129.501c0 100 -35.667 195.667 -107 287c-106.667 -65.333 -177.334 -115.166 -212.001 -149.499
s-52 -78.833 -52 -133.5c0 -19.333 2 -34.333 6 -45c16.667 44 47.334 65.667 92.001 65c44 0 66 -21 66 -63c0 -26 -9.16699 -48.5 -27.5 -67.5s-41.833 -28.5 -70.5 -28.5c-36.667 0 -67.334 13.167 -92.001 39.5s-37 61.5 -37 105.5s14.333 86.333 43 127
s56.5 71 83.5 91s63.833 44.333 110.5 73s84.334 53.5 113.001 74.5s63.5 55.167 104.5 102.5s72.167 98.333 93.5 153c-46.667 2.66699 -69.667 23.667 -69 63c0 28.667 10.167 51.834 30.5 69.501s42.166 26.5 65.499 26.5c18 0 33.833 -5.33301 47.5 -16
s20.5 -26.334 20.5 -47.001c0 -18 -7.16699 -47.5 -21.5 -88.5s-43 -92.833 -86 -155.5s-94.167 -115.334 -153.5 -158.001c78 -102.667 117 -209 117 -319c0 -46.667 -6.5 -96.834 -19.5 -150.501s-36.833 -112.667 -71.5 -177s-77.667 -122.166 -129 -173.499
s-120.666 -94.333 -207.999 -129s-185 -52 -293 -52c-162.667 0 -290.667 39.5 -384 118.5s-140 174.5 -140 286.5zM565.005 775.993c23.333 -64 64.333 -96 123 -96c36.667 0 67.667 15.667 93 47s38 66 38 104c0 45.333 -22.333 68 -67 68c-62 0 -124.333 -41 -187 -123z
" />
    <glyph glyph-name="quotesingle" unicode="'" horiz-adv-x="628" 
d="M469 721c0 4 1.33496 14.499 4.00195 31.499s4 27.5 4 31.5l84 529l2 14c1.33301 10.667 3 19.834 5 27.501s5.5 17.334 10.5 29.001s10.5 21.5 16.5 29.5s15.167 15.167 27.5 21.5s26.166 9.5 41.499 9.5h2c20.667 0 37.667 -5.83301 51 -17.5s20 -27.834 20 -48.501
c0 -8 -5.33301 -30.333 -16 -67l-203 -588c-6.66699 -20.667 -15.334 -31 -26.001 -31c-15.333 0 -23 9.66699 -23 29z" />
    <glyph glyph-name="parenleft" unicode="(" horiz-adv-x="835" 
d="M311 96c0 134 22.5 289.334 67.5 466.001s118.833 349 221.5 517c53.333 87.333 114.833 168.666 184.5 243.999s126.667 129.666 171 162.999s71.166 50 80.499 50c13.333 0 20.333 -6.66699 21 -20c0 -4 -10.333 -16.333 -31 -37
c-114.667 -98 -215 -218.167 -301 -360.5s-149.833 -284.166 -191.5 -425.499s-72 -268 -91 -380s-28.5 -208.667 -28.5 -290c0 -195.333 42.333 -357.333 127 -486c9.33301 -13.333 14 -23 14 -29c0 -13.333 -6.66699 -20 -20 -20c-15.333 0 -41.166 26.333 -77.499 79
s-66.5 111.667 -90.5 177c-37.333 102 -56 219.333 -56 352z" />
    <glyph glyph-name="parenright" unicode=")" horiz-adv-x="835" 
d="M37 -492c0 4 10.333 16.332 31 36.999c114.667 98 215 218.167 301 360.5s149.833 284.166 191.5 425.499s72 268 91 380s28.5 208.667 28.5 290c0 195.333 -42.333 357.333 -127 486c-9.33301 13.333 -14 23 -14 29c0 13.333 6.66699 20 20 20
c15.333 0 41 -26.333 77 -79s66.333 -111.667 91 -177c36.667 -102.667 55 -220 55 -352c0 -134 -22.5 -289.333 -67.5 -466s-118.5 -349 -220.5 -517c-53.333 -87.333 -114.833 -168.666 -184.5 -243.999s-126.667 -129.666 -171 -162.999s-71.5 -50 -81.5 -50
c-13.333 0 -20 6.66699 -20 20z" />
    <glyph glyph-name="asterisk" unicode="*" 
d="M399 891c0 26 16.665 46.332 49.998 60.999l307 144l-232 141c-19.333 12 -28.666 24.333 -27.999 37c0 16.667 6.83301 31.667 20.5 45s28.5 20 44.5 20c10.667 0 23.667 -7.33301 39 -22l184 -180l56 329c6.66699 46.667 29 70 67 70
c10.667 0 20.167 -3.33301 28.5 -10s12.5 -15.667 12.5 -27l-8 -33l-109 -329l287 190c12 8 23.667 12 35 12c27.333 0 41 -13.667 41 -41s-16.333 -47.666 -49 -60.999l-307 -143l231 -140c20.667 -12 31 -25 31 -39c0 -16.667 -7.16699 -31.667 -21.5 -45
s-29.166 -20 -44.499 -20c-12 0 -25.667 7.33301 -41 22l-184 181l-55 -330c-5.33301 -46.667 -27.333 -70 -66 -70c-28.667 0 -43 12.333 -43 37l8 33l111 330l-289 -191c-13.333 -8 -25 -12 -35 -12c-27.333 0 -41 13.667 -41 41z" />
    <glyph glyph-name="plus" unicode="+" horiz-adv-x="1568" 
d="M289 512c0 16.667 15.6699 25 47.0029 25c4 0 8.66699 -0.333008 14 -1s8.66602 -1 9.99902 -1h535l70.5 285.5c45.667 185 69.834 281.5 72.501 289.5c5.33301 16.667 13.666 25 24.999 25c13.333 0 20 -8.33301 20 -25l-10 -51l-131 -524h522
c1.33301 0 5.16602 0.333008 11.499 1s10.833 1 13.5 1c31.333 0 47 -8.33301 47 -25c0 -10.667 -5.16699 -17.167 -15.5 -19.5s-29.166 -3.5 -56.499 -3.5h-534l-133 -534c-10.667 -44 -22.334 -66 -35.001 -66c-13.333 0 -20.333 8.33301 -21 25
c0 8 8.33301 44.833 25 110.5l61.5 243l55.5 221.5h-523c-1.33301 0 -5.33301 -0.333008 -12 -1s-11.334 -1 -14.001 -1c-30 0 -45 8.33301 -45 25z" />
    <glyph glyph-name="comma" unicode="," horiz-adv-x="626" 
d="M150 -375c0 5.33301 8.66699 16.998 26 34.998c125.333 106.667 202 230.334 230 371.001c-26 -20.667 -54 -31 -84 -31c-60 0 -90.333 28.667 -91 86c0 32.667 12.667 62.667 38 90s57.333 41 96 41c62.667 0 94 -40.333 94 -121c0 -74 -21.833 -151.167 -65.5 -231.5
s-88 -143.666 -133 -189.999s-75.167 -69.5 -90.5 -69.5c-13.333 0 -20 6.66699 -20 20z" />
    <glyph glyph-name="hyphen" unicode="-" horiz-adv-x="733" 
d="M176 412c5.33301 48 17.001 75.335 35.001 82.002c5.33301 2.66699 14.333 4 27 4h407c30 0 45 -9.66699 45 -29c0 -2.66699 -0.666992 -8.83398 -2 -18.501s-4.33301 -21.334 -9 -35.001s-10.334 -22.5 -17.001 -26.5c-8 -4 -18.333 -6 -31 -6h-410
c-30 0 -45 9.66699 -45 29z" />
    <glyph glyph-name="period" unicode="." horiz-adv-x="628" 
d="M229 88c0 31.333 13.334 60.666 40.001 87.999s57 41 91 41c26 0 47.333 -8.5 64 -25.5s25 -37.833 25 -62.5c0 -31.333 -13.333 -60.666 -40 -87.999s-57.334 -41 -92.001 -41c-26 0 -47.167 8.5 -63.5 25.5s-24.5 37.833 -24.5 62.5z" />
    <glyph glyph-name="slash" unicode="/" 
d="M37 -487c0 10.667 6 25 18 43l1112 1878l16.5 28.5l16.5 28.5c4 6.66699 8.5 13.5 13.5 20.5s9.83301 12.167 14.5 15.5s9 5 13 5c13.333 0 20.333 -7.66699 21 -23c0 -5.33301 -5 -16 -15 -32l-1112 -1878c-30 -52 -48.667 -82.833 -56 -92.5s-15.333 -14.5 -24 -14.5
c-12 0.666992 -18 7.66699 -18 21z" />
    <glyph glyph-name="zero" unicode="0" 
d="M240 303c0 92.667 18.9971 214.5 56.9971 365.5s81.667 272.833 131 365.5c58.667 112 125.834 195 201.501 249s153.167 81 232.5 81c50.667 0 94.167 -9.83301 130.5 -29.5s63.333 -42.5 81 -68.5s31.5 -57.167 41.5 -93.5s16.167 -65.333 18.5 -87
s3.5 -44.834 3.5 -69.501c0 -82 -16.5 -192 -49.5 -330s-70.5 -254.667 -112.5 -350c-60 -135.333 -131.667 -232.666 -215 -291.999s-165.333 -89 -246 -89c-44 0 -82.667 6.83301 -116 20.5s-59.166 32.834 -77.499 57.501s-33.666 48.5 -45.999 71.5
s-20.5 50.167 -24.5 81.5s-6.66699 54.166 -8 68.499s-2 30.5 -2 48.5zM370.997 201c0 -72.667 15.333 -124.332 46 -154.999s66.334 -46 107.001 -46c50.667 0 99.5 20.167 146.5 60.5s82.833 87.166 107.5 140.499c44 96.667 93.667 256 149 478s83 371 83 447
c0 62.667 -15 110.5 -45 143.5s-67.667 49.5 -113 49.5c-42 0 -86.667 -15.667 -134 -47s-88 -82 -122 -152c-36.667 -76.667 -83.334 -228.5 -140.001 -455.5s-85 -381.5 -85 -463.5z" />
    <glyph glyph-name="one" unicode="1" 
d="M240 25c0 18 4.33398 28.834 13.001 32.501s23.334 5.5 44.001 5.5h16c76.667 0 126 5.5 148 16.5s37 34.5 45 70.5l242 970c-75.333 -56 -151.333 -84 -228 -84c-22 0 -33 8.33301 -33 25c0 22 11 35 33 39c135.333 13.333 255.666 90.333 360.999 231
c18 22 31 33 39 33c16.667 0 24.667 -8.33301 24 -25c0 -5.33301 -2 -14 -6 -26l-293 -1170c-4 -16.667 -6 -29.667 -6 -39c0 -13.333 3.33301 -22 10 -26s22.334 -7.33301 47.001 -10c35.333 -2.66699 64.666 -4.33398 87.999 -5.00098h17
c13.333 0 23.166 -0.333008 29.499 -1s11.833 -2.66699 16.5 -6s7 -9 7 -17c0 -26 -13.667 -39 -41 -39c-30 0 -75.667 1 -137 3s-107 3 -137 3c-28.667 0 -73.167 -1 -133.5 -3s-105.5 -3 -135.5 -3c-20 -0 -30 8.33301 -30 25z" />
    <glyph glyph-name="two" unicode="2" 
d="M172 -25c0 5.33301 2.99902 20 8.99902 44s23 63 51 117s63.333 106.333 106 157c27.333 32.667 57.666 63.334 90.999 92.001s59.666 49.167 78.999 61.5l94 57.5c117.333 69.333 210.166 150.833 278.499 244.5s102.5 208.834 102.5 345.501c0 78 -17.667 135 -53 171
s-77.666 54 -126.999 54c-76.667 0 -147.667 -34.833 -213 -104.5s-113.5 -143.334 -144.5 -221.001s-46.5 -141.834 -46.5 -192.501c0 -45.333 15 -68 45 -68c54.667 0 101.834 35.167 141.501 105.5s59.5 127.5 59.5 171.5c0 23.333 -6.66699 48.333 -20 75
c-1.33301 2.66699 -2 7 -2 13c0 15.333 7.33301 22.666 22 21.999c12 0 22.5 -12.667 31.5 -38s13.5 -48.666 13.5 -69.999c0 -31.333 -8.83301 -71 -26.5 -119s-46.667 -94.167 -87 -138.5s-85.166 -66.5 -134.499 -66.5c-69.333 0 -104 43 -104 129
c0 28.667 6.5 64.834 19.5 108.501s32.833 90.834 59.5 141.501s58 98.167 94 142.5s80.333 81.166 133 110.499s107.667 44 165 44c87.333 0 162.333 -30 225 -90s94 -145.333 94 -256c0 -64 -10.167 -121.667 -30.5 -173s-55 -99.833 -104 -145.5s-99.833 -86 -152.5 -121
s-124 -78.167 -214 -129.5c-143.333 -83.333 -248.666 -182.333 -315.999 -297c8 4 23 6 45 6c40.667 0 113 -11.667 217 -35c65.333 -16.667 122 -25 170 -25c61.333 0 113 23.333 155 70s72.333 97 91 151c4 16.667 7.83301 26.667 11.5 30s11.5 5 23.5 5
c20.667 0 31 -6.66699 31 -20c0 -9.33301 -6.5 -32.5 -19.5 -69.5s-31.5 -79.333 -55.5 -127s-58.833 -90 -104.5 -127s-95.834 -55.5 -150.501 -55.5c-53.333 0 -119.666 27.333 -198.999 82c-74 50.667 -132 76 -174 76c-52 0 -90 -43.667 -114 -131
c-2.66699 -10.667 -6.16699 -17.834 -10.5 -21.501s-12.5 -5.5 -24.5 -5.5c-20.667 0 -31 6.66699 -31 20z" />
    <glyph glyph-name="three" unicode="3" 
d="M195 217c0 106.667 36.001 160.002 108.001 160.002c22 0 39.167 -6.5 51.5 -19.5s18.5 -28.5 18.5 -46.5c0 -22 -9.66699 -44.833 -29 -68.5s-48 -33.5 -86 -29.5c1.33301 -70.667 22.5 -123.834 63.5 -159.501s89.5 -53.5 145.5 -53.5
c95.333 0 176.666 40.333 243.999 121c45.333 52 77.5 115.5 96.5 190.5s28.5 132.167 28.5 171.5c0 113.333 -52.667 170 -158 170h-57c-13.333 0 -23.166 0.333008 -29.499 1s-11.666 2.5 -15.999 5.5s-6.5 7.83301 -6.5 14.5c0 13.333 2.5 23.166 7.5 29.499
s10.5 10.166 16.5 11.499s16 2 30 2h47c62.667 0 117.834 13.667 165.501 41s83.167 59 106.5 95s42.166 76.5 56.499 121.5s22.833 79.5 25.5 103.5s4 43 4 57c0 66.667 -17.333 114 -52 142s-75.334 42 -122.001 42c-96.667 0 -185 -38.167 -265 -114.5
s-120 -156.166 -120 -239.499c0 -50.667 17.667 -76 53 -76c31.333 0 60 12.667 86 38s39 55 39 89c0 28.667 -5.33301 48.334 -16 59.001c-5.33301 10.667 -8 18.334 -8 23.001c0 15.333 7.33301 22.666 22 21.999c10.667 0 21.167 -11.833 31.5 -35.5
s15.5 -45.834 15.5 -66.501c0 -49.333 -18 -90.666 -54 -123.999s-74.667 -50 -116 -50c-36.667 0 -64.834 12.333 -84.501 37s-29.5 56 -29.5 94c0 91.333 45.667 179 137 263s195.666 126 312.999 126c83.333 0 153 -24.5 209 -73.5s84 -115.833 84 -200.5
c0 -82 -29.667 -163 -89 -243s-140.333 -137 -243 -171c109.333 -50.667 164 -137.334 164 -260.001c0 -121.333 -53.167 -228.5 -159.5 -321.5s-225.166 -139.5 -356.499 -139.5c-83.333 0 -149.5 25.167 -198.5 75.5s-73.5 112.5 -73.5 186.5z" />
    <glyph glyph-name="four" unicode="4" 
d="M90 37c0 13.333 9.50098 27.168 28.501 41.501s36.167 25.166 51.5 32.499c13.333 10.667 33.333 27.667 60 51s70.167 69.833 130.5 139.5s114.166 143.167 161.499 220.5c126.667 206 227.667 452.667 303 740c6.66699 24.667 12.167 42.334 16.5 53.001
s12.333 21.5 24 32.5s26.834 16.5 45.501 16.5c36.667 0 55.334 -17.667 56.001 -53c0 -5.33301 -5.16699 -29.5 -15.5 -72.5s-31.166 -108 -62.499 -195s-70.333 -177.833 -117 -272.5s-111.834 -200.334 -195.501 -317.001s-177.5 -223 -281.5 -319
c18 1.33301 36.333 2 55 2c53.333 0 105.333 -7.33301 156 -22c13.333 -4 23.166 -7.83301 29.499 -11.5s38.166 -15.5 95.499 -35.5l42 165.5c26.667 105 41.334 163.167 44.001 174.5c13.333 58.667 40.666 88 81.999 88c5.33301 0 11.333 -0.666992 18 -2
s14.5 -6.5 23.5 -15.5s13.5 -21.833 13.5 -38.5c0 -6.66699 -2.66699 -20.334 -8 -41.001l-90 -364c6.66699 -1.33301 17.334 -2 32.001 -2c44 0 85 7.33301 123 22c13.333 5.33301 23 8 29 8c8 0 15.167 -4 21.5 -12s9.5 -15.333 9.5 -22
c0 -15.333 -23.333 -29.166 -70 -41.499s-87 -18.5 -121 -18.5c-19.333 0 -33 0.666992 -41 2l-75 -299c-12 -46.667 -38 -69.667 -78 -69c-36.667 0 -55.334 17.667 -56.001 53c0 8 3 22.333 9 43l75 305c-18 6.66699 -42.167 16.167 -72.5 28.5s-46.166 18.5 -47.499 18.5
c-48 15.333 -98 23 -150 23c-82 0 -134.667 -10.333 -158 -31c-36.667 -27.333 -58.334 -41 -65.001 -41s-13.5 4.5 -20.5 13.5s-10.5 16.167 -10.5 21.5z" />
    <glyph glyph-name="five" unicode="5" 
d="M219 240c0 124 39.665 186.003 118.998 186.003c23.333 0 41.5 -6.5 54.5 -19.5s19.5 -29.833 19.5 -50.5c0 -26 -10 -50.167 -30 -72.5s-46.333 -33.5 -79 -33.5c-9.33301 0 -16 0.666992 -20 2c1.33301 -88.667 22.833 -150.834 64.5 -186.501
s86.834 -53.5 135.501 -53.5c46.667 0 96 16.5 148 49.5s98.333 86.833 139 161.5c23.333 44 46.166 109.667 68.499 197s33.5 158.333 33.5 213c0 121.333 -41.333 182 -124 182c-104 0 -196.333 -47 -277 -141c-13.333 -13.333 -24.333 -20.333 -33 -21
c-18 0 -26.667 8.33301 -26 25c0 9.33301 1.33301 18.333 4 27l155 622c6.66699 23.333 15 35 25 35c5.33301 0 15 -3.33301 29 -10c64 -35.333 140.333 -53.333 229 -54c90 0 178 19.333 264 58c10.667 4 19 6 25 6c12 0 18 -6.16699 18 -18.5s-17.333 -33.833 -52 -64.5
s-85.167 -61 -151.5 -91s-133.5 -45 -201.5 -45c-52 0 -94.333 6 -127 18c-13.333 4 -22.333 6 -27 6c-2.66699 0 -6 -8 -10 -24l-94 -377c80.667 62.667 165.334 94 254.001 94c84.667 0 150.5 -31 197.5 -93s70.5 -136.667 70.5 -224
c0 -152.667 -56 -288.834 -168 -408.501s-235 -179.5 -369 -179.5c-83.333 0 -148.166 27.667 -194.499 83s-69.5 122.666 -69.5 201.999z" />
    <glyph glyph-name="six" unicode="6" 
d="M246 324c0 96.667 17 212.501 51 347.501s90 257.167 168 366.5c74 104 154.667 184.333 242 241s173.333 85 258 85c61.333 0 109.666 -14.333 144.999 -43s53 -68.334 53 -119.001c0 -39.333 -9.16699 -71.666 -27.5 -96.999s-44.5 -38 -78.5 -38
c-24.667 0 -42.5 6.5 -53.5 19.5s-16.5 28.5 -16.5 46.5c0 9.33301 1.66699 20.166 5 32.499s14 26.333 32 42s42 23.5 72 23.5c-15.333 54.667 -59.666 82 -132.999 82c-104 0 -203 -59.333 -297 -178c-78 -100 -141.667 -247 -191 -441c80.667 118.667 173 178 277 178
c54.667 0 101.667 -11.5 141 -34.5s69 -52.333 89 -88s34.333 -69.834 43 -102.501s13 -64 13 -94c0 -152.667 -53.833 -290.5 -161.5 -413.5s-226.5 -184.5 -356.5 -184.5c-52 0 -96.667 11.667 -134 35s-64.5 49.333 -81.5 78s-30.333 63.334 -40 104.001
s-15.167 70.667 -16.5 90s-2 40 -2 62zM379 199.001c0 -44 10.834 -86.167 32.501 -126.5s59.167 -60.5 112.5 -60.5c101.333 0 186 61.667 254 185c20.667 40.667 44.667 114.667 72 222s41 184 41 230c0 53.333 -12.333 96.333 -37 129
c-23.333 32.667 -59.666 49 -108.999 49c-64 0 -120.833 -24.5 -170.5 -73.5s-87.834 -109.333 -114.501 -181s-46.834 -140.167 -60.501 -205.5s-20.5 -121.333 -20.5 -168z" />
    <glyph glyph-name="seven" unicode="7" 
d="M295 885c0 4 3.99902 13.998 11.999 29.998l197 418c6.66699 15.333 12 24.333 16 27s11.667 4 23 4c20.667 0 30.667 -7 30 -21c0 -4 -15.667 -40 -47 -108c90 86 181.667 129 275 129c26 0 46.5 -7.16699 61.5 -21.5s24.167 -29.333 27.5 -45s7 -39.834 11 -72.501
c2.66699 -38 7.83398 -64.333 15.501 -79s21.5 -22 41.5 -22c69.333 0 148 64.333 236 193l31 41c5.33301 4 14 6 26 6c19.333 0 29 -7 29 -21c0 -5.33301 -6 -16.666 -18 -33.999c-105.333 -161.333 -191.333 -314.333 -258 -459
c-108 -229.333 -197.667 -482.666 -269 -759.999c-6.66699 -28.667 -13 -51.167 -19 -67.5s-17.333 -31.666 -34 -45.999s-37 -21.5 -61 -21.5c-19.333 0 -36.166 5.83301 -50.499 17.5s-21.5 28.5 -21.5 50.5c0 8 5.16699 32.167 15.5 72.5s33.833 110.666 70.5 210.999
s83 205.833 139 316.5c46.667 92.667 139 252.334 277 479.001c-30 -15.333 -61 -23 -93 -23c-40.667 0 -74 23.333 -100 70c-19.333 30 -33.333 49.5 -42 58.5s-22.667 13.5 -42 13.5c-23.333 0 -49 -4.16699 -77 -12.5s-61 -23.5 -99 -45.5s-78.5 -57.167 -121.5 -105.5
s-82.5 -107.166 -118.5 -176.499c-6.66699 -10.667 -17.334 -16.334 -32.001 -17.001c-20.667 0.666992 -31 7.66699 -31 21z" />
    <glyph glyph-name="eight" unicode="8" 
d="M199 236c0 28.667 4.33398 58.333 13.001 89s25 67.5 49 110.5s63.667 86.667 119 131s124 85.5 206 123.5c-62.667 56 -98.334 89.667 -107.001 101c-32.667 42 -49 94.333 -49 157c0 104 44 199.333 132 286s187.333 130 298 130c76.667 0 141.667 -21.5 195 -64.5
s80 -102 80 -177s-28 -145.667 -84 -212s-135.333 -124.166 -238 -173.499c84.667 -74 131 -115.667 139 -125c39.333 -53.333 59.333 -115.333 60 -186c0 -118.667 -50.5 -226.834 -151.5 -324.501s-215.833 -146.5 -344.5 -146.5c-90 0 -165.333 26 -226 78
s-91 119.667 -91 203zM301.001 230.999c0 -65.333 20.5 -118.167 61.5 -158.5s94.167 -60.5 159.5 -60.5c94 0 179 34.167 255 102.5s114 143.5 114 225.5c0 28.667 -5.5 54.667 -16.5 78s-21.667 40.333 -32 51s-26.833 26.334 -49.5 47.001l-168 141
c-98 -46.667 -176.5 -109.834 -235.5 -189.501s-88.5 -158.5 -88.5 -236.5zM543.001 1042c0 -52 19.001 -93.335 57.001 -124.002l156 -132c9.33301 -9.33301 15.333 -14 18 -14c4 0 15 5.16699 33 15.5s40.167 26.333 66.5 48s52.166 45.834 77.499 72.501
s46.833 59.834 64.5 99.501s26.5 79.167 26.5 118.5c0 58.667 -17.333 104.5 -52 137.5s-80 49.5 -136 49.5c-79.333 0 -151 -28.167 -215 -84.5s-96 -118.5 -96 -186.5z" />
    <glyph glyph-name="nine" unicode="9" 
d="M213 119c0 38 9.16504 69.6689 27.498 95.002s44.5 38 78.5 38c24.667 0 42.5 -6.5 53.5 -19.5s16.5 -28.5 16.5 -46.5c0 -8 -1.33301 -17.833 -4 -29.5s-12.5 -25.667 -29.5 -42s-40.5 -25.833 -70.5 -28.5c22 -49.333 73 -74 153 -74
c92.667 0 182.334 53.333 269.001 160c80.667 102.667 145.334 254.334 194.001 455.001c-78 -118.667 -170 -178 -276 -178c-45.333 0 -85.333 8.16699 -120 24.5s-62.334 36.666 -83.001 60.999s-37.5 52 -50.5 83s-21.833 58.667 -26.5 83s-7 47.5 -7 69.5
c0 151.333 54.667 288.166 164 410.499s230.666 183.5 363.999 183.5c50.667 0 94.167 -11.333 130.5 -34s63 -48.334 80 -77.001s29.833 -63 38.5 -103s13.834 -69.667 15.501 -89s2.5 -40 2.5 -62c0 -46.667 -4.5 -103 -13.5 -169s-32.667 -156 -71 -270
s-88.166 -214.667 -149.499 -302c-57.333 -82 -127 -153 -209 -213s-167.333 -90 -256 -90c-65.333 0 -118.5 14 -159.5 42s-61.5 68.667 -61.5 122zM484.998 672.002c0 -118.667 48.6689 -178.001 146.002 -178.001c65.333 0 123.666 25.5 174.999 76.5s90 113 116 186
s45.333 142 58 207s19 119.167 19 162.5c0 52 -10.833 96.167 -32.5 132.5s-56.5 54.5 -104.5 54.5c-44 0 -86 -13.333 -126 -40s-68.833 -51.667 -86.5 -75s-32.834 -46.666 -45.501 -69.999c-27.333 -48 -54 -125 -80 -231s-39 -181 -39 -225z" />
    <glyph glyph-name="colon" unicode=":" horiz-adv-x="626" 
d="M231 88c0 32.667 14.001 62.332 42.001 88.999s58.667 40 92 40c27.333 0 49.166 -8.83301 65.499 -26.5s24.5 -38.167 24.5 -61.5c0 -31.333 -13.667 -60.666 -41 -87.999s-58 -41 -92 -41c-27.333 0 -49.333 8.16699 -66 24.5s-25 37.5 -25 63.5zM397.001 753.998
c0 32.667 13.666 62.334 40.999 89.001s58 40 92 40c27.333 0 49.333 -8.66699 66 -26s25 -38 25 -62c0 -32.667 -13.667 -62.334 -41 -89.001s-58.333 -40 -93 -40c-27.333 0 -49.166 8.5 -65.499 25.5s-24.5 37.833 -24.5 62.5z" />
    <glyph glyph-name="semicolon" unicode=";" horiz-adv-x="628" 
d="M150 -375c0 5.33301 8.66699 16.998 26 34.998c125.333 106.667 202 230.334 230 371.001c-26 -20.667 -54 -31 -84 -31c-60 0 -90.333 28.667 -91 86c0 32.667 12.667 62.667 38 90s57.333 41 96 41c62.667 0 94 -40.333 94 -121c0 -74 -21.833 -151.167 -65.5 -231.5
s-88 -143.666 -133 -189.999s-75.167 -69.5 -90.5 -69.5c-13.333 0 -20 6.66699 -20 20zM397 753.998c0 31.333 13.334 60.666 40.001 87.999s57 41 91 41c26 0 47.333 -8.5 64 -25.5s25 -37.833 25 -62.5c0 -31.333 -13.333 -60.666 -40 -87.999s-57.334 -41 -92.001 -41
c-26 0 -47.167 8.5 -63.5 25.5s-24.5 37.833 -24.5 62.5z" />
    <glyph glyph-name="less" unicode="&#x3c;" horiz-adv-x="1568" 
d="M340 512c0 10.667 19 24.999 57 42.999l1170 518c15.333 6.66699 25.333 10 30 10c15.333 0 23 -6.66699 23 -20c0 -12 -13.667 -23.667 -41 -35l-12 -6l-1032 -457l-39 -17l-45.5 -20.5l-38.5 -17.5v-2c19.333 -9.33301 39 -20.333 59 -33l842 -481
c20.667 -13.333 30.667 -25 30 -35c0 -12 -6.66699 -18 -20 -18c-8 0 -21 5.33301 -39 16l-891 508c-35.333 20.667 -53 36.334 -53 47.001z" />
    <glyph glyph-name="equal" unicode="=" horiz-adv-x="1568" 
d="M238 313.5c0 15 17.002 22.5 51.002 22.5h1143c22 0 35.667 -1.33301 41 -4c6.66699 -2.66699 10.667 -7.5 12 -14.5s-0.833984 -13.167 -6.50098 -18.5s-22.834 -8 -51.501 -8h-1144c-30 0 -45 7.5 -45 22.5zM338.002 711c0 15.333 13.667 22.667 41 22h1165
c26 0 39 -7.5 39 -22.5s-17 -22.5 -51 -22.5h-1094c-5.33301 0 -12.833 -0.333008 -22.5 -1s-17.167 -1 -22.5 -1h-6c-32.667 0 -49 8.33301 -49 25z" />
    <glyph glyph-name="greater" unicode="&#x3e;" horiz-adv-x="1568" 
d="M203 -39c0 12 13.666 23.667 40.999 35l12 6l1032 457l39 17l45.5 20.5l38.5 17.5v2c-13.333 6.66699 -59.666 32.667 -138.999 78l-762 434c-20.667 12 -31 24.167 -31 36.5s7 18.5 21 18.5c4 0 14 -4 30 -12l900 -512c35.333 -20.667 53 -36.334 53 -47.001
s-19.333 -25 -58 -43l-1142 -506c-34 -15.333 -53.333 -22.666 -58 -21.999c-14.667 0 -22 6.66699 -22 20z" />
    <glyph glyph-name="question" unicode="?" 
d="M397 948c0 19.333 6.50098 48.501 19.501 87.501s33.5 83.333 61.5 133s60.5 96.667 97.5 141s82.833 81.5 137.5 111.5s111.334 45 170.001 45c74 0 133.333 -23.833 178 -71.5s67 -108.5 67 -182.5c0 -46.667 -7.16699 -90 -21.5 -130s-35 -76 -62 -108
s-49.833 -57 -68.5 -75s-43 -38.333 -73 -61l-160 -129c-72.667 -56 -118.834 -96 -138.501 -120s-29.5 -54.333 -29.5 -91c0 -46.667 17.333 -70 52 -70c32.667 0 64.667 13 96 39s54 59.333 68 100c4 13.333 7.66699 21.833 11 25.5s11 5.5 23 5.5
c20.667 0 31 -6.66699 31 -20c0 -32.667 -22.833 -73.334 -68.5 -122.001s-99.167 -73 -160.5 -73c-39.333 0 -69.666 14.333 -90.999 43s-32 62 -32 100c0 39.333 9.5 76.833 28.5 112.5s35.333 60.334 49 74.001s34.834 32.167 63.501 55.5l248 195
c30 26 53.833 47.5 71.5 64.5s37.5 45.667 59.5 86s33 82.833 33 127.5c0 57.333 -16.833 101.666 -50.5 132.999s-74.834 47 -123.501 47c-80.667 0 -156.834 -35.5 -228.501 -106.5s-126.834 -159.5 -165.501 -265.5c52 0 78 -22 78 -66
c0 -27.333 -9.83301 -50.833 -29.5 -70.5s-43.167 -29.5 -70.5 -29.5c-46.667 -0.666992 -70 21 -70 65zM440.001 88.001c0 34 13.666 64.001 40.999 90.001s57.333 39 90 39c28.667 0 51.334 -8.83301 68.001 -26.5s25 -38.167 25 -61.5
c0 -32.667 -13.667 -62.334 -41 -89.001s-58.333 -40 -93 -40c-26 0 -47.5 8.16699 -64.5 24.5s-25.5 37.5 -25.5 63.5z" />
    <glyph glyph-name="at" unicode="@" horiz-adv-x="1568" 
d="M309 508c0 116 24.332 231.337 72.999 346.004s111.5 215 188.5 301s166 155.667 267 209s202.167 80 303.5 80c135.333 0 248.333 -47.833 339 -143.5s136 -225.5 136 -389.5c0 -102.667 -29.333 -241.667 -88 -417c-56 -154 -136.667 -231.333 -242 -232
c-19.333 0 -38.833 2.83301 -58.5 8.5s-40 19 -61 40s-32.167 49.167 -33.5 84.5c-92.667 -88.667 -185.667 -133 -279 -133c-80.667 0 -148 29.333 -202 88s-81 137.334 -81 236.001c0 144.667 52.333 276.334 157 395.001s218.334 178 341.001 178c108 0 185 -58 231 -174
h54c13.333 0 22.5 -0.333008 27.5 -1s9.5 -2.33398 13.5 -5.00098s6 -7.33398 6 -14.001c0 -9.33301 -1.33301 -18.333 -4 -27l-133 -539c-4 -24.667 -6.33301 -38.334 -7 -41.001c0 -34 12.333 -51 37 -51c42 0 80.833 26.667 116.5 80s63.5 116.5 83.5 189.5
s35 140.5 45 202.5s15 108.333 15 139c0 139.333 -37.833 254.333 -113.5 345s-176.167 136 -301.5 136c-120 0 -239.5 -42 -358.5 -126s-216.667 -196 -293 -336s-114.5 -284.333 -114.5 -433c0 -138 36.833 -252.667 110.5 -344s178.167 -137 313.5 -137
c173.333 0 349.333 40.667 528 122c22 9.33301 45.333 14.333 70 15c15.333 0 26 -0.333008 32 -1s10.667 -2.33398 14 -5.00098s5 -7.66699 5 -15c0 -13.333 -39 -33.333 -117 -60s-140 -45.334 -186 -56.001c-118.667 -30 -234.667 -45.333 -348 -46
c-154 0 -273.5 51.667 -358.5 155s-127.5 228.666 -127.5 375.999zM695.999 553.004c0 -60 12.9971 -115.997 38.9971 -167.997s67.667 -78 125 -78c62.667 0 126.834 29.333 192.501 88s103.834 110 114.501 154l82 332c0 1.33301 1.33301 6.66602 4 15.999l2 12
c0 10.667 -2.66699 25.667 -8 45s-14.166 41.666 -26.499 66.999s-31.833 47.166 -58.5 65.499s-57.667 27.5 -93 27.5c-87.333 0 -171.333 -60 -252 -180s-121 -247 -121 -381z" />
    <glyph glyph-name="A" unicode="A" horiz-adv-x="1521" 
d="M121 29c0 18 7.50195 28.9951 22.502 32.9951s33.667 6.33301 56 7s51.333 14.334 87 41.001s69.834 67 102.501 121l670 1180c1.33301 1.33301 3.66602 5.5 6.99902 12.5s6.66602 12.167 9.99902 15.5l12.5 13c5 5.33301 10.5 9 16.5 11s12.333 3 19 3
c5.33301 0 10.166 -0.333008 14.499 -1s7.83301 -2.66699 10.5 -6s4.66699 -5.66602 6 -6.99902s2.66602 -4.66602 3.99902 -9.99902s2 -8.66602 2 -9.99902s0.666992 -5.66602 2 -12.999v-10l88 -1272c1.33301 -31.333 8.83301 -51 22.5 -59s41.834 -13 84.501 -15
c36.667 0 55 -9.33301 55 -28c0 -23.333 -13.667 -35 -41 -35c-6.66699 0 -31.167 1 -73.5 3s-88.166 3 -137.499 3c-46.667 0 -87.334 -0.333008 -122.001 -1s-60.5 -1.66699 -77.5 -3s-26.833 -2 -29.5 -2c-20.667 0 -31 9.66699 -31 29c0 13.333 5.5 22.833 16.5 28.5
s24.333 8 40 7s33.667 0.666992 54 5s38.166 12.5 53.499 24.5c10.667 9.33301 16 28 16 56c0 8 -1 24.333 -3 49s-4.66699 62.5 -8 113.5s-7 103.833 -11 158.5h-467l-40 -71l-35 -60.5l-28.5 -49c-10.333 -17.667 -18.166 -31.667 -23.499 -42l-17.5 -32.5
c-6.33301 -11.333 -10.833 -20.5 -13.5 -27.5s-5.66699 -14.167 -9 -21.5s-5.33301 -13.5 -6 -18.5s-1 -10.167 -1 -15.5c0 -19.333 5.83301 -34.333 17.5 -45s24.667 -16.667 39 -18s27.166 -4.5 38.499 -9.5s17 -12.167 17 -21.5c0 -26 -13.667 -39 -41 -39
c-4 0 -13.833 0.666992 -29.5 2s-37.167 2.33301 -64.5 3s-56.666 1 -87.999 1c-26 0 -55 -1 -87 -3s-50 -3 -54 -3c-30 0 -45 9.66699 -45 29zM629.002 531.995h426l-45 670z" />
    <glyph glyph-name="B" unicode="B" horiz-adv-x="1439" 
d="M133 25c0 18 4.16699 28.8311 12.5 32.498s22.5 5.5 42.5 5.5c66.667 0 109.334 5.16699 128.001 15.5s32 34.166 40 71.499l277 1112c5.33301 19.333 8 32 8 38c0 15.333 -9.5 25 -28.5 29s-49.167 6 -90.5 6c-15.333 0 -26 0.333008 -32 1s-11.333 2.83398 -16 6.50098
s-7 9.5 -7 17.5c0 18 4.16699 29 12.5 33s22.5 6 42.5 6h637c106.667 0 190.667 -27 252 -81s92 -120 92 -198c0 -82 -36.833 -160.5 -110.5 -235.5s-170.5 -126.167 -290.5 -153.5c80.667 -9.33301 148.167 -38.666 202.5 -87.999s81.5 -114 81.5 -194
c0 -110.667 -52.5 -213.167 -157.5 -307.5s-227.833 -141.5 -368.5 -141.5h-676c-13.333 0 -22.833 0.333008 -28.5 1s-10.834 2.83398 -15.501 6.50098s-7 9.5 -7 17.5zM498 83.998c0 -5.33301 0.667969 -9.33398 2.00098 -12.001s6.66602 -4.83398 15.999 -6.50098
s24.333 -2.5 45 -2.5h254c108 0 199.833 42.667 275.5 128s113.5 180 113.5 284c0 20.667 -2 40.834 -6 60.501s-11.833 43.834 -23.5 72.501s-32.5 52 -62.5 70s-67 27 -111 27h-352l-143 -576c0 -1.33301 -1.33301 -7.83301 -4 -19.5s-4 -20.167 -4 -25.5z
M662.001 749.997h270.001c110.667 0 203.5 40.5 278.5 121.5s112.5 168.167 112.5 261.5c0 20.667 -2 40.5 -6 59.5s-12.167 40.333 -24.5 64s-32.5 42.667 -60.5 57s-62 21.5 -102 21.5h-241c-35.333 0 -58.833 -3.33301 -70.5 -10s-21.834 -27.667 -30.501 -63z" />
    <glyph glyph-name="C" unicode="C" horiz-adv-x="1464" 
d="M307 502c0 155.333 42.3311 306.829 126.998 454.496s194 265.834 328 354.501s269.667 133 407 133c134 0 237.333 -58 310 -174l129 151c12 15.333 22.667 23 32 23c15.333 0 23 -7 23 -21c0 -8 -1.33301 -17.333 -4 -28l-125 -498c-4 -16.667 -8 -27 -12 -31
s-12.333 -6 -25 -6c-20.667 0 -31 7 -31 21c0 1.33301 0.666992 8.83301 2 22.5s3.16602 30.334 5.49902 50.001s3.5 37.167 3.5 52.5c0 102.667 -23.667 190.667 -71 264s-120.666 110 -219.999 110c-82 0 -166.667 -24.167 -254 -72.5
s-164.666 -118.166 -231.999 -209.499c-72.667 -100 -126.667 -216.167 -162 -348.5s-53 -240.833 -53 -325.5c0 -135.333 34.5 -236.833 103.5 -304.5s152.167 -101.5 249.5 -101.5c100 0 201.333 40 304 120s178 199.333 226 358c4 10.667 15 16 33 16
c20.667 0 31 -6.66699 31 -20c0 -28.667 -14.333 -71 -43 -127s-67.667 -115.167 -117 -177.5s-115.666 -116.666 -198.999 -162.999s-171.333 -69.5 -264 -69.5c-144.667 0 -264.5 49.833 -359.5 149.5s-142.5 232.167 -142.5 397.5z" />
    <glyph glyph-name="D" unicode="D" horiz-adv-x="1546" 
d="M129 25c0 18 4.16699 28.832 12.5 32.499s22.5 5.5 42.5 5.5c66.667 0 109.334 5.16699 128.001 15.5s32 34.166 40 71.499l277 1112c5.33301 19.333 8 32 8 38c0 15.333 -9.5 25 -28.5 29s-49.167 6 -90.5 6c-15.333 0 -26 0.333008 -32 1s-11.333 2.83398 -16 6.50098
s-7 9.5 -7 17.5c0 18 4 29 12 33s22.333 6 43 6h639c131.333 0 235.833 -46.5 313.5 -139.5s116.5 -213.833 116.5 -362.5c0 -150 -37.5 -294.667 -112.5 -434s-173 -251.333 -294 -336s-244.833 -127 -371.5 -127h-629c-13.333 0 -22.833 0.333008 -28.5 1
s-10.834 2.83398 -15.501 6.50098s-7 9.5 -7 17.5zM500 83.999c0 -5.33301 0.668945 -9.33203 2.00195 -11.999s6.66602 -4.83398 15.999 -6.50098s24.333 -2.5 45 -2.5h211c157.333 0 294 67.667 410 203c76.667 90 134.667 208.833 174 356.5s59 265.167 59 352.5
c0 124 -31.333 215 -94 273s-140.334 87 -233.001 87h-199c-35.333 0 -58.833 -3.66699 -70.5 -11s-21.5 -28 -29.5 -62l-283 -1133c0 -1.33301 -1.33301 -7.83301 -4 -19.5s-4 -20.167 -4 -25.5z" />
    <glyph glyph-name="E" unicode="E" horiz-adv-x="1388" 
d="M127 25c0 18 4.17285 28.8301 12.5059 32.4971s22.5 5.5 42.5 5.5c66.667 0 109.334 5.16699 128.001 15.5s32 34.166 40 71.499l275 1097c5.33301 20.667 8 36.334 8 47.001c0 8 -1.33301 14.167 -4 18.5s-13.334 8.16602 -32.001 11.499s-46.334 5 -83.001 5
c-16.667 0 -28 0.333008 -34 1s-11 3 -15 7s-6 10.333 -6 19c0 16.667 4 27 12 31s22.333 6 43 6h956c13.333 0 22 -0.333008 26 -1c5.33301 0 11.333 -2 18 -6c5.33301 -2.66699 8 -6.66699 8 -12c0 -1.33301 -0.333008 -2.66602 -1 -3.99902
c-2 -6.66699 -2.33301 -17 -1 -31l-47 -362c-1.33301 -13.333 -2.83301 -22.833 -4.5 -28.5s-4.83398 -9.83398 -9.50098 -12.501s-11.667 -4 -21 -4c-20.667 0 -31 8 -31 24c0 9.33301 1.33301 21 4 35c6.66699 54.667 10 98.334 10 131.001
c0 76.667 -18.667 130.334 -56 161.001s-109.333 46 -216 46h-256c-35.333 0 -58.5 -3.33301 -69.5 -10s-20.5 -26.334 -28.5 -59.001l-125 -504h166c80.667 0 136.334 13 167.001 39s56 76.333 76 151c8 30 15.667 45.667 23 47c4 1.33301 9.33301 2 16 2
c22 0 33 -8 33 -24c0 -5.33301 -2 -14.333 -6 -27l-113 -450c-4 -18 -8 -29.333 -12 -34s-12.333 -7 -25 -7c-22 0 -32.667 8 -32 24c0 2.66699 0.666992 6.83398 2 12.501s2 9.16699 2 10.5c12 45.333 18 80 18 104c0 31.333 -9.5 53.833 -28.5 67.5
s-60.833 20.5 -125.5 20.5h-178l-141 -563c0 -1.33301 -1.33301 -7.83301 -4 -19.5s-4 -20.167 -4 -25.5s0.666992 -9.33301 2 -12s6.83301 -4.83398 16.5 -6.50098s24.5 -2.5 44.5 -2.5h250c64 0 120 6.16699 168 18.5s88 27.5 120 45.5s62 46.333 90 85
s51.167 76.5 69.5 113.5s41.166 88.167 68.499 153.5c9.33301 23.333 16.166 37.333 20.499 42s11.833 7 22.5 7c20.667 0 31 -7.33301 31 -22c0 -5.33301 -2.66699 -13.666 -8 -24.999l-182 -448c-6.66699 -15.333 -12.834 -24.666 -18.501 -27.999s-18.834 -5 -39.501 -5
h-981c-13.333 0 -22.833 0.333008 -28.5 1s-10.834 2.83398 -15.501 6.50098s-7 9.5 -7 17.5z" />
    <glyph glyph-name="F" unicode="F" horiz-adv-x="1335" 
d="M127 25c0 18 4.16309 28.8379 12.4961 32.5049s22.5 5.5 42.5 5.5c66.667 0 109.334 5.16699 128.001 15.5s32 34.166 40 71.499l275 1097c5.33301 20.667 8 36.334 8 47.001c0 8 -1.33301 14.167 -4 18.5s-13.334 8.16602 -32.001 11.499s-46.334 5 -83.001 5
c-16.667 0 -28 0.333008 -34 1s-11 3 -15 7s-6 10.333 -6 19c0 16.667 4 27 12 31s22.333 6 43 6h932c13.333 0 22 -0.333008 26 -1c4.66699 0 10.334 -2 17.001 -6c5.33301 -2.66699 8 -6.66699 8 -12c0 -1.33301 -0.333008 -2.66602 -1 -3.99902
c-2 -6.66699 -2.33301 -17 -1 -31l-47 -362c-1.33301 -13.333 -2.66602 -22.833 -3.99902 -28.5s-4.5 -9.83398 -9.5 -12.501s-12.167 -4 -21.5 -4c-20.667 0 -31 8 -31 24l2 33c8 62.667 12.333 107.667 13 135c0 75.333 -17.833 128.333 -53.5 159
s-105.834 46 -210.501 46h-240c-35.333 0 -58.5 -3.33301 -69.5 -10s-20.5 -26.334 -28.5 -59.001l-131 -531h159c80.667 0 136 13.333 166 40s54.667 79 74 157c5.33301 19.333 10 31.333 14 36s12.333 7 25 7c20.667 0 31 -7.66699 31 -23c0 -8 -1.66699 -17.333 -5 -28
l-112 -451c-5.33301 -19.333 -10.166 -31 -14.499 -35s-12.5 -6 -24.5 -6c-20.667 0 -31 8.33301 -31 25c0 5.33301 2 14.666 6 27.999c10.667 44 16.334 77.667 17.001 101c0 30 -9.66699 51.833 -29 65.5s-60.333 20.5 -123 20.5h-170l-129 -516
c-5.33301 -20.667 -8 -35.334 -8 -44.001c0 -10.667 1.66699 -18.334 5 -23.001s16.333 -9.16699 39 -13.5s57.667 -6.5 105 -6.5h21c13.333 0 22.833 -0.333008 28.5 -1s10.834 -2.66699 15.501 -6s7 -9 7 -17c0 -26 -14.333 -39 -43 -39c-30 0 -76.667 1 -140 3
s-110.666 3 -141.999 3c-27.333 0 -69 -1 -125 -3s-97.667 -3 -125 -3c-19.333 -0 -29 8.33301 -29 25z" />
    <glyph glyph-name="G" unicode="G" horiz-adv-x="1583" 
d="M307 502c0 155.333 42.3311 306.833 126.998 454.5s194 265.834 328 354.501s269.667 133 407 133c134 0 237.333 -58 310 -174l129 151c12 15.333 22.667 23 32 23c15.333 0 23 -7 23 -21c0 -8 -1.33301 -17.333 -4 -28l-125 -498c-4 -16.667 -8 -27 -12 -31
s-12.333 -6 -25 -6c-20.667 0 -31 7 -31 21c0 1.33301 0.666992 8.83301 2 22.5s3.16602 30.334 5.49902 50.001s3.5 37.167 3.5 52.5c0 102.667 -23.667 190.667 -71 264s-120.666 110 -219.999 110c-82 0 -166.667 -24.167 -254 -72.5
s-164.666 -118.166 -231.999 -209.499c-74 -101.333 -128.333 -217.833 -163 -349.5s-52 -239.167 -52 -322.5c0 -130 34.5 -230.5 103.5 -301.5s155.5 -106.5 259.5 -106.5c109.333 0 202 35 278 105c30 27.333 50.167 53.666 60.5 78.999s27.166 86.333 50.499 183
c10.667 38 16 61.333 16 70c0 9.33301 -2.33301 16.333 -7 21s-10 7.66699 -16 9s-18 3.66602 -36 6.99902c-35.333 2.66699 -64.666 4 -87.999 4h-16c-35.333 0 -53.333 7.33301 -54 22c0 27.333 14.333 41 43 41s73.167 -1 133.5 -3s105.5 -3 135.5 -3
c22 0 55.5 1 100.5 3s77.5 3 97.5 3c18 0 27 -9 27 -27c0 -16.667 -4.16699 -26.834 -12.5 -30.501s-20.5 -5.5 -36.5 -5.5c-28.667 0 -50.5 -2.83301 -65.5 -8.5s-24.333 -12.167 -28 -19.5s-8.16699 -20.666 -13.5 -39.999l-98 -391c-6.66699 -23.333 -15 -35 -25 -35
c-10.667 0 -25.167 13.667 -43.5 41s-32.5 54.666 -42.5 81.999c-34 -44 -87.167 -83.333 -159.5 -118s-151.5 -52 -237.5 -52c-147.333 0 -268.166 50.167 -362.499 150.5s-141.5 232.5 -141.5 396.5z" />
    <glyph glyph-name="H" unicode="H" horiz-adv-x="1521" 
d="M127 25c0 18 4.16602 28.834 12.499 32.501s22.5 5.5 42.5 5.5c66.667 0 109.334 5.16699 128.001 15.5s32 34.166 40 71.499l277 1112c5.33301 19.333 8 32 8 38c0 15.333 -9.5 25 -28.5 29s-49.167 6 -90.5 6c-15.333 0 -26 0.333008 -32 1
s-11.333 2.83398 -16 6.50098s-7 9.5 -7 17.5c0 26 13 39 39 39s66.667 -1 122 -3s96.5 -3 123.5 -3s67.5 1 121.5 3s94 3 120 3c19.333 0 29 -9 29 -27c0 -16.667 -4.16699 -27 -12.5 -31s-24.833 -6 -49.5 -6c-62.667 0 -103.167 -5 -121.5 -15s-31.5 -32.333 -39.5 -67
l-123 -493h561l125 502c5.33301 19.333 8 32 8 38c0 15.333 -9.5 25 -28.5 29s-49.167 6 -90.5 6c-15.333 0 -26 0.333008 -32 1s-11.333 2.83398 -16 6.50098s-7 9.5 -7 17.5c0 26 13 39 39 39s66.667 -1 122 -3s96.666 -3 123.999 -3s67.833 1 121.5 3s93.5 3 119.5 3
c19.333 0 29 -9 29 -27c0 -16.667 -4.16699 -27 -12.5 -31s-24.833 -6 -49.5 -6c-62.667 0 -103.167 -5 -121.5 -15s-31.5 -32.333 -39.5 -67l-277 -1108c-5.33301 -20.667 -8 -36.334 -8 -47.001c0 -8 1.33301 -14 4 -18s13.167 -7.83301 31.5 -11.5
s46.166 -5.5 83.499 -5.5c16.667 0 28 -0.333008 34 -1s11 -3 15 -7s6 -10 6 -18c0 -24.667 -13 -37 -39 -37s-66.667 1 -122 3s-96.666 3 -123.999 3s-67.833 -1 -121.5 -3s-93.5 -3 -119.5 -3c-19.333 0 -29 8.33301 -29 25c0 18 4.16699 28.833 12.5 32.5
s22.5 5.5 42.5 5.5c66.667 0 109.334 5.16699 128.001 15.5s32 34.166 40 71.499l135 546h-561l-137 -557c-5.33301 -19.333 -8 -33 -8 -41s1.33301 -14 4 -18s13.167 -7.83301 31.5 -11.5s46.166 -5.5 83.499 -5.5c16.667 0 28 -0.333008 34 -1s11 -3 15 -7s6 -10 6 -18
c0 -24.667 -13 -37 -39 -37s-66.667 1 -122 3s-96.666 3 -123.999 3s-67.833 -1 -121.5 -3s-93.5 -3 -119.5 -3c-19.333 -0 -29 8.33301 -29 25z" />
    <glyph glyph-name="I" unicode="I" horiz-adv-x="788" 
d="M117 27c0 16.667 3.99902 26.834 11.999 30.501s24.333 5.5 49 5.5c66.667 0 110 5.16699 130 15.5s34 33.166 42 68.499l279 1115c4 12 6 24.667 6 38c0 15.333 -10.333 25 -31 29s-53.334 6 -98.001 6c-16.667 0 -28 0.333008 -34 1s-11 3.16699 -15 7.5
s-6 10.5 -6 18.5c0 24.667 12.667 37 38 37c28.667 0 71.834 -1 129.501 -3s99.834 -3 126.501 -3c28.667 0 71 1 127 3s97.667 3 125 3c19.333 0 29 -8.33301 29 -25c0 -18 -4.5 -29 -13.5 -33s-25.5 -6 -49.5 -6c-66.667 0 -109.667 -5 -129 -15s-33 -33 -41 -69
l-277 -1106c-5.33301 -20.667 -8 -35.667 -8 -45s1.33301 -16 4 -20s13.834 -7.83301 33.501 -11.5s49.5 -5.5 89.5 -5.5c16.667 0 28 -0.333008 34 -1s11.333 -2.66699 16 -6s7 -9 7 -17c0 -26 -13.667 -39 -41 -39s-69.333 1 -126 3s-99.334 3 -128.001 3s-71 -1 -127 -3
s-97.667 -3 -125 -3c-18.667 0 -28 9 -28 27z" />
    <glyph glyph-name="J" unicode="J" horiz-adv-x="1075" 
d="M193 176c0 30 4.33496 55.668 13.002 77.001s18.5 37 29.5 47s23.667 17.833 38 23.5s24.5 8.83398 30.5 9.50098s11 1 15 1c23.333 0 43.166 -7.16699 59.499 -21.5s24.5 -33.833 24.5 -58.5c0 -28.667 -11.167 -56 -33.5 -82s-51.833 -39 -88.5 -39
c-12 0 -19.667 0.666992 -23 2c8 -40.667 28.167 -73.334 60.5 -98.001s69.5 -37 111.5 -37c54.667 0 108 29.667 160 89s88 128.666 108 207.999l238 954c5.33301 19.333 8 33 8 41c0 13.333 -3.66699 22.166 -11 26.499s-24 8.5 -50 12.5
c-24.667 2.66699 -56.334 4 -95.001 4h-24c-13.333 0 -22.833 0.333008 -28.5 1s-10.834 2.83398 -15.501 6.50098s-7 9.5 -7 17.5c0 26 14.333 39 43 39c30 0 76 -1 138 -3s108.667 -3 140 -3c23.333 0 58.833 1 106.5 3s82.5 3 104.5 3c19.333 0 29 -8.33301 29 -25
c0 -18 -4.16699 -29 -12.5 -33s-21.833 -6 -40.5 -6c-44 0 -73.5 -4.66699 -88.5 -14s-25.833 -29 -32.5 -59l-240 -967c-23.333 -94 -76.166 -174.167 -158.499 -240.5s-171.5 -99.5 -267.5 -99.5c-68 0 -125.167 20.167 -171.5 60.5s-69.5 93.833 -69.5 160.5z" />
    <glyph glyph-name="K" unicode="K" horiz-adv-x="1572" 
d="M127 25c0 18 4.16602 28.832 12.499 32.499s22.5 5.5 42.5 5.5c66.667 0 109.334 5.16699 128.001 15.5s32 34.166 40 71.499l277 1112c5.33301 19.333 8 32 8 38c0 15.333 -9.5 25 -28.5 29s-49.167 6 -90.5 6c-15.333 0 -26 0.333008 -32 1
s-11.333 2.83398 -16 6.50098s-7 9.5 -7 17.5c0 26 13 39 39 39s66.667 -1 122 -3s96.5 -3 123.5 -3s67.5 1 121.5 3s94 3 120 3c19.333 0 29 -9 29 -27c0 -16.667 -4.16699 -27 -12.5 -31s-24.833 -6 -49.5 -6c-62.667 0 -103.167 -5 -121.5 -15s-31.5 -32.333 -39.5 -67
l-162 -653l721 600c44.667 36 67 67 67 93c0 25.333 -17.667 39.333 -53 42c-19.333 0 -29 8.33301 -29 25c0 26 13 39 39 39c23.333 0 59.666 -1 108.999 -3s86 -3 110 -3c16.667 0 41 1 73 3s55 3 69 3c15.333 0 22.666 -8.33301 21.999 -25
c0 -23.333 -12.333 -36.333 -37 -39c-88.667 -8 -195.667 -64 -321 -168l-377 -313l268 -711c12 -31.333 26.333 -52 43 -62s43.334 -16 80.001 -18c24.667 0 37 -8 37 -24c0 -26 -11.667 -39 -35 -39c-19.333 0 -50 1 -92 3s-73.333 3 -94 3c-26 0 -64.667 -1 -116 -3
s-89.333 -3 -114 -3c-19.333 0 -28.666 9 -27.999 27c0 24.667 13 36.667 39 36c69.333 0 104 22.667 104 68c0 6.66699 -4 20.334 -12 41.001l-213 571l-285 -235l-71 -295c-18 -64 -27 -102.333 -27 -115c0 -8 1.33301 -14 4 -18s13.167 -7.83301 31.5 -11.5
s46.166 -5.5 83.499 -5.5c16.667 0 28 -0.333008 34 -1s11 -3 15 -7s6 -10 6 -18c0 -24.667 -13 -37 -39 -37s-66.667 1 -122 3s-96.666 3 -123.999 3s-67.833 -1 -121.5 -3s-93.5 -3 -119.5 -3c-19.333 -0 -29 8.33301 -29 25z" />
    <glyph glyph-name="L" unicode="L" horiz-adv-x="1284" 
d="M127 25c0 18 4.16895 28.832 12.502 32.499s22.5 5.5 42.5 5.5c66.667 0 109.334 5.16699 128.001 15.5s32 34.166 40 71.499l277 1112c5.33301 19.333 8 32 8 38c0 15.333 -9.5 25 -28.5 29s-49.167 6 -90.5 6c-15.333 0 -26 0.333008 -32 1
s-11.333 2.83398 -16 6.50098s-7 9.5 -7 17.5c0 26 13 39 39 39c27.333 0 69 -1 125 -3s98.333 -3 127 -3c31.333 0 78.666 1 141.999 3s110 3 140 3c20.667 0 31 -8.33301 31 -25c0 -18 -4.16699 -29 -12.5 -33s-23.166 -6 -44.499 -6h-21
c-79.333 0 -129.5 -5.83301 -150.5 -17.5s-36.167 -36.5 -45.5 -74.5l-279 -1114c0 -1.33301 -1.33301 -7.83301 -4 -19.5s-4 -20.167 -4 -25.5s0.666992 -9.33301 2 -12s6.83301 -4.83398 16.5 -6.50098s24.5 -2.5 44.5 -2.5h166c61.333 0 116.666 9.66699 165.999 29
s89 41 119 65s58.667 58.167 86 102.5s46.833 80.5 58.5 108.5s26.167 66.333 43.5 115c8 20.667 13.833 33.334 17.5 38.001s11.5 7 23.5 7c20.667 0 31 -8 31 -24l-4 -12c-2.66699 -8 -4 -13 -4 -15l-156 -440c-6.66699 -18 -12.834 -28.667 -18.501 -32
s-19.167 -5 -40.5 -5h-877c-13.333 0 -22.833 0.333008 -28.5 1s-10.834 2.83398 -15.501 6.50098s-7 9.5 -7 17.5z" />
    <glyph glyph-name="M" unicode="M" horiz-adv-x="1835" 
d="M135 25c0 26 13.002 38.6689 39.002 38.002c53.333 2.66699 96.333 14 129 34s56 56.667 70 110l262 1055c5.33301 19.333 8 32 8 38c0 15.333 -9.5 25 -28.5 29s-49.167 6 -90.5 6c-15.333 0 -26 0.333008 -32 1s-11.333 2.83398 -16 6.50098s-7 9.5 -7 17.5
c0 18 4.16699 29 12.5 33s22.5 6 42.5 6h273c26 0 41.667 -2.16699 47 -6.5s8.66602 -17.166 9.99902 -38.499l115 -1149l696 1157c10.667 18 19.834 28.667 27.501 32s23.167 5 46.5 5h262c13.333 0 23.166 -0.333008 29.499 -1s11.5 -3.16699 15.5 -7.5s6 -10.5 6 -18.5
c0 -16.667 -4 -27 -12 -31s-24.333 -6 -49 -6c-62.667 0 -103.334 -5 -122.001 -15s-32 -32.333 -40 -67l-277 -1108c-5.33301 -20.667 -8 -36.334 -8 -47.001c0 -8 1.33301 -14 4 -18s13.334 -7.83301 32.001 -11.5s46.334 -5.5 83.001 -5.5c16.667 0 28 -0.333008 34 -1
s11 -3 15 -7s6 -10 6 -18c0 -24.667 -13 -37 -39 -37c-24.667 0 -63.834 1 -117.501 3s-93.5 3 -119.5 3s-65.333 -1 -118 -3s-91.334 -3 -116.001 -3c-19.333 0 -28.666 8.33301 -27.999 25c0 18 4 28.833 12 32.5s22.333 5.5 43 5.5
c66.667 0 109.334 5.16699 128.001 15.5s32 34.166 40 71.499l289 1159h-2l-764 -1272c-13.333 -24.667 -29.666 -37 -48.999 -37c-9.33301 0 -16.5 2 -21.5 6s-8.16699 8.5 -9.5 13.5s-2.66602 14.833 -3.99902 29.5l-125 1241h-2l-273 -1087c-5.33301 -22 -8 -39 -8 -51
c0 -10.667 1 -19.834 3 -27.501s6.5 -16.334 13.5 -26.001s19.333 -17.5 37 -23.5s40.167 -10 67.5 -12c26 0 39 -8.66699 39 -26c0 -24.667 -12.333 -37 -37 -37c-20.667 0 -53.834 1 -99.501 3s-79.334 3 -101.001 3s-54.334 -1 -98.001 -3s-75.834 -3 -96.501 -3
c-18 -0 -27 8.33301 -27 25z" />
    <glyph glyph-name="N" unicode="N" horiz-adv-x="1521" 
d="M127 25c0 26 12.998 38.668 38.998 38.001c109.333 4 175.666 52 198.999 144l270 1085c4 13.333 6 22.333 6 27c0 10.667 -41.667 16 -125 16c-15.333 0 -26 0.333008 -32 1s-11.333 2.83398 -16 6.50098s-7 9.5 -7 17.5c0 18 4 29 12 33s22.333 6 43 6h256
c22 0 35.333 -1.66699 40 -5s10.334 -13.333 17.001 -30l383 -1065l226 899c5.33301 22 8 38.333 8 49c0 56 -41 85.333 -123 88c-24.667 0 -37 8.33301 -37 25c0 26 12.333 39 37 39c20.667 0 53.5 -1 98.5 -3s78.333 -3 100 -3s54.834 1 99.501 3s77 3 97 3
c18 0 27 -9 27 -27c0 -24.667 -10.333 -37 -31 -37c-116 -4 -185 -50.333 -207 -139l-286 -1155c-5.33301 -18 -10.5 -29.333 -15.5 -34s-13.5 -7 -25.5 -7c-13.333 0 -22.166 1.66699 -26.499 5s-9.16602 13.333 -14.499 30l-441 1222l-264 -1054
c-5.33301 -22 -8 -39 -8 -51c0 -10.667 1 -19.834 3 -27.501s6.5 -16.334 13.5 -26.001s19.333 -17.5 37 -23.5s40.167 -10 67.5 -12c26 0 39 -8.66699 39 -26c0 -24.667 -12.333 -37 -37 -37c-20.667 0 -53.834 1 -99.501 3s-79.5 3 -101.5 3s-54.833 -1 -98.5 -3
s-75.5 -3 -95.5 -3c-18 -0 -27 8.33301 -27 25z" />
    <glyph glyph-name="O" unicode="O" horiz-adv-x="1568" 
d="M303 483c0 154 40.666 305.833 121.999 455.5s187.833 271.334 319.5 365.001s265.834 140.5 402.501 140.5c134 0 245.333 -48.167 334 -144.5s133 -226.5 133 -390.5c0 -160 -41.333 -314.333 -124 -463s-188.834 -267.667 -318.501 -357s-262.167 -134 -397.5 -134
c-139.333 0 -252.666 49.167 -339.999 147.5s-131 225.166 -131 380.499zM486.999 420c0 -122.667 27 -222.003 81 -298.003s127.333 -114 220 -114c79.333 0 161.333 30.333 246 91s159 146.334 223 257.001c53.333 91.333 97.166 197.833 131.499 319.5
s51.5 228.167 51.5 319.5c0 130 -29.667 228.833 -89 296.5s-132 101.5 -218 101.5c-87.333 0 -174.166 -32.167 -260.499 -96.5s-157.5 -146.166 -213.5 -245.499c-62.667 -109.333 -107 -223.666 -133 -342.999s-39 -215.333 -39 -288z" />
    <glyph glyph-name="P" unicode="P" horiz-adv-x="1388" 
d="M129 25c0 18 4.16602 28.832 12.499 32.499s22.5 5.5 42.5 5.5c66.667 0 109.334 5.16699 128.001 15.5s32 34.166 40 71.499l277 1112c5.33301 19.333 8 32 8 38c0 15.333 -9.5 25 -28.5 29s-49.167 6 -90.5 6c-15.333 0 -26 0.333008 -32 1
s-11.333 2.83398 -16 6.50098s-7 9.5 -7 17.5c0 18 4 29 12 33s22.333 6 43 6h615c109.333 0 197 -28.667 263 -86s99 -129.666 99 -216.999c0 -117.333 -56 -221.5 -168 -312.5s-234 -136.5 -366 -136.5h-318l-125 -508c-5.33301 -19.333 -8 -33 -8 -41s1.33301 -14 4 -18
s13.167 -7.83301 31.5 -11.5s46.166 -5.5 83.499 -5.5c16.667 0 28 -0.333008 34 -1s11 -3 15 -7s6 -10 6 -18c0 -24.667 -13 -37 -39 -37s-66.667 1 -122 3s-96.666 3 -123.999 3s-67.833 -1 -121.5 -3s-93.5 -3 -119.5 -3c-19.333 -0 -29 8.33301 -29 25zM650.999 699.999
h258c126.667 0 225.667 39.667 297 119c34 39.333 60.667 96 80 170s29 128 29 162c0 62.667 -22.167 109 -66.5 139s-104.833 45 -181.5 45h-176c-36.667 0 -60.5 -3.33301 -71.5 -10s-20.5 -27.667 -28.5 -63z" />
    <glyph glyph-name="Q" unicode="Q" horiz-adv-x="1568" 
d="M303 483c0 154 40.665 305.83 121.998 455.497s187.833 271.334 319.5 365.001s265.834 140.5 402.501 140.5c134 0 245.333 -48.167 334 -144.5s133 -226.5 133 -390.5c0 -184 -55.667 -361 -167 -531s-251 -292 -419 -366c1.33301 -86 12.333 -143.667 33 -173
s50.667 -44 90 -44c42 0 84.5 16.833 127.5 50.5s75.5 83.834 97.5 150.501c5.33301 18 13.666 27 24.999 27c15.333 0 22.666 -8.33301 21.999 -25c0 -4 -3.33301 -18.333 -10 -43s-18.167 -57.167 -34.5 -97.5s-36.166 -79.166 -59.499 -116.499
s-54.5 -69.666 -93.5 -96.999s-80.167 -41 -123.5 -41c-108 0 -162 62.667 -162 188c0 40.667 7 105.667 21 195c-61.333 -20.667 -123.666 -31 -186.999 -31c-139.333 0 -252.666 49.167 -339.999 147.5s-131 225.166 -131 380.499zM476.998 413.997
c0 -83.333 15.332 -160.169 45.999 -230.502s79.667 -121.166 147 -152.499c-6.66699 18 -10.334 37 -11.001 57c0 52 19.5 100.833 58.5 146.5s85.833 68.5 140.5 68.5c100 0 154.667 -72.333 164 -217c76.667 49.333 144.334 116.333 203.001 201s102.667 171.667 132 261
s50.833 170.833 64.5 244.5s20.5 137.167 20.5 190.5c0 122.667 -28 221.667 -84 297s-131 113 -225 113c-76.667 0 -155.667 -27 -237 -81s-152.666 -128 -213.999 -222c-68 -105.333 -119.167 -223.166 -153.5 -353.499s-51.5 -237.833 -51.5 -322.5zM704.997 87.9941
c0 -54.667 27.668 -82.001 83.001 -82.001c57.333 0 117.666 15.667 180.999 47c1.33301 10.667 2 29.834 2 57.501s-1 49.667 -3 66s-12 34 -30 53s-44 28.5 -78 28.5c-42 0 -78.333 -18.5 -109 -55.5s-46 -75.167 -46 -114.5z" />
    <glyph glyph-name="R" unicode="R" horiz-adv-x="1492" 
d="M129 25c0 18 4.16895 28.833 12.502 32.5s22.5 5.5 42.5 5.5c66.667 0 109.334 5.16699 128.001 15.5s32 34.166 40 71.499l277 1112c5.33301 19.333 8 32 8 38c0 15.333 -9.5 25 -28.5 29s-49.167 6 -90.5 6c-15.333 0 -26 0.333008 -32 1s-11.333 2.83398 -16 6.50098
s-7 9.5 -7 17.5c0 18 4 29 12 33s22.333 6 43 6h541c124 0 223.5 -29.333 298.5 -88s112.5 -130.334 112.5 -215.001c0 -80.667 -37.167 -158.834 -111.5 -234.501s-180.5 -131.5 -318.5 -167.5c53.333 -19.333 96.166 -49.666 128.499 -90.999s48.5 -90 48.5 -146
c0 -36.667 -5.66699 -97 -17 -181c-8 -70.667 -12 -122.334 -12 -155.001c0 -26 1.33301 -46.5 4 -61.5s9.16699 -28.667 19.5 -41s24.833 -18.5 43.5 -18.5c32.667 0 63.167 16 91.5 48s51.166 76 68.499 132l6 20.5c1.33301 4.33301 4.5 7.83301 9.5 10.5s11.5 4 19.5 4
c20.667 0 31 -9 31 -27c0 -12 -6.83301 -34.667 -20.5 -68s-39.667 -69.166 -78 -107.499s-83.5 -57.5 -135.5 -57.5c-70.667 0 -130.667 18.5 -180 55.5s-74 90.833 -74 161.5c0 22 10.333 76.667 31 164c23.333 92.667 35 146.667 35 162
c0 66.667 -18.833 113.334 -56.5 140.001s-83.167 40 -136.5 40h-221l-133 -539c-5.33301 -19.333 -8 -33 -8 -41s1.33301 -14 4 -18s13.167 -7.83301 31.5 -11.5s46.166 -5.5 83.499 -5.5c16.667 0 28 -0.333008 34 -1s11 -3 15 -7s6 -10 6 -18c0 -24.667 -13 -37 -39 -37
c-27.333 0 -68.333 1 -123 3s-95 3 -121 3s-65.5 -1 -118.5 -3s-92.5 -3 -118.5 -3c-19.333 -0 -29 8.33301 -29 25zM657.002 723l207.001 0.000976562c128.667 0 229.667 35.333 303 106c32.667 32.667 59 75.667 79 129s31.667 93.666 35 120.999s5 48.666 5 63.999
c0 36.667 -7.83301 68 -23.5 94s-33.334 45.167 -53.001 57.5s-47.334 21.833 -83.001 28.5s-64 10.334 -85 11.001s-50.167 1 -87.5 1c-69.333 0 -108.666 -1.33301 -117.999 -4c-20.667 -5.33301 -35.667 -28.333 -45 -69z" />
    <glyph glyph-name="S" unicode="S" horiz-adv-x="1150" 
d="M152 -25c0 2.66699 2 11.667 6 27l106 428c4 15.333 8.16699 25 12.5 29s12.5 6 24.5 6c20.667 0 31 -7.66699 31 -23c0 -1.33301 -0.333008 -3.33301 -1 -6s-1 -4.66699 -1 -6c-10.667 -39.333 -16.334 -81 -17.001 -125c0 -98 29.833 -170.333 89.5 -217
s132.5 -70 218.5 -70c88.667 0 167.834 41.333 237.501 124s104.5 172 104.5 268c0 60 -15 109 -45 147c-16.667 18 -33.5 30.667 -50.5 38s-52.833 19.333 -107.5 36l-101 28c-49.333 13.333 -78.666 22.333 -87.999 27c-108.667 50.667 -163 140 -163 268
c0 121.333 48.333 233.333 145 336s206.5 154 329.5 154s211.833 -46.333 266.5 -139l92 114c13.333 16.667 23.666 25 30.999 25c14.667 0 22 -6.33301 22 -19c0 -9.33301 -1.33301 -19.333 -4 -30l-106 -424c-4 -16.667 -8.16699 -27 -12.5 -31s-12.5 -6 -24.5 -6
c-20.667 0 -31 6.66699 -31 20l2 29c6.66699 38 10 75.667 10 113c0 86 -19.333 155.833 -58 209.5s-102.334 80.5 -191.001 80.5c-86 0 -162.833 -36.833 -230.5 -110.5s-101.5 -153.5 -101.5 -239.5c0 -90 34.667 -150 104 -180c15.333 -5.33301 53 -16.333 113 -33
c102.667 -30 167.167 -51.167 193.5 -63.5s51.833 -33.5 76.5 -63.5c45.333 -56 68 -125.667 68 -209c0 -132.667 -49.167 -254.5 -147.5 -365.5s-211.166 -166.5 -338.499 -166.5c-144.667 0 -249 47 -313 141c-36.667 -49.333 -68.667 -88 -96 -116
c-13.333 -16.667 -24.333 -25 -33 -25c-14.667 0 -22 6.66699 -22 20z" />
    <glyph glyph-name="T" unicode="T" horiz-adv-x="1464" 
d="M358 948c0 5.33301 3.66895 17.001 11.002 35.001l120 367c5.33301 18 11.166 28.5 17.499 31.5s20.5 4.5 42.5 4.5h1050c13.333 0 22.833 -0.333008 28.5 -1s11 -2.66699 16 -6s7.5 -9 7.5 -17c0 -12 -0.666992 -21 -2 -27l-62 -366
c-2.66699 -19.333 -6 -31.333 -10 -36s-13 -7 -27 -7c-20.667 0 -30.667 8.66699 -30 26c0 5.33301 1.33301 15.666 4 30.999c13.333 80.667 20 142 20 184c0 64 -16.667 106 -50 126s-103.333 30 -210 30c-60 0 -95.333 -1.33301 -106 -4
c-22 -2.66699 -38 -25.334 -48 -68.001l-274 -1101c-5.33301 -19.333 -8 -32.333 -8 -39c0 -15.333 4 -25.666 12 -30.999s26.333 -9.33301 55 -12c1.33301 0 8.16602 -0.333008 20.499 -1s26.833 -1.5 43.5 -2.5s29.667 -1.5 39 -1.5h31c34 0 51 -7.33301 51 -22
c0 -27.333 -14.333 -41 -43 -41c-34 0 -87.333 1 -160 3s-126.667 3 -162 3c-34 0 -86.5 -1 -157.5 -3s-124.167 -3 -159.5 -3c-23.333 -0 -35 8.33301 -35 25c0 18 4.5 28.833 13.5 32.5s23.5 5.5 43.5 5.5h33c86 0 141.333 5.83301 166 17.5s41.667 36.834 51 75.501
l275 1099c5.33301 16.667 8 31.667 8 45c0 5.33301 -0.666992 9.5 -2 12.5s-5.5 5.5 -12.5 7.5s-17.833 3 -32.5 3h-70c-132.667 0 -223.5 -19.5 -272.5 -58.5s-97.5 -130.167 -145.5 -273.5c-13.333 -35.333 -22 -55 -26 -59s-11.667 -6 -23 -6
c-20.667 -0.666992 -31 6.66602 -31 21.999z" />
    <glyph glyph-name="U" unicode="U" horiz-adv-x="1521" 
d="M414 340c0 44 5.33203 87.666 15.999 130.999l197 791c5.33301 19.333 8 32 8 38c0 15.333 -9.5 25 -28.5 29s-49.167 6 -90.5 6c-15.333 0 -26 0.333008 -32 1s-11.333 2.83398 -16 6.50098s-7 9.5 -7 17.5c0 26 13 39 39 39s66.667 -1 122 -3s96.5 -3 123.5 -3
s67.5 1 121.5 3s94 3 120 3c19.333 0 29 -9 29 -27c0 -16.667 -4.16699 -27 -12.5 -31s-24.833 -6 -49.5 -6c-62.667 0 -103.167 -5 -121.5 -15s-31.5 -32.333 -39.5 -67l-205 -823c-13.333 -60 -20.333 -112 -21 -156c0 -86 21.5 -150.167 64.5 -192.5
s94.5 -63.5 154.5 -63.5c98 0 193.833 42.667 287.5 128s156.5 193 188.5 323l182 729c5.33301 22 8 38.333 8 49c0 56 -41 85.333 -123 88c-24.667 0 -37 8.33301 -37 25c0 26 12.333 39 37 39c20.667 0 53.167 -1 97.5 -3s77.5 -3 99.5 -3s54.5 1 97.5 3s74.5 3 94.5 3
c18 0 27 -9 27 -27c0 -24.667 -10.333 -37 -31 -37c-116 -4 -185 -50.333 -207 -139l-186 -750c-30 -121.333 -97.167 -233.5 -201.5 -336.5s-218.166 -154.5 -341.499 -154.5c-101.333 0 -187.333 34.833 -258 104.5s-106 163.167 -106 280.5z" />
    <glyph glyph-name="V" unicode="V" horiz-adv-x="1521" 
d="M428 1360c0 26 12.3281 39 36.9951 39c22 0 56.5 -1 103.5 -3s82.167 -3 105.5 -3c26 0 65.5 1 118.5 3s91.833 3 116.5 3c19.333 0 29 -8.33301 29 -25c0 -18 -4.16699 -29 -12.5 -33s-21.166 -6 -38.499 -6c-86 0 -129 -21 -129 -63l104 -1073l592 989
c20.667 35.333 31 62.666 31 81.999c0 40.667 -27.333 62.334 -82 65.001c-22 2.66699 -33 11 -33 25c0 26 12.333 39 37 39c19.333 0 50.5 -1 93.5 -3s74.5 -3 94.5 -3c18 0 44.333 1 79 3s60.334 3 77.001 3c18 0 27 -7.66699 27 -23c0 -9.33301 -1 -16.666 -3 -21.999
s-5.83301 -9.5 -11.5 -12.5s-9.5 -4.5 -11.5 -4.5s-6.33301 -0.666992 -13 -2c-45.333 -4 -85.666 -16.833 -120.999 -38.5s-71.666 -64.167 -108.999 -127.5l-702 -1175c-10.667 -18 -19.5 -29 -26.5 -33s-17.167 -6 -30.5 -6c-15.333 0 -25 3 -29 9
s-7.33301 19.333 -10 40l-123 1262c-1.33301 20.667 -4.16602 34.667 -8.49902 42s-14 13.666 -29 18.999s-39.5 8 -73.5 8c-32.667 0 -49 8.33301 -49 25z" />
    <glyph glyph-name="W" unicode="W" horiz-adv-x="2043" 
d="M426 1360c0 26 12.3291 38.999 36.9961 38.999c20.667 0 53.834 -1 99.501 -3s79.5 -3 101.5 -3c24.667 0 62.834 1 114.501 3s90.5 3 116.5 3c19.333 0 29 -8.33301 29 -25c0 -18 -4.16699 -29 -12.5 -33s-21.5 -6 -39.5 -6c-32.667 0 -58.834 -2.66699 -78.501 -8
s-33 -13.833 -40 -25.5s-11.5 -21.167 -13.5 -28.5s-2.33301 -18.666 -1 -33.999l45 -1001l478 876c8 13.333 12 27 12 41c0 69.333 -2.66699 115 -8 137c-2.66699 16.667 -9.5 28 -20.5 34s-37.167 9 -78.5 9c-28.667 0 -43 8.33301 -43 25c0 26 12.333 39 37 39
c20.667 0 53.834 -1 99.501 -3s79.5 -3 101.5 -3c26 0 64.833 1 116.5 3s89.834 3 114.501 3c19.333 0 29 -7.66699 29 -23c0 -12 -2.66699 -21.5 -8 -28.5s-10.166 -10.833 -14.499 -11.5s-10.5 -1 -18.5 -1c-60 -1.33301 -99.167 -8.83301 -117.5 -22.5
s-27.5 -31.167 -27.5 -52.5c0 -8 0.666992 -13 2 -15l45 -1007l518 954c15.333 27.333 22.666 49 21.999 65c0 48 -34.667 74 -104 78c-22 0 -33 8.33301 -33 25c0 26 13 39 39 39c22 0 55.833 -1 101.5 -3s79.5 -3 101.5 -3c16.667 0 42 1 76 3s58.333 3 73 3
c16.667 0 25 -7.66699 25 -23c0 -26 -9.66699 -39.667 -29 -41c-50.667 -4 -91 -17.167 -121 -39.5s-62 -65.166 -96 -128.499l-641 -1175c-13.333 -24.667 -31 -37 -53 -37c-16.667 0 -26.667 3 -30 9s-5.66602 20 -6.99902 42l-45 1020l-563 -1030
c-9.33301 -16.667 -16.833 -27.667 -22.5 -33s-16 -8 -31 -8s-24.5 3 -28.5 9s-6.66699 20 -8 42l-58 1264c-1.33301 19.333 -3 32.666 -5 39.999s-9.83301 13.333 -23.5 18s-35.5 7 -65.5 7c-32.667 0 -49 8.33301 -49 25z" />
    <glyph glyph-name="X" unicode="X" horiz-adv-x="1521" 
d="M104 25c0 24.667 8.33691 37.332 25.0039 37.999c34 2.66699 62.333 5.83398 85 9.50098s55.5 17.5 98.5 41.5s82.833 57 119.5 99l426 485l-211 572c-6.66699 18 -12.667 30.667 -18 38s-17.333 13.666 -36 18.999s-45.667 8 -81 8c-32.667 0 -49 8.33301 -49 25
c0 26 13 39 39 39c22 0 56.5 -1 103.5 -3s82.167 -3 105.5 -3c27.333 0 67.5 1 120.5 3s92.5 3 118.5 3c19.333 0 29 -9 29 -27c0 -24.667 -11 -37 -33 -37c-23.333 -1.33301 -44.5 -6 -63.5 -14s-32.667 -16.167 -41 -24.5s-12.5 -15.166 -12.5 -20.499
c0 -1.33301 1.5 -5.5 4.5 -12.5s4.5 -11.167 4.5 -12.5l149 -407l303 348c28.667 32.667 43 60 43 82c0 34 -24.333 54.333 -73 61c-16.667 0 -25 8.33301 -25 25c0 26 12.333 39 37 39c22 0 57.167 -1 105.5 -3s84.166 -3 107.499 -3c20.667 0 50.667 1 90 3
s68.666 3 87.999 3c18 0 27 -8.16699 27 -24.5s-3.5 -26.666 -10.5 -30.999s-17.833 -7.16602 -32.5 -8.49902c-48 -2.66699 -92.5 -13.834 -133.5 -33.501s-69.667 -37 -86 -52s-36.833 -35.5 -61.5 -61.5l-25 -21l-333 -383l243 -659
c5.33301 -16.667 10.833 -28.334 16.5 -35.001s17.667 -12.834 36 -18.501s45.166 -8.5 80.499 -8.5c13.333 0 22.833 -0.333008 28.5 -1s10.667 -3 15 -7s6.5 -10 6.5 -18c0 -24.667 -12.333 -37 -37 -37c-22 0 -56.833 1 -104.5 3s-83.167 3 -106.5 3
c-26 0 -65.667 -1 -119 -3s-93 -3 -119 -3c-20.667 0 -30.667 8.33301 -30 25c0 23.333 10.667 36 32 38c34 1.33301 62 8.83301 84 22.5s33 26.834 33 39.501l-6 25l-180 489l-394 -449l-2 -4c-2.66699 -5.33301 -5.33398 -9.33301 -8.00098 -12
c-10.667 -15.333 -16 -31.666 -16 -48.999c0 -36.667 23.667 -57.334 71 -62.001c18 0 27 -7.33301 27 -22c0 -27.333 -13 -41 -39 -41c-22 0 -56.833 1 -104.5 3s-83.167 3 -106.5 3c-20.667 0 -51 -1 -91 -3s-69.667 -3 -89 -3c-16.667 -0 -25 8.33301 -25 25z" />
    <glyph glyph-name="Y" unicode="Y" horiz-adv-x="1521" 
d="M414 1360c0 26 13 38.998 39 38.998c22 0 57.167 -1 105.5 -3s84.166 -3 107.499 -3c27.333 0 67.5 1 120.5 3s92.5 3 118.5 3c19.333 0 29 -8.33301 29 -25c0 -18 -3.83301 -29 -11.5 -33s-18.834 -6 -33.501 -6c-76.667 0 -115 -16.333 -115 -49
c0 -4 2.66699 -12.667 8 -26l195 -615l448 547l7 8c4 5.33301 8.33301 11.5 13 18.5s9.33398 14.5 14.001 22.5s8.83398 16.167 12.501 24.5s5.5 15.833 5.5 22.5c0 28.667 -21.333 44.334 -64 47.001c-20.667 0 -31 8.33301 -31 25c0 26 12.333 39 37 39
c20.667 0 52.167 -1 94.5 -3s74.5 -3 96.5 -3c18 0 44.333 1 79 3s60.167 3 76.5 3s24.5 -7.66699 24.5 -23c0 -18 -3 -29 -9 -33s-16 -6.66699 -30 -8c-50.667 -4 -97.167 -18.667 -139.5 -44s-86.5 -66.666 -132.5 -123.999l-484 -587c-8 -9.33301 -16 -28 -24 -56
l-34 -135l-30 -117c-26 -108 -39 -166 -39 -174c0 -15.333 9.66699 -25 29 -29s49.333 -6 90 -6c15.333 0 26 -0.333008 32 -1s11.333 -2.66699 16 -6s7 -9 7 -17c0 -26 -12.833 -39 -38.5 -39s-65.834 1 -120.501 3s-95.667 3 -123 3c-26 0 -65.667 -1 -119 -3
s-93 -3 -119 -3c-19.333 -0 -28.666 8.33301 -27.999 25c0 18 4 28.833 12 32.5s21 5.5 39 5.5c75.333 1.33301 120.833 7.5 136.5 18.5s30.167 45.167 43.5 102.5c62.667 238.667 94 363.667 94 375c0 6.66699 -2.66699 17 -8 31l-217 684
c-6.66699 24.667 -18.667 41 -36 49s-49 12 -95 12c-32.667 0 -49 8.33301 -49 25z" />
    <glyph glyph-name="Z" unicode="Z" horiz-adv-x="1255" 
d="M164 18c0 16.667 7.33203 33.9971 21.999 51.9971l1059 1265h-287c-78 0 -144.5 -9.16699 -199.5 -27.5s-99.333 -46.666 -133 -84.999s-59.667 -75.166 -78 -110.499s-36.166 -81 -53.499 -137c-2.66699 -9.33301 -4.66699 -15.5 -6 -18.5s-3.5 -6.5 -6.5 -10.5
s-6.16699 -6.33301 -9.5 -7s-8.33301 -1 -15 -1c-20.667 0 -31 7.66699 -31 23c0 9.33301 2 18 6 26l111 371c6.66699 19.333 12.667 31 18 35s19 6 41 6h793h22c4 0 8.5 -0.666992 13.5 -2s8.16699 -3.5 9.5 -6.5s2 -6.5 2 -10.5c0 -16.667 -8.33301 -34.334 -25 -53.001
l-1055 -1257h302c69.333 0 130 7.83301 182 23.5s94 34.334 126 56.001s61 53.667 87 96s45.5 80 58.5 113s28.833 78.833 47.5 137.5c8 24.667 14.167 39.334 18.5 44.001s11.833 7 22.5 7c22 0 33 -8.33301 33 -25c0 -8 -3.33301 -19 -10 -33l-139 -452
c-5.33301 -18 -10.833 -28.667 -16.5 -32s-20.167 -5 -43.5 -5h-819c-31.333 0 -47 6 -47 18z" />
    <glyph glyph-name="bracketleft" unicode="[" horiz-adv-x="628" 
d="M129 -483c0 6.66699 1.33008 15.333 3.99707 26l477 1909c10.667 46.667 20.334 72.667 29.001 78c6.66699 4 18.334 6 35.001 6h188c30 0 45 -7.66699 45 -23c0 -16.667 -15.667 -24.667 -47 -24h-112l-488 -1954h96c32.667 0 49.334 -7.33301 50.001 -22
c0 -16.667 -14.667 -25 -44 -25h-188c-30 0 -45 9.66699 -45 29z" />
    <glyph glyph-name="backslash" unicode="\" 
d="M537 1479v20c0 22 6.66699 33 20 33c15.333 0 24.333 -17 27 -51l180 -1938v-20c0 -20.667 -7 -31 -21 -31c-15.333 0 -24 17 -26 51z" />
    <glyph glyph-name="bracketright" unicode="]" horiz-adv-x="628" 
d="M-23 -489c0 16.667 16.002 24.666 48.002 23.999h112l488 1954h-101c-31.333 0 -47 7.33301 -47 22c0 16.667 15 25 45 25h189c30 0 45 -9.66699 45 -29c0 -5.33301 -1.33301 -13.333 -4 -24l-480 -1913c-10.667 -45.333 -19.334 -70.666 -26.001 -75.999
c-6.66699 -4 -18.334 -6 -35.001 -6h-191c-28.667 0 -43 7.66699 -43 23z" />
    <glyph glyph-name="asciicircum" unicode="^" horiz-adv-x="1255" 
d="M508 975c0 12 14.333 27.667 43 47l190 131c124 86 191 129 201 129h2c6.66699 0 16.167 -5.83301 28.5 -17.5s43.833 -44.167 94.5 -97.5l139 -147c19.333 -23.333 29 -37.666 29 -42.999c0 -6.66699 -3.5 -13.834 -10.5 -21.501s-14.5 -11.5 -22.5 -11.5h-2
c-8 0 -20.833 7.83301 -38.5 23.5l-233.5 210.5h-2l-351 -217c-18 -10.667 -31 -16.167 -39 -16.5s-14.667 3 -20 10s-8 13.833 -8 20.5z" />
    <glyph glyph-name="underscore" unicode="_" horiz-adv-x="1568" 
d="M102 -436c0 27.333 20 41 60 41h1026c39.333 0 59 -13.667 59 -41s-19 -41 -57 -41h-1028c-40 0 -60 13.667 -60 41z" />
    <glyph glyph-name="grave" unicode="`" 
d="M561 1257c0 20.667 8.83398 38.5 26.501 53.5s34.834 22.5 51.501 22.5c9.33301 0 18.166 -2.33301 26.499 -7s14.5 -9 18.5 -13s9.5 -10.833 16.5 -20.5s10.5 -15.167 10.5 -16.5l48 -65.5l36.5 -51l27 -37c9 -12.333 15.5 -21.666 19.5 -27.999s7.66699 -12.5 11 -18.5
s5.66602 -10.333 6.99902 -13s2 -5.33398 2 -8.00098c0 -9.33301 -3.66699 -17.166 -11 -23.499s-15.333 -9.5 -24 -9.5h-2c-8 0 -54.333 34.667 -139 104l-92 76c-22 21.333 -33 39.666 -33 54.999z" />
    <glyph glyph-name="a" unicode="a" 
d="M221 295c0 148.667 49.835 287.499 149.502 416.499s206.167 193.5 319.5 193.5c78 0 134.667 -40.333 170 -121c10.667 53.333 38 80 82 80c36.667 0 55 -17.667 55 -53c0 -9.33301 -2.66699 -23.666 -8 -42.999l-139 -557c-9.33301 -38 -14 -73 -14 -105
c0 -55.333 17.333 -83 52 -83h1c50.667 0 96.334 81 137.001 243c5.33301 22 10.166 35.333 14.499 40s12.5 7 24.5 7c20.667 0 31 -6.66699 31 -20c0 -2.66699 -2.5 -14.667 -7.5 -36s-12.5 -48.333 -22.5 -81s-20.667 -60.667 -32 -84
c-36.667 -76.667 -86.334 -115 -149.001 -115c-39.333 0 -74.833 12 -106.5 36s-52.834 60 -63.501 108c-78 -95.333 -160 -143.333 -246 -144c-75.333 0 -135.5 30.5 -180.5 91.5s-67.5 136.5 -67.5 226.5zM360.002 204.999c0 -45.333 8.33496 -87.001 25.002 -125.001
s46 -57 88 -57c50.667 0 103.667 28.333 159 85s87.666 105.334 96.999 146.001l96 387c4 12 6 21 6 27c0 48 -12.833 92 -38.5 132s-59.834 60 -102.501 60c-40.667 0 -82.5 -21.833 -125.5 -65.5s-77.5 -97.5 -103.5 -161.5c-20.667 -48 -42.667 -119.333 -66 -214
s-35 -166 -35 -214z" />
    <glyph glyph-name="b" unicode="b" horiz-adv-x="942" 
d="M236 289c0 66.667 7.33398 122.669 22.001 168.002l203 809l2 16c2.66699 9.33301 4 15.333 4 18c0 8 -1.33301 14.167 -4 18.5s-11.834 8.16602 -27.501 11.499s-39.167 5 -70.5 5c-32.667 0 -49.334 7.66699 -50.001 23c0 12 2.5 21.167 7.5 27.5
s10.167 10.166 15.5 11.499s13.333 2.66602 24 3.99902l203 16c8 2.66699 19 4 33 4c19.333 0 29 -8 29 -24c0 -5.33301 -2 -14.333 -6 -27l-144 -573c76 72 147.667 108 215 108h2c66.667 0 124.334 -27.667 173.001 -83s73 -134 73 -236c0 -150 -49.5 -289 -148.5 -417
s-205.833 -192 -320.5 -192c-72.667 0 -130 29.833 -172 89.5s-63 133.834 -63 222.501zM352.001 219.002c0 -69.333 12.001 -119.334 36.001 -150.001s51.667 -46 83 -46c45.333 0 87.666 21.833 126.999 65.5s69.333 86.5 90 128.5c28.667 62.667 55 143.834 79 243.501
s36 172 36 217s-8.5 86.667 -25.5 125s-46.167 57.5 -87.5 57.5c-69.333 0 -141 -50.333 -215 -151c-19.333 -26 -34.333 -57.667 -45 -95c-52 -203.333 -78 -335 -78 -395z" />
    <glyph glyph-name="c" unicode="c" horiz-adv-x="942" 
d="M225 315c0 148.667 54.3379 284.168 163.005 406.501s227 183.5 355 183.5c64 0 116.667 -16.667 158 -50s62 -75.333 62 -126c0 -36.667 -10.333 -66.334 -31 -89.001s-45.334 -34 -74.001 -34c-22 0 -39.167 6.5 -51.5 19.5s-18.5 28.5 -18.5 46.5
c0 2.66699 0.5 6.33398 1.5 11.001s3.16699 12.167 6.5 22.5s8 19.5 14 27.5s16.167 15.833 30.5 23.5s31.166 12.834 50.499 15.501c-22 58.667 -70.667 88 -146 88c-48 0 -95.833 -17.667 -143.5 -53s-89.167 -86 -124.5 -152c-26 -49.333 -50.5 -118.333 -73.5 -207
s-34.5 -160.334 -34.5 -215.001c0 -62.667 13.667 -113.334 41 -152.001s67.333 -58 120 -58c23.333 0 49.666 2.33301 78.999 7s73.666 23.667 132.999 57s111.666 78.666 156.999 135.999c12 15.333 21 23 27 23c8 0 15.333 -4.16699 22 -12.5s10 -15.166 10 -20.499
c0 -13.333 -16.667 -37.833 -50 -73.5s-85.5 -71.667 -156.5 -108s-146.167 -54.5 -225.5 -54.5c-90 0 -162.667 31 -218 93s-83 143.667 -83 245z" />
    <glyph glyph-name="d" unicode="d" 
d="M221 295c0 148.667 49.8369 287.504 149.504 416.504s206.167 193.5 319.5 193.5c76.667 0 134 -39.667 172 -119l119 480l2 16c2.66699 9.33301 4 15.333 4 18c0 8 -1.33301 14.167 -4 18.5s-11.834 8.16602 -27.501 11.499s-39.167 5 -70.5 5
c-32.667 0 -49 7.66699 -49 23c0 12 2.33301 21.167 7 27.5s9.66699 10.166 15 11.499s13.666 2.66602 24.999 3.99902l202 16c8 2.66699 19 4 33 4c19.333 0 29 -8 29 -24c0 -5.33301 -2 -14.333 -6 -27l-293 -1169c-8 -32.667 -12 -64.334 -12 -95.001
c0 -55.333 17.333 -83 52 -83h1c50.667 0 96.334 81 137.001 243c5.33301 22 10.166 35.333 14.499 40s12.5 7 24.5 7c20.667 0 31 -6.66699 31 -20c0 -2.66699 -2.5 -14.667 -7.5 -36s-12.5 -48.333 -22.5 -81s-20.667 -60.667 -32 -84
c-36.667 -76.667 -86.334 -115 -149.001 -115c-39.333 0 -74.833 12 -106.5 36s-52.834 60 -63.501 108c-78 -95.333 -160 -143.333 -246 -144c-75.333 0 -135.5 30.5 -180.5 91.5s-67.5 136.5 -67.5 226.5zM360.004 205.004c0 -45.333 8.33203 -87 24.999 -125
s46 -57 88 -57c50.667 0 103.334 27.833 158.001 83.5s86.667 103.5 96 143.5l98 393c4 12 6 21 6 27c0 44 -13.333 87.667 -40 131c-26 39.333 -59.5 59 -100.5 59s-83 -21.833 -126 -65.5s-77.5 -97.5 -103.5 -161.5c-20.667 -48 -42.667 -119.333 -66 -214
s-35 -166 -35 -214z" />
    <glyph glyph-name="e" unicode="e" horiz-adv-x="942" 
d="M233 336c0 168 54.666 304.832 163.999 410.499s224 158.5 344 158.5c62.667 0 112.834 -16.667 150.501 -50s56.5 -74.666 56.5 -123.999c0 -6.66699 -0.333008 -13.834 -1 -21.501s-3.66699 -21 -9 -40s-13.166 -36.667 -23.499 -53s-26.833 -33.666 -49.5 -51.999
s-49 -33.833 -79 -46.5c-76.667 -30 -175.667 -45 -297 -45h-79c-23.333 -90 -35 -165 -35 -225c0 -34 3.33301 -66.167 10 -96.5s22.334 -59.333 47.001 -87s57.334 -41.5 98.001 -41.5c23.333 0 49.666 2.33301 78.999 7s73.666 23.667 132.999 57
s111.666 78.666 156.999 135.999c12 15.333 21 23 27 23c8 0 15.333 -4.16699 22 -12.5s10 -15.166 10 -20.499c0 -13.333 -16.667 -37.833 -50 -73.5s-85.5 -71.667 -156.5 -108s-146.167 -54.5 -225.5 -54.5c-92.667 0 -164.667 35.333 -216 106s-77 155 -77 253z
M421.999 517.999l42.999 0.00195312c20.667 0 39.167 0.333008 55.5 1s42.5 2.66699 78.5 6s67.667 9.83301 95 19.5s55.666 22 84.999 37s51.833 35.833 67.5 62.5s23.5 57 23.5 91c0 35.333 -11.5 65 -34.5 89s-54.5 36 -94.5 36c-9.33301 0 -20.166 -1 -32.499 -3
s-33.166 -9.16699 -62.499 -21.5s-56.333 -29.333 -81 -51s-50.5 -55.834 -77.5 -102.501s-48.833 -101.334 -65.5 -164.001z" />
    <glyph glyph-name="f" unicode="f" horiz-adv-x="626" 
d="M-51 -285c0 34 10.1699 61.3311 30.5029 81.998s44.166 31 71.499 31c18 0 34.167 -5.83301 48.5 -17.5s21.5 -27.834 21.5 -48.501c0 -23.333 -7.83301 -44.5 -23.5 -63.5s-37.834 -31.167 -66.501 -36.5c18 -24.667 45.333 -37 82 -37
c50.667 0 89.334 58.667 116.001 176c16.667 58.667 36 143.334 58 254.001l149 764h-127c-34 0 -51 7.66699 -51 23c0 19.333 4.16699 31 12.5 35s22.5 6 42.5 6h136l43 225c46.667 224 135.334 336 266.001 336c45.333 0 84.666 -12 117.999 -36s50 -57 50 -99
c0 -34 -10.333 -61.333 -31 -82s-44.667 -31 -72 -31c-18 0 -34 5.83301 -48 17.5s-21 27.834 -21 48.501c0 23.333 7.83301 44.5 23.5 63.5s37.834 31.167 66.501 36.5c-20.667 24.667 -49.334 37 -86.001 37c-23.333 0 -43.166 -11.667 -59.499 -35
s-27.333 -44.833 -33 -64.5s-12.5 -48.167 -20.5 -85.5c-16.667 -74 -38.334 -184.333 -65.001 -331h159c13.333 0 23.166 -0.333008 29.499 -1s11.666 -3.16699 15.999 -7.5s6.5 -10.5 6.5 -18.5c0 -16.667 -4.16699 -27 -12.5 -31s-22.833 -6 -43.5 -6h-168l-143 -735
c-8 -39.333 -17.167 -77.833 -27.5 -115.5s-27.833 -90.667 -52.5 -159s-57.167 -123.666 -97.5 -165.999s-84.833 -63.5 -133.5 -63.5c-42 0 -79.833 12 -113.5 36s-50.5 57 -50.5 99z" />
    <glyph glyph-name="g" unicode="g" horiz-adv-x="942" 
d="M109 -301c0 35.333 10.8301 62.166 32.4971 80.499s44.167 27.5 67.5 27.5c24.667 0 42.834 -6.66699 54.501 -20s17.5 -28.333 17.5 -45c0 -18 -6.16699 -36.167 -18.5 -54.5s-28.166 -31.5 -47.499 -39.5c36.667 -15.333 85 -23 145 -23c75.333 0 140.333 32 195 96
c27.333 32.667 46.5 62.834 57.5 90.501s23.167 69.5 36.5 125.5l43 172c-72.667 -72.667 -145 -109 -217 -109c-75.333 0 -135.833 30 -181.5 90s-68.5 134.333 -68.5 223c0 144.667 48.833 279.5 146.5 404.5s203.834 187.5 318.501 187.5c76.667 0 134 -39 172 -117
c4 26 14.333 45.167 31 57.5s33 18.5 49 18.5c36.667 0 55 -17.667 55 -53c0 -8 -2.66699 -22.333 -8 -43l-223 -897c-20.667 -82 -68.167 -151 -142.5 -207s-163.5 -84 -267.5 -84c-164.667 0 -247 39.667 -247 119zM364.997 223c0 -12 1.00098 -24.832 3.00098 -38.499
s6 -32.5 12 -56.5s17.5 -43.833 34.5 -59.5s38.5 -23.5 64.5 -23.5c50.667 0 103.334 27.667 158.001 83s86.667 102.666 96 141.999l92 373l6 29c0 8 -1.66699 20.5 -5 37.5s-9.33301 37.5 -18 61.5s-23.334 44.833 -44.001 62.5s-45.334 26.5 -74.001 26.5
c-38 0 -77.833 -19.5 -119.5 -58.5s-75.5 -87.167 -101.5 -144.5c-22 -50.667 -44.833 -123.667 -68.5 -219s-35.5 -167 -35.5 -215z" />
    <glyph glyph-name="h" unicode="h" 
d="M154 31c0 12 1.33691 20.6699 4.00391 26.0029l303 1209l2 16c2.66699 9.33301 4 15.333 4 18c0 8 -1.33301 14.167 -4 18.5s-11.834 8.16602 -27.501 11.499s-39.167 5 -70.5 5c-32.667 0 -49.334 7.66699 -50.001 23c0 12 2.5 21.167 7.5 27.5
s10.167 10.166 15.5 11.499s13.333 2.66602 24 3.99902l203 16c8 2.66699 19 4 33 4c19.333 0 29 -8 29 -24c0 -5.33301 -2 -14.333 -6 -27l-150 -598c30 28.667 53.5 50.167 70.5 64.5s44.333 29.333 82 45s77.5 23.5 119.5 23.5c60 0 110.5 -16.333 151.5 -49
s61.5 -87.334 61.5 -164.001c0 -83.333 -41.667 -235.333 -125 -456c-24.667 -74 -36.667 -125.333 -36 -154c0 -39.333 15 -59 45 -59c76.667 0 140 85.333 190 256c4 16.667 7.83301 26.5 11.5 29.5s11.5 4.5 23.5 4.5c20.667 0 31 -6.66699 31 -20
c0 -4 -2.83301 -16.333 -8.5 -37s-15.334 -47 -29.001 -79s-30 -62.667 -49 -92s-43.833 -54.666 -74.5 -75.999s-63.667 -32 -99 -32c-48 0 -86 15.833 -114 47.5s-42 70.5 -42 116.5c0 30 11 73.667 33 131c79.333 226.667 118.666 377.667 117.999 453
c0 90 -31.333 135 -94 135c-101.333 0 -192 -64.667 -272 -194c-26 -46.667 -45 -94.667 -57 -144l-16.5 -66.5l-16.5 -66.5c-2.66699 -12 -11.167 -47 -25.5 -105l-40 -161c-12.333 -49.333 -19.833 -78.666 -22.5 -87.999c-4 -13.333 -12.833 -26.333 -26.5 -39
s-30.167 -19 -49.5 -19c-18 0 -32 5.66699 -42 17s-15 23.666 -15 36.999z" />
    <glyph glyph-name="i" unicode="i" horiz-adv-x="626" 
d="M170 590c0 4 2.66992 16.168 8.00293 36.501s14.833 46.666 28.5 78.999s30.167 63.166 49.5 92.499s44.666 54.5 75.999 75.5s64.666 31.5 99.999 31.5c42 0 78.167 -14 108.5 -42s45.5 -68.667 45.5 -122c0 -28.667 -8.33301 -66.667 -25 -114l-131 -351
c-35.333 -101.333 -53 -166.666 -53 -195.999c0 -38 15 -57 45 -57c80.667 0 144 85.333 190 256c4 16.667 7.83301 26.5 11.5 29.5s11.5 4.5 23.5 4.5c20.667 0 31 -6.66699 31 -20c0 -4 -2.66699 -16 -8 -36s-14.833 -46 -28.5 -78s-29.834 -63 -48.501 -93
s-43.667 -55.667 -75 -77s-64.666 -32 -99.999 -32c-50.667 0 -89.334 16.5 -116.001 49.5s-40 71.167 -40 114.5c0 27.333 12.333 74.666 37 141.999c32.667 90 58 157.333 76 202l61 170c24.667 66.667 37 116 37 148c0 38 -15 57 -45 57c-80.667 0 -144 -86 -190 -258
c-4 -15.333 -8.16699 -24.666 -12.5 -27.999s-12.5 -5 -24.5 -5c-20.667 0.666992 -31 7.66699 -31 21zM500.003 1245c0 27.333 10.499 50.5 31.499 69.5s43.167 28.5 66.5 28.5c18 0 34.167 -5.33301 48.5 -16s21.5 -27.667 21.5 -51c0 -27.333 -10.667 -50.5 -32 -69.5
s-43.666 -28.5 -66.999 -28.5c-18 0 -34 5.33301 -48 16s-21 27.667 -21 51z" />
    <glyph glyph-name="j" unicode="j" horiz-adv-x="626" 
d="M-72 -301c0 35.333 10.9961 62.168 32.9961 80.501s44.667 27.5 68 27.5c24.667 0 42.667 -6.66699 54 -20s17 -28.333 17 -45c0 -6.66699 -1.33301 -15.167 -4 -25.5s-10.167 -23.333 -22.5 -39s-29.166 -26.834 -50.499 -33.501c24.667 -12 47.667 -18.333 69 -19
c57.333 0 106.5 28 147.5 84s69.833 117.667 86.5 185l194 780c9.33301 38 14.333 72.667 15 104c0 54.667 -18.667 82 -56 82c-91.333 0 -171 -85.333 -239 -256c-4 -12 -7.5 -20.167 -10.5 -24.5s-6.16699 -7.16602 -9.5 -8.49902s-9.66602 -2 -18.999 -2
c-20.667 0 -31 7 -31 21c0 4 4.16699 16.5 12.5 37.5s21.333 47.333 39 79s38.334 62.167 62.001 91.5s53 54.5 88 75.5s71.5 31.5 109.5 31.5c54.667 0 97.667 -18 129 -54s47 -79.333 47 -130c0 -24.667 -3.33301 -47.334 -10 -68.001l-190 -766
c-22 -86 -68.167 -158.667 -138.5 -218s-145.166 -89 -224.499 -89c-46.667 0 -86 10.667 -118 32s-48 50.333 -48 87zM560.996 1245c0 24.667 10.332 47.168 30.999 67.501s44 30.5 70 30.5c16.667 0 32.334 -5 47.001 -15s22 -28 22 -54
c0 -24.667 -10.5 -46.834 -31.5 -66.501s-43.833 -29.5 -68.5 -29.5c-22 0 -39.167 7 -51.5 21s-18.5 29.333 -18.5 46z" />
    <glyph glyph-name="k" unicode="k" horiz-adv-x="942" 
d="M154 31c0 12 1.33594 20.6699 4.00293 26.0029l303 1209l2 16c2.66699 9.33301 4 15.333 4 18c0 8 -1.33301 14.167 -4 18.5s-11.834 8.16602 -27.501 11.499s-39.167 5 -70.5 5c-32.667 0 -49.334 7.66699 -50.001 23c0 12 2.5 21.167 7.5 27.5
s10.167 10.166 15.5 11.499s13.333 2.66602 24 3.99902l203 16c8 2.66699 19 4 33 4c19.333 0 29 -8 29 -24c0 -5.33301 -2 -14.333 -6 -27l-209 -835c35.333 16.667 66 37.167 92 61.5s69 71.166 129 140.499c95.333 112 184 168 266 168c42 0 74 -12.667 96 -38
s33 -53.666 33 -84.999c0 -35.333 -10.5 -63.166 -31.5 -83.499s-44.5 -30.5 -70.5 -30.5c-24.667 0 -42.834 6.83301 -54.501 20.5s-17.5 28.5 -17.5 44.5c0 9.33301 1.66699 19.833 5 31.5s12.833 25.334 28.5 41.001s36.5 25.834 62.5 30.501
c-16.667 16.667 -35 24.667 -55 24c-32.667 0 -66.5 -11.167 -101.5 -33.5s-63 -44.5 -84 -66.5s-55.5 -60.333 -103.5 -115c-57.333 -65.333 -105.666 -110.333 -144.999 -135c181.333 -26 272 -97 272 -213c0 -19.333 -3.33301 -43.333 -10 -72
c-10.667 -54.667 -16 -92.667 -16 -114c0 -58.667 19.667 -88 59 -88c22 0 41.5 7.16699 58.5 21.5s31.667 35.5 44 63.5s22.166 52.833 29.499 74.5s15.333 49.5 24 83.5c5.33301 22 10 35.333 14 40s12.333 7 25 7c20.667 0 30.667 -6.66699 30 -20
c0 -4 -2.66699 -17 -8 -39s-14.166 -50 -26.499 -84s-25.166 -62.667 -38.499 -86c-40.667 -70.667 -93.334 -106.334 -158.001 -107.001c-45.333 0 -85.333 16.5 -120 49.5s-52 82.833 -52 149.5c0 23.333 2.66699 46.666 8 69.999c4 19.333 6 36.333 6 51
c0 36.667 -12.667 68 -38 94s-52 44.5 -80 55.5s-57.667 18.5 -89 22.5l-104 -416c-10.667 -50.667 -37.334 -76 -80.001 -76c-18 0 -32 5.66699 -42 17s-15 23.666 -15 36.999z" />
    <glyph glyph-name="l" unicode="l" horiz-adv-x="522" 
d="M193 162c0 20.667 4 47.3379 12 80.0049l256 1024l2 16c2.66699 9.33301 4 15.333 4 18c0 8 -1.33301 14.167 -4 18.5s-11.834 8.16602 -27.501 11.499s-39.167 5 -70.5 5c-32.667 0 -49.334 7.66699 -50.001 23c0 12 2.5 21.167 7.5 27.5s10.167 10.166 15.5 11.499
s13.333 2.66602 24 3.99902l203 16c8 2.66699 19 4 33 4c19.333 0 29 -8 29 -24c0 -5.33301 -2 -14.333 -6 -27l-293 -1169c-8 -32.667 -12.333 -64.334 -13 -95.001c0 -55.333 17.667 -83 53 -83h1c50.667 0 94.334 76.333 131.001 229l14 51c4 6.66699 13.667 10 29 10
c20.667 0 30.667 -6.66699 30 -20c0 -2.66699 -2.66699 -15.667 -8 -39s-13.166 -52 -23.499 -86s-20.833 -62 -31.5 -84c-36.667 -70.667 -85 -106.334 -145 -107.001c-49.333 0 -90.333 17.5 -123 52.5s-49 79.167 -49 132.5z" />
    <glyph glyph-name="m" unicode="m" horiz-adv-x="1673" 
d="M170 590c0 2.66699 2.66602 14.4951 7.99902 35.4951s13.5 48.667 24.5 83s22.167 63.833 33.5 88.5c37.333 72 85.666 108 144.999 108h2c45.333 0 83.666 -14.667 114.999 -44s50.333 -68.666 57 -117.999c79.333 108 177 162 293 162c54.667 0 102.5 -14 143.5 -42
s64.833 -74 71.5 -138c82 120 184.333 180 307 180c58.667 0 109.167 -16 151.5 -48s63.5 -87 63.5 -165c0 -83.333 -41.667 -235.333 -125 -456c-24.667 -74 -37 -125.333 -37 -154c0 -39.333 15 -59 45 -59c76.667 0 140.334 85.333 191.001 256
c4 16.667 7.66699 26.5 11 29.5s11.333 4.5 24 4.5c20 0 30 -6.33301 30 -19c0 -4.66699 -2.66699 -17.334 -8 -38.001s-14.833 -47 -28.5 -79s-30 -62.667 -49 -92s-43.833 -54.666 -74.5 -75.999s-64 -32 -100 -32c-48 0 -85.833 15.833 -113.5 47.5
s-41.5 70.5 -41.5 116.5c0 30 10.667 73.667 32 131c79.333 226.667 119 377.667 119 453c0 90 -31.333 135 -94 135c-106.667 0 -203 -73.667 -289 -221c-15.333 -26 -32.333 -75 -51 -147c-4 -15.333 -9.5 -37.666 -16.5 -66.999s-12.5 -51.666 -16.5 -66.999l-82 -327
c-13.333 -35.333 -37.666 -53.333 -72.999 -54c-19.333 0 -33.833 5.5 -43.5 16.5s-14.5 23.5 -14.5 37.5c0 6.66699 2 16 6 28l134 533c12 56 18 100.333 18 133c0 90 -31.333 135 -94 135c-106.667 0 -203 -73.667 -289 -221c-15.333 -26 -32.333 -75 -51 -147
c-2.66699 -15.333 -8.16699 -37.666 -16.5 -66.999s-13.833 -51.666 -16.5 -66.999l-82 -327c-13.333 -35.333 -38 -53.333 -74 -54c-19.333 0 -33.666 5.5 -42.999 16.5s-14 23.5 -14 37.5c0 6.66699 2 16 6 28l154 615c9.33301 38 14 72.667 14 104
c0 54.667 -17.667 82 -53 82c-30 0 -55.667 -20.5 -77 -61.5s-42 -101.833 -62 -182.5c-5.33301 -22 -10 -35.333 -14 -40s-12.333 -7 -25 -7c-20.667 0.666992 -31 7.66699 -31 21z" />
    <glyph glyph-name="n" unicode="n" horiz-adv-x="1150" 
d="M170 590c0 2.66699 2.66406 14.4961 7.99707 35.4961s13.5 48.667 24.5 83s22.167 63.833 33.5 88.5c37.333 72 85.666 108 144.999 108h2c45.333 0 83.666 -14.667 114.999 -44s50.333 -68.666 57 -117.999c13.333 20.667 30 41.334 50 62.001s52.833 42.5 98.5 65.5
s93.834 34.5 144.501 34.5c60 0 110.5 -16.333 151.5 -49s61.5 -87.334 61.5 -164.001c0 -83.333 -41.667 -235.333 -125 -456c-24.667 -74 -37 -125.333 -37 -154c0 -39.333 15 -59 45 -59c76.667 0 140.334 85.333 191.001 256c4 16.667 7.66699 26.5 11 29.5
s11 4.5 23 4.5c20.667 0 31 -6.66699 31 -20c0 -4 -2.66699 -16.333 -8 -37s-14.833 -47 -28.5 -79s-30.167 -62.667 -49.5 -92s-44.333 -54.666 -75 -75.999s-63.667 -32 -99 -32c-48 0 -86 15.833 -114 47.5s-42 70.5 -42 116.5c0 30 11 73.667 33 131
c79.333 226.667 119 377.667 119 453c0 90 -31.333 135 -94 135c-105.333 0 -197.666 -67.667 -276.999 -203c-23.333 -38 -43.666 -93 -60.999 -165c-2.66699 -15.333 -8.16699 -37.666 -16.5 -66.999s-13.833 -51.666 -16.5 -66.999l-82 -327
c-13.333 -35.333 -38 -53.333 -74 -54c-19.333 0 -33.666 5.5 -42.999 16.5s-14 23.5 -14 37.5c0 6.66699 2 16 6 28l154 615c9.33301 38 14 72.667 14 104c0 54.667 -17.667 82 -53 82c-30 0 -55.667 -20.5 -77 -61.5s-42 -101.833 -62 -182.5
c-5.33301 -22 -10 -35.333 -14 -40s-12.333 -7 -25 -7c-20.667 0.666992 -31 7.66699 -31 21z" />
    <glyph glyph-name="o" unicode="o" 
d="M225 315c0 148.667 54.333 284.168 163 406.501s227 183.5 355 183.5c88.667 0 160.667 -31.333 216 -94s83 -143.334 83 -242.001c0 -148.667 -54.167 -284.5 -162.5 -407.5s-226.833 -184.5 -355.5 -184.5c-87.333 0 -159 30.333 -215 91s-84 143 -84 247zM369 233.001
c0 -69.333 15 -121.666 45 -156.999s66.667 -53 110 -53c49.333 0 97.833 19.333 145.5 58s87.167 87.334 118.5 146.001c30 57.333 56 129.666 78 216.999s33 155.666 33 204.999c0 61.333 -14 111.833 -42 151.5s-66.667 59.5 -116 59.5c-42 0 -85.5 -16 -130.5 -48
s-86.167 -78 -123.5 -138c-31.333 -53.333 -58.833 -126.5 -82.5 -219.5s-35.5 -166.833 -35.5 -221.5z" />
    <glyph glyph-name="p" unicode="p" 
d="M29 -373c0 26 14.335 38.999 43.002 38.999c40.667 1.33301 67.5 5.83301 80.5 13.5s23.5 27.167 31.5 58.5l234 938c9.33301 38 14 72 14 102c0 54.667 -17.667 82 -53 82c-30 0 -55.667 -20.5 -77 -61.5s-42 -101.833 -62 -182.5
c-5.33301 -22 -9.83301 -35.333 -13.5 -40s-12.167 -7 -25.5 -7c-20.667 0 -31 7 -31 21c0 2.66699 2.66699 14.5 8 35.5s13.5 48.667 24.5 83s22.167 63.833 33.5 88.5c37.333 72 85.666 108 144.999 108h2c34 0 67.833 -10.5 101.5 -31.5s55.834 -58.167 66.501 -111.5
c82 95.333 164.667 143 248 143c66.667 0 124.167 -27.667 172.5 -83s72.5 -134 72.5 -236c0 -151.333 -49.333 -290.666 -148 -417.999s-204.667 -191 -318 -191c-46.667 0 -84.334 13 -113.001 39s-48.334 52.667 -59.001 80l-74 -299c-15.333 -60 -23 -92.667 -23 -98
c0 -8 1.33301 -14.167 4 -18.5s12 -7.83301 28 -10.5s40.333 -4 73 -4s49 -8 49 -24c0 -26 -13 -39 -39 -39c-20.667 0 -53.5 1 -98.5 3s-78.5 3 -100.5 3c-19.333 0 -48.333 -1 -87 -3s-67 -3 -85 -3h-2c-14.667 0 -22 8 -22 24zM436.002 212.999
c0 -13.333 2.83105 -32.668 8.49805 -58.001s20 -53.666 43 -84.999s52.167 -47 87.5 -47c45.333 0 87.833 21.833 127.5 65.5s69.834 86.5 90.501 128.5c28.667 62.667 54.834 143.834 78.501 243.501s35.5 172 35.5 217s-8.5 86.667 -25.5 125s-45.833 57.5 -86.5 57.5
c-52 0 -105.333 -28 -160 -84s-86.667 -105 -96 -147l-97 -387c-4 -16.667 -6 -26.334 -6 -29.001z" />
    <glyph glyph-name="q" unicode="q" horiz-adv-x="942" 
d="M221 295c0 148.667 49.8301 287.497 149.497 416.497s206.167 193.5 319.5 193.5c82 0 140.667 -43.667 176 -131c16.667 28.667 39.667 57.334 69 86.001s49.333 43 60 43c15.333 0 23 -7.33301 23 -22c0 -5.33301 -2 -14.333 -6 -27l-281 -1118l-2 -15
c-2.66699 -9.33301 -4 -16.666 -4 -21.999c0 -8 1.33301 -14.167 4 -18.5s11.834 -7.83301 27.501 -10.5s40 -4 73 -4s49.5 -8 49.5 -24c0 -26 -13 -39 -39 -39c-22 0 -56.167 1 -102.5 3s-81.166 3 -104.499 3s-57.833 -1 -103.5 -3s-79.5 -3 -101.5 -3c-18 0 -27 8 -27 24
c0 18 4.16699 29 12.5 33s20.833 6 37.5 6c64 1.33301 102.833 6.83301 116.5 16.5s26.5 36.834 38.5 81.501l80 322c-75.333 -72.667 -147.666 -109 -216.999 -109c-75.333 0 -135.5 30.5 -180.5 91.5s-67.5 136.5 -67.5 226.5zM359.997 204.997
c0 -45.333 8.33203 -87 24.999 -125s46 -57 88 -57c50.667 0 103.334 27.833 158.001 83.5s86.667 103.5 96 143.5l98 393c4 12 6 21 6 27c0 44 -13.333 87.667 -40 131c-26 39.333 -59.5 59 -100.5 59s-83 -21.833 -126 -65.5s-77.5 -97.5 -103.5 -161.5
c-20.667 -48 -42.667 -119.333 -66 -214s-35 -166 -35 -214z" />
    <glyph glyph-name="r" unicode="r" horiz-adv-x="862" 
d="M170 590c0 2.66699 2.66699 14.5 8 35.5s13.5 48.667 24.5 83s22.167 63.833 33.5 88.5c37.333 72 85.666 108 144.999 108h2c38 0 73.167 -11.833 105.5 -35.5s53.833 -60.834 64.5 -111.501c70.667 98 153.334 147 248.001 147c48 0 93.333 -9.83301 136 -29.5
s64 -52.834 64 -99.501c0 -35.333 -10.833 -62.166 -32.5 -80.499s-44.167 -27.5 -67.5 -27.5c-24.667 0 -42.834 6.83301 -54.501 20.5s-17.5 28.5 -17.5 44.5c0 6.66699 1.5 15.167 4.5 25.5s10.5 23.333 22.5 39s29 26.834 51 33.501c-27.333 19.333 -63.333 29 -108 29
c-32.667 0 -64.5 -9.5 -95.5 -28.5s-56.333 -40.5 -76 -64.5s-37.667 -51 -54 -81s-27.333 -51.833 -33 -65.5l-12.5 -30.5l-133 -537c-12 -50.667 -38.667 -76 -80 -76c-19.333 0 -33.666 5.5 -42.999 16.5s-14 23.5 -14 37.5c0 6.66699 2 16 6 28l154 615
c9.33301 38 14 72.667 14 104c0 54.667 -17.667 82 -53 82c-30 0 -55.667 -20.5 -77 -61.5s-42 -101.833 -62 -182.5c-5.33301 -22 -10 -35.333 -14 -40s-12.333 -7 -25 -7c-20.667 0.666992 -31 7.66699 -31 21z" />
    <glyph glyph-name="s" unicode="s" horiz-adv-x="835" 
d="M156 176c0 42 10.4941 73.666 31.4941 94.999s45.167 32 72.5 32c22 0 39.167 -6.16699 51.5 -18.5s18.5 -27.833 18.5 -46.5c0 -8 -1 -17.167 -3 -27.5s-11.667 -24.5 -29 -42.5s-41.666 -28.333 -72.999 -31c24.667 -76 89.334 -114 194.001 -114h3
c39.333 0 75.5 5.66699 108.5 17s58.667 26 77 44s34 37.833 47 59.5s21.833 41.334 26.5 59.001s7 34.167 7 49.5c0 26 -4.83301 48.167 -14.5 66.5s-24.667 33 -45 44s-38.333 18.833 -54 23.5s-38.5 10.334 -68.5 17.001c-18 4 -32.5 7.5 -43.5 10.5s-27 9.66699 -48 20
s-37.667 21.833 -50 34.5s-23.666 30.667 -33.999 54s-15.5 50 -15.5 80c0 68 27.333 135.5 82 202.5s135.334 100.5 242.001 100.5c65.333 0 118.166 -16.667 158.499 -50s60.5 -74.666 60.5 -123.999c0 -39.333 -9.16699 -68 -27.5 -86s-38.5 -27 -60.5 -27
s-37.667 5.83301 -47 17.5s-14 25 -14 40s6.5 31.833 19.5 50.5s33.833 30 62.5 34c-19.333 66.667 -70.666 100 -153.999 100c-70.667 0 -122.834 -21.833 -156.501 -65.5s-50.5 -84.5 -50.5 -122.5c0 -27.333 7.83301 -49.5 23.5 -66.5s31 -28.333 46 -34
s35.5 -11.167 61.5 -16.5c23.333 -5.33301 42.833 -10 58.5 -14s36.5 -12.167 62.5 -24.5s46.833 -26 62.5 -41s29.667 -35.833 42 -62.5s18.5 -57 18.5 -91c0 -22 -3.5 -46.333 -10.5 -73s-19.667 -56.334 -38 -89.001s-41.166 -62.334 -68.499 -89.001
s-64.166 -49 -110.499 -67s-98.833 -27 -157.5 -27c-75.333 0 -138.166 18.167 -188.499 54.5s-75.5 84.5 -75.5 144.5z" />
    <glyph glyph-name="t" unicode="t" horiz-adv-x="679" 
d="M186 844c0 18 4.49902 28.999 13.499 32.999s23.833 6 44.5 6h174l80 325c13.333 49.333 40 74 80 74c36.667 0 55 -17.667 55 -53c0 -9.33301 -2.66699 -23.666 -8 -42.999l-76 -303h164c13.333 0 22.833 -0.333008 28.5 -1s10.834 -2.83398 15.501 -6.50098
s7 -9.5 7 -17.5c0 -18 -4.5 -29 -13.5 -33s-23.5 -6 -43.5 -6h-175l-151 -608c-9.33301 -38 -14 -73 -14 -105c0 -55.333 18 -83 54 -83h1c52 0 98.167 25.833 138.5 77.5s72.5 109.5 96.5 173.5c8 19.333 13.833 30.666 17.5 33.999s11.5 5 23.5 5
c20.667 0 31 -6.66699 31 -20c0 -4 -4 -16.333 -12 -37s-21 -47 -39 -79s-38.5 -62.667 -61.5 -92s-52.333 -54.666 -88 -75.999s-72.5 -32 -110.5 -32c-52 0 -94 17.833 -126 53.5s-48 79.5 -48 131.5c0 19.333 3.33301 42.333 10 69l147 588h-163
c-13.333 0 -22.833 0.333008 -28.5 1s-11 2.83398 -16 6.50098s-7.5 9.5 -7.5 17.5z" />
    <glyph glyph-name="u" unicode="u" horiz-adv-x="1097" 
d="M170 590c0 4 2.66797 16.166 8.00098 36.499s15.166 46.666 29.499 78.999s30.833 63.166 49.5 92.499s43.667 54.5 75 75.5s64.666 31.5 99.999 31.5c45.333 0 82.666 -15 111.999 -45s44 -70.333 44 -121c0 -27.333 -9 -64 -27 -110
c-79.333 -216 -119 -365.667 -119 -449c0 -104.667 36.667 -157 110 -157h1c72.667 0 135.334 39.333 188.001 118c10.667 16.667 20.334 39.334 29.001 68.001l150 598c12 50.667 38.333 76 79 76c19.333 0 33.833 -5.5 43.5 -16.5s14.5 -23.5 14.5 -37.5
c0 -6.66699 -2 -16 -6 -28l-148 -590c-9.33301 -38 -14 -73 -14 -105c0 -55.333 17.333 -83 52 -83h1c50.667 0 96.334 81 137.001 243c5.33301 22 10.166 35.333 14.499 40s12.5 7 24.5 7c20.667 0 31 -6.66699 31 -20c0 -2.66699 -2.33301 -14.667 -7 -36
s-12.167 -48.333 -22.5 -81s-21.166 -60.667 -32.499 -84c-36.667 -76.667 -86.334 -115 -149.001 -115c-82 0 -136.667 41 -164 123c-65.333 -82 -141 -123 -227 -123c-64 0 -118.333 19.167 -163 57.5s-67 98.5 -67 180.5c0 76.667 35.667 210.334 107 401.001
c32.667 91.333 49 153 49 185c0 39.333 -15 59 -45 59c-82 0 -145.333 -86 -190 -258c-4 -15.333 -8.16699 -24.666 -12.5 -27.999s-12.5 -5 -24.5 -5c-20.667 0.666992 -31 7.66699 -31 21z" />
    <glyph glyph-name="v" unicode="v" horiz-adv-x="942" 
d="M170 590c0 4 2.66895 16.1699 8.00195 36.5029s15.166 46.666 29.499 78.999s30.833 63.166 49.5 92.499s43.667 54.5 75 75.5s64.666 31.5 99.999 31.5c45.333 0 82.666 -15 111.999 -45s44 -70.333 44 -121c0 -20.667 -7.66699 -54.667 -23 -102
c-80.667 -214.667 -121 -362.667 -121 -444c0 -44 10 -83.333 30 -118s54.667 -52 104 -52c54.667 0 104.834 26.5 150.501 79.5s80.667 115 105 186s43 134.5 56 190.5s19.5 94.333 19.5 115c0 68 -18.333 122 -55 162c-18 20.667 -27 39 -27 55
c0 23.333 10.667 44.833 32 64.5s43.666 29.5 66.999 29.5c28.667 0 49.834 -12.667 63.501 -38s20.5 -57.666 20.5 -96.999c0 -16.667 -4.16699 -50.834 -12.5 -102.501s-23 -117.834 -44 -198.501s-47 -156.834 -78 -228.501s-73.333 -133.5 -127 -185.5
s-112.834 -78 -177.501 -78c-69.333 0 -128.666 19.5 -177.999 58.5s-74 101.5 -74 187.5c0 70.667 35 201.667 105 393c32.667 91.333 49 153 49 185c0 39.333 -15 59 -45 59c-82 0 -145.333 -86 -190 -258c-4 -15.333 -8.16699 -24.666 -12.5 -27.999s-12.5 -5 -24.5 -5
c-20.667 0.666992 -31 7.66699 -31 21z" />
    <glyph glyph-name="w" unicode="w" horiz-adv-x="1359" 
d="M170 590c0 4 2.67188 16.1709 8.00488 36.5039s15.166 46.666 29.499 78.999s30.833 63.166 49.5 92.499s43.667 54.5 75 75.5s64.666 31.5 99.999 31.5c45.333 0 82.666 -15 111.999 -45s44 -70.333 44 -121c0 -27.333 -8.33301 -63.333 -25 -108
c-78 -206 -117 -349.333 -117 -430c0 -13.333 1.16699 -27 3.5 -41s7.16602 -32.833 14.499 -56.5s22 -43 44 -58s49.333 -22.5 82 -22.5c46.667 0 87 26.167 121 78.5s51 90.166 51 113.499c0 42 5.33301 85 16 129l117 467c12 48 38 72 78 72
c19.333 0 33.666 -5.5 42.999 -16.5s14 -23.5 14 -37.5c0 -9.33301 -11 -54.333 -33 -135l-86 -344c-16.667 -65.333 -24.667 -117.666 -24 -156.999c0 -49.333 10.5 -90 31.5 -122s55.5 -48 103.5 -48c83.333 0 151.666 63.333 204.999 190
c20.667 49.333 42.5 115.666 65.5 198.999s34.5 144 34.5 182c0 68 -18.333 122 -55 162c-18 20.667 -27 39 -27 55c0 23.333 10.667 44.833 32 64.5s43.333 29.5 66 29.5c28.667 0 49.834 -12.667 63.501 -38s20.5 -57.666 20.5 -96.999
c0 -54.667 -15.667 -144.834 -47 -270.501s-62.666 -223.167 -93.999 -292.5c-64 -152.667 -154 -229.334 -270 -230.001c-58.667 0 -108.167 12 -148.5 36s-68.833 56 -85.5 96c-52 -87.333 -118 -131 -198 -131c-0.666992 0 -1.33398 -0.333008 -2.00098 -1
c-79.333 0 -143 21.333 -191 64c-46 41.333 -69 102.666 -69 183.999c0 74.667 34 205 102 391c32.667 91.333 49 153 49 185c0 39.333 -15 59 -45 59c-82 0 -145.333 -86 -190 -258c-4 -15.333 -8.16699 -24.666 -12.5 -27.999s-12.5 -5 -24.5 -5
c-20.667 0.666992 -31 7.66699 -31 21z" />
    <glyph glyph-name="x" unicode="x" horiz-adv-x="948" 
d="M109 104c0 32.667 10.166 59.334 30.499 80.001s44.166 31 71.499 31c46.667 0 70 -21.667 70 -65c0 -19.333 -6.5 -39 -19.5 -59s-33.167 -33.333 -60.5 -40c22.667 -18.667 51.334 -28 86.001 -28h4c28.667 0 54.167 8.16699 76.5 24.5s41.5 41.5 57.5 75.5
s28 64.333 36 91s17.333 61.667 28 105l48 187c28.667 117.333 43 192.333 43 225c0 40.667 -9 72.334 -27 95.001s-42 34 -72 34c-45.333 0 -90.833 -21.833 -136.5 -65.5s-81.167 -107.167 -106.5 -190.5c-5.33301 -16.667 -9.5 -26.667 -12.5 -30s-11.167 -5 -24.5 -5
c-20.667 0 -31 6.83301 -31 20.5s7.16699 37 21.5 70s33.833 68.167 58.5 105.5s58.167 70 100.5 98s87.166 42 134.499 42c96.667 0 162.334 -46.333 197.001 -139c16.667 31.333 42 62.333 76 93s75.667 46 125 46c40.667 0 80.5 -9.83301 119.5 -29.5
s58.5 -52.834 58.5 -99.501c0 -35.333 -11 -62.166 -33 -80.499s-44.333 -27.5 -67 -27.5c-24.667 0 -42.834 6.83301 -54.501 20.5s-17.5 28.5 -17.5 44.5c0 6.66699 0.666992 14.5 2 23.5s8.83301 22.333 22.5 40s32.834 29.167 57.501 34.5c-22 19.333 -52 29 -90 29
c-80.667 0 -141 -73 -181 -219c-31.333 -132.667 -54.333 -226.334 -69 -281.001c-26 -110.667 -39 -179.334 -39 -206.001c0 -48 9.5 -81.833 28.5 -101.5s41.5 -29.5 67.5 -29.5c46.667 0 92.5 21.833 137.5 65.5s80.5 107.167 106.5 190.5
c5.33301 16.667 9.66602 26.5 12.999 29.5s11.333 4.5 24 4.5c20.667 0 30.667 -6.66699 30 -20c0 -12 -6.83301 -34.167 -20.5 -66.5s-32.667 -67.666 -57 -105.999s-57.666 -71.833 -99.999 -100.5s-88.166 -43 -137.499 -43c-36.667 0 -73.834 10.333 -111.501 31
s-65.5 57 -83.5 109c-53.333 -92.667 -120 -139.334 -200 -140.001c-49.333 0 -91.666 11.667 -126.999 35s-53 54 -53 92z" />
    <glyph glyph-name="y" unicode="y" horiz-adv-x="993" 
d="M170 590c0 4 2.6709 16.166 8.00391 36.499s15.166 46.666 29.499 78.999s30.833 63.166 49.5 92.499s43.667 54.5 75 75.5s64.666 31.5 99.999 31.5c45.333 0 82.666 -15 111.999 -45s44 -70.333 44 -121c0 -27.333 -9 -64 -27 -110
c-79.333 -216 -119 -365.667 -119 -449c0 -104.667 36.667 -157 110 -157h1c54.667 0 102.167 20.667 142.5 62s65.166 81.333 74.499 120l150 602c12 50.667 38.333 76 79 76c19.333 0 33.833 -5.5 43.5 -16.5s14.5 -23.5 14.5 -37.5c0 -2.66699 -1 -7 -3 -13
s-3 -11 -3 -15l-201 -807c-27.333 -108 -84 -204 -170 -288s-179.667 -126 -281 -126c-57.333 0 -104.333 16 -141 48s-55 74.667 -55 128c0 34 7.5 61.667 22.5 83s29.333 34 43 38s26.5 6 38.5 6c19.333 0 35.833 -5.83301 49.5 -17.5s20.5 -27.667 20.5 -48
s-7.5 -40.666 -22.5 -60.999s-36.833 -32.833 -65.5 -37.5c-10.667 -1.33301 -16.334 -3.33301 -17.001 -6c0 -5.33301 3.5 -14.5 10.5 -27.5s20.667 -26.333 41 -40s45.5 -20.5 75.5 -20.5c62.667 0 124.834 33.167 186.501 99.5s110.167 175.833 145.5 328.5
c-50.667 -50.667 -112 -76 -184 -76c-64 0 -118.333 19.167 -163 57.5s-67 98.5 -67 180.5c0 76.667 35.667 210.334 107 401.001c32.667 91.333 49 153 49 185c0 39.333 -15 59 -45 59c-82 0 -145.333 -86 -190 -258c-4 -15.333 -8.16699 -24.666 -12.5 -27.999
s-12.5 -5 -24.5 -5c-20.667 0.666992 -31 7.66699 -31 21z" />
    <glyph glyph-name="z" unicode="z" horiz-adv-x="835" 
d="M127 -2c0 12 22.502 49.835 67.502 113.502s93.5 120.834 145.5 171.501l336 333c13.333 13.333 40.666 43.666 81.999 90.999c-35.333 0 -75.666 10 -120.999 30c-54.667 24.667 -95.667 37 -123 37c-35.333 0 -67 -9.83301 -95 -29.5s-47 -41.834 -57 -66.501
c-5.33301 -12 -9.66602 -19.833 -12.999 -23.5s-11 -5.5 -23 -5.5c-20.667 0 -31 7.66699 -31 23c0 34 23.5 81.333 70.5 142s103.5 91 169.5 91c44 0 85.333 -26.667 124 -80c34.667 -48.667 66.667 -73 96 -73h1c19.333 0 37.5 7.83301 54.5 23.5
s41.167 50.167 72.5 103.5c6.66699 12 11.667 19.333 15 22s11.333 4 24 4c18.667 0 28 -6.33301 28 -19c0 -7.33301 -9.5 -26.5 -28.5 -57.5s-46.333 -69 -82 -114s-71.834 -85.833 -108.501 -122.5l-297 -293c-28.667 -28.667 -67 -70.334 -115 -125.001
c6.66699 1.33301 19 2 37 2c31.333 0 73.666 -11.667 126.999 -35c48 -21.333 85.667 -32 113 -32h2c45.333 0 89.5 16 132.5 48s73.167 73.333 90.5 124c4 13.333 7.83301 22 11.5 26s11.5 6 23.5 6c20.667 0 31 -6.66699 31 -20c0 -22 -11.333 -56.5 -34 -103.5
s-59.167 -94.167 -109.5 -141.5s-105.5 -71 -165.5 -71c-19.333 0 -37.5 4.5 -54.5 13.5s-29.667 18 -38 27s-19.833 22.167 -34.5 39.5c-20.667 28.667 -37.167 48.167 -49.5 58.5s-28.833 15.5 -49.5 15.5c-18 0 -35.167 -4.16699 -51.5 -12.5s-33 -22.333 -50 -42
s-27.5 -32.5 -31.5 -38.5l-29 -42c-6.66699 -12 -17.334 -18.333 -32.001 -19c-20.667 0.666992 -31 7.66699 -31 21z" />
    <glyph glyph-name="braceleft" unicode="{" 
d="M317 510c0 9.33301 3.16895 15.8271 9.50195 19.4941s19.333 6.83398 39 9.50098s35.167 5.33398 46.5 8.00098c48 12 93.333 35.833 136 71.5s73 77.167 91 124.5c8 23.333 50.333 188 127 494c0 1.33301 1 6.5 3 15.5s3.66699 15.167 5 18.5s3.33301 9.5 6 18.5
s5.5 16.167 8.5 21.5s6.83301 12.833 11.5 22.5s9.33398 17.5 14.001 23.5l17.5 23.5c7 9.66699 14.5 18.167 22.5 25.5s17.167 15.166 27.5 23.499s21.5 16.5 33.5 24.5c84.667 54.667 179.667 82 285 82c23.333 0 35 -7.66699 35 -23
c0 -9.33301 -4.83301 -15.666 -14.5 -18.999s-26.334 -6.66602 -50.001 -9.99902s-45.167 -8.66602 -64.5 -15.999c-22 -8 -42.5 -17.5 -61.5 -28.5s-35 -22.167 -48 -33.5s-25 -23.833 -36 -37.5s-19.5 -26 -25.5 -37s-11.833 -23 -17.5 -36s-9.5 -23 -11.5 -30
s-3.66699 -15.167 -5 -24.5l-4 -12c-82 -324.667 -125.667 -494 -131 -508c-40.667 -98 -133.667 -168.333 -279 -211c114.667 -39.333 172 -105.666 172 -198.999c0 -27.333 -22.833 -129.666 -68.5 -306.999s-68.5 -277.666 -68.5 -300.999c0 -22 3.5 -42.167 10.5 -60.5
s16.333 -33.333 28 -45s24.667 -21.834 39 -30.501s28.666 -15.167 42.999 -19.5s26.833 -7.83301 37.5 -10.5s20.334 -4 29.001 -4l12 -2c8 -4 12 -10 12 -18c0 -16.667 -13 -25 -39 -25s-54.333 3.33301 -85 10s-63.334 17.667 -98.001 33s-63.334 38.333 -86.001 69
s-34 66.334 -34 107.001c0 26 22.833 127.833 68.5 305.5s68.5 278.5 68.5 302.5c0 46.667 -14.667 84.667 -44 114s-66.333 48 -111 56c-2.66699 0 -8.16699 0.666992 -16.5 2s-14.833 2.5 -19.5 3.5s-9.16699 3.16699 -13.5 6.5s-6.5 7.66602 -6.5 12.999z" />
    <glyph glyph-name="bar" unicode="|" horiz-adv-x="628" 
d="M156 -467l6.00098 37l477 1905c9.33301 39.333 25 59 47 59c9.33301 0 18.166 -4.16699 26.499 -12.5s12.5 -18.5 12.5 -30.5c0 -6.66699 -27.333 -118.667 -82 -336l-399 -1601c-12 -42 -28.333 -63.333 -49 -64c-26 0 -39 14.333 -39 43z" />
    <glyph glyph-name="braceright" unicode="}" 
d="M66 -489c0 10.667 4.00586 17.3281 12.0059 19.9951s23.667 5.33398 47 8.00098s46 8.33398 68 17.001c18 6.66699 34.667 14 50 22s28.833 16.5 40.5 25.5s22.667 19 33 30s19.166 20.833 26.499 29.5s14.166 18.5 20.499 29.5s11.166 20.333 14.499 28l11 25.5
c4 9.33301 6.66699 16.5 8 21.5s2.66602 10.833 3.99902 17.5l2 10c82 326 126 495.333 132 508c39.333 95.333 132 165.666 278 210.999c-46.667 15.333 -87 39 -121 71s-51 75.333 -51 130c0 27.333 22.833 128.666 68.5 303.999s68.5 275.333 68.5 300
c0 22 -3.33301 42.167 -10 60.5s-15.834 33.333 -27.501 45s-24.667 21.834 -39 30.501s-28.666 15.5 -42.999 20.5s-27 8.83301 -38 11.5s-20.5 4 -28.5 4l-12 2c-18 9.33301 -21 20.333 -9 33c6.66699 6.66699 17.667 10 33 10c27.333 0 56.666 -3.33301 87.999 -10
s64.166 -18 98.499 -34s62.666 -39.333 84.999 -70s33.5 -66.334 33.5 -107.001c0 -27.333 -22.833 -129.166 -68.5 -305.499s-68.5 -276.5 -68.5 -300.5c0 -48 15.333 -86.667 46 -116s67.334 -47.333 110.001 -54c2.66699 0 7 -0.333008 13 -1
s11.167 -1.83398 15.5 -3.50098s8.83301 -3.16699 13.5 -4.5s8 -3.66602 10 -6.99902s3 -7 3 -11c0 -9.33301 -3.66699 -15.833 -11 -19.5s-20.666 -6.5 -39.999 -8.5s-34.333 -4.33301 -45 -7c-50.667 -13.333 -96.5 -37.166 -137.5 -71.499
s-70.167 -75.166 -87.5 -122.499c-10.667 -30 -36.334 -128.667 -77.001 -296s-67 -262.666 -79 -285.999c-34 -69.333 -91 -122.166 -171 -158.499s-158.333 -54.5 -235 -54.5c-22.667 0 -34 7.66699 -34 23z" />
    <glyph glyph-name="asciitilde" unicode="~" horiz-adv-x="1255" 
d="M508 1182c0 19.333 34.167 55.167 102.5 107.5s131.166 78.5 188.499 78.5c46.667 0 101.667 -22.5 165 -67.5s112 -67.5 146 -67.5c32.667 0 65.834 9.16699 99.501 27.5s63.667 39.166 90 62.499s40.833 35.666 43.5 36.999c8 4 15.5 4.33301 22.5 1
s10.5 -9.16602 10.5 -17.499s-7.33301 -19.833 -22 -34.5c-100 -100 -189.667 -150 -269 -150c-46.667 0 -101.667 22.5 -165 67.5s-113.333 67.5 -150 67.5c-34 0 -68.833 -10.833 -104.5 -32.5s-65.667 -43.167 -90 -64.5s-40.833 -32 -49.5 -32
c-12 0.666992 -18 6.33398 -18 17.001z" />
    <glyph glyph-name="uni00A0" unicode="&#xa0;" horiz-adv-x="733" 
 />
    <glyph glyph-name="exclamdown" unicode="&#xa1;" horiz-adv-x="628" 
d="M117 -360c0 8 5.33301 30.333 16 67l285 868c0 1.33301 0.666992 4.16602 2 8.49902s2.33301 7.83301 3 10.5s2 6.33398 4 11.001l5 11.5c1.33301 3 3.33301 6.16699 6 9.5s5.16699 6 7.5 8s5.5 3.66699 9.5 5s8 2 12 2c19.333 0 29 -10.333 29 -31
c0 -6.66699 -4.33301 -32.667 -13 -78l-141 -837c-1.33301 -15.333 -4 -30.833 -8 -46.5s-17.333 -34.667 -40 -57s-51.667 -33.5 -87 -33.5c-26 0 -47.5 7.83301 -64.5 23.5s-25.5 35.167 -25.5 58.5zM430 895c0 31.333 13.667 60.334 41 87.001s58 40 92 40
c26 0 47.167 -8.16699 63.5 -24.5s24.5 -36.833 24.5 -61.5c0 -32.667 -13.667 -62.334 -41 -89.001s-57.333 -40 -90 -40c-26 0 -47.5 8.5 -64.5 25.5s-25.5 37.833 -25.5 62.5z" />
    <glyph glyph-name="cent" unicode="&#xa2;" 
d="M211 332c0 138 55 267.002 165 387.002s242 185.333 396 196c18 83.333 30.333 133.666 37 150.999s17.667 26 33 26c19.333 0 28.666 -9 27.999 -27c0 -4 -11.333 -54 -34 -150c95.333 -9.33301 162.5 -32 201.5 -68s58.5 -77.333 58.5 -124
c0 -39.333 -10.667 -69.666 -32 -90.999s-45 -32 -71 -32c-18 0 -34 6.5 -48 19.5s-21 29.167 -21 48.5c0 9.33301 2 20.166 6 32.499s13.833 25.666 29.5 39.999s37.167 22.833 64.5 25.5c-35.333 57.333 -102.333 90 -201 98l-209 -835c132.667 10.667 236 76 310 196
c18 26 33.667 39 47 39c28.667 0 35.334 -14.333 20.001 -43c-16.667 -30 -37.167 -59.667 -61.5 -89s-66.5 -61 -126.5 -95s-127 -54 -201 -60h-2c-18 -83.333 -30.333 -133.5 -37 -150.5s-17.667 -25.5 -33 -25.5c-18 0 -26.667 9.66699 -26 29
c0 6.66699 11 56.667 33 150c-95.333 8 -173.5 43.667 -234.5 107s-91.5 145 -91.5 245zM365 291.002c0 -18 1.33301 -36.167 4 -54.5s9 -42.833 19 -73.5s29 -58 57 -82s63.333 -40 106 -48l207 829c-69.333 -15.333 -131 -45.833 -185 -91.5s-95 -98.167 -123 -157.5
s-49.167 -116.5 -63.5 -171.5s-21.5 -105.167 -21.5 -150.5z" />
    <glyph glyph-name="sterling" unicode="&#xa3;" horiz-adv-x="1574" 
d="M178 78c0 46.667 25.6602 92.835 76.9932 138.502s114.333 68.5 189 68.5c40.667 0 81 -8.33301 121 -25c9.33301 27.333 46.333 167.333 111 420h-111c-22 0 -35.667 4.66699 -41 14c-2.66699 5.33301 -4 9.66602 -4 12.999c0 9.33301 4.83301 17.666 14.5 24.999
s21.834 11 36.501 11h121c46.667 208.667 81 339.334 103 392.001c35.333 90 90.5 164.667 165.5 224s152.167 89 231.5 89c70.667 0 127.5 -25 170.5 -75s64.5 -115.667 64.5 -197c0 -126.667 -36.667 -190.334 -110 -191.001c-19.333 0 -35.833 6.16699 -49.5 18.5
s-20.5 28.166 -20.5 47.499c0 22 8.83301 43.833 26.5 65.5s43.834 32.5 78.501 32.5c1.33301 0 3.33301 -0.333008 6 -1s4.66699 -1 6 -1c0 2.66699 0.333008 8.16699 1 16.5s1 14.5 1 18.5c0 66.667 -15.667 119.834 -47 159.501s-73.666 59.5 -126.999 59.5
c-52 0 -101.5 -22.5 -148.5 -67.5s-83.5 -104.5 -109.5 -178.5c-8 -23.333 -18.5 -59.166 -31.5 -107.499l-43 -168c-15.667 -63.667 -27.167 -109.167 -34.5 -136.5h164c28.667 0 43 -8.66699 43 -26c0 -24.667 -21 -37 -63 -37h-160c-4 -22 -19.667 -86.5 -47 -193.5
s-43.666 -168.833 -48.999 -185.5c-6.66699 -19.333 -22.334 -52 -47.001 -98c10.667 -6.66699 31.667 -21 63 -43s55.833 -38.167 73.5 -48.5s41.334 -21 71.001 -32s57.834 -16.5 84.501 -16.5c58.667 0 108.834 20.5 150.501 61.5s71.5 84.167 89.5 129.5
c1.33301 2.66699 3 7.5 5 14.5s3.66699 11.833 5 14.5s3.5 6 6.5 10s6.5 6.66699 10.5 8s8.66699 2 14 2c19.333 0 29 -9 29 -27c0 -13.333 -7.5 -35.333 -22.5 -66s-35.833 -63.834 -62.5 -99.501s-63.167 -66.834 -109.5 -93.501s-95.5 -40 -147.5 -40
c-20.667 0 -41.167 2.5 -61.5 7.5s-37.333 9.5 -51 13.5s-31.834 12.833 -54.501 26.5s-38.167 22.834 -46.5 27.501s-26.166 17 -53.499 37s-44.333 32 -51 36h-2c-90 -98 -187.667 -147.333 -293 -148c-39.333 0 -71.666 9.33301 -96.999 28s-38 43 -38 73z
M255.993 78.001c0 -35.333 20.334 -52.999 61.001 -52.999c27.333 0 60.166 11.167 98.499 33.5s74.5 60.166 108.5 113.499c-45.333 18 -83.333 27 -114 27c-44 0 -80.667 -13.333 -110 -40s-44 -53.667 -44 -81z" />
    <glyph glyph-name="yen" unicode="&#xa5;" horiz-adv-x="1521" 
d="M301 471c0 16.667 16.3379 25 49.0049 25h453c9.33301 32.667 14 51.667 14 57c0 12 -3.66699 30 -11 54s-18.833 59.167 -34.5 105.5s-29.834 90.833 -42.501 133.5h-285c-28.667 0 -43 7.33301 -43 22c0 16.667 13.667 25 41 25h271c-86 267.333 -131 404 -135 410
c-13.333 19.333 -43.333 29.5 -90 30.5s-70.667 9.83301 -72 26.5c-1.33301 10.667 1.66699 19.834 9 27.501s18 11.5 32 11.5c4 0 14.833 -0.333008 32.5 -1s42.167 -1.66699 73.5 -3s65 -2 101 -2c39.333 0 76.333 0.666992 111 2s62 2.33301 82 3s32 1 36 1
c24.667 0 37 -9 37 -27c0 -13.333 -4 -23 -12 -29l-70 -12c-48 -6.66699 -72 -21.667 -72 -45c0 -9.33301 7.5 -36.833 22.5 -82.5l53.5 -164c20.667 -63.667 35.667 -112.5 45 -146.5h283c27.333 36.667 68.5 87.167 123.5 151.5s97.333 116.333 127 156
s44.5 68.834 44.5 87.501c0 22 -15.167 36.333 -45.5 43s-45.5 18.334 -45.5 35.001c0 22 13.667 33 41 33c4 0 14 -0.333008 30 -1s37.667 -1.66699 65 -3s57.333 -2 90 -2c24.667 0 51.667 0.666992 81 2s46.666 2 51.999 2c30 0 45 -9 45 -27
c0 -10.667 -3.83301 -18.834 -11.5 -24.501s-13.5 -8.83398 -17.5 -9.50098s-12 -1.66699 -24 -3c-18 -1.33301 -34.167 -3.66602 -48.5 -6.99902s-29.333 -9.5 -45 -18.5s-29.334 -16.5 -41.001 -22.5s-26.334 -17.833 -44.001 -35.5l-43 -43
c-11 -11 -28.5 -30.5 -52.5 -58.5l-57.5 -68.5l-69.5 -87l-81 -99.5h263c15.333 0 25.833 -3.16699 31.5 -9.5s7.16699 -12.833 4.5 -19.5c-4 -12 -19.667 -18 -47 -18h-252c-26 0 -47 -9.66699 -63 -29c-122.667 -150 -188.167 -230.833 -196.5 -242.5
s-17.833 -37.834 -28.5 -78.501h438c34 0 51 -8.33301 51 -25c0 -15.333 -15.667 -22.666 -47 -21.999h-455c-5.33301 -28.667 -15.166 -70.334 -29.499 -125.001l-37 -143.5c-10.333 -41 -15.5 -66.5 -15.5 -76.5c0 -27.333 28 -41 84 -41h23h6
c13.333 0 23.166 -0.333008 29.499 -1s12.5 -3 18.5 -7s9 -10.667 9 -20c0 -23.333 -14.333 -35 -43 -35c-4 0 -16.167 0.666992 -36.5 2s-48.333 2.33301 -84 3s-73.834 1 -114.501 1c-46.667 0 -87 -0.333008 -121 -1s-59.167 -1.66699 -75.5 -3s-26.5 -2 -30.5 -2
c-26 0 -39 9.5 -39 28.5s12.5 29.5 37.5 31.5s54.333 4.16699 88 6.5s57.167 11.5 70.5 27.5c10.667 12 32.667 83.667 66 215c13.333 56 25 102.667 35 140h-443c-32.667 -0.666992 -49 6.66602 -49 21.999zM913.005 846l64 -201l164 201h-228z" />
    <glyph glyph-name="section" unicode="&#xa7;" horiz-adv-x="942" 
d="M158 -223c0 44 8.83496 74.499 26.502 91.499s36.834 25.5 57.501 25.5c15.333 0 28.333 -4.83301 39 -14.5s16 -22.834 16 -39.501c0 -18 -6.5 -34.333 -19.5 -49s-31.833 -23.667 -56.5 -27c13.333 -92.667 62.666 -139 147.999 -139c74 0 139.833 36.5 197.5 109.5
s86.5 141.167 86.5 204.5c0 28.667 -8.83301 55.5 -26.5 80.5s-35.334 43.667 -53.001 56s-41.5 26.666 -71.5 42.999s-47.667 26.833 -53 31.5c-98 66.667 -147.333 160 -148 280c0 87.333 23.833 164.166 71.5 230.499s103.834 115.166 168.501 146.499
c-58.667 66.667 -88 143 -88 229c0 109.333 38.833 205 116.5 287s162.834 123 255.501 123c60 0 110.167 -18.5 150.5 -55.5s60.5 -84.833 60.5 -143.5c0 -44 -8.83301 -74.5 -26.5 -91.5s-36.834 -25.5 -57.501 -25.5c-15.333 0 -28.333 4.83301 -39 14.5
s-16 22.834 -16 39.501c0 19.333 7.16699 36.333 21.5 51s32.5 23 54.5 25c-4 36.667 -16.333 66.167 -37 88.5s-39.834 36.333 -57.501 42s-35.5 8.5 -53.5 8.5c-74 0 -140.167 -36.5 -198.5 -109.5s-87.5 -141.167 -87.5 -204.5c0 -27.333 9.16699 -53.5 27.5 -78.5
s36 -43.667 53 -56s40.5 -26.666 70.5 -42.999s45.667 -25.166 47 -26.499c104 -66.667 156 -162.334 156 -287.001c0 -79.333 -22.167 -153.166 -66.5 -221.499s-101.5 -120.166 -171.5 -155.499c57.333 -69.333 86 -145.666 86 -228.999
c0 -109.333 -38.833 -205 -116.5 -287s-162.834 -123 -255.501 -123c-60 0 -110.167 18.833 -150.5 56.5s-60.5 85.167 -60.5 142.5zM389.002 478.999c0 -40.667 18.832 -79.167 56.499 -115.5s74.834 -61.833 111.501 -76.5l57 -25c30 0 69.333 33.167 118 99.5
s73 127.5 73 183.5c0 38 -11 70 -33 96s-57.167 52.667 -105.5 80s-76.5 43.666 -84.5 48.999c-56 -26 -102.167 -69.667 -138.5 -131s-54.5 -114.666 -54.5 -159.999z" />
    <glyph glyph-name="dieresis" unicode="&#xa8;" 
d="M541 1221c0 31.333 13.333 60.668 40 88.001s57 41 91 41c26 0 47.167 -8.66699 63.5 -26s24.5 -38 24.5 -62c0 -32.667 -13.667 -62.334 -41 -89.001s-57.333 -40 -90 -40c-24.667 0 -45.5 8.16699 -62.5 24.5s-25.5 37.5 -25.5 63.5zM907 1221
c0 31.333 12.999 60.333 38.999 87s56 40 90 40c24.667 0 45.834 -8.33301 63.501 -25s26.5 -37.667 26.5 -63c0 -31.333 -13.167 -60.333 -39.5 -87s-56.833 -40 -91.5 -40c-26 0 -47.167 8.5 -63.5 25.5s-24.5 37.833 -24.5 62.5z" />
    <glyph glyph-name="copyright" unicode="&#xa9;" horiz-adv-x="2197" 
d="M248 227c0 165.333 35.501 331 106.501 497s163.167 311.5 276.5 436.5s245.666 226.333 396.999 304s303 116.5 455 116.5c214.667 0 388.5 -74 521.5 -222s199.5 -336 199.5 -564c0 -166.667 -35.833 -333 -107.5 -499s-164.5 -311.167 -278.5 -435.5
s-246.5 -225 -397.5 -302s-301.5 -115.5 -451.5 -115.5c-214.667 0 -388.5 73.667 -521.5 221s-199.5 335 -199.5 563zM330.001 227c0 -206 59 -374.499 177 -505.499s272 -196.5 462 -196.5c186 0 368.333 60.333 547 181s324.334 280 437.001 478s169 402.333 169 613
c0 207.333 -58.833 376.166 -176.5 506.499s-271.834 195.5 -462.501 195.5c-182.667 0 -363.5 -59.667 -542.5 -179s-325.5 -278.5 -439.5 -477.5s-171 -404.167 -171 -615.5zM682.001 367.001c0 168 71.0029 319.503 213.003 454.503s299 202.5 471 202.5
c102.667 0 182.667 -37 240 -111l100 86c19.333 15.333 33 23 41 23c12 0 18 -8.33301 18 -25c0 -5.33301 -30 -128 -90 -368c-6.66699 -23.333 -18.334 -35 -35.001 -35c-6.66699 0 -13.334 2.33301 -20.001 7s-10 10.334 -10 17.001c0 1.33301 0.333008 9.66602 1 24.999
s1 29 1 41c0 96.667 -22.833 167 -68.5 211s-99.5 66 -161.5 66c-74 0 -145.333 -20.5 -214 -61.5s-125 -93.167 -169 -156.5c-40.667 -60 -73.334 -133.333 -98.001 -220s-37 -161.334 -37 -224.001c0 -98 28 -169.333 84 -214s119.667 -67 191 -67
c79.333 0 156.833 28 232.5 84s128.5 128.333 158.5 217c9.33301 26 18 40.333 26 43c8 5.33301 17.167 5.66602 27.5 0.999023s15.5 -12.334 15.5 -23.001c0 -20.667 -10.833 -51.167 -32.5 -91.5s-51.667 -83 -90 -128s-90.5 -83.833 -156.5 -116.5s-136 -49 -210 -49
c-118.667 0 -219.667 37.667 -303 113s-125 175 -125 299z" />
    <glyph glyph-name="ordfeminine" unicode="&#xaa;" horiz-adv-x="942" 
d="M111 663.5c0 15 13.667 22.5 41 22.5h626c32.667 0 49 -7.5 49 -22.5s-15 -22.5 -45 -22.5h-630c-27.333 0 -41 7.5 -41 22.5zM207 1022c0 134 42.667 257.335 128 370.002s175.666 169 270.999 169c56 0 99.667 -28 131 -84h2c19.333 28.667 42.666 43 69.999 43
c36.667 0 55 -18 55 -54c0 -10.667 -22.167 -103.334 -66.5 -278.001s-66.5 -279.334 -66.5 -314.001c0 -54.667 17.667 -81.667 53 -81c9.33301 0 18.166 2 26.499 6s16.333 10.333 24 19s14.5 17.834 20.5 27.501s11.833 21.334 17.5 35.001s10.5 26 14.5 37
s8.33301 24 13 39s8 26.667 10 35s4.83301 18.833 8.5 31.5s5.5 20.667 5.5 24c6.66699 23.333 18 34.666 34 33.999c20.667 0 31 -8.66699 31 -26c-2.66699 -16.667 -6.66699 -37.334 -12 -62.001s-19.333 -62.5 -42 -113.5s-47.667 -86.833 -75 -107.5
c-23.333 -18 -50.666 -27 -81.999 -27c-79.333 0 -132.666 40.333 -159.999 121c-70.667 -80.667 -138.667 -121 -204 -121c-61.333 0 -111.166 26 -149.499 78s-57.5 118.333 -57.5 199zM344 922.002c0 -35.333 6.16699 -65.668 18.5 -91.001s31.5 -38 57.5 -38
c35.333 0 72.5 19.667 111.5 59s63.833 72 74.5 98c68 266 102.333 408 103 426c0 32.667 -9.33301 63.334 -28 92.001s-43 43 -73 43c-52 0 -99.833 -43.667 -143.5 -131s-74.667 -175 -93 -263s-27.5 -153 -27.5 -195z" />
    <glyph glyph-name="guillemotleft" unicode="&#xab;" horiz-adv-x="1150" 
d="M389 494c0 8 7.16797 17.502 21.501 28.502s36.166 26.667 65.499 47s62.166 45.166 98.499 74.499s81 72.333 134 129s106.167 120.667 159.5 192c8 13.333 18.333 20 31 20s19 -6.16699 19 -18.5s-17.167 -44.333 -51.5 -96s-83.5 -114.5 -147.5 -188.5
s-129 -137.333 -195 -190c46.667 -74 83.334 -149.5 110.001 -226.5s41.667 -130.333 45 -160s5 -53.167 5 -70.5c0 -20.667 -7.33301 -31 -22 -31c-10.667 0 -20.667 19.167 -30 57.5s-30 94 -62 167s-78 142.167 -138 207.5c-28.667 29.333 -43 48.666 -43 57.999z
M702.001 494.002c0 8 7.16797 17.166 21.501 27.499l66 46c29.667 20.333 62.834 45.166 99.501 74.499s81.667 72.333 135 129s106.666 121.334 159.999 194.001c8 13.333 17.333 20 28 20c12 0 18.167 -6.16699 18.5 -18.5s-16.667 -44.333 -51 -96
s-83.5 -114.5 -147.5 -188.5s-128.667 -137.333 -194 -190c46.667 -74 83.167 -149.5 109.5 -226.5s41.166 -130.333 44.499 -160s5 -53.167 5 -70.5c0 -22 -6.83301 -33 -20.5 -33s-23.167 13.667 -28.5 41c-12 56 -28.667 108.833 -50 158.5s-42.833 90.334 -64.5 122.001
s-42.5 59.667 -62.5 84l-49.5 58.5c-13 14.667 -19.5 24 -19.5 28z" />
    <glyph glyph-name="logicalnot" unicode="&#xac;" horiz-adv-x="1359" 
d="M330 688c0 27.333 19.666 41 58.999 41h924c39.333 0 59 -15 59 -45c0 -8 -35.333 -154 -106 -438c-9.33301 -39.333 -25.666 -59.333 -48.999 -60c-26 0 -39 13.667 -39 41c0 8 4.66699 30.833 14 68.5l41 161c18 69.667 33.667 133.167 47 190.5h-891
c-39.333 0 -59 13.667 -59 41z" />
    <glyph glyph-name="uni00AD" unicode="&#xad;" horiz-adv-x="733" 
d="M176 412c5.33301 48 17.001 75.335 35.001 82.002c5.33301 2.66699 14.333 4 27 4h407c30 0 45 -9.66699 45 -29c0 -2.66699 -0.666992 -8.83398 -2 -18.501s-4.33301 -21.334 -9 -35.001s-10.334 -22.5 -17.001 -26.5c-8 -4 -18.333 -6 -31 -6h-410
c-30 0 -45 9.66699 -45 29z" />
    <glyph glyph-name="registered" unicode="&#xae;" horiz-adv-x="2197" 
d="M248 227c0 165.333 35.501 331 106.501 497s163.167 311.5 276.5 436.5s245.666 226.333 396.999 304s303 116.5 455 116.5c214.667 0 388.5 -74 521.5 -222s199.5 -336 199.5 -564c0 -166.667 -35.833 -333 -107.5 -499s-164.5 -311.167 -278.5 -435.5
s-246.5 -225 -397.5 -302s-301.5 -115.5 -451.5 -115.5c-214.667 0 -388.5 73.667 -521.5 221s-199.5 335 -199.5 563zM330.001 227c0 -206 59 -374.499 177 -505.499s272 -196.5 462 -196.5c186 0 368.333 60.333 547 181s324.334 280 437.001 478s169 402.333 169 613
c0 207.333 -58.833 376.166 -176.5 506.499s-271.834 195.5 -462.501 195.5c-182.667 0 -363.5 -59.667 -542.5 -179s-325.5 -278.5 -439.5 -477.5s-171 -404.167 -171 -615.5zM518.001 29.001c0 19.333 12.665 30.335 37.998 33.002s55 4.66699 89 6s58 10.666 72 27.999
c10.667 13.333 22.334 46.333 35.001 99l159 641c5.33301 22 8.33301 35.667 9 41c0 15.333 -7.66699 25.166 -23 29.499s-45.333 7.16602 -90 8.49902c-39.333 0 -59 9.66699 -59 29c0 23.333 15.667 35 47 35h475c140.667 0 243 -23.5 307 -70.5s96 -98.5 96 -154.5
c0 -49.333 -21.833 -94.833 -65.5 -136.5s-88.667 -72 -135 -91s-91.5 -32.833 -135.5 -41.5c50.667 -26 85.167 -52.5 103.5 -79.5s27.5 -63.833 27.5 -110.5c0 -9.33301 -0.666992 -31.5 -2 -66.5s-2 -66.833 -2 -95.5c0 -87.333 22.667 -131 68 -131
c31.333 0 58.666 13.667 81.999 41s41.5 58.333 54.5 93s20.167 52.667 21.5 54c4 5.33301 12 8.33301 24 9c18 0 27 -9 27 -27c0 -12 -6.16699 -33.833 -18.5 -65.5s-36.666 -64.834 -72.999 -99.501s-78.833 -52 -127.5 -52c-68 0 -127.667 13.333 -179 40
s-77 71.334 -77 134.001c0 23.333 6.83301 59.5 20.5 108.5s20.5 84.5 20.5 106.5c0 36.667 -15 67.334 -45 92.001c-27.333 20.667 -70.333 31 -129 31h-152c-58.667 -228 -88 -349.667 -88 -365c0 -26 29.333 -39 88 -39h12c39.333 0 62 -5.33301 68 -16
c2.66699 -5.33301 4 -9.33301 4 -12c0 -23.333 -15 -35 -45 -35c-5.33301 0 -17.333 0.666992 -36 2s-45.667 2.33301 -81 3s-75.666 1 -120.999 1c-52 0 -100.5 -0.666992 -145.5 -2s-71.5 -2 -79.5 -2c-26 0 -39 9 -39 27zM992.999 512.003h143.999
c132.667 0 225.334 27.333 278.001 82c23.333 23.333 40.833 54.333 52.5 93s17.5 71 17.5 97c0 30 -7.16699 54.333 -21.5 73s-35.5 32 -63.5 40s-53.333 13 -76 15s-51 3 -85 3h-65c-40.667 0 -66 -6 -76 -18s-22.333 -49 -37 -111c-33.333 -130.667 -56 -222 -68 -274z
" />
    <glyph glyph-name="macron" unicode="&#xaf;" 
d="M524 1360c0 23.333 14.333 35 43 35h588c30 0 45 -9 45 -27c0 -24.667 -15 -37 -45 -37h-588c-28.667 0 -43 9.66699 -43 29z" />
    <glyph glyph-name="degree" unicode="&#xb0;" horiz-adv-x="733" 
d="M449 1151c0 62.667 25.833 119.666 77.5 170.999s111.167 77 178.5 77c49.333 0 89.833 -15.667 121.5 -47s47.5 -71.666 47.5 -120.999c0 -62.667 -25.833 -119.667 -77.5 -171s-110.167 -77 -175.5 -77c-50.667 0 -92 16 -124 48s-48 72 -48 120zM530 1151
c0 -26 8.33301 -46.833 25 -62.5s38.667 -23.5 66 -23.5c44 0 83.667 17.333 119 52s53 72.667 53 114c0 26 -8.33301 46.833 -25 62.5s-38.667 23.5 -66 23.5c-42 0 -81.167 -17.5 -117.5 -52.5s-54.5 -72.833 -54.5 -113.5z" />
    <glyph glyph-name="plusminus" unicode="&#xb1;" horiz-adv-x="1568" 
d="M178 82c0 27.333 20.667 41 62 41h532l127 506h-504l-4 -2h-6c-39.333 0 -59 13.667 -59 41c0 28.667 21 43 63 43h531l129 518c8 44 24.333 65.667 49 65c12 0 21.5 -4.33301 28.5 -13s10.5 -18.667 10.5 -30c0 -9.33301 -7.16699 -42 -21.5 -98l-56.5 -217
c-23.333 -88.667 -41.666 -163.667 -54.999 -225h512c39.333 0 59 -13.667 59 -41c0 -28.667 -20.667 -43 -62 -43c-1.33301 0 -3.33301 0.333008 -6 1s-4.66699 1 -6 1h-520l-125 -506h512c40.667 0 61.167 -13.667 61.5 -41s-18.834 -41 -57.501 -41h-1134
c-40 0 -60 13.667 -60 41z" />
    <glyph glyph-name="acute" unicode="&#xb4;" 
d="M709 1053l0.00195312 2.00098c0 8 12 23 36 45l89 69l170 140c19.333 16.667 37.666 24.667 54.999 24c15.333 0 28.666 -5.83301 39.999 -17.5s17 -24.834 17 -39.501c0 -26 -20.333 -51.333 -61 -76c-204.667 -118.667 -310.667 -178 -318 -178c-8 0 -14.667 3 -20 9
s-8 13.333 -8 22z" />
    <glyph glyph-name="uni00B5" unicode="&#xb5;" 
d="M49 -387c0 9.33301 2.67188 23.6719 8.00488 43.0049l291 1167c16.667 53.333 44 80 82 80c13.333 0 25.833 -4.33301 37.5 -13s17.5 -23.334 17.5 -44.001c0 -16.667 -24.167 -117.5 -72.5 -302.5s-72.5 -301.833 -72.5 -350.5c0 -62.667 13.333 -106.334 40 -131.001
s57.667 -37 93 -37c58.667 0 110.167 22.167 154.5 66.5s74.166 84.166 89.499 119.499c5.33301 10.667 10.666 29.667 15.999 57l127 508c0 1.33301 1 6.16602 3 14.499s4 15.5 6 21.5s5.5 13.833 10.5 23.5s10.167 17.167 15.5 22.5s12.5 10.5 21.5 15.5
s18.833 7.5 29.5 7.5c15.333 0 28.333 -4.83301 39 -14.5s16 -22.834 16 -39.501c0 -5.33301 -3.33301 -23.666 -10 -54.999l-135 -547c-13.333 -52 -20 -91.667 -20 -119c0 -54.667 17.667 -81.667 53 -81c16.667 0 32 6.83301 46 20.5s26.167 32.667 36.5 57
s19 46.166 26 65.499s13.833 42.666 20.5 69.999s10.667 42.333 12 45c5.33301 20.667 17 30.667 35 30c19.333 0 29 -8.66699 29 -26c-2.66699 -16.667 -6.83398 -37.667 -12.501 -63s-19.334 -63.5 -41.001 -114.5s-46.834 -86.833 -75.501 -107.5
c-24.667 -16.667 -52 -25 -82 -25c-84.667 0 -140 46 -166 138c-70.667 -91.333 -154.667 -137.333 -252 -138c-64 0 -124 20 -180 60l-54 -217c-27.333 -110.667 -44 -176 -50 -196s-13 -34 -21 -42l-2 -2c-15.333 -15.333 -33.333 -22.666 -54 -21.999
c-13.333 0 -25.833 5 -37.5 15s-17.5 23.333 -17.5 40z" />
    <glyph glyph-name="paragraph" unicode="&#xb6;" horiz-adv-x="1255" 
d="M381 854c0 58.667 14 120.166 42 184.499s66.833 125.5 116.5 183.5s115.167 105.667 196.5 143s170.666 56 267.999 56h426c40.667 0 61 -13.667 61 -41s-21.333 -41 -64 -41h-100l-414 -1654h82c40.667 0 61.167 -13.667 61.5 -41s-19.5 -41 -59.5 -41h-485
c-39.333 0 -59 13.667 -59 41s20.333 41 61 41h102l197 788c-79.333 6.66699 -148.333 23.334 -207 50.001s-103.667 59.167 -135 97.5s-54.166 77 -68.499 116s-21.5 78.167 -21.5 117.5zM702 -315.001h127l414 1654h-129z" />
    <glyph glyph-name="periodcentered" unicode="&#xb7;" horiz-adv-x="628" 
d="M326 475c0 31.333 13.667 60.334 41 87.001s58 40 92 40c26 0 47.167 -8.16699 63.5 -24.5s24.5 -36.833 24.5 -61.5c0 -32.667 -13.667 -62.334 -41 -89.001s-57.333 -40 -90 -40c-26 0 -47.5 8.5 -64.5 25.5s-25.5 37.833 -25.5 62.5z" />
    <glyph glyph-name="cedilla" unicode="&#xb8;" horiz-adv-x="942" 
d="M158 -370.5c0 15 17.666 22.499 52.999 22.499h4c190 0 285 41.667 285 125c0 22 -6.5 38.667 -19.5 50s-27.333 18 -43 20s-30 5.83301 -43 11.5s-19.5 13.834 -19.5 24.501c0 1.33301 8.66699 39 26 113c5.33301 22 11.5 35.667 18.5 41s22.167 8 45.5 8h22
c32.667 0 49.334 -9.66699 50.001 -29c0 -9.33301 -9.66699 -51 -29 -125c83.333 -18 125 -56 125 -114c0 -65.333 -37.5 -110 -112.5 -134s-180.833 -36 -317.5 -36h-8c-24.667 0 -37 7.5 -37 22.5z" />
    <glyph glyph-name="ordmasculine" unicode="&#xba;" horiz-adv-x="942" 
d="M111 663.5c0 15 13 22.5 39 22.5h579c31.333 0 47 -8 47 -24c0 -13.333 -13 -20.333 -39 -21h-583c-28.667 0 -43 7.5 -43 22.5zM209 1040c0 130 47.5 249.332 142.5 357.999s198.5 163 310.5 163c78 0 140.833 -28 188.5 -84s71.5 -127 71.5 -213
c0 -131.333 -47.5 -250.666 -142.5 -357.999s-198.5 -161 -310.5 -161c-78 0 -140.833 27.667 -188.5 83s-71.5 126 -71.5 212zM352 960.999c0 -60 12.333 -103 37 -129s52 -39 82 -39c54.667 0 110 34 166 102c42 53.333 76 129.833 102 229.5s39 173.5 39 221.5
c0 57.333 -11.5 99.5 -34.5 126.5s-51.167 40.5 -84.5 40.5c-57.333 0 -113 -34.667 -167 -104c-42 -53.333 -75.833 -129.333 -101.5 -228s-38.5 -172 -38.5 -220z" />
    <glyph glyph-name="guillemotright" unicode="&#xbb;" horiz-adv-x="1150" 
d="M166 22.5c0 12.333 17.001 44.167 51.001 95.5s83.167 113.833 147.5 187.5s129.166 137.834 194.499 192.501v2c-53.333 75.333 -93 159 -119 251s-39 160.333 -39 205c0 19.333 7 29 21 29c10.667 0 20.5 -19.167 29.5 -57.5s29.5 -94 61.5 -167
s78 -142.167 138 -207.5c28.667 -30 43 -49 43 -57c0 -6.66699 -7.83301 -15.834 -23.5 -27.501l-69.5 -51.5c-30.667 -22.667 -64.5 -49.334 -101.5 -80.001s-81.333 -73.667 -133 -129s-102.167 -116.333 -151.5 -183c-8 -13.333 -18.167 -20.166 -30.5 -20.499
s-18.5 5.66699 -18.5 18zM479.001 23.001c0 13.333 17.167 45.6689 51.5 97.002s83.5 113.833 147.5 187.5s128.667 137.167 194 190.5v2c-53.333 74 -92.833 157 -118.5 249s-38.5 161 -38.5 207c0 19.333 6.66699 29 20 29c10.667 0 20.5 -19.167 29.5 -57.5
s29.5 -94 61.5 -167s78.333 -142.167 139 -207.5c28.667 -30 43 -49 43 -57c0 -6.66699 -7.83301 -15.834 -23.5 -27.501l-70 -51.5c-31 -22.667 -64.833 -49.334 -101.5 -80.001s-81 -73.667 -133 -129s-102.667 -116.333 -152 -183c-8 -13.333 -18.167 -20 -30.5 -20
s-18.5 6 -18.5 18z" />
    <glyph glyph-name="questiondown" unicode="&#xbf;" 
d="M170 -190c0 110.667 43.667 209.331 131 295.998c18 19.333 83.333 73.333 196 162s173.667 138.667 183 150c28.667 31.333 43 67.333 43 108c0 45.333 -18.333 68 -55 68c-26 0 -54 -12 -84 -36s-52.667 -53.667 -68 -89c-8 -20.667 -12.667 -31.667 -14 -33
c-8 -9.33301 -18.833 -12.666 -32.5 -9.99902s-20.5 11 -20.5 25c0 32.667 22.5 72.5 67.5 119.5s96.833 70.5 155.5 70.5c38 0 68 -13.333 90 -40s33 -60.334 33 -101.001c0 -66.667 -22 -126 -66 -178c-12 -15.333 -107 -93.333 -285 -234l-22 -16
c-15.333 -10.667 -27 -19.834 -35 -27.501l-36.5 -34c-16.333 -15 -29.666 -30 -39.999 -45s-21.333 -32.167 -33 -51.5s-20.167 -40.166 -25.5 -62.499s-8 -45.166 -8 -68.499c0 -52 16 -95 48 -129s74 -51 126 -51c78 0 151.667 33.333 221 100s126.666 158 171.999 274
c-50.667 1.33301 -76 23.333 -76 66c0 26 10.333 48.833 31 68.5s43.334 29.5 68.001 29.5c19.333 0 35.666 -6.16699 48.999 -18.5s20 -27.833 20 -46.5c0 -26 -10.833 -65.667 -32.5 -119s-52 -110.666 -91 -171.999s-91 -114.5 -156 -159.5s-134.333 -67.5 -208 -67.5
s-133 23.5 -178 70.5s-67.5 107.5 -67.5 181.5zM639 894.997c0 31.333 13.334 60.667 40.001 88s57 41 91 41c26 0 47.5 -8.5 64.5 -25.5s25.5 -37.833 25.5 -62.5c0 -34 -13.667 -64 -41 -90s-57.333 -39 -90 -39c-24.667 0 -45.834 8.16699 -63.501 24.5
s-26.5 37.5 -26.5 63.5z" />
    <glyph glyph-name="Agrave" unicode="&#xc0;" horiz-adv-x="1521" 
d="M121 29c0 18 7.50195 28.9951 22.502 32.9951s33.667 6.33301 56 7s51.333 14.334 87 41.001s69.834 67 102.501 121l670 1180c1.33301 1.33301 3.66602 5.5 6.99902 12.5s6.66602 12.167 9.99902 15.5l12.5 13c5 5.33301 10.5 9 16.5 11s12.333 3 19 3
c5.33301 0 10.166 -0.333008 14.499 -1s7.83301 -2.66699 10.5 -6s4.66699 -5.66602 6 -6.99902s2.66602 -4.66602 3.99902 -9.99902s2 -8.66602 2 -9.99902s0.666992 -5.66602 2 -12.999v-10l88 -1272c1.33301 -31.333 8.83301 -51 22.5 -59s41.834 -13 84.501 -15
c36.667 0 55 -9.33301 55 -28c0 -23.333 -13.667 -35 -41 -35c-6.66699 0 -31.167 1 -73.5 3s-88.166 3 -137.499 3c-46.667 0 -87.334 -0.333008 -122.001 -1s-60.5 -1.66699 -77.5 -3s-26.833 -2 -29.5 -2c-20.667 0 -31 9.66699 -31 29c0 13.333 5.5 22.833 16.5 28.5
s24.333 8 40 7s33.667 0.666992 54 5s38.166 12.5 53.499 24.5c10.667 9.33301 16 28 16 56c0 8 -1 24.333 -3 49s-4.66699 62.5 -8 113.5s-7 103.833 -11 158.5h-467l-40 -71l-35 -60.5l-28.5 -49c-10.333 -17.667 -18.166 -31.667 -23.499 -42l-17.5 -32.5
c-6.33301 -11.333 -10.833 -20.5 -13.5 -27.5s-5.66699 -14.167 -9 -21.5s-5.33301 -13.5 -6 -18.5s-1 -10.167 -1 -15.5c0 -19.333 5.83301 -34.333 17.5 -45s24.667 -16.667 39 -18s27.166 -4.5 38.499 -9.5s17 -12.167 17 -21.5c0 -26 -13.667 -39 -41 -39
c-4 0 -13.833 0.666992 -29.5 2s-37.167 2.33301 -64.5 3s-56.666 1 -87.999 1c-26 0 -55 -1 -87 -3s-50 -3 -54 -3c-30 0 -45 9.66699 -45 29zM629.002 531.995h426l-45 670zM918.002 1708c0 16.667 7.5 33.5 22.5 50.5s32.5 25.5 52.5 25.5
c15.333 0 33.333 -7.66699 54 -23c147.333 -110.667 223 -169.334 227 -176.001c2.66699 -4 4 -8.66699 4 -14c0 -8 -3 -15.833 -9 -23.5s-14 -11.5 -24 -11.5c-4 0 -95.333 37.667 -274 113c-35.333 14.667 -53 34.334 -53 59.001z" />
    <glyph glyph-name="Aacute" unicode="&#xc1;" horiz-adv-x="1521" 
d="M121 29c0 18 7.50195 28.9951 22.502 32.9951s33.667 6.33301 56 7s51.333 14.334 87 41.001s69.834 67 102.501 121l670 1180c1.33301 1.33301 3.66602 5.5 6.99902 12.5s6.66602 12.167 9.99902 15.5l12.5 13c5 5.33301 10.5 9 16.5 11s12.333 3 19 3
c5.33301 0 10.166 -0.333008 14.499 -1s7.83301 -2.66699 10.5 -6s4.66699 -5.66602 6 -6.99902s2.66602 -4.66602 3.99902 -9.99902s2 -8.66602 2 -9.99902s0.666992 -5.66602 2 -12.999v-10l88 -1272c1.33301 -31.333 8.83301 -51 22.5 -59s41.834 -13 84.501 -15
c36.667 0 55 -9.33301 55 -28c0 -23.333 -13.667 -35 -41 -35c-6.66699 0 -31.167 1 -73.5 3s-88.166 3 -137.499 3c-46.667 0 -87.334 -0.333008 -122.001 -1s-60.5 -1.66699 -77.5 -3s-26.833 -2 -29.5 -2c-20.667 0 -31 9.66699 -31 29c0 13.333 5.5 22.833 16.5 28.5
s24.333 8 40 7s33.667 0.666992 54 5s38.166 12.5 53.499 24.5c10.667 9.33301 16 28 16 56c0 8 -1 24.333 -3 49s-4.66699 62.5 -8 113.5s-7 103.833 -11 158.5h-467l-40 -71l-35 -60.5l-28.5 -49c-10.333 -17.667 -18.166 -31.667 -23.499 -42l-17.5 -32.5
c-6.33301 -11.333 -10.833 -20.5 -13.5 -27.5s-5.66699 -14.167 -9 -21.5s-5.33301 -13.5 -6 -18.5s-1 -10.167 -1 -15.5c0 -19.333 5.83301 -34.333 17.5 -45s24.667 -16.667 39 -18s27.166 -4.5 38.499 -9.5s17 -12.167 17 -21.5c0 -26 -13.667 -39 -41 -39
c-4 0 -13.833 0.666992 -29.5 2s-37.167 2.33301 -64.5 3s-56.666 1 -87.999 1c-26 0 -55 -1 -87 -3s-50 -3 -54 -3c-30 0 -45 9.66699 -45 29zM629.002 531.995h426l-45 670zM973.002 1567c0 12 9.83398 23.835 29.501 35.502s115.5 64.5 287.5 158.5
c23.333 13.333 43.166 20.166 59.499 20.499s29.666 -5.33398 39.999 -17.001s15.5 -25.167 15.5 -40.5c0 -32.667 -24.667 -57.667 -74 -75c-217.333 -75.333 -327.666 -113 -330.999 -113c-18 0 -27 10.333 -27 31z" />
    <glyph glyph-name="Acircumflex" unicode="&#xc2;" horiz-adv-x="1521" 
d="M121 29c0 18 7.50195 28.9951 22.502 32.9951s33.667 6.33301 56 7s51.333 14.334 87 41.001s69.834 67 102.501 121l670 1180c1.33301 1.33301 3.66602 5.5 6.99902 12.5s6.66602 12.167 9.99902 15.5l12.5 13c5 5.33301 10.5 9 16.5 11s12.333 3 19 3
c5.33301 0 10.166 -0.333008 14.499 -1s7.83301 -2.66699 10.5 -6s4.66699 -5.66602 6 -6.99902s2.66602 -4.66602 3.99902 -9.99902s2 -8.66602 2 -9.99902s0.666992 -5.66602 2 -12.999v-10l88 -1272c1.33301 -31.333 8.83301 -51 22.5 -59s41.834 -13 84.501 -15
c36.667 0 55 -9.33301 55 -28c0 -23.333 -13.667 -35 -41 -35c-6.66699 0 -31.167 1 -73.5 3s-88.166 3 -137.499 3c-46.667 0 -87.334 -0.333008 -122.001 -1s-60.5 -1.66699 -77.5 -3s-26.833 -2 -29.5 -2c-20.667 0 -31 9.66699 -31 29c0 13.333 5.5 22.833 16.5 28.5
s24.333 8 40 7s33.667 0.666992 54 5s38.166 12.5 53.499 24.5c10.667 9.33301 16 28 16 56c0 8 -1 24.333 -3 49s-4.66699 62.5 -8 113.5s-7 103.833 -11 158.5h-467l-40 -71l-35 -60.5l-28.5 -49c-10.333 -17.667 -18.166 -31.667 -23.499 -42l-17.5 -32.5
c-6.33301 -11.333 -10.833 -20.5 -13.5 -27.5s-5.66699 -14.167 -9 -21.5s-5.33301 -13.5 -6 -18.5s-1 -10.167 -1 -15.5c0 -19.333 5.83301 -34.333 17.5 -45s24.667 -16.667 39 -18s27.166 -4.5 38.499 -9.5s17 -12.167 17 -21.5c0 -26 -13.667 -39 -41 -39
c-4 0 -13.833 0.666992 -29.5 2s-37.167 2.33301 -64.5 3s-56.666 1 -87.999 1c-26 0 -55 -1 -87 -3s-50 -3 -54 -3c-30 0 -45 9.66699 -45 29zM629.002 531.995h426l-45 670zM887.002 1546c0 8 8 20.334 24 37.001c187.333 168 284.333 254 291 258c4 1.33301 8 2 12 2
c13.333 0 32.666 -21 57.999 -63c90 -146 135 -223.167 135 -231.5s-3.83301 -15.5 -11.5 -21.5s-15.5 -9 -23.5 -9s-17.167 6 -27.5 18s-35.833 46 -76.5 102l-70 97c-9.33301 -8 -90.666 -73.667 -243.999 -197l-8 -6c-4 -4 -8.66699 -7.33301 -14 -10s-11 -4 -17 -4
c-18.667 -0.666992 -28 8.66602 -28 27.999z" />
    <glyph glyph-name="Atilde" unicode="&#xc3;" horiz-adv-x="1521" 
d="M121 29c0 18 7.50195 28.9951 22.502 32.9951s33.667 6.33301 56 7s51.333 14.334 87 41.001s69.834 67 102.501 121l670 1180c1.33301 1.33301 3.66602 5.5 6.99902 12.5s6.66602 12.167 9.99902 15.5l12.5 13c5 5.33301 10.5 9 16.5 11s12.333 3 19 3
c5.33301 0 10.166 -0.333008 14.499 -1s7.83301 -2.66699 10.5 -6s4.66699 -5.66602 6 -6.99902s2.66602 -4.66602 3.99902 -9.99902s2 -8.66602 2 -9.99902s0.666992 -5.66602 2 -12.999v-10l88 -1272c1.33301 -31.333 8.83301 -51 22.5 -59s41.834 -13 84.501 -15
c36.667 0 55 -9.33301 55 -28c0 -23.333 -13.667 -35 -41 -35c-6.66699 0 -31.167 1 -73.5 3s-88.166 3 -137.499 3c-46.667 0 -87.334 -0.333008 -122.001 -1s-60.5 -1.66699 -77.5 -3s-26.833 -2 -29.5 -2c-20.667 0 -31 9.66699 -31 29c0 13.333 5.5 22.833 16.5 28.5
s24.333 8 40 7s33.667 0.666992 54 5s38.166 12.5 53.499 24.5c10.667 9.33301 16 28 16 56c0 8 -1 24.333 -3 49s-4.66699 62.5 -8 113.5s-7 103.833 -11 158.5h-467l-40 -71l-35 -60.5l-28.5 -49c-10.333 -17.667 -18.166 -31.667 -23.499 -42l-17.5 -32.5
c-6.33301 -11.333 -10.833 -20.5 -13.5 -27.5s-5.66699 -14.167 -9 -21.5s-5.33301 -13.5 -6 -18.5s-1 -10.167 -1 -15.5c0 -19.333 5.83301 -34.333 17.5 -45s24.667 -16.667 39 -18s27.166 -4.5 38.499 -9.5s17 -12.167 17 -21.5c0 -26 -13.667 -39 -41 -39
c-4 0 -13.833 0.666992 -29.5 2s-37.167 2.33301 -64.5 3s-56.666 1 -87.999 1c-26 0 -55 -1 -87 -3s-50 -3 -54 -3c-30 0 -45 9.66699 -45 29zM629.002 531.995h426l-45 670zM813.002 1661c0 9.33301 6 20.3311 18 32.998c90 87.333 169.333 131 238 131
c40.667 0 88.667 -18.833 144 -56.5s98 -56.5 128 -56.5c46.667 0 107 31.333 181 94c9.33301 8 18.166 12.833 26.499 14.5s14.166 0.333984 17.499 -3.99902s5 -9.16602 5 -14.499c0 -18 -30 -49.833 -90 -95.5s-115.333 -68.5 -166 -68.5
c-39.333 0 -87.166 18.833 -143.499 56.5s-100.166 56.5 -131.499 56.5c-28.667 0 -58 -9.16699 -88 -27.5s-55.5 -36.5 -76.5 -54.5s-35.833 -27 -44.5 -27c-12 0.666992 -18 7 -18 19z" />
    <glyph glyph-name="Adieresis" unicode="&#xc4;" horiz-adv-x="1521" 
d="M121 29c0 18 7.50195 28.9951 22.502 32.9951s33.667 6.33301 56 7s51.333 14.334 87 41.001s69.834 67 102.501 121l670 1180c1.33301 1.33301 3.66602 5.5 6.99902 12.5s6.66602 12.167 9.99902 15.5l12.5 13c5 5.33301 10.5 9 16.5 11s12.333 3 19 3
c5.33301 0 10.166 -0.333008 14.499 -1s7.83301 -2.66699 10.5 -6s4.66699 -5.66602 6 -6.99902s2.66602 -4.66602 3.99902 -9.99902s2 -8.66602 2 -9.99902s0.666992 -5.66602 2 -12.999v-10l88 -1272c1.33301 -31.333 8.83301 -51 22.5 -59s41.834 -13 84.501 -15
c36.667 0 55 -9.33301 55 -28c0 -23.333 -13.667 -35 -41 -35c-6.66699 0 -31.167 1 -73.5 3s-88.166 3 -137.499 3c-46.667 0 -87.334 -0.333008 -122.001 -1s-60.5 -1.66699 -77.5 -3s-26.833 -2 -29.5 -2c-20.667 0 -31 9.66699 -31 29c0 13.333 5.5 22.833 16.5 28.5
s24.333 8 40 7s33.667 0.666992 54 5s38.166 12.5 53.499 24.5c10.667 9.33301 16 28 16 56c0 8 -1 24.333 -3 49s-4.66699 62.5 -8 113.5s-7 103.833 -11 158.5h-467l-40 -71l-35 -60.5l-28.5 -49c-10.333 -17.667 -18.166 -31.667 -23.499 -42l-17.5 -32.5
c-6.33301 -11.333 -10.833 -20.5 -13.5 -27.5s-5.66699 -14.167 -9 -21.5s-5.33301 -13.5 -6 -18.5s-1 -10.167 -1 -15.5c0 -19.333 5.83301 -34.333 17.5 -45s24.667 -16.667 39 -18s27.166 -4.5 38.499 -9.5s17 -12.167 17 -21.5c0 -26 -13.667 -39 -41 -39
c-4 0 -13.833 0.666992 -29.5 2s-37.167 2.33301 -64.5 3s-56.666 1 -87.999 1c-26 0 -55 -1 -87 -3s-50 -3 -54 -3c-30 0 -45 9.66699 -45 29zM629.002 531.995h426l-45 670zM897.002 1698c0 31.333 12.999 60.333 38.999 87s56 40 90 40
c24.667 0 45.834 -8.16699 63.501 -24.5s26.5 -37.5 26.5 -63.5c0 -31.333 -13.333 -60.333 -40 -87s-57 -40 -91 -40c-26 0 -47.167 8.5 -63.5 25.5s-24.5 37.833 -24.5 62.5zM1261 1698c0 31.333 13.334 60.666 40.001 87.999s57 41 91 41c26 0 47.333 -8.5 64 -25.5
s25 -37.833 25 -62.5c0 -31.333 -13.333 -60.666 -40 -87.999s-57.334 -41 -92.001 -41c-26 0 -47.167 8.5 -63.5 25.5s-24.5 37.833 -24.5 62.5z" />
    <glyph glyph-name="Aring" unicode="&#xc5;" horiz-adv-x="1521" 
d="M121 29c0 15.333 5.16699 24.835 15.5 28.502s27.333 7.33398 51 11.001s44.5 9.5 62.5 17.5c50.667 23.333 101.667 80 153 170l666 1171c-64 24.667 -96 76 -96 154c0 74 26.667 140.667 80 200s110.666 89 171.999 89c44 0 78.5 -15.333 103.5 -46
s37.5 -68.667 37.5 -114c0 -61.333 -19.833 -119.333 -59.5 -174s-88.167 -91 -145.5 -109c2.66699 -24.667 5.33398 -64 8.00098 -118l74 -1065c6.66699 -91.333 13 -142 19 -152c8 -16.667 33 -26.334 75 -29.001h29c31.333 0 47 -9.33301 47 -28
c0 -23.333 -13.667 -35 -41 -35c-4 0 -15.167 0.666992 -33.5 2s-44 2.33301 -77 3s-68.5 1 -106.5 1c-36.667 0 -71 -0.333008 -103 -1s-57.667 -1.33398 -77 -2.00098s-31.666 -1 -36.999 -1c-24.667 0 -37 8.16699 -37 24.5s9.5 27.333 28.5 33s39.5 7.66699 61.5 6
s42.5 3.66602 61.5 15.999s28.5 32.833 28.5 61.5c0 10.667 -1 28 -3 52s-4.66699 61.667 -8 113l-11 163h-467c-110.667 -195.333 -168 -300.333 -172 -315c-1.33301 -5.33301 -2 -12.333 -2 -21c0 -20.667 5.83301 -36 17.5 -46s24.667 -16 39 -18
s27.166 -6.16699 38.499 -12.5s17 -14.833 17 -25.5c0 -22 -13.667 -33 -41 -33c-4 0 -13.833 0.666992 -29.5 2s-37.167 2.33301 -64.5 3s-57.333 1 -90 1c-26 0 -54 -0.666992 -84 -2s-48.333 -2 -55 -2c-30 0 -45 9 -45 27zM629 532.002h426l-45 670zM1032 1565
c0 -30 8.16699 -53.668 24.5 -71.001s39.5 -26 69.5 -26c34 0 63.667 10.333 89 31s44.5 46.334 57.5 77.001s22.333 59 28 85s8.5 47.667 8.5 65c0 64 -32.333 96.333 -97 97c-35.333 0 -66 -11.333 -92 -34s-44.667 -50 -56 -82s-19.5 -59.833 -24.5 -83.5
s-7.5 -43.167 -7.5 -58.5z" />
    <glyph glyph-name="AE" unicode="&#xc6;" horiz-adv-x="1808" 
d="M121 29c0 15.333 5.82715 25.335 17.4941 30.002s26.667 7 45 7s41.5 6.33301 69.5 19s54.333 32.667 79 60c22 23.333 45 56.333 69 99l633 1089c-9.33301 0 -22.166 0.333008 -38.499 1s-28.833 1 -37.5 1h-28c-31.333 0 -47 9.66699 -47 29c0 23.333 16.333 35 49 35
h964c30 0 45.333 -11.667 46 -35l-52 -395c-4 -20.667 -14.667 -31 -32 -31c-19.333 0 -29 12.333 -29 37c0 6.66699 2.33301 28.5 7 65.5s7 70.5 7 100.5c0 82 -20.5 134.833 -61.5 158.5s-113.833 35.5 -218.5 35.5h-144c-39.333 0 -65.333 -4 -78 -12
c-12 -9.33301 -22.5 -29.833 -31.5 -61.5s-42.167 -162.834 -99.5 -393.501c-22 -82 -35.667 -136.333 -41 -163h146c78 0 133.333 11.167 166 33.5s60 74.5 82 156.5c6.66699 31.333 19.5 47 38.5 47s28.5 -9.66699 28.5 -29c0 -6.66699 -18.667 -86.167 -56 -238.5
s-57.666 -231.833 -60.999 -238.5c-5.33301 -22 -16.666 -33 -33.999 -33c-19.333 0 -29 9 -29 27c0 6.66699 3.33301 25 10 55s10 53.333 10 70c0 36.667 -12.833 60.167 -38.5 70.5s-65.167 15.5 -118.5 15.5h-158c-90 -352 -135 -535.667 -135 -551
c0 -10.667 4 -17.834 12 -21.501s23.667 -5.5 47 -5.5h154c57.333 0 106.5 2.83301 147.5 8.5s78.167 17.334 111.5 35.001s60.333 34.667 81 51s42.834 45 66.501 86s42.334 76.5 56.001 106.5s34.167 78 61.5 144c9.33301 22 22.333 32.667 39 32c19.333 0 29 -8 29 -24
c0 -1.33301 -62.333 -155 -187 -461c-8 -18 -14.667 -29.333 -20 -34s-16.333 -7 -33 -7h-835c-26 0 -41 5.33301 -45 16c-5.33301 16.667 -2.66602 29 8.00098 37c5.33301 5.33301 26 8.83301 62 10.5s61 9.83398 75 24.501c9.33301 10.667 34 96.667 74 258l73 295h-299
l-143 -246c-90 -154 -135 -240.667 -135 -260c0 -23.333 7.16699 -40.333 21.5 -51s31 -17.834 50 -21.501s29.833 -6.83398 32.5 -9.50098c5.33301 -5.33301 8 -11.333 8 -18c0 -9.33301 -3.66699 -17.5 -11 -24.5s-17 -10.5 -29 -10.5c-6.66699 0 -27.834 1 -63.501 3
s-74.834 3 -117.501 3c-27.333 0 -56.666 -0.666992 -87.999 -2s-49.666 -2 -54.999 -2c-31.333 0 -47 9 -47 27zM734.994 705.002l279 0.000976562l131 526c6.66699 27.333 10 45.666 10 54.999c0 24.667 -19 39 -57 43z" />
    <glyph glyph-name="Ccedilla" unicode="&#xc7;" horiz-adv-x="1464" 
d="M305 502c0 154 42.3379 304.833 127.005 452.5s193.5 266.167 326.5 355.5s268.5 134 406.5 134c140.667 0 243.334 -58 308.001 -174c95.333 109.333 145.666 165.333 150.999 168c4 2.66699 8.66699 4 14 4c13.333 0 20.333 -8.33301 21 -25
c0 -5.33301 -42.333 -177.333 -127 -516c-6.66699 -28.667 -18.334 -43 -35.001 -43c-22 0 -33 9.66699 -33 29l4 37c2.66699 24.667 4.33398 52.667 5.00098 84c0 105.333 -24 193.666 -72 264.999s-121.167 107 -219.5 107s-193.833 -31.333 -286.5 -94
s-168.334 -141 -227.001 -235c-54.667 -86 -98.834 -190.167 -132.501 -312.5s-50.5 -227.833 -50.5 -316.5c0 -139.333 35.167 -241.5 105.5 -306.5s151.5 -97.5 243.5 -97.5c112 0 217.333 43.5 316 130.5s168 193.167 208 318.5c0 1.33301 0.666992 3.33301 2 6
c8 27.333 21 41 39 41c19.333 0 28.666 -9 27.999 -27c0 -23.333 -12.5 -60.5 -37.5 -111.5s-59.333 -106.167 -103 -165.5s-102.834 -113.666 -177.501 -162.999s-154.334 -78.666 -239.001 -87.999l-16 -68c83.333 -20.667 125 -58.667 125 -114
c0 -36.667 -12.333 -67 -37 -91s-59.167 -41.5 -103.5 -52.5s-87.333 -18.167 -129 -21.5s-90.5 -5 -146.5 -5h-10c-30 0 -46.333 5.33301 -49 16c-2.66699 8 -1 14.833 5 20.5s18.667 8.5 38 8.5h39c173.333 4 260 46.333 260 127c0 32.667 -21.333 55.667 -64 69
c-5.33301 1.33301 -12.833 2.83301 -22.5 4.5s-16.5 3.16699 -20.5 4.5s-8 4 -12 8s-6 10 -6 18c0 10.667 5.33301 36 16 76c-134 19.333 -239.5 78.166 -316.5 176.499s-115.5 220.5 -115.5 366.5z" />
    <glyph glyph-name="Egrave" unicode="&#xc8;" horiz-adv-x="1388" 
d="M127 25c0 18 4.17383 28.833 12.5068 32.5s22.5 5.5 42.5 5.5c66.667 0 109.334 5.16699 128.001 15.5s32 34.166 40 71.499l275 1097c5.33301 20.667 8 36.334 8 47.001c0 8 -1.33301 14.167 -4 18.5s-13.334 8.16602 -32.001 11.499s-46.334 5 -83.001 5
c-16.667 0 -28 0.333008 -34 1s-11 3 -15 7s-6 10.333 -6 19c0 16.667 4 27 12 31s22.333 6 43 6h956c13.333 0 22.166 -0.333008 26.499 -1s10 -2.83398 17 -6.50098s9.5 -8.83398 7.5 -15.501s-2.33301 -17 -1 -31l-47 -362c-1.33301 -13.333 -2.83301 -22.833 -4.5 -28.5
s-4.83398 -9.83398 -9.50098 -12.501s-11.667 -4 -21 -4c-20.667 0 -31 8 -31 24c0 9.33301 1.33301 21 4 35c6.66699 54.667 10 98.334 10 131.001c0 76.667 -18.667 130.334 -56 161.001s-109.333 46 -216 46h-256c-35.333 0 -58.5 -3.33301 -69.5 -10
s-20.5 -26.334 -28.5 -59.001l-125 -504h166c80.667 0 136.334 13 167.001 39s56 76.333 76 151c8 30 15.667 45.667 23 47c4 1.33301 9.33301 2 16 2c22 0 33 -8 33 -24c0 -5.33301 -2 -14.333 -6 -27l-113 -450c-4 -18 -8 -29.333 -12 -34s-12.333 -7 -25 -7
c-22 0 -32.667 8 -32 24c0 2.66699 0.666992 6.83398 2 12.501s2 9.16699 2 10.5c12 45.333 18 80 18 104c0 31.333 -9.5 53.833 -28.5 67.5s-60.833 20.5 -125.5 20.5h-178l-141 -563c0 -1.33301 -1.33301 -7.83301 -4 -19.5s-4 -20.167 -4 -25.5s0.666992 -9.33301 2 -12
s6.83301 -4.83398 16.5 -6.50098s24.5 -2.5 44.5 -2.5h250c64 0 120 6.16699 168 18.5s88 27.5 120 45.5s62 46.333 90 85s51.167 76.5 69.5 113.5s41.166 88.167 68.499 153.5c9.33301 23.333 16.166 37.333 20.499 42s11.833 7 22.5 7c20.667 0 31 -7.33301 31 -22
c0 -5.33301 -2.66699 -13.666 -8 -24.999l-182 -448c-6.66699 -15.333 -12.834 -24.666 -18.501 -27.999s-18.834 -5 -39.501 -5h-981c-13.333 0 -22.833 0.333008 -28.5 1s-10.834 2.83398 -15.501 6.50098s-7 9.5 -7 17.5zM920.007 1708
c0 19.333 7.83105 36.835 23.498 52.502s32.834 23.5 51.501 23.5c12 0 25.333 -4.83301 40 -14.5s49.334 -34.834 104.001 -75.501l100 -76c27.333 -20.667 41 -36.334 41 -47.001c0 -8 -3 -15.833 -9 -23.5s-14 -11.5 -24 -11.5c-6.66699 0 -98.667 37.667 -276 113
c-34 13.333 -51 33 -51 59z" />
    <glyph glyph-name="Eacute" unicode="&#xc9;" horiz-adv-x="1388" 
d="M127 25c0 18 4.17383 28.833 12.5068 32.5s22.5 5.5 42.5 5.5c66.667 0 109.334 5.16699 128.001 15.5s32 34.166 40 71.499l275 1097c5.33301 20.667 8 36.334 8 47.001c0 8 -1.33301 14.167 -4 18.5s-13.334 8.16602 -32.001 11.499s-46.334 5 -83.001 5
c-16.667 0 -28 0.333008 -34 1s-11 3 -15 7s-6 10.333 -6 19c0 16.667 4 27 12 31s22.333 6 43 6h956c13.333 0 22.166 -0.333008 26.499 -1s10 -2.83398 17 -6.50098s9.5 -8.83398 7.5 -15.501s-2.33301 -17 -1 -31l-47 -362c-1.33301 -13.333 -2.83301 -22.833 -4.5 -28.5
s-4.83398 -9.83398 -9.50098 -12.501s-11.667 -4 -21 -4c-20.667 0 -31 8 -31 24c0 9.33301 1.33301 21 4 35c6.66699 54.667 10 98.334 10 131.001c0 76.667 -18.667 130.334 -56 161.001s-109.333 46 -216 46h-256c-35.333 0 -58.5 -3.33301 -69.5 -10
s-20.5 -26.334 -28.5 -59.001l-125 -504h166c80.667 0 136.334 13 167.001 39s56 76.333 76 151c8 30 15.667 45.667 23 47c4 1.33301 9.33301 2 16 2c22 0 33 -8 33 -24c0 -5.33301 -2 -14.333 -6 -27l-113 -450c-4 -18 -8 -29.333 -12 -34s-12.333 -7 -25 -7
c-22 0 -32.667 8 -32 24c0 2.66699 0.666992 6.83398 2 12.501s2 9.16699 2 10.5c12 45.333 18 80 18 104c0 31.333 -9.5 53.833 -28.5 67.5s-60.833 20.5 -125.5 20.5h-178l-141 -563c0 -1.33301 -1.33301 -7.83301 -4 -19.5s-4 -20.167 -4 -25.5s0.666992 -9.33301 2 -12
s6.83301 -4.83398 16.5 -6.50098s24.5 -2.5 44.5 -2.5h250c64 0 120 6.16699 168 18.5s88 27.5 120 45.5s62 46.333 90 85s51.167 76.5 69.5 113.5s41.166 88.167 68.499 153.5c9.33301 23.333 16.166 37.333 20.499 42s11.833 7 22.5 7c20.667 0 31 -7.33301 31 -22
c0 -5.33301 -2.66699 -13.666 -8 -24.999l-182 -448c-6.66699 -15.333 -12.834 -24.666 -18.501 -27.999s-18.834 -5 -39.501 -5h-981c-13.333 0 -22.833 0.333008 -28.5 1s-10.834 2.83398 -15.501 6.50098s-7 9.5 -7 17.5zM997.007 1567c0 12 11.002 24.502 33.002 37.502
s117.667 65.833 287 158.5c23.333 13.333 43.166 20.166 59.499 20.499s29.666 -5.33398 39.999 -17.001s15.5 -25.167 15.5 -40.5c0 -34 -24.667 -59.667 -74 -77c-216 -75.333 -326.667 -113 -332 -113c-19.333 0 -29 10.333 -29 31z" />
    <glyph glyph-name="Ecircumflex" unicode="&#xca;" horiz-adv-x="1388" 
d="M127 25c0 18 4.17383 28.833 12.5068 32.5s22.5 5.5 42.5 5.5c66.667 0 109.334 5.16699 128.001 15.5s32 34.166 40 71.499l275 1097c5.33301 20.667 8 36.334 8 47.001c0 8 -1.33301 14.167 -4 18.5s-13.334 8.16602 -32.001 11.499s-46.334 5 -83.001 5
c-16.667 0 -28 0.333008 -34 1s-11 3 -15 7s-6 10.333 -6 19c0 16.667 4 27 12 31s22.333 6 43 6h956c13.333 0 22.166 -0.333008 26.499 -1s10 -2.83398 17 -6.50098s9.5 -8.83398 7.5 -15.501s-2.33301 -17 -1 -31l-47 -362c-1.33301 -13.333 -2.83301 -22.833 -4.5 -28.5
s-4.83398 -9.83398 -9.50098 -12.501s-11.667 -4 -21 -4c-20.667 0 -31 8 -31 24c0 9.33301 1.33301 21 4 35c6.66699 54.667 10 98.334 10 131.001c0 76.667 -18.667 130.334 -56 161.001s-109.333 46 -216 46h-256c-35.333 0 -58.5 -3.33301 -69.5 -10
s-20.5 -26.334 -28.5 -59.001l-125 -504h166c80.667 0 136.334 13 167.001 39s56 76.333 76 151c8 30 15.667 45.667 23 47c4 1.33301 9.33301 2 16 2c22 0 33 -8 33 -24c0 -5.33301 -2 -14.333 -6 -27l-113 -450c-4 -18 -8 -29.333 -12 -34s-12.333 -7 -25 -7
c-22 0 -32.667 8 -32 24c0 2.66699 0.666992 6.83398 2 12.501s2 9.16699 2 10.5c12 45.333 18 80 18 104c0 31.333 -9.5 53.833 -28.5 67.5s-60.833 20.5 -125.5 20.5h-178l-141 -563c0 -1.33301 -1.33301 -7.83301 -4 -19.5s-4 -20.167 -4 -25.5s0.666992 -9.33301 2 -12
s6.83301 -4.83398 16.5 -6.50098s24.5 -2.5 44.5 -2.5h250c64 0 120 6.16699 168 18.5s88 27.5 120 45.5s62 46.333 90 85s51.167 76.5 69.5 113.5s41.166 88.167 68.499 153.5c9.33301 23.333 16.166 37.333 20.499 42s11.833 7 22.5 7c20.667 0 31 -7.33301 31 -22
c0 -5.33301 -2.66699 -13.666 -8 -24.999l-182 -448c-6.66699 -15.333 -12.834 -24.666 -18.501 -27.999s-18.834 -5 -39.501 -5h-981c-13.333 0 -22.833 0.333008 -28.5 1s-10.834 2.83398 -15.501 6.50098s-7 9.5 -7 17.5zM834.007 1546c0 6.66699 8.66699 19 26 37
c187.333 168 284.333 254 291 258c4 1.33301 8 2 12 2c13.333 0 32.666 -21 57.999 -63c88.667 -143.333 133 -220.666 133 -231.999c0 -8 -3.5 -15 -10.5 -21s-14.5 -9 -22.5 -9s-17.167 6 -27.5 18s-35.833 46 -76.5 102l-70 97
c-9.33301 -8 -90.666 -73.667 -243.999 -197l-6 -6c-5.33301 -4 -10.833 -7.33301 -16.5 -10s-11.167 -4 -16.5 -4c-20 -0.666992 -30 8.66602 -30 27.999z" />
    <glyph glyph-name="Edieresis" unicode="&#xcb;" horiz-adv-x="1388" 
d="M127 25c0 18 4.17383 28.833 12.5068 32.5s22.5 5.5 42.5 5.5c66.667 0 109.334 5.16699 128.001 15.5s32 34.166 40 71.499l275 1097c5.33301 20.667 8 36.334 8 47.001c0 8 -1.33301 14.167 -4 18.5s-13.334 8.16602 -32.001 11.499s-46.334 5 -83.001 5
c-16.667 0 -28 0.333008 -34 1s-11 3 -15 7s-6 10.333 -6 19c0 16.667 4 27 12 31s22.333 6 43 6h956c13.333 0 22.166 -0.333008 26.499 -1s10 -2.83398 17 -6.50098s9.5 -8.83398 7.5 -15.501s-2.33301 -17 -1 -31l-47 -362c-1.33301 -13.333 -2.83301 -22.833 -4.5 -28.5
s-4.83398 -9.83398 -9.50098 -12.501s-11.667 -4 -21 -4c-20.667 0 -31 8 -31 24c0 9.33301 1.33301 21 4 35c6.66699 54.667 10 98.334 10 131.001c0 76.667 -18.667 130.334 -56 161.001s-109.333 46 -216 46h-256c-35.333 0 -58.5 -3.33301 -69.5 -10
s-20.5 -26.334 -28.5 -59.001l-125 -504h166c80.667 0 136.334 13 167.001 39s56 76.333 76 151c8 30 15.667 45.667 23 47c4 1.33301 9.33301 2 16 2c22 0 33 -8 33 -24c0 -5.33301 -2 -14.333 -6 -27l-113 -450c-4 -18 -8 -29.333 -12 -34s-12.333 -7 -25 -7
c-22 0 -32.667 8 -32 24c0 2.66699 0.666992 6.83398 2 12.501s2 9.16699 2 10.5c12 45.333 18 80 18 104c0 31.333 -9.5 53.833 -28.5 67.5s-60.833 20.5 -125.5 20.5h-178l-141 -563c0 -1.33301 -1.33301 -7.83301 -4 -19.5s-4 -20.167 -4 -25.5s0.666992 -9.33301 2 -12
s6.83301 -4.83398 16.5 -6.50098s24.5 -2.5 44.5 -2.5h250c64 0 120 6.16699 168 18.5s88 27.5 120 45.5s62 46.333 90 85s51.167 76.5 69.5 113.5s41.166 88.167 68.499 153.5c9.33301 23.333 16.166 37.333 20.499 42s11.833 7 22.5 7c20.667 0 31 -7.33301 31 -22
c0 -5.33301 -2.66699 -13.666 -8 -24.999l-182 -448c-6.66699 -15.333 -12.834 -24.666 -18.501 -27.999s-18.834 -5 -39.501 -5h-981c-13.333 0 -22.833 0.333008 -28.5 1s-10.834 2.83398 -15.501 6.50098s-7 9.5 -7 17.5zM846.007 1698c0 31.333 12.999 60.333 38.999 87
s56 40 90 40c24.667 0 45.834 -8.16699 63.501 -24.5s26.5 -37.5 26.5 -63.5c0 -31.333 -13.333 -60.333 -40 -87s-57 -40 -91 -40c-26 0 -47.167 8.5 -63.5 25.5s-24.5 37.833 -24.5 62.5zM1209.01 1698c0 31.333 13.667 60.334 41 87.001s58 40 92 40
c26 0 47.167 -8.16699 63.5 -24.5s24.5 -36.833 24.5 -61.5c0 -32.667 -13.667 -62.334 -41 -89.001s-57.333 -40 -90 -40c-26 0 -47.5 8.5 -64.5 25.5s-25.5 37.833 -25.5 62.5z" />
    <glyph glyph-name="Igrave" unicode="&#xcc;" horiz-adv-x="788" 
d="M117 27c0 16.667 3.99902 26.834 11.999 30.501s24.333 5.5 49 5.5c66.667 0 110 5.16699 130 15.5s34 33.166 42 68.499l279 1115c4 12 6 24.667 6 38c0 15.333 -10.333 25 -31 29s-53.334 6 -98.001 6c-16.667 0 -28 0.333008 -34 1s-11 3.16699 -15 7.5
s-6 10.5 -6 18.5c0 24.667 12.667 37 38 37c28.667 0 71.834 -1 129.501 -3s99.834 -3 126.501 -3c28.667 0 71 1 127 3s97.667 3 125 3c19.333 0 29 -8.33301 29 -25c0 -18 -4.5 -29 -13.5 -33s-25.5 -6 -49.5 -6c-66.667 0 -109.667 -5 -129 -15s-33 -33 -41 -69
l-277 -1106c-5.33301 -20.667 -8 -35.667 -8 -45s1.33301 -16 4 -20s13.834 -7.83301 33.501 -11.5s49.5 -5.5 89.5 -5.5c16.667 0 28 -0.333008 34 -1s11.333 -2.66699 16 -6s7 -9 7 -17c0 -26 -13.667 -39 -41 -39s-69.333 1 -126 3s-99.334 3 -128.001 3s-71 -1 -127 -3
s-97.667 -3 -125 -3c-18.667 0 -28 9 -28 27zM579.999 1708c0 16.667 7.5 33.5 22.5 50.5s32.5 25.5 52.5 25.5c15.333 0 33.333 -7.66699 54 -23c147.333 -110.667 223 -169.334 227 -176.001c2.66699 -4 4 -8.66699 4 -14c0 -8 -3 -15.833 -9 -23.5s-14 -11.5 -24 -11.5
c-4 0 -95.333 37.667 -274 113c-35.333 14.667 -53 34.334 -53 59.001z" />
    <glyph glyph-name="Iacute" unicode="&#xcd;" horiz-adv-x="788" 
d="M117 27c0 16.667 3.99902 26.834 11.999 30.501s24.333 5.5 49 5.5c66.667 0 110 5.16699 130 15.5s34 33.166 42 68.499l279 1115c4 12 6 24.667 6 38c0 15.333 -10.333 25 -31 29s-53.334 6 -98.001 6c-16.667 0 -28 0.333008 -34 1s-11 3.16699 -15 7.5
s-6 10.5 -6 18.5c0 24.667 12.667 37 38 37c28.667 0 71.834 -1 129.501 -3s99.834 -3 126.501 -3c28.667 0 71 1 127 3s97.667 3 125 3c19.333 0 29 -8.33301 29 -25c0 -18 -4.5 -29 -13.5 -33s-25.5 -6 -49.5 -6c-66.667 0 -109.667 -5 -129 -15s-33 -33 -41 -69
l-277 -1106c-5.33301 -20.667 -8 -35.667 -8 -45s1.33301 -16 4 -20s13.834 -7.83301 33.501 -11.5s49.5 -5.5 89.5 -5.5c16.667 0 28 -0.333008 34 -1s11.333 -2.66699 16 -6s7 -9 7 -17c0 -26 -13.667 -39 -41 -39s-69.333 1 -126 3s-99.334 3 -128.001 3s-71 -1 -127 -3
s-97.667 -3 -125 -3c-18.667 0 -28 9 -28 27zM591.999 1567c0 12 9.83398 23.835 29.501 35.502s115.5 64.5 287.5 158.5c23.333 13.333 43.166 20.166 59.499 20.499s29.666 -5.33398 39.999 -17.001s15.5 -25.167 15.5 -40.5c0 -32.667 -24.667 -57.667 -74 -75
c-217.333 -75.333 -327.666 -113 -330.999 -113c-18 0 -27 10.333 -27 31z" />
    <glyph glyph-name="Icircumflex" unicode="&#xce;" horiz-adv-x="788" 
d="M117 27c0 16.667 3.99902 26.834 11.999 30.501s24.333 5.5 49 5.5c66.667 0 110 5.16699 130 15.5s34 33.166 42 68.499l279 1115c4 12 6 24.667 6 38c0 15.333 -10.333 25 -31 29s-53.334 6 -98.001 6c-16.667 0 -28 0.333008 -34 1s-11 3.16699 -15 7.5
s-6 10.5 -6 18.5c0 24.667 12.667 37 38 37c28.667 0 71.834 -1 129.501 -3s99.834 -3 126.501 -3c28.667 0 71 1 127 3s97.667 3 125 3c19.333 0 29 -8.33301 29 -25c0 -18 -4.5 -29 -13.5 -33s-25.5 -6 -49.5 -6c-66.667 0 -109.667 -5 -129 -15s-33 -33 -41 -69
l-277 -1106c-5.33301 -20.667 -8 -35.667 -8 -45s1.33301 -16 4 -20s13.834 -7.83301 33.501 -11.5s49.5 -5.5 89.5 -5.5c16.667 0 28 -0.333008 34 -1s11.333 -2.66699 16 -6s7 -9 7 -17c0 -26 -13.667 -39 -41 -39s-69.333 1 -126 3s-99.334 3 -128.001 3s-71 -1 -127 -3
s-97.667 -3 -125 -3c-18.667 0 -28 9 -28 27zM521.999 1546c0 8 8.33203 20.332 24.999 36.999c187.333 168 284.333 254 291 258c4 1.33301 8 2 12 2c13.333 0 32.333 -21 57 -63c90 -147.333 135 -224.666 135 -231.999c0 -8 -3.66699 -15 -11 -21s-15 -9 -23 -9
c-9.33301 0 -20.333 7.5 -33 22.5s-59.667 79.833 -141 194.5c-9.33301 -8 -90.666 -73.667 -243.999 -197l-8 -6c-4 -4 -8.83301 -7.33301 -14.5 -10s-11.167 -4 -16.5 -4c-8 0 -14.833 3 -20.5 9s-8.5 12.333 -8.5 19z" />
    <glyph glyph-name="Idieresis" unicode="&#xcf;" horiz-adv-x="788" 
d="M117 27c0 16.667 3.99902 26.834 11.999 30.501s24.333 5.5 49 5.5c66.667 0 110 5.16699 130 15.5s34 33.166 42 68.499l279 1115c4 12 6 24.667 6 38c0 15.333 -10.333 25 -31 29s-53.334 6 -98.001 6c-16.667 0 -28 0.333008 -34 1s-11 3.16699 -15 7.5
s-6 10.5 -6 18.5c0 24.667 12.667 37 38 37c28.667 0 71.834 -1 129.501 -3s99.834 -3 126.501 -3c28.667 0 71 1 127 3s97.667 3 125 3c19.333 0 29 -8.33301 29 -25c0 -18 -4.5 -29 -13.5 -33s-25.5 -6 -49.5 -6c-66.667 0 -109.667 -5 -129 -15s-33 -33 -41 -69
l-277 -1106c-5.33301 -20.667 -8 -35.667 -8 -45s1.33301 -16 4 -20s13.834 -7.83301 33.501 -11.5s49.5 -5.5 89.5 -5.5c16.667 0 28 -0.333008 34 -1s11.333 -2.66699 16 -6s7 -9 7 -17c0 -26 -13.667 -39 -41 -39s-69.333 1 -126 3s-99.334 3 -128.001 3s-71 -1 -127 -3
s-97.667 -3 -125 -3c-18.667 0 -28 9 -28 27zM529.999 1698c0 32.667 13.668 62 41.001 88s57.666 39 90.999 39c26 0 47.5 -8.5 64.5 -25.5s25.5 -37.833 25.5 -62.5c0 -31.333 -13.333 -60.333 -40 -87s-57 -40 -91 -40c-26 0 -47.667 8.5 -65 25.5s-26 37.833 -26 62.5z
M895 1698c0 31.333 13.333 60.666 40 87.999s57 41 91 41c26 0 47.167 -8.5 63.5 -25.5s24.5 -37.833 24.5 -62.5c0 -31.333 -13.333 -60.666 -40 -87.999s-57 -41 -91 -41c-24.667 0 -45.5 8.16699 -62.5 24.5s-25.5 37.5 -25.5 63.5z" />
    <glyph glyph-name="Eth" unicode="&#xd0;" horiz-adv-x="1546" 
d="M129 28.5c0 19 11.6699 29.9971 35.0029 32.9971s51.666 4.83301 84.999 5.5s57.666 8.33398 72.999 23.001c8 8 15.333 23 22 45s23 85.667 49 191l82 329c-10.667 0 -26.334 -0.333008 -47.001 -1s-35.667 -1 -45 -1h-37c-35.333 0 -53 9.66699 -53 29
c0 24.667 20.333 37 61 37c4 0 9.83301 -0.333008 17.5 -1s12.834 -1 15.501 -1h105c10.667 49.333 28.667 122.333 54 219l62.5 243.5c16.333 65.667 24.5 103.834 24.5 114.501c0 27.333 -28.667 41 -86 41h-21c-32.667 0 -51.667 3.66699 -57 11c-5.33301 8 -8 14 -8 18
c0 23.333 15.667 35 47 35h631c84.667 0 157.667 -16.5 219 -49.5s107.666 -75.667 138.999 -128s53.833 -105.5 67.5 -159.5s20.5 -109 20.5 -165c0 -101.333 -20.167 -205.166 -60.5 -311.499s-95 -202.833 -164 -289.5s-154 -157.667 -255 -213s-206.833 -83 -317.5 -83
h-614c-30 0 -45 9.5 -45 28.5zM500.003 89.9971c0 -12 4.66699 -19.501 14 -22.501s27.666 -4.5 54.999 -4.5h199c102.667 0 192.167 26 268.5 78s137.833 112.333 184.5 181c53.333 78 99 183.833 137 317.5s57 246.834 57 339.501c0 98 -25.833 181.833 -77.5 251.5
s-139.167 104.5 -262.5 104.5h-198c-34 0 -55.833 -7.16699 -65.5 -21.5s-22.834 -53.5 -39.501 -117.5c-4 -16.667 -7.33301 -29.667 -10 -39l-109 -440h297c36.667 0 55.334 -8.33301 56.001 -25c0 -8 -2.33301 -14.667 -7 -20c-6.66699 -12 -21 -18.333 -43 -19
c-2.66699 0 -5.66699 0.333008 -9 1s-5.66602 1 -6.99902 1h-303c-10.667 -50.667 -28 -122.667 -52 -216l-60.5 -237.5c-16.333 -65 -24.5 -102.167 -24.5 -111.5z" />
    <glyph glyph-name="Ntilde" unicode="&#xd1;" horiz-adv-x="1521" 
d="M127 25c0 26 12.998 38.668 38.998 38.001c109.333 4 175.666 52 198.999 144l270 1085c4 13.333 6 22.333 6 27c0 10.667 -41.667 16 -125 16c-15.333 0 -26 0.333008 -32 1s-11.333 2.83398 -16 6.50098s-7 9.5 -7 17.5c0 18 4 29 12 33s22.333 6 43 6h256
c22 0 35.333 -1.66699 40 -5s10.334 -13.333 17.001 -30l383 -1065l226 899c5.33301 22 8 38.333 8 49c0 56 -41 85.333 -123 88c-24.667 0 -37 8.33301 -37 25c0 26 12.333 39 37 39c20.667 0 53.5 -1 98.5 -3s78.333 -3 100 -3s54.834 1 99.501 3s77 3 97 3
c18 0 27 -9 27 -27c0 -24.667 -10.333 -37 -31 -37c-116 -4 -185 -50.333 -207 -139l-286 -1155c-5.33301 -18 -10.5 -29.333 -15.5 -34s-13.5 -7 -25.5 -7c-13.333 0 -22.166 1.66699 -26.499 5s-9.16602 13.333 -14.499 30l-441 1222l-264 -1054
c-5.33301 -22 -8 -39 -8 -51c0 -10.667 1 -19.834 3 -27.501s6.5 -16.334 13.5 -26.001s19.333 -17.5 37 -23.5s40.167 -10 67.5 -12c26 0 39 -8.66699 39 -26c0 -24.667 -12.333 -37 -37 -37c-20.667 0 -53.834 1 -99.501 3s-79.5 3 -101.5 3s-54.833 -1 -98.5 -3
s-75.5 -3 -95.5 -3c-18 -0 -27 8.33301 -27 25zM812.998 1661c0 18 30 49.8311 90 95.498s115.333 68.5 166 68.5c40.667 0 88.667 -18.833 144 -56.5s98 -56.5 128 -56.5c46.667 0 107 31.333 181 94c9.33301 8 18.166 12.833 26.499 14.5s14.166 0.333984 17.499 -3.99902
s5 -9.16602 5 -14.499c0 -18 -30 -49.833 -90 -95.5s-115.333 -68.5 -166 -68.5c-39.333 0 -87.166 18.833 -143.499 56.5s-100.166 56.5 -131.499 56.5c-28.667 0 -58 -9.16699 -88 -27.5s-55.5 -36.5 -76.5 -54.5s-35.833 -27 -44.5 -27c-12 0.666992 -18 7 -18 19z" />
    <glyph glyph-name="Ograve" unicode="&#xd2;" horiz-adv-x="1568" 
d="M303 483c0 154 40.666 305.833 121.999 455.5s187.833 271.334 319.5 365.001s265.834 140.5 402.501 140.5c134 0 245.333 -48.167 334 -144.5s133 -226.5 133 -390.5c0 -160 -41.333 -314.333 -124 -463s-188.834 -267.667 -318.501 -357s-262.167 -134 -397.5 -134
c-139.333 0 -252.666 49.167 -339.999 147.5s-131 225.166 -131 380.499zM486.999 420c0 -122.667 27 -222.003 81 -298.003s127.333 -114 220 -114c79.333 0 161.333 30.333 246 91s159 146.334 223 257.001c53.333 91.333 97.166 197.833 131.499 319.5
s51.5 228.167 51.5 319.5c0 130 -29.667 228.833 -89 296.5s-132 101.5 -218 101.5c-87.333 0 -174.166 -32.167 -260.499 -96.5s-157.5 -146.166 -213.5 -245.499c-62.667 -109.333 -107 -223.666 -133 -342.999s-39 -215.333 -39 -288zM994.999 1708
c0 19.333 7.49902 36.834 22.499 52.501s32.167 23.5 51.5 23.5c12 0 25.167 -4.83301 39.5 -14.5s48.833 -34.834 103.5 -75.501l101 -76c28.667 -22 43 -37.667 43 -47c0 -8 -3.5 -15.833 -10.5 -23.5s-15.167 -11.5 -24.5 -11.5c-5.33301 0 -96.666 37.667 -273.999 113
c-34.667 13.333 -52 33 -52 59z" />
    <glyph glyph-name="Oacute" unicode="&#xd3;" horiz-adv-x="1568" 
d="M303 483c0 154 40.666 305.833 121.999 455.5s187.833 271.334 319.5 365.001s265.834 140.5 402.501 140.5c134 0 245.333 -48.167 334 -144.5s133 -226.5 133 -390.5c0 -160 -41.333 -314.333 -124 -463s-188.834 -267.667 -318.501 -357s-262.167 -134 -397.5 -134
c-139.333 0 -252.666 49.167 -339.999 147.5s-131 225.166 -131 380.499zM486.999 420c0 -122.667 27 -222.003 81 -298.003s127.333 -114 220 -114c79.333 0 161.333 30.333 246 91s159 146.334 223 257.001c53.333 91.333 97.166 197.833 131.499 319.5
s51.5 228.167 51.5 319.5c0 130 -29.667 228.833 -89 296.5s-132 101.5 -218 101.5c-87.333 0 -174.166 -32.167 -260.499 -96.5s-157.5 -146.166 -213.5 -245.499c-62.667 -109.333 -107 -223.666 -133 -342.999s-39 -215.333 -39 -288zM996.999 1567
c0 12 9.83398 23.835 29.501 35.502s115.5 64.5 287.5 158.5c23.333 13.333 43.166 20.166 59.499 20.499s29.666 -5.33398 39.999 -17.001s15.5 -25.167 15.5 -40.5c0 -32.667 -24.667 -57.667 -74 -75c-217.333 -75.333 -327.666 -113 -330.999 -113
c-18 0 -27 10.333 -27 31z" />
    <glyph glyph-name="Ocircumflex" unicode="&#xd4;" horiz-adv-x="1568" 
d="M303 483c0 154 40.666 305.833 121.999 455.5s187.833 271.334 319.5 365.001s265.834 140.5 402.501 140.5c134 0 245.333 -48.167 334 -144.5s133 -226.5 133 -390.5c0 -160 -41.333 -314.333 -124 -463s-188.834 -267.667 -318.501 -357s-262.167 -134 -397.5 -134
c-139.333 0 -252.666 49.167 -339.999 147.5s-131 225.166 -131 380.499zM486.999 420c0 -122.667 27 -222.003 81 -298.003s127.333 -114 220 -114c79.333 0 161.333 30.333 246 91s159 146.334 223 257.001c53.333 91.333 97.166 197.833 131.499 319.5
s51.5 228.167 51.5 319.5c0 130 -29.667 228.833 -89 296.5s-132 101.5 -218 101.5c-87.333 0 -174.166 -32.167 -260.499 -96.5s-157.5 -146.166 -213.5 -245.499c-62.667 -109.333 -107 -223.666 -133 -342.999s-39 -215.333 -39 -288zM908.999 1546
c0 6.66699 8.99707 19.001 26.9971 37.001c187.333 168 284.333 254 291 258c4 1.33301 8 2 12 2c13.333 0 32.333 -21 57 -63c88.667 -144.667 133.334 -222 134.001 -232c0 -8 -3.5 -15 -10.5 -21s-14.5 -9 -22.5 -9c-9.33301 0 -20.166 7.5 -32.499 22.5
s-59.5 79.833 -141.5 194.5c-9.33301 -8 -90.666 -73.667 -243.999 -197l-8 -6c-4 -4 -8.83301 -7.33301 -14.5 -10s-11.167 -4 -16.5 -4c-20.667 -0.666992 -31 8.66602 -31 27.999z" />
    <glyph glyph-name="Otilde" unicode="&#xd5;" horiz-adv-x="1568" 
d="M303 483c0 154 40.666 305.833 121.999 455.5s187.833 271.334 319.5 365.001s265.834 140.5 402.501 140.5c134 0 245.333 -48.167 334 -144.5s133 -226.5 133 -390.5c0 -160 -41.333 -314.333 -124 -463s-188.834 -267.667 -318.501 -357s-262.167 -134 -397.5 -134
c-139.333 0 -252.666 49.167 -339.999 147.5s-131 225.166 -131 380.499zM486.999 420c0 -122.667 27 -222.003 81 -298.003s127.333 -114 220 -114c79.333 0 161.333 30.333 246 91s159 146.334 223 257.001c53.333 91.333 97.166 197.833 131.499 319.5
s51.5 228.167 51.5 319.5c0 130 -29.667 228.833 -89 296.5s-132 101.5 -218 101.5c-87.333 0 -174.166 -32.167 -260.499 -96.5s-157.5 -146.166 -213.5 -245.499c-62.667 -109.333 -107 -223.666 -133 -342.999s-39 -215.333 -39 -288zM837.999 1661
c0 18 29.668 49.833 89.001 95.5s115 68.5 167 68.5c39.333 0 87 -18.833 143 -56.5s99.667 -56.5 131 -56.5c38 0 80.667 18.167 128 54.5s74.333 54.5 81 54.5c12 0 18 -6.33301 18 -19c0 -8 -12.5 -25 -37.5 -51s-58.667 -51.333 -101 -76s-81.5 -37 -117.5 -37
c-39.333 0 -87.333 18.833 -144 56.5s-100.667 56.5 -132 56.5c-39.333 0 -82.333 -18.167 -129 -54.5s-73.334 -54.5 -80.001 -54.5c-10.667 0.666992 -16 7 -16 19z" />
    <glyph glyph-name="Odieresis" unicode="&#xd6;" horiz-adv-x="1568" 
d="M303 483c0 154 40.666 305.833 121.999 455.5s187.833 271.334 319.5 365.001s265.834 140.5 402.501 140.5c134 0 245.333 -48.167 334 -144.5s133 -226.5 133 -390.5c0 -160 -41.333 -314.333 -124 -463s-188.834 -267.667 -318.501 -357s-262.167 -134 -397.5 -134
c-139.333 0 -252.666 49.167 -339.999 147.5s-131 225.166 -131 380.499zM486.999 420c0 -122.667 27 -222.003 81 -298.003s127.333 -114 220 -114c79.333 0 161.333 30.333 246 91s159 146.334 223 257.001c53.333 91.333 97.166 197.833 131.499 319.5
s51.5 228.167 51.5 319.5c0 130 -29.667 228.833 -89 296.5s-132 101.5 -218 101.5c-87.333 0 -174.166 -32.167 -260.499 -96.5s-157.5 -146.166 -213.5 -245.499c-62.667 -109.333 -107 -223.666 -133 -342.999s-39 -215.333 -39 -288zM919.999 1698
c0 31.333 12.832 60.333 38.499 87s55.834 40 90.501 40c26 0 47.5 -8.5 64.5 -25.5s25.5 -37.833 25.5 -62.5c0 -32.667 -13.667 -62 -41 -88s-57.333 -39 -90 -39c-26 0 -47.167 8.5 -63.5 25.5s-24.5 37.833 -24.5 62.5zM1286 1698c0 31.333 13.333 60.666 40 87.999
s57 41 91 41c26 0 47.167 -8.5 63.5 -25.5s24.5 -37.833 24.5 -62.5c0 -31.333 -13.333 -60.666 -40 -87.999s-57 -41 -91 -41c-26 0 -47.167 8.5 -63.5 25.5s-24.5 37.833 -24.5 62.5z" />
    <glyph glyph-name="Oslash" unicode="&#xd8;" horiz-adv-x="1568" 
d="M240 -94c0 6.66699 17.001 29.001 51.001 67.001v2l2 2l2 3l2 2l2 2l57 65l62 70v2c-76.667 90 -115 210.667 -115 362c0 157.333 41.333 311 124 461s189.167 270.833 319.5 362.5s262.5 137.5 396.5 137.5c130 0 237 -42.333 321 -127c4 5.33301 9.5 11.833 16.5 19.5
l48.5 54.5l87 100c18 18 31 27 39 27c15.333 0 22.666 -7.66699 21.999 -23v-2c0 -8 -21.667 -37.333 -65 -88l-51 -57l-62 -70c0 -1.33301 2.83301 -5.83301 8.5 -13.5s10.5 -14.5 14.5 -20.5s9.33301 -14.5 16 -25.5s12.5 -22.333 17.5 -34l17.5 -40
c6.66699 -15 12 -30.667 16 -47s8.16699 -34.333 12.5 -54s7.5 -40.834 9.5 -63.501s3 -45.667 3 -69c0 -120 -25 -239 -75 -357s-114.167 -220.333 -192.5 -307s-168.333 -157 -270 -211s-203.167 -81 -304.5 -81c-126.667 0 -232.334 42.333 -317.001 127h-2
c-84.667 -98 -135.667 -156 -153 -174s-30 -27 -38 -27c-15.333 0 -22.666 7.66699 -21.999 23v2zM453.001 399.001c0 -70.667 11.335 -137.333 34.002 -200l916 1048c-60 101.333 -150 152 -270 152c-76.667 0 -150.834 -21.167 -222.501 -63.5
s-134.834 -94.833 -189.501 -157.5c-90 -105.333 -157.167 -236.5 -201.5 -393.5s-66.5 -285.5 -66.5 -385.5zM512.003 150.002c60 -98 150.667 -147.334 272 -148.001c32.667 0 67.5 3.83301 104.5 11.5s87 30.167 150 67.5s120.167 87.333 171.5 150
c84.667 104 148.167 233.167 190.5 387.5s63.5 279.833 63.5 376.5c0 70.667 -11.333 138.334 -34 203.001z" />
    <glyph glyph-name="Ugrave" unicode="&#xd9;" horiz-adv-x="1521" 
d="M414 340c0 44 5.33203 87.666 15.999 130.999l197 791c5.33301 19.333 8 32 8 38c0 15.333 -9.5 25 -28.5 29s-49.167 6 -90.5 6c-15.333 0 -26 0.333008 -32 1s-11.333 2.83398 -16 6.50098s-7 9.5 -7 17.5c0 26 13 39 39 39s66.667 -1 122 -3s96.5 -3 123.5 -3
s67.5 1 121.5 3s94 3 120 3c19.333 0 29 -9 29 -27c0 -16.667 -4.16699 -27 -12.5 -31s-24.833 -6 -49.5 -6c-62.667 0 -103.167 -5 -121.5 -15s-31.5 -32.333 -39.5 -67l-205 -823c-13.333 -60 -20.333 -112 -21 -156c0 -86 21.5 -150.167 64.5 -192.5
s94.5 -63.5 154.5 -63.5c98 0 193.833 42.667 287.5 128s156.5 193 188.5 323l182 729c5.33301 22 8 38.333 8 49c0 56 -41 85.333 -123 88c-24.667 0 -37 8.33301 -37 25c0 26 12.333 39 37 39c20.667 0 53.167 -1 97.5 -3s77.5 -3 99.5 -3s54.5 1 97.5 3s74.5 3 94.5 3
c18 0 27 -9 27 -27c0 -24.667 -10.333 -37 -31 -37c-116 -4 -185 -50.333 -207 -139l-186 -750c-30 -121.333 -97.167 -233.5 -201.5 -336.5s-218.166 -154.5 -341.499 -154.5c-101.333 0 -187.333 34.833 -258 104.5s-106 163.167 -106 280.5zM972.999 1708
c0 16.667 7.16797 33.5 21.501 50.5s31.833 25.5 52.5 25.5c16.667 0 35 -7.66699 55 -23c144.667 -110.667 219.667 -169.334 225 -176.001c2.66699 -4 4 -8.66699 4 -14c0 -8 -3 -15.833 -9 -23.5s-14 -11.5 -24 -11.5c-2.66699 0 -93.334 37.667 -272.001 113
c-35.333 14.667 -53 34.334 -53 59.001z" />
    <glyph glyph-name="Uacute" unicode="&#xda;" horiz-adv-x="1521" 
d="M414 340c0 44 5.33203 87.666 15.999 130.999l197 791c5.33301 19.333 8 32 8 38c0 15.333 -9.5 25 -28.5 29s-49.167 6 -90.5 6c-15.333 0 -26 0.333008 -32 1s-11.333 2.83398 -16 6.50098s-7 9.5 -7 17.5c0 26 13 39 39 39s66.667 -1 122 -3s96.5 -3 123.5 -3
s67.5 1 121.5 3s94 3 120 3c19.333 0 29 -9 29 -27c0 -16.667 -4.16699 -27 -12.5 -31s-24.833 -6 -49.5 -6c-62.667 0 -103.167 -5 -121.5 -15s-31.5 -32.333 -39.5 -67l-205 -823c-13.333 -60 -20.333 -112 -21 -156c0 -86 21.5 -150.167 64.5 -192.5
s94.5 -63.5 154.5 -63.5c98 0 193.833 42.667 287.5 128s156.5 193 188.5 323l182 729c5.33301 22 8 38.333 8 49c0 56 -41 85.333 -123 88c-24.667 0 -37 8.33301 -37 25c0 26 12.333 39 37 39c20.667 0 53.167 -1 97.5 -3s77.5 -3 99.5 -3s54.5 1 97.5 3s74.5 3 94.5 3
c18 0 27 -9 27 -27c0 -24.667 -10.333 -37 -31 -37c-116 -4 -185 -50.333 -207 -139l-186 -750c-30 -121.333 -97.167 -233.5 -201.5 -336.5s-218.166 -154.5 -341.499 -154.5c-101.333 0 -187.333 34.833 -258 104.5s-106 163.167 -106 280.5zM1053 1567
c0 12 9.83398 23.835 29.501 35.502s115.5 64.5 287.5 158.5c23.333 13.333 43.166 20.166 59.499 20.499s29.666 -5.33398 39.999 -17.001s15.5 -25.167 15.5 -40.5c0 -32.667 -24.667 -57.667 -74 -75c-217.333 -75.333 -327.666 -113 -330.999 -113
c-18 0 -27 10.333 -27 31z" />
    <glyph glyph-name="Ucircumflex" unicode="&#xdb;" horiz-adv-x="1521" 
d="M414 340c0 44 5.33203 87.666 15.999 130.999l197 791c5.33301 19.333 8 32 8 38c0 15.333 -9.5 25 -28.5 29s-49.167 6 -90.5 6c-15.333 0 -26 0.333008 -32 1s-11.333 2.83398 -16 6.50098s-7 9.5 -7 17.5c0 26 13 39 39 39s66.667 -1 122 -3s96.5 -3 123.5 -3
s67.5 1 121.5 3s94 3 120 3c19.333 0 29 -9 29 -27c0 -16.667 -4.16699 -27 -12.5 -31s-24.833 -6 -49.5 -6c-62.667 0 -103.167 -5 -121.5 -15s-31.5 -32.333 -39.5 -67l-205 -823c-13.333 -60 -20.333 -112 -21 -156c0 -86 21.5 -150.167 64.5 -192.5
s94.5 -63.5 154.5 -63.5c98 0 193.833 42.667 287.5 128s156.5 193 188.5 323l182 729c5.33301 22 8 38.333 8 49c0 56 -41 85.333 -123 88c-24.667 0 -37 8.33301 -37 25c0 26 12.333 39 37 39c20.667 0 53.167 -1 97.5 -3s77.5 -3 99.5 -3s54.5 1 97.5 3s74.5 3 94.5 3
c18 0 27 -9 27 -27c0 -24.667 -10.333 -37 -31 -37c-116 -4 -185 -50.333 -207 -139l-186 -750c-30 -121.333 -97.167 -233.5 -201.5 -336.5s-218.166 -154.5 -341.499 -154.5c-101.333 0 -187.333 34.833 -258 104.5s-106 163.167 -106 280.5zM910.999 1546
c0 6.66699 8.99805 19.001 26.998 37.001c187.333 168 284.333 254 291 258c4 1.33301 8 2 12 2c13.333 0 32.333 -21 57 -63c88.667 -143.333 133.334 -220 134.001 -230c0 -8 -3.5 -15.333 -10.5 -22s-14.667 -10 -23 -10s-17.5 6 -27.5 18s-35.667 46 -77 102l-69 97
c-9.33301 -8 -90.666 -73.667 -243.999 -197l-6 -6c-5.33301 -4 -10.833 -7.33301 -16.5 -10s-11.167 -4 -16.5 -4c-20.667 -0.666992 -31 8.66602 -31 27.999z" />
    <glyph glyph-name="Udieresis" unicode="&#xdc;" horiz-adv-x="1521" 
d="M414 340c0 44 5.33203 87.666 15.999 130.999l197 791c5.33301 19.333 8 32 8 38c0 15.333 -9.5 25 -28.5 29s-49.167 6 -90.5 6c-15.333 0 -26 0.333008 -32 1s-11.333 2.83398 -16 6.50098s-7 9.5 -7 17.5c0 26 13 39 39 39s66.667 -1 122 -3s96.5 -3 123.5 -3
s67.5 1 121.5 3s94 3 120 3c19.333 0 29 -9 29 -27c0 -16.667 -4.16699 -27 -12.5 -31s-24.833 -6 -49.5 -6c-62.667 0 -103.167 -5 -121.5 -15s-31.5 -32.333 -39.5 -67l-205 -823c-13.333 -60 -20.333 -112 -21 -156c0 -86 21.5 -150.167 64.5 -192.5
s94.5 -63.5 154.5 -63.5c98 0 193.833 42.667 287.5 128s156.5 193 188.5 323l182 729c5.33301 22 8 38.333 8 49c0 56 -41 85.333 -123 88c-24.667 0 -37 8.33301 -37 25c0 26 12.333 39 37 39c20.667 0 53.167 -1 97.5 -3s77.5 -3 99.5 -3s54.5 1 97.5 3s74.5 3 94.5 3
c18 0 27 -9 27 -27c0 -24.667 -10.333 -37 -31 -37c-116 -4 -185 -50.333 -207 -139l-186 -750c-30 -121.333 -97.167 -233.5 -201.5 -336.5s-218.166 -154.5 -341.499 -154.5c-101.333 0 -187.333 34.833 -258 104.5s-106 163.167 -106 280.5zM896.999 1698
c0 31.333 12.999 60.333 38.999 87s56 40 90 40c24.667 0 45.834 -8.16699 63.501 -24.5s26.5 -37.5 26.5 -63.5c0 -31.333 -13.333 -60.333 -40 -87s-57 -40 -91 -40c-26 0 -47.167 8.5 -63.5 25.5s-24.5 37.833 -24.5 62.5zM1263 1698
c0 31.333 13.334 60.666 40.001 87.999s57 41 91 41c26 0 47.333 -8.5 64 -25.5s25 -37.833 25 -62.5c0 -31.333 -13.333 -60.666 -40 -87.999s-57.334 -41 -92.001 -41c-26 0 -47.167 8.5 -63.5 25.5s-24.5 37.833 -24.5 62.5z" />
    <glyph glyph-name="Yacute" unicode="&#xdd;" horiz-adv-x="1521" 
d="M414 1360c0 26 13 38.998 39 38.998c22 0 57.167 -1 105.5 -3s84.166 -3 107.499 -3c27.333 0 67.5 1 120.5 3s92.5 3 118.5 3c19.333 0 29 -8.33301 29 -25c0 -18 -3.83301 -29 -11.5 -33s-18.834 -6 -33.501 -6c-76.667 0 -115 -16.333 -115 -49
c0 -4 2.66699 -12.667 8 -26l195 -615l448 547l7 8c4 5.33301 8.33301 11.5 13 18.5s9.33398 14.5 14.001 22.5s8.83398 16.167 12.501 24.5s5.5 15.833 5.5 22.5c0 28.667 -21.333 44.334 -64 47.001c-20.667 0 -31 8.33301 -31 25c0 26 12.333 39 37 39
c20.667 0 52.167 -1 94.5 -3s74.5 -3 96.5 -3c18 0 44.333 1 79 3s60.167 3 76.5 3s24.5 -7.66699 24.5 -23c0 -18 -3 -29 -9 -33s-16 -6.66699 -30 -8c-50.667 -4 -97.167 -18.667 -139.5 -44s-86.5 -66.666 -132.5 -123.999l-484 -587c-8 -9.33301 -16 -28 -24 -56
l-34 -135l-30 -117c-26 -108 -39 -166 -39 -174c0 -15.333 9.66699 -25 29 -29s49.333 -6 90 -6c15.333 0 26 -0.333008 32 -1s11.333 -2.66699 16 -6s7 -9 7 -17c0 -26 -12.833 -39 -38.5 -39s-65.834 1 -120.501 3s-95.667 3 -123 3c-26 0 -65.667 -1 -119 -3
s-93 -3 -119 -3c-19.333 -0 -28.666 8.33301 -27.999 25c0 18 4 28.833 12 32.5s21 5.5 39 5.5c75.333 1.33301 120.833 7.5 136.5 18.5s30.167 45.167 43.5 102.5c62.667 238.667 94 363.667 94 375c0 6.66699 -2.66699 17 -8 31l-217 684
c-6.66699 24.667 -18.667 41 -36 49s-49 12 -95 12c-32.667 0 -49 8.33301 -49 25zM1053 1567c0 12 9.83398 23.835 29.501 35.502s115.5 64.5 287.5 158.5c23.333 13.333 43.166 20.166 59.499 20.499s29.666 -5.33398 39.999 -17.001s15.5 -25.167 15.5 -40.5
c0 -32.667 -24.667 -57.667 -74 -75c-217.333 -75.333 -327.666 -113 -330.999 -113c-18 0 -27 10.333 -27 31z" />
    <glyph glyph-name="Thorn" unicode="&#xde;" horiz-adv-x="1284" 
d="M131 29c0 24.667 24.6641 36.998 73.9971 36.998h22c15.333 0 28.833 1 40.5 3l29.5 5c8 1.33301 15.167 5.66602 21.5 12.999s11.5 12.833 15.5 16.5s8.33301 13.334 13 29.001s8 27.167 10 34.5s5.83301 23.333 11.5 48s10.5 43.667 14.5 57l242 969
c6.66699 27.333 10 45.666 10 54.999c0 26 -24.667 39 -74 39c-2.66699 0 -8.16699 -0.333008 -16.5 -1s-13.833 -1 -16.5 -1c-42 0 -63 9.66699 -63 29c0 24.667 13.667 37 41 37h2c4 0 15.833 -0.333008 35.5 -1s47.334 -1.66699 83.001 -3s73.834 -2 114.501 -2
c39.333 0 76.166 0.333008 110.499 1s61.166 1.33398 80.499 2.00098s31 1 35 1c24.667 0 37 -8.33301 37 -25c0 -20.667 -11.333 -32.334 -34 -35.001s-50.334 -4.33398 -83.001 -5.00098s-56.667 -7.66699 -72 -21c-5.33301 -5.33301 -9.66602 -10.166 -12.999 -14.499
s-6.83301 -11.166 -10.5 -20.499s-6.5 -18.5 -8.5 -27.5s-6 -25.5 -12 -49.5l-17 -69h245c108 0 189 -28.667 243 -86s81 -126 81 -206c0 -101.333 -40.667 -199.166 -122 -293.499s-181.333 -152.166 -300 -173.499c-26 -5.33301 -65.667 -8.33301 -119 -9h-221
c-40.667 -157.333 -61 -244 -61 -260c0 -26 28 -39 84 -39h24c40.667 0 61.334 -9.33301 62.001 -28c0 -23.333 -13.667 -35 -41 -35c-4 0 -16 0.666992 -36 2s-47.667 2.33301 -83 3s-73.666 1 -114.999 1c-53.333 0 -103.666 -0.666992 -150.999 -2l-72 -2
c-27.333 0 -41 9 -41 27zM577.997 425.998l196 0.000976562c100 0 185.5 45.333 256.5 136s106.5 188 106.5 292c0 57.333 -13.667 107.166 -41 149.499s-73.333 63.5 -138 63.5h-221z" />
    <glyph glyph-name="germandbls" unicode="&#xdf;" horiz-adv-x="1099" 
d="M-41 -291c0 31.333 9.5 58.6689 28.5 82.002s43.5 35 73.5 35c20.667 0 37.5 -6.16699 50.5 -18.5s19.5 -28.166 19.5 -47.499c0 -23.333 -8.5 -44.833 -25.5 -64.5s-41.167 -30.834 -72.5 -33.501c15.333 -23.333 35 -35 59 -35c22 0 44.667 11.667 68 35
c19.333 20.667 36.333 50.5 51 89.5s30.334 94.667 47.001 167s31.834 144.333 45.501 216l58 309c25 134.333 49.833 259.5 74.5 375.5c-9.33301 0 -24 -0.333008 -44 -1s-34.667 -1 -44 -1h-29c-34 0 -53 7 -57 21c-5.33301 24.667 5 39 31 43h55h101
c9.33301 58.667 17 104.667 23 138s15.5 73.166 28.5 119.499s26 82.166 39 107.499s30.833 52.666 53.5 81.999s48 51.166 76 65.499s61.667 26.666 101 36.999s84.333 15.5 135 15.5c88.667 0 157.334 -23.167 206.001 -69.5s73 -101.166 73 -164.499
c0 -52 -14.333 -106.5 -43 -163.5s-60.167 -105.667 -94.5 -146s-65.833 -81 -94.5 -122s-43 -72.5 -43 -94.5c0 -23.333 8.66699 -48.666 26 -75.999s35.833 -52.166 55.5 -74.499s38 -51.333 55 -87s25.5 -72.5 25.5 -110.5c0 -82 -36.5 -162.667 -109.5 -242
s-158.5 -119 -256.5 -119c-56 0 -103.167 14 -141.5 42s-57.5 64.667 -57.5 110c0 27.333 7.5 49.833 22.5 67.5s33.5 26.5 55.5 26.5c15.333 0 27.666 -4.66699 36.999 -14s14 -21.5 14 -36.5s-5.5 -29.333 -16.5 -43s-26.167 -23.5 -45.5 -29.5
c24.667 -52 67.667 -77.667 129 -77c42 0 80.167 22.167 114.5 66.5s58.333 89 72 134s20.5 80.5 20.5 106.5c0 36.667 -17 80.334 -51 131.001s-51 104.667 -51 162c0 49.333 7.16699 90 21.5 122s37.166 63.333 68.499 94s50.333 50.667 57 60
c20.667 28.667 42.667 81.167 66 157.5s35 133.833 35 172.5c0 44 -12 83.333 -36 118s-63.333 52 -118 52c-91.333 0 -159 -26.667 -203 -80c-28.667 -34 -59.334 -136.333 -92.001 -307l-18 -97l-15 -71c-96.667 -502.667 -158 -801.667 -184 -897
c-36.667 -136.667 -85 -234.334 -145 -293.001c-4 -4 -7.66699 -7.33301 -11 -10c-45.333 -42 -92.333 -63.333 -141 -64c-38 0 -69.667 12 -95 36s-38 55 -38 93z" />
    <glyph glyph-name="agrave" unicode="&#xe0;" 
d="M221 295c0 148.667 49.835 287.499 149.502 416.499s206.167 193.5 319.5 193.5c78 0 134.667 -40.333 170 -121c10.667 53.333 38 80 82 80c36.667 0 55 -17.667 55 -53c0 -9.33301 -2.66699 -23.666 -8 -42.999l-139 -557c-9.33301 -38 -14 -73 -14 -105
c0 -56 17.667 -83.667 53 -83c50.667 0 96.334 81 137.001 243c5.33301 22 10.166 35.333 14.499 40s12.5 7 24.5 7c20.667 0 31 -6.66699 31 -20c0 -2.66699 -2.5 -14.667 -7.5 -36s-12.5 -48.333 -22.5 -81s-20.667 -60.667 -32 -84
c-36.667 -76.667 -86.334 -115 -149.001 -115c-39.333 0 -74.833 12 -106.5 36s-52.834 60 -63.501 108c-78 -95.333 -160 -143.333 -246 -144c-75.333 0 -135.5 30.5 -180.5 91.5s-67.5 136.5 -67.5 226.5zM360.002 204.999c0 -45.333 8.33496 -87.001 25.002 -125.001
s46 -57 88 -57c50.667 0 103.667 28.333 159 85s87.666 105.334 96.999 146.001l96 387c4 12 6 21 6 27c0 48 -12.833 92 -38.5 132s-59.834 60 -102.501 60c-40.667 0 -82.5 -21.833 -125.5 -65.5s-77.5 -97.5 -103.5 -161.5c-20.667 -48 -42.667 -119.333 -66 -214
s-35 -166 -35 -214zM561.004 1257c0 20.667 8.83398 38.5 26.501 53.5s34.834 22.5 51.501 22.5c9.33301 0 18.166 -2.33301 26.499 -7s14.5 -9 18.5 -13s9.5 -10.833 16.5 -20.5s10.5 -15.167 10.5 -16.5l48 -65.5l36.5 -51l27 -37c9 -12.333 15.5 -21.666 19.5 -27.999
s7.66699 -12.5 11 -18.5s5.66602 -10.333 6.99902 -13s2 -5.33398 2 -8.00098c0 -9.33301 -3.66699 -17.166 -11 -23.499s-15.333 -9.5 -24 -9.5h-2c-8 0 -54.333 34.667 -139 104l-92 76c-22 21.333 -33 39.666 -33 54.999z" />
    <glyph glyph-name="aacute" unicode="&#xe1;" 
d="M221 295c0 148.667 49.835 287.499 149.502 416.499s206.167 193.5 319.5 193.5c78 0 134.667 -40.333 170 -121c10.667 53.333 38 80 82 80c36.667 0 55 -17.667 55 -53c0 -9.33301 -2.66699 -23.666 -8 -42.999l-139 -557c-9.33301 -38 -14 -73 -14 -105
c0 -56 17.667 -83.667 53 -83c50.667 0 96.334 81 137.001 243c5.33301 22 10.166 35.333 14.499 40s12.5 7 24.5 7c20.667 0 31 -6.66699 31 -20c0 -2.66699 -2.5 -14.667 -7.5 -36s-12.5 -48.333 -22.5 -81s-20.667 -60.667 -32 -84
c-36.667 -76.667 -86.334 -115 -149.001 -115c-39.333 0 -74.833 12 -106.5 36s-52.834 60 -63.501 108c-78 -95.333 -160 -143.333 -246 -144c-75.333 0 -135.5 30.5 -180.5 91.5s-67.5 136.5 -67.5 226.5zM360.002 204.999c0 -45.333 8.33496 -87.001 25.002 -125.001
s46 -57 88 -57c50.667 0 103.667 28.333 159 85s87.666 105.334 96.999 146.001l96 387c4 12 6 21 6 27c0 48 -12.833 92 -38.5 132s-59.834 60 -102.501 60c-40.667 0 -82.5 -21.833 -125.5 -65.5s-77.5 -97.5 -103.5 -161.5c-20.667 -48 -42.667 -119.333 -66 -214
s-35 -166 -35 -214zM709.004 1053l0.00195312 2.00098c0 8 12 23 36 45l89 69l170 140c19.333 16.667 37.666 24.667 54.999 24c15.333 0 28.666 -5.83301 39.999 -17.5s17 -24.834 17 -39.501c0 -26 -20.333 -51.333 -61 -76c-204.667 -118.667 -310.667 -178 -318 -178
c-8 0 -14.667 3 -20 9s-8 13.333 -8 22z" />
    <glyph glyph-name="acircumflex" unicode="&#xe2;" 
d="M221 295c0 148.667 49.835 287.499 149.502 416.499s206.167 193.5 319.5 193.5c78 0 134.667 -40.333 170 -121c10.667 53.333 38 80 82 80c36.667 0 55 -17.667 55 -53c0 -9.33301 -2.66699 -23.666 -8 -42.999l-139 -557c-9.33301 -38 -14 -73 -14 -105
c0 -56 17.667 -83.667 53 -83c50.667 0 96.334 81 137.001 243c5.33301 22 10.166 35.333 14.499 40s12.5 7 24.5 7c20.667 0 31 -6.66699 31 -20c0 -2.66699 -2.5 -14.667 -7.5 -36s-12.5 -48.333 -22.5 -81s-20.667 -60.667 -32 -84
c-36.667 -76.667 -86.334 -115 -149.001 -115c-39.333 0 -74.833 12 -106.5 36s-52.834 60 -63.501 108c-78 -95.333 -160 -143.333 -246 -144c-75.333 0 -135.5 30.5 -180.5 91.5s-67.5 136.5 -67.5 226.5zM360.002 204.999c0 -45.333 8.33496 -87.001 25.002 -125.001
s46 -57 88 -57c50.667 0 103.667 28.333 159 85s87.666 105.334 96.999 146.001l96 387c4 12 6 21 6 27c0 48 -12.833 92 -38.5 132s-59.834 60 -102.501 60c-40.667 0 -82.5 -21.833 -125.5 -65.5s-77.5 -97.5 -103.5 -161.5c-20.667 -48 -42.667 -119.333 -66 -214
s-35 -166 -35 -214zM510.004 990.998c0 9.33301 16.3359 29.332 49.0029 59.999c12 12 38.667 36.333 80 73l117 111c49.333 45.333 78.666 68 87.999 68s18.833 -6.83301 28.5 -20.5s34.167 -56.167 73.5 -127.5l72 -127c8 -16.667 12 -27.667 12 -33
c0 -8 -3.33301 -15.333 -10 -22s-14.334 -10 -23.001 -10c-9.33301 0 -18.833 6 -28.5 18s-34.834 49 -75.501 111c-34 49.333 -56.667 83.333 -68 102l-243 -209c-15.333 -15.333 -29 -22.666 -41 -21.999c-8 0 -15.167 2.66699 -21.5 8s-9.5 12 -9.5 20z" />
    <glyph glyph-name="atilde" unicode="&#xe3;" 
d="M221 295c0 148.667 49.835 287.499 149.502 416.499s206.167 193.5 319.5 193.5c78 0 134.667 -40.333 170 -121c10.667 53.333 38 80 82 80c36.667 0 55 -17.667 55 -53c0 -9.33301 -2.66699 -23.666 -8 -42.999l-139 -557c-9.33301 -38 -14 -73 -14 -105
c0 -56 17.667 -83.667 53 -83c50.667 0 96.334 81 137.001 243c5.33301 22 10.166 35.333 14.499 40s12.5 7 24.5 7c20.667 0 31 -6.66699 31 -20c0 -2.66699 -2.5 -14.667 -7.5 -36s-12.5 -48.333 -22.5 -81s-20.667 -60.667 -32 -84
c-36.667 -76.667 -86.334 -115 -149.001 -115c-39.333 0 -74.833 12 -106.5 36s-52.834 60 -63.501 108c-78 -95.333 -160 -143.333 -246 -144c-75.333 0 -135.5 30.5 -180.5 91.5s-67.5 136.5 -67.5 226.5zM360.002 204.999c0 -45.333 8.33496 -87.001 25.002 -125.001
s46 -57 88 -57c50.667 0 103.667 28.333 159 85s87.666 105.334 96.999 146.001l96 387c4 12 6 21 6 27c0 48 -12.833 92 -38.5 132s-59.834 60 -102.501 60c-40.667 0 -82.5 -21.833 -125.5 -65.5s-77.5 -97.5 -103.5 -161.5c-20.667 -48 -42.667 -119.333 -66 -214
s-35 -166 -35 -214zM428.004 1098c0 16.667 32.8281 51.1689 98.4951 103.502s118.834 78.5 159.501 78.5c23.333 0 43.5 -6.83301 60.5 -20.5s29.667 -28.334 38 -44.001s18.833 -30.334 31.5 -44.001s27.334 -20.5 44.001 -20.5c30 0 70.333 21.167 121 63.5
s79.334 63.5 86.001 63.5c13.333 0 20 -7 20 -21c0 -16.667 -32.667 -51.167 -98 -103.5s-118.666 -78.5 -159.999 -78.5c-23.333 0 -43.5 6.83301 -60.5 20.5s-29.5 28.667 -37.5 45s-18.5 31.333 -31.5 45s-27.833 20.5 -44.5 20.5c-30 0 -70.167 -21.167 -120.5 -63.5
s-79.166 -63.5 -86.499 -63.5c-13.333 0.666992 -20 7 -20 19z" />
    <glyph glyph-name="adieresis" unicode="&#xe4;" 
d="M221 295c0 148.667 49.835 287.499 149.502 416.499s206.167 193.5 319.5 193.5c78 0 134.667 -40.333 170 -121c10.667 53.333 38 80 82 80c36.667 0 55 -17.667 55 -53c0 -9.33301 -2.66699 -23.666 -8 -42.999l-139 -557c-9.33301 -38 -14 -73 -14 -105
c0 -56 17.667 -83.667 53 -83c50.667 0 96.334 81 137.001 243c5.33301 22 10.166 35.333 14.499 40s12.5 7 24.5 7c20.667 0 31 -6.66699 31 -20c0 -2.66699 -2.5 -14.667 -7.5 -36s-12.5 -48.333 -22.5 -81s-20.667 -60.667 -32 -84
c-36.667 -76.667 -86.334 -115 -149.001 -115c-39.333 0 -74.833 12 -106.5 36s-52.834 60 -63.501 108c-78 -95.333 -160 -143.333 -246 -144c-75.333 0 -135.5 30.5 -180.5 91.5s-67.5 136.5 -67.5 226.5zM360.002 204.999c0 -45.333 8.33496 -87.001 25.002 -125.001
s46 -57 88 -57c50.667 0 103.667 28.333 159 85s87.666 105.334 96.999 146.001l96 387c4 12 6 21 6 27c0 48 -12.833 92 -38.5 132s-59.834 60 -102.501 60c-40.667 0 -82.5 -21.833 -125.5 -65.5s-77.5 -97.5 -103.5 -161.5c-20.667 -48 -42.667 -119.333 -66 -214
s-35 -166 -35 -214zM541.004 1221c0 31.333 13.333 60.668 40 88.001s57 41 91 41c26 0 47.167 -8.66699 63.5 -26s24.5 -38 24.5 -62c0 -32.667 -13.667 -62.334 -41 -89.001s-57.333 -40 -90 -40c-24.667 0 -45.5 8.16699 -62.5 24.5s-25.5 37.5 -25.5 63.5zM907.004 1221
c0 31.333 12.999 60.333 38.999 87s56 40 90 40c24.667 0 45.834 -8.33301 63.501 -25s26.5 -37.667 26.5 -63c0 -31.333 -13.167 -60.333 -39.5 -87s-56.833 -40 -91.5 -40c-26 0 -47.167 8.5 -63.5 25.5s-24.5 37.833 -24.5 62.5z" />
    <glyph glyph-name="aring" unicode="&#xe5;" 
d="M221 295c0 148.667 49.835 287.499 149.502 416.499s206.167 193.5 319.5 193.5c78 0 134.667 -40.333 170 -121c10.667 53.333 38 80 82 80c36.667 0 55 -17.667 55 -53c0 -9.33301 -2.66699 -23.666 -8 -42.999l-139 -557c-9.33301 -38 -14 -73 -14 -105
c0 -56 17.667 -83.667 53 -83c50.667 0 96.334 81 137.001 243c5.33301 22 10.166 35.333 14.499 40s12.5 7 24.5 7c20.667 0 31 -6.66699 31 -20c0 -2.66699 -2.5 -14.667 -7.5 -36s-12.5 -48.333 -22.5 -81s-20.667 -60.667 -32 -84
c-36.667 -76.667 -86.334 -115 -149.001 -115c-39.333 0 -74.833 12 -106.5 36s-52.834 60 -63.501 108c-78 -95.333 -160 -143.333 -246 -144c-75.333 0 -135.5 30.5 -180.5 91.5s-67.5 136.5 -67.5 226.5zM360.002 204.999c0 -45.333 8.33496 -87.001 25.002 -125.001
s46 -57 88 -57c50.667 0 103.667 28.333 159 85s87.666 105.334 96.999 146.001l96 387c4 12 6 21 6 27c0 48 -12.833 92 -38.5 132s-59.834 60 -102.501 60c-40.667 0 -82.5 -21.833 -125.5 -65.5s-77.5 -97.5 -103.5 -161.5c-20.667 -48 -42.667 -119.333 -66 -214
s-35 -166 -35 -214zM575.004 1155c0 50.667 23.667 96.5 71 137.5s101 61.5 161 61.5c42 0 77.667 -12.333 107 -37s44 -56 44 -94c0 -50.667 -23.5 -96.5 -70.5 -137.5s-100.5 -61.5 -160.5 -61.5c-42 0 -77.833 12.333 -107.5 37s-44.5 56 -44.5 94zM637.004 1147
c0 -52 33.333 -78.001 100 -78.001c45.333 0 81 12.333 107 37s41.333 46.834 46 66.501s7 39.167 7 58.5c0 50.667 -33.333 76 -100 76c-57.333 0 -98.333 -17.167 -123 -51.5s-37 -70.5 -37 -108.5z" />
    <glyph glyph-name="ae" unicode="&#xe6;" horiz-adv-x="1464" 
d="M221 301c0 155.333 49.4922 294.836 148.492 418.503s205.167 185.5 318.5 185.5c34 0 64.667 -7.83301 92 -23.5s45.5 -29.667 54.5 -42s20.833 -29.5 35.5 -51.5c5.33301 22 8.83301 36.167 10.5 42.5s5.83398 17.333 12.501 33s14.834 26.167 24.501 31.5
s21.167 8 34.5 8c15.333 0 27 -5.16699 35 -15.5s12 -20.833 12 -31.5c0 -8 -3.33301 -27.667 -10 -59c92.667 72.667 184.334 108.667 275.001 108c58.667 0 107.334 -16 146.001 -48s58 -74 58 -126c0 -23.333 -3.33301 -46.833 -10 -70.5s-28.5 -53.334 -65.5 -89.001
s-88.167 -60.834 -153.5 -75.501c-72.667 -16.667 -174.334 -25 -305.001 -25h-27c-19.333 -82 -28.666 -148.333 -27.999 -199c0 -76.667 15.333 -137.334 46 -182.001s72 -67 124 -67c42 0 90.667 13.167 146 39.5s108.333 72.5 159 138.5c1.33301 1.33301 4 5 8 11
s7.33301 10.667 10 14s6.5 6.83301 11.5 10.5s9.5 5.5 13.5 5.5c6.66699 0 13 -3.16699 19 -9.5s9 -13.5 9 -21.5c0 -18 -16.667 -45 -50 -81s-80.666 -70.5 -141.999 -103.5s-122.666 -49.5 -183.999 -49.5c-74 0 -133.5 24.667 -178.5 74s-73.833 109.333 -86.5 180
l-10 -18c-8 -10.667 -14.833 -20.167 -20.5 -28.5l-24.5 -35c-10.667 -15 -21.167 -28.333 -31.5 -40s-22.666 -24.667 -36.999 -39s-28.666 -26.333 -42.999 -36s-29.333 -19.167 -45 -28.5s-32.667 -16.5 -51 -21.5s-36.5 -7.5 -54.5 -7.5c-74 0 -133.5 30.5 -178.5 91.5
s-67.5 138.5 -67.5 232.5zM359.992 213.003c0 -50.667 8.66895 -95.0029 26.002 -133.003s45.666 -57 84.999 -57c42 0 88.333 23.5 139 70.5s95 108.833 133 185.5c8 15.333 14.167 27.666 18.5 36.999s7.5 18 9.5 26s3.33301 13.833 4 17.5
s1.33398 9.83398 2.00098 18.501s1.66699 16.334 3 23.001c5.33301 46.667 16.666 101.834 33.999 165.501s26 101.5 26 113.5c0 34 -12 72.167 -36 114.5s-62 63.5 -114 63.5c-62.667 0 -122.667 -41.667 -180 -125c-40.667 -58.667 -75.834 -145.667 -105.501 -261
s-44.5 -201.666 -44.5 -258.999zM919.994 518c38 0 71.001 0.668945 99.001 2.00195s62.5 4.16602 103.5 8.49902s75.5 11.166 103.5 20.499s55.667 21.5 83 36.5s48.166 35.167 62.499 60.5s21.5 54.333 21.5 87c0 35.333 -12.333 65 -37 89s-56 36 -94 36
c-68 0 -134.5 -30 -199.5 -90s-112.5 -143.333 -142.5 -250z" />
    <glyph glyph-name="ccedilla" unicode="&#xe7;" horiz-adv-x="942" 
d="M211 -370.5c0 15 14.334 22.5029 43.001 22.5029h35c176 1.33301 264 43.666 264 126.999c0 27.333 -10.167 46 -30.5 56s-41.166 17.167 -62.499 21.5s-32 12.5 -32 24.5c0 5.33301 8.33301 40.333 25 105c-80.667 20.667 -139.167 62 -175.5 124
s-54.5 129.667 -54.5 203c0 148.667 54.333 284.5 163 407.5s227.667 184.5 357 184.5c61.333 0 113 -16.333 155 -49s63 -75 63 -127c0 -40.667 -11 -71.334 -33 -92.001s-45.333 -31 -70 -31c-20.667 0 -37.5 6.16699 -50.5 18.5s-19.5 28.166 -19.5 47.499
c0 10.667 2.16699 22.167 6.5 34.5s14.666 25.666 30.999 39.999s38.166 22.833 65.499 25.5c-27.333 57.333 -75 86 -143 86c-62.667 0 -120 -24.167 -172 -72.5s-92.333 -107.666 -121 -177.999s-50.5 -138.666 -65.5 -204.999s-22.5 -122.833 -22.5 -169.5
c0 -94 33.333 -160 100 -198c10.667 6.66699 24.334 10 41.001 10h45c15.333 0 28.333 -5.33301 39 -16c56 12 105.833 30.667 149.5 56s75.667 49.166 96 71.499l54 59.5c15.667 17.333 27.834 26 36.501 26h2c16.667 -2.66699 24.667 -11.667 24 -27
c0 -12 -7.33301 -27.667 -22 -47c-84.667 -104 -200.667 -166.667 -348 -188l-23 -89c83.333 -18 125 -56 125 -114c0 -36.667 -12.333 -67.334 -37 -92.001s-59.834 -42.167 -105.501 -52.5s-89.334 -17.166 -131.001 -20.499s-90.5 -5 -146.5 -5h-12
c-28.667 0 -43 7.5 -43 22.5z" />
    <glyph glyph-name="egrave" unicode="&#xe8;" horiz-adv-x="942" 
d="M233 336c0 168 54.666 304.832 163.999 410.499s224 158.5 344 158.5c62.667 0 112.834 -16.667 150.501 -50s56.5 -74.666 56.5 -123.999c0 -6.66699 -0.333008 -13.834 -1 -21.501s-3.66699 -21 -9 -40s-13.166 -36.667 -23.499 -53s-26.833 -33.666 -49.5 -51.999
s-49 -33.833 -79 -46.5c-76.667 -30 -175.667 -45 -297 -45h-79c-23.333 -90 -35 -165 -35 -225c0 -34 3.33301 -66.167 10 -96.5s22.334 -59.333 47.001 -87s57.334 -41.5 98.001 -41.5c23.333 0 49.666 2.33301 78.999 7s73.666 23.667 132.999 57
s111.666 78.666 156.999 135.999c12 15.333 21 23 27 23c8 0 15.333 -4.16699 22 -12.5s10 -15.166 10 -20.499c0 -13.333 -16.667 -37.833 -50 -73.5s-85.5 -71.667 -156.5 -108s-146.167 -54.5 -225.5 -54.5c-92.667 0 -164.667 35.333 -216 106s-77 155 -77 253z
M421.999 517.999l42.999 0.00195312c20.667 0 39.167 0.333008 55.5 1s42.5 2.66699 78.5 6s67.667 9.83301 95 19.5s55.666 22 84.999 37s51.833 35.833 67.5 62.5s23.5 57 23.5 91c0 35.333 -11.5 65 -34.5 89s-54.5 36 -94.5 36c-9.33301 0 -20.166 -1 -32.499 -3
s-33.166 -9.16699 -62.499 -21.5s-56.333 -29.333 -81 -51s-50.5 -55.834 -77.5 -102.501s-48.833 -101.334 -65.5 -164.001zM507.998 1257c0 20.667 8.83398 38.5 26.501 53.5s34.834 22.5 51.501 22.5c9.33301 0 18.166 -2.33301 26.499 -7s14.5 -9 18.5 -13
s9.5 -10.833 16.5 -20.5s10.5 -15.167 10.5 -16.5l48 -65.5l36.5 -51l27 -37c9 -12.333 15.5 -21.666 19.5 -27.999s7.66699 -12.5 11 -18.5s5.66602 -10.333 6.99902 -13s2 -5.33398 2 -8.00098c0 -9.33301 -3.66699 -17.166 -11 -23.499s-15.333 -9.5 -24 -9.5h-2
c-8 0 -54.333 34.667 -139 104l-92 76c-22 21.333 -33 39.666 -33 54.999z" />
    <glyph glyph-name="eacute" unicode="&#xe9;" horiz-adv-x="942" 
d="M233 336c0 168 54.666 304.832 163.999 410.499s224 158.5 344 158.5c62.667 0 112.834 -16.667 150.501 -50s56.5 -74.666 56.5 -123.999c0 -6.66699 -0.333008 -13.834 -1 -21.501s-3.66699 -21 -9 -40s-13.166 -36.667 -23.499 -53s-26.833 -33.666 -49.5 -51.999
s-49 -33.833 -79 -46.5c-76.667 -30 -175.667 -45 -297 -45h-79c-23.333 -90 -35 -165 -35 -225c0 -34 3.33301 -66.167 10 -96.5s22.334 -59.333 47.001 -87s57.334 -41.5 98.001 -41.5c23.333 0 49.666 2.33301 78.999 7s73.666 23.667 132.999 57
s111.666 78.666 156.999 135.999c12 15.333 21 23 27 23c8 0 15.333 -4.16699 22 -12.5s10 -15.166 10 -20.499c0 -13.333 -16.667 -37.833 -50 -73.5s-85.5 -71.667 -156.5 -108s-146.167 -54.5 -225.5 -54.5c-92.667 0 -164.667 35.333 -216 106s-77 155 -77 253z
M421.999 517.999l42.999 0.00195312c20.667 0 39.167 0.333008 55.5 1s42.5 2.66699 78.5 6s67.667 9.83301 95 19.5s55.666 22 84.999 37s51.833 35.833 67.5 62.5s23.5 57 23.5 91c0 35.333 -11.5 65 -34.5 89s-54.5 36 -94.5 36c-9.33301 0 -20.166 -1 -32.499 -3
s-33.166 -9.16699 -62.499 -21.5s-56.333 -29.333 -81 -51s-50.5 -55.834 -77.5 -102.501s-48.833 -101.334 -65.5 -164.001zM657.998 1053l0.00195312 2.00098c0 8 12 23 36 45l89 69l170 140c19.333 16.667 37.666 24.667 54.999 24
c15.333 0 28.666 -5.83301 39.999 -17.5s17 -24.834 17 -39.501c0 -26 -20.333 -51.333 -61 -76c-204.667 -118.667 -310.667 -178 -318 -178c-8 0 -14.667 3 -20 9s-8 13.333 -8 22z" />
    <glyph glyph-name="ecircumflex" unicode="&#xea;" horiz-adv-x="942" 
d="M233 336c0 168 54.666 304.832 163.999 410.499s224 158.5 344 158.5c62.667 0 112.834 -16.667 150.501 -50s56.5 -74.666 56.5 -123.999c0 -6.66699 -0.333008 -13.834 -1 -21.501s-3.66699 -21 -9 -40s-13.166 -36.667 -23.499 -53s-26.833 -33.666 -49.5 -51.999
s-49 -33.833 -79 -46.5c-76.667 -30 -175.667 -45 -297 -45h-79c-23.333 -90 -35 -165 -35 -225c0 -34 3.33301 -66.167 10 -96.5s22.334 -59.333 47.001 -87s57.334 -41.5 98.001 -41.5c23.333 0 49.666 2.33301 78.999 7s73.666 23.667 132.999 57
s111.666 78.666 156.999 135.999c12 15.333 21 23 27 23c8 0 15.333 -4.16699 22 -12.5s10 -15.166 10 -20.499c0 -13.333 -16.667 -37.833 -50 -73.5s-85.5 -71.667 -156.5 -108s-146.167 -54.5 -225.5 -54.5c-92.667 0 -164.667 35.333 -216 106s-77 155 -77 253z
M421.999 517.999l42.999 0.00195312c20.667 0 39.167 0.333008 55.5 1s42.5 2.66699 78.5 6s67.667 9.83301 95 19.5s55.666 22 84.999 37s51.833 35.833 67.5 62.5s23.5 57 23.5 91c0 35.333 -11.5 65 -34.5 89s-54.5 36 -94.5 36c-9.33301 0 -20.166 -1 -32.499 -3
s-33.166 -9.16699 -62.499 -21.5s-56.333 -29.333 -81 -51s-50.5 -55.834 -77.5 -102.501s-48.833 -101.334 -65.5 -164.001zM456.998 991.001c0 9.33301 16.335 29.334 49.002 60.001c12 12 38.667 36.333 80 73l116 111c49.333 45.333 79 68 89 68
c2.66699 0 5.66699 -0.833008 9 -2.5s6.33301 -3.83398 9 -6.50098s5 -5.33398 7 -8.00098s4.66699 -6.66699 8 -12s5.83301 -9.5 7.5 -12.5s4.16699 -7.83301 7.5 -14.5s5.66602 -10.667 6.99902 -12c88.667 -154 133 -234 133 -240c0 -8 -3.83301 -15.333 -11.5 -22
s-15.5 -10 -23.5 -10c-9.33301 0 -18.833 6 -28.5 18s-34.834 49 -75.501 111c-34 49.333 -56.667 83.333 -68 102l-246 -209c-15.333 -15.333 -28.333 -22.666 -39 -21.999c-8 0 -15 2.66699 -21 8s-9 12 -9 20z" />
    </font>
</defs>
</svg>
