<?xml version="1.0" standalone="no"?>
<!DOCTYPE svg PUBLIC "-//W3C//DTD SVG 1.1//EN" "http://www.w3.org/Graphics/SVG/1.1/DTD/svg11.dtd" >
<svg>
<metadata>
Created by FontForge 20090914 at Fri Jul 11 17:56:52 2014
 By www-data
Converted by Andrey V. Panov from TeX fonts. Some glyphs are copied from Blue Sky fonts released by AMS.
</metadata>
<defs>
<font id="CMUSerif-Roman" horiz-adv-x="1024" >
  <font-face 
    font-family="CMU Serif"
    font-weight="500"
    font-stretch="normal"
    units-per-em="2048"
    panose-1="2 0 6 3 0 0 0 0 0 0"
    ascent="1638"
    descent="-410"
    x-height="883"
    cap-height="1399"
    bbox="-2324 -723.002 2982 1915"
    underline-thickness="102"
    underline-position="-205"
    unicode-range="U+000D-U+FB04"
  />
<missing-glyph horiz-adv-x="1556" 
d="M20 20v1547h1516v-1547h-1516zM143 229l566 566l-566 563v-1129zM215 143h1126l-563 566zM215 1444l563 -565l563 565h-1126zM848 795l565 -566v1129z" />
    <glyph glyph-name="uniFB00" unicode="ff" horiz-adv-x="1193" 
d="M55 0l-0.000976562 63.001h17c64 0 103.833 5.5 119.5 16.5s23.5 37.167 23.5 78.5v661h-160v62h160v227c0 74 23.833 137.5 71.5 190.5s103.334 90.5 167.001 112.5s129.5 33 197.5 33c102.667 0 180.667 -28.667 234 -86c64 57.333 136.333 86 217 86
c57.333 0 102.333 -15.333 135 -46s49 -64 49 -100c0 -26 -8.5 -47.5 -25.5 -64.5s-37.833 -25.5 -62.5 -25.5s-45.5 8.66699 -62.5 26s-25.5 38.666 -25.5 63.999c0 38 19.667 66.667 59 86c-30 8 -52.333 12.333 -67 13c-46.667 0 -89.5 -24 -128.5 -72
s-58.5 -120.333 -58.5 -217v-227h240v-62h-233v-659c0 -42 9.5 -68.667 28.5 -80s67.5 -17 145.5 -17h24v-63c-88.667 4 -177.334 6 -266.001 6c-83.333 0 -159.666 -2 -228.999 -6v63h16c64 0 103.5 5.5 118.5 16.5s22.5 37.167 22.5 78.5v661h-430v-661
c0 -40.667 7.5 -66.667 22.5 -78s55.5 -17 121.5 -17h16v-63c-78 4 -156.667 6 -236 6c-73.333 0 -147 -2 -221 -6zM345.999 881.001h436v174c0 61.333 2 105 6 131c-36.667 22 -55 50 -55 84c0 40.667 24.667 70.667 74 90c-44 24.667 -96 37 -156 37
c-23.333 0 -47.166 -2.5 -71.499 -7.5s-50.833 -14.333 -79.5 -28s-54.334 -31 -77.001 -52s-41.167 -48.833 -55.5 -83.5s-21.5 -74.667 -21.5 -120v-225z" />
    <glyph glyph-name="uniFB01" unicode="fi" horiz-adv-x="1136" 
d="M55 0v63h17c64 0 103.833 5.5 119.5 16.5s23.5 37.167 23.5 78.5v661h-160v62h160v229c0 108 45.333 190.667 136 248s191.334 86 302.001 86c76.667 0 140 -19.833 190 -59.5s75 -87.5 75 -143.5c0 -30 -9.33301 -53.833 -28 -71.5s-41 -26.5 -67 -26.5
s-48.167 8.83301 -66.5 26.5s-27.5 40.167 -27.5 67.5s9.16699 49.5 27.5 66.5s41.833 26.167 70.5 27.5c-50.667 44 -110 66 -178 66c-72.667 0 -141.334 -23.667 -206.001 -71s-97 -120 -97 -218v-227h279v4l297 22v-760c0 -35.333 9.16699 -58.166 27.5 -68.499
s54.833 -15.5 109.5 -15.5h20v-63c-78 4 -155.667 6 -233 6c-74 0 -147.667 -2 -221 -6v63h20c58.667 0 96.167 5.5 112.5 16.5s24.5 35.833 24.5 74.5v479c0 6.66699 0.333008 16.167 1 28.5s1 21.166 1 26.499c0 53.333 -6.5 88.5 -19.5 105.5s-44.5 25.5 -94.5 25.5h-318
v-661c0 -40.667 7.5 -66.667 22.5 -78s55.5 -17 121.5 -17h16v-63c-78 4 -156.667 6 -236 6c-73.333 0 -147 -2 -221 -6z" />
    <glyph glyph-name="uniFB02" unicode="fl" horiz-adv-x="1136" 
d="M55 0v63h17c64 0 103.833 5.5 119.5 16.5s23.5 37.167 23.5 78.5v661h-160v62h160v227c0 109.333 45 192.666 135 249.999s191.667 86 305 86c58.667 0 103.834 -5.16699 135.501 -15.5s51.5 -15.5 59.5 -15.5c15.333 0 39.333 2.66699 72 8v-1265
c0 -39.333 8.16699 -64.666 24.5 -75.999s57.166 -17 122.499 -17h10v-63c-78 4 -155.667 6 -233 6c-74 0 -147.667 -2 -221 -6v63h16c64 0 103.5 5.5 118.5 16.5s22.5 37.167 22.5 78.5v661h-430v-661c0 -40.667 7.5 -66.667 22.5 -78s55.5 -17 121.5 -17h16v-63
c-78 4 -156.667 6 -236 6c-73.333 0 -147 -2 -221 -6zM346 881l436 -0.00195312v336c-32.667 23.333 -49 50.333 -49 81c0 30 16.333 56.667 49 80v2c-39.333 10.667 -81.666 16.334 -126.999 17.001c-46.667 0 -91.334 -7.5 -134.001 -22.5s-82.5 -46.167 -119.5 -93.5
s-55.5 -107.666 -55.5 -180.999v-219z" />
    <glyph glyph-name="uniFB03" unicode="ffi" horiz-adv-x="1705" 
d="M55 0l-0.000976562 62.998h17c64 0 103.833 5.5 119.5 16.5s23.5 37.167 23.5 78.5v661h-160v62h160v227c0 74 23.833 137.5 71.5 190.5s103 90.5 166 112.5s127.833 33 194.5 33c105.333 0 184.666 -37.667 237.999 -113c96.667 75.333 207.334 113 332.001 113
c82 0 147.5 -20.5 196.5 -61.5s73.5 -88.167 73.5 -141.5c0 -31.333 -9.16699 -55.166 -27.5 -71.499s-40.5 -24.5 -66.5 -24.5s-48.333 8.16699 -67 24.5s-28 38.833 -28 67.5c0 20.667 7.16699 40.5 21.5 59.5s40.166 30.5 77.499 34.5c-50.667 44 -110 66 -178 66
c-44 0 -87.5 -8.16699 -130.5 -24.5s-82.667 -47.5 -119 -93.5s-54.5 -103 -54.5 -171v-227h277v4l297 22v-760c0 -35.333 9.16699 -58.166 27.5 -68.499s55.5 -15.5 111.5 -15.5h21v-63c-78 4 -156 6 -234 6c-75.333 0 -149.666 -2 -222.999 -6v63h22
c58.667 0 96.334 5.5 113.001 16.5s25 35.833 25 74.5v532c0 53.333 -6.5 88.833 -19.5 106.5s-44.167 26.5 -93.5 26.5h-317v-661c0 -40.667 7.5 -66.667 22.5 -78s55.167 -17 120.5 -17h14v-63c-78 4 -155.667 6 -233 6c-74 0 -147.667 -2 -221 -6v63h16
c64 0 103.5 5.5 118.5 16.5s22.5 37.167 22.5 78.5v661h-430v-661c0 -40.667 7.5 -66.667 22.5 -78s55.5 -17 121.5 -17h16v-63c-78 4 -156.667 6 -236 6c-73.333 0 -147 -2 -221 -6zM345.999 880.998h436v163l2 105c-39.333 20.667 -59 50 -59 88c0 12 2 23.833 6 35.5
s13.5 24 28.5 37s35.5 20.167 61.5 21.5c-44 44 -102 66 -174 66c-22 0 -45.167 -2.5 -69.5 -7.5s-50.5 -14.333 -78.5 -28s-53 -31 -75 -52s-40.5 -48.833 -55.5 -83.5s-22.5 -74.667 -22.5 -120v-225z" />
    <glyph glyph-name="uniFB04" unicode="ffl" horiz-adv-x="1705" 
d="M55 0l0.00195312 62.999h17c64 0 103.833 5.5 119.5 16.5s23.5 37.167 23.5 78.5v661h-160v62h160v227c-1.33301 106.667 43.667 189.334 135 248.001s191 88 299 88c116 0 198 -35 246 -105c101.333 69.333 210.666 104.333 327.999 105
c58.667 0 103.667 -5.16699 135 -15.5s51.666 -15.5 60.999 -15.5c13.333 0 36.666 2.66699 69.999 8v-1267c0 -39.333 8.5 -64.333 25.5 -75s58.167 -16 123.5 -16h11v-63c-78 4 -156 6 -234 6c-75.333 0 -149.666 -2 -222.999 -6v63h16c64 0 104 5.5 120 16.5
s24 37.167 24 78.5v661h-430v-661c0 -40.667 7.5 -66.667 22.5 -78s55.167 -17 120.5 -17h14v-63c-78 4 -155.667 6 -233 6c-74 0 -147.667 -2 -221 -6v63h16c64 0 103.5 5.5 118.5 16.5s22.5 37.167 22.5 78.5v661h-430v-661c0 -40.667 7.5 -66.667 22.5 -78
s55.5 -17 121.5 -17h16v-63c-78 4 -156.667 6 -236 6c-73.333 0 -147 -2 -221 -6zM346.002 880.999h436v174c4 79.333 7 123 9 131c-38 22 -57.333 50 -58 84c0 40.667 24.667 70.667 74 90c-44 24.667 -96 37 -156 37c-23.333 0 -47.166 -2.5 -71.499 -7.5
s-50.833 -14.333 -79.5 -28s-54.334 -31 -77.001 -52s-41.167 -48.833 -55.5 -83.5s-21.5 -74.667 -21.5 -120v-225zM915.002 880.999l437.001 -0.000976562v336c-32.667 23.333 -49 50.333 -49 81c0 30 16.333 56.667 49 80v2c-39.333 10.667 -82.333 16.334 -129 17.001
c-32.667 0 -65.5 -4.83301 -98.5 -14.5s-65.833 -24.667 -98.5 -45s-59.334 -51 -80.001 -92s-31 -89.5 -31 -145.5v-219z" />
    <glyph glyph-name=".notdef" horiz-adv-x="1556" 
d="M20 20v1547h1516v-1547h-1516zM143 229l566 566l-566 563v-1129zM215 143h1126l-563 566zM215 1444l563 -565l563 565h-1126zM848 795l565 -566v1129z" />
    <glyph glyph-name=".notdef" horiz-adv-x="1556" 
d="M20 20v1547h1516v-1547h-1516zM143 229l566 566l-566 563v-1129zM215 143h1126l-563 566zM215 1444l563 -565l563 565h-1126zM848 795l565 -566v1129z" />
    <glyph glyph-name="uni000D" unicode="&#xd;" horiz-adv-x="681" 
 />
    <glyph glyph-name="space" unicode=" " horiz-adv-x="681" 
 />
    <glyph glyph-name="exclam" unicode="!" horiz-adv-x="569" 
d="M174 109c0 31.333 11 57.166 33 77.499s47.333 30.5 76 30.5s53.5 -10.167 74.5 -30.5s31.5 -46.166 31.5 -77.499c0 -30 -10.833 -55.333 -32.5 -76s-46.167 -31 -73.5 -31c-31.333 0 -57.333 10.667 -78 32s-31 46.333 -31 75zM174 1360
c0 32.667 10.999 58.5 32.999 77.5s47.333 28.5 76 28.5s53.834 -9.5 75.501 -28.5s32.5 -44.833 32.5 -77.5c0 -2.66699 -0.333008 -6.5 -1 -11.5s-1 -8.83301 -1 -11.5l-78 -905c-2.66699 -31.333 -12.667 -47 -30 -47c-15.333 0 -24.333 18.333 -27 55l-78 891
c0 2.66699 -0.333008 7.5 -1 14.5s-1 11.833 -1 14.5z" />
    <glyph glyph-name="quotedbl" unicode="&#x22;" 
d="M244 1360c0 34 10.168 58.168 30.501 72.501s41.5 21.5 63.5 21.5c23.333 0 45.166 -7.16699 65.499 -21.5s30.5 -38.5 30.5 -72.5c0 -6.66699 -5.83301 -62.334 -17.5 -167.001l-36 -316.5c-12.333 -106.333 -18.5 -161.5 -18.5 -165.5h-47
c-4 42 -12.167 116.333 -24.5 223l-32.5 288c-9.33301 85.333 -14 131.333 -14 138zM588.001 1358c0 31.333 9.16699 55.168 27.5 71.501s40.5 24.5 66.5 24.5c22 0 43.167 -7.16699 63.5 -21.5s30.5 -38.5 30.5 -72.5c0 -6.66699 -4.66699 -52.334 -14 -137.001l-32.5 -287
c-12.333 -106.667 -20.5 -181.667 -24.5 -225h-46c-2.66699 20.667 -15.167 130.667 -37.5 330s-33.5 305 -33.5 317z" />
    <glyph glyph-name="numbersign" unicode="#" horiz-adv-x="1705" 
d="M117 313c0 15.333 17.667 23.002 53 23.002h365l96 352h-467c-31.333 0 -47 7.66699 -47 23c0 16.667 20.333 24.667 61 24h467l166 606c0 1.33301 1.33301 7.5 4 18.5s5 18.167 7 21.5s4.5 8.83301 7.5 16.5s6.5 12.834 10.5 15.501s8 4 12 4c12 0 18 -8 18 -24
c0 -8 -4 -28.667 -12 -62l-164 -596h441l165 606c1.33301 2.66699 3.16602 8.83398 5.49902 18.501s4.16602 17 5.49902 22s3.33301 10.5 6 16.5s6 10.667 10 14s8 5 12 5c13.333 0 20.333 -8 21 -24c0 -2.66699 -4.66699 -23.334 -14 -62.001l-164 -596h354
c34 0 51 -8 51 -24c-1.33301 -15.333 -19 -23 -53 -23h-367l-94 -352h465c32.667 0 49 -7.66699 49 -23c0 -16.667 -16.333 -24.667 -49 -24h-479l-168 -606c0 -2.66699 -1.33301 -8.83398 -4 -18.501l-6 -22c-1.33301 -5 -3.83301 -10.833 -7.5 -17.5
s-7.16699 -11.334 -10.5 -14.001s-7 -4 -11 -4c-12 0 -18 8 -18 24c0 8 4 28.667 12 62l164 596h-441l-166 -606c0 -2.66699 -1.33301 -8.83398 -4 -18.501l-6 -22c-1.33301 -5 -3.66602 -10.833 -6.99902 -17.5s-6.66602 -11.334 -9.99902 -14.001s-7 -4 -11 -4
c-13.333 0 -20.333 8 -21 24c0 2.66699 4.66699 23.334 14 62.001l164 596h-354c-34 -0.666992 -51 7.33301 -51 24zM584 336.002h440l96 352h-440z" />
    <glyph glyph-name="dollar" unicode="$" 
d="M113 362c0 36.667 9.83105 63.3359 29.498 80.0029s41.167 25 64.5 25c24.667 0 46.5 -8.5 65.5 -25.5s28.5 -39.167 28.5 -66.5c0 -26 -8.5 -48.167 -25.5 -66.5s-39.167 -27.5 -66.5 -27.5c-6.66699 0 -18.334 1.33301 -35.001 4
c38 -147.333 139.667 -228.666 305 -243.999v612c-1.33301 0 -9.16602 1.83301 -23.499 5.5l-32.5 8.5c-7.33301 2 -19.666 5.66699 -36.999 11s-31.666 10.666 -42.999 15.999s-25.666 13.166 -42.999 23.499s-32.833 21 -46.5 32s-27.667 24.667 -42 41
s-27.5 34.166 -39.5 53.499c-39.333 62.667 -59 131.667 -59 207c0 101.333 33.667 189 101 263s155.666 117.333 264.999 130v92h64v-92c58.667 -4 110.5 -15.667 155.5 -35s80.5 -41.833 106.5 -67.5s46.833 -55 62.5 -88s26.167 -62.833 31.5 -89.5s8 -53 8 -79
c0 -38 -9.5 -64.5 -28.5 -79.5s-40.167 -22.5 -63.5 -22.5c-26 0 -48.167 8.5 -66.5 25.5s-27.5 39.167 -27.5 66.5c0 26 8.5 48.167 25.5 66.5s39.167 27.5 66.5 27.5c8 0 19 -1.33301 33 -4c-40.667 128.667 -141.667 200.334 -303 215.001v-555
c1.33301 0 8.83301 -1.66699 22.5 -5s23.834 -6 30.501 -8l33.5 -10c15.667 -4.66699 28.667 -9.83398 39 -15.501s23.333 -12.167 39 -19.5s29.667 -16.5 42 -27.5l39 -36c13.667 -13 26.667 -28 39 -45s23.166 -35.167 32.499 -54.5c32.667 -64 49 -132.333 49 -205
c0 -108 -34.5 -202.5 -103.5 -283.5s-156.5 -126.167 -262.5 -135.5v-93h-64v93c-74 5.33301 -136.833 22.666 -188.5 51.999s-89.5 64.833 -113.5 106.5s-40.667 80.5 -50 116.5s-14 71.667 -14 107zM218.998 1112c0 -58.667 17.501 -109.501 52.501 -152.501
s74.833 -74.167 119.5 -93.5c10.667 -5.33301 27.667 -10.666 51 -15.999s35.666 -8 36.999 -8v536c-75.333 -8 -137.5 -37.333 -186.5 -88s-73.5 -110 -73.5 -178zM542.999 43.001c80.667 10.667 144.168 44.6699 190.501 102.003s69.5 121.666 69.5 192.999
c0 61.333 -16.333 116.666 -49 165.999s-74.334 84.666 -125.001 105.999c-8 4 -36.667 13 -86 27v-594z" />
    <glyph glyph-name="percent" unicode="%" horiz-adv-x="1705" 
d="M115 1124c0 117.333 29.999 215.333 89.999 294s130.333 118 211 118c49.333 0 98.333 -22 147 -66c110.667 -105.333 238.334 -157.666 383.001 -156.999c164 0 293.667 64.667 389 194c16.667 19.333 31 29 43 29c10.667 0 20.167 -4.16699 28.5 -12.5
s12.5 -17.833 12.5 -28.5c0 -8 -5.33301 -20.333 -16 -37l-1036 -1542c-15.333 -20.667 -29 -31 -41 -31c-10.667 0 -20.167 4.16699 -28.5 12.5s-12.5 17.833 -12.5 28.5c0 9.33301 6 23 18 41l920 1370l-2 2c-70.667 -48 -161.667 -71.667 -273 -71
c-105.333 0 -208.333 28.667 -309 86c28.667 -70.667 43 -148 43 -232c0 -114.667 -25.667 -211.834 -77 -291.501s-114.333 -119.5 -189 -119.5c-80.667 0 -151 38.833 -211 116.5s-90 176.5 -90 296.5zM241.999 1122.5c0 -64.333 4.66699 -120.335 14 -168.002
s20.833 -83.834 34.5 -108.501s29.834 -44.167 48.501 -58.5s33.667 -23.166 45 -26.499s22.666 -5 33.999 -5c56 0 105.5 34.833 148.5 104.5s64.5 157.5 64.5 263.5c0 104 -21.5 191.167 -64.5 261.5s-92.5 105.5 -148.5 105.5c-12 0 -23.833 -1.66699 -35.5 -5
s-26.5 -12.166 -44.5 -26.499s-33.833 -33.833 -47.5 -58.5s-25.167 -61.167 -34.5 -109.5s-14 -104.666 -14 -168.999zM1022 298.998c0 117.333 30 215.333 90 294s130.333 118 211 118c74 0 136.833 -40 188.5 -120s77.5 -178 77.5 -294c0 -114.667 -25.5 -212 -76.5 -292
s-114.167 -120 -189.5 -120c-80.667 0 -151 39 -211 117s-90 177 -90 297zM1149 296.998c0 -64 4.83398 -120.003 14.501 -168.003s21.334 -84.167 35.001 -108.5s29.667 -43.666 48 -57.999s33.333 -23.333 45 -27s22.834 -5.5 33.501 -5.5c56 0 105.5 34.833 148.5 104.5
s64.5 157.834 64.5 264.501c0 104 -21.5 191.167 -64.5 261.5s-92.5 105.5 -148.5 105.5c-12 0 -23.833 -1.83301 -35.5 -5.5s-26.334 -12.667 -44.001 -27s-33.334 -33.666 -47.001 -57.999s-25.334 -60.833 -35.001 -109.5s-14.5 -105 -14.5 -169z" />
    <glyph glyph-name="ampersand" unicode="&#x26;" horiz-adv-x="1591" 
d="M86 262c0 50.667 10.665 92.6631 31.998 125.996s59 78 113 134l187 199c-56 142 -84 280.667 -84 416c0 101.333 28.667 181.5 86 240.5s121.333 88.5 192 88.5c34 0 63.667 -9.16699 89 -27.5s43.833 -41.833 55.5 -70.5s20.334 -56.667 26.001 -84
s8.5 -54.666 8.5 -81.999c0 -42 -15.167 -90 -45.5 -144s-59.5 -98.5 -87.5 -133.5s-67 -80.5 -117 -136.5c38 -100 94.5 -205.167 169.5 -315.5s131.833 -187.166 170.5 -230.499c87.333 108 185 256.667 293 446c8 24.667 12 38.334 12 41.001c0 26 -12.667 47.5 -38 64.5
s-61.333 25.5 -108 25.5v64c54.667 -4 138 -6 250 -6c57.333 0 123.666 2 198.999 6v-64c-45.333 0 -83 -4 -113 -12s-56.5 -23 -79.5 -45s-41.333 -42.167 -55 -60.5s-32.834 -48.833 -57.501 -91.5c-116 -199.333 -206.333 -335.666 -271 -408.999
c102.667 -121.333 197 -182.333 283 -183c54.667 0 105.834 19.833 153.501 59.5s72.834 96.5 75.501 170.5h52c-1.33301 -86 -30 -156.333 -86 -211s-123.667 -82 -203 -82c-121.333 0 -241.666 52 -360.999 156c-116 -104 -239.333 -156 -370 -156
c-102.667 0 -190.167 29.333 -262.5 88s-108.5 131.667 -108.5 219zM255.998 327.996c0 -44 5.83203 -87.833 17.499 -131.5s34.834 -84.334 69.501 -122.001s78 -56.5 130 -56.5c112 0 217 44 315 132c-53.333 53.333 -116 133 -188 239
c-62.667 90 -117.334 185 -164.001 285c-65.333 -62.667 -111.666 -117.167 -138.999 -163.5s-41 -107.166 -41 -182.499zM462.997 1184c0 -109.333 20.334 -224.668 61.001 -346.001c143.333 155.333 215 277.333 215 366c0 6.66699 -0.333008 15.167 -1 25.5
s-3 27.833 -7 52.5s-9.83301 46.167 -17.5 64.5s-20 35.333 -37 51s-37.167 23.5 -60.5 23.5c-40.667 0 -76.334 -19.667 -107.001 -59s-46 -98.666 -46 -177.999z" />
    <glyph glyph-name="quotesingle" unicode="'" horiz-adv-x="569" 
d="M188 1360c0 34 10.333 58.167 31 72.5s42 21.5 64 21.5c27.333 0 49.833 -8.16699 67.5 -24.5s26.5 -39.5 26.5 -69.5c0 -13.333 -0.666992 -23.666 -2 -30.999l-68 -618h-47l-70 618c-1.33301 7.33301 -2 17.666 -2 30.999z" />
    <glyph glyph-name="parenleft" unicode="(" horiz-adv-x="794" 
d="M203 512c0 230.667 43.002 438.998 129.002 624.998c36.667 78 80.667 149.667 132 215s94 112.333 128 141s55.667 43 65 43c13.333 0 20.333 -6.66699 21 -20c0 -6.66699 -9 -18.334 -27 -35.001c-220 -224 -329.667 -547 -329 -969
c0 -423.333 107 -742.666 321 -957.999c23.333 -23.333 35 -38.666 35 -45.999c0 -13.333 -7 -20 -21 -20c-9.33301 0 -30.333 13.667 -63 41s-74.334 72.333 -125.001 135s-94.334 132.334 -131.001 209.001c-90 186 -135 399 -135 639z" />
    <glyph glyph-name="parenright" unicode=")" horiz-adv-x="794" 
d="M117 -492c0 6.66699 8.66797 18.334 26.001 35.001c220 224 330 547 330 969c0 423.333 -105.667 742 -317 956c-26 24.667 -39 40.667 -39 48c0 13.333 6.66699 20 20 20c9.33301 0 30.5 -13.667 63.5 -41s74.667 -72.333 125 -135s94.166 -132.334 131.499 -209.001
c90 -186 135 -399 135 -639c0 -230.667 -43 -439 -129 -625c-36.667 -78 -80.667 -149.667 -132 -215s-94 -112.333 -128 -141s-56 -43 -66 -43c-13.333 0 -20 6.66699 -20 20z" />
    <glyph glyph-name="asterisk" unicode="*" 
d="M133 903c0 23.333 15.668 42.6699 47.001 58.0029l285 135l-289 135c-28.667 13.333 -43 31.666 -43 54.999c0 13.333 5.5 26.166 16.5 38.499s23.833 18.5 38.5 18.5c10.667 0 25.667 -7.33301 45 -22l254 -184c-20.667 225.333 -30.667 341.333 -30 348
c0 13.333 5 25.166 15 35.499s23.333 15.5 40 15.5c13.333 0 25.5 -4.83301 36.5 -14.5s16.5 -21.834 16.5 -36.501l-30 -348l227 168c35.333 26 59.333 38.667 72 38c15.333 0 28.333 -6 39 -18s16 -25 16 -39c0 -23.333 -15.667 -42.333 -47 -57l-285 -135l289 -136
c28.667 -13.333 43 -31.666 43 -54.999c0 -13.333 -5.5 -26.166 -16.5 -38.499s-23.833 -18.5 -38.5 -18.5c-8 0 -19 4 -33 12c-2.66699 1.33301 -18.334 12.666 -47.001 33.999l-109.5 81l-109.5 80c20.667 -225.333 30.667 -341.333 30 -348c0 -13.333 -5 -25.333 -15 -36
s-23.333 -16 -40 -16c-13.333 0 -25.5 4.83301 -36.5 14.5s-16.5 22.167 -16.5 37.5l30 348l-286 -207c-20.667 0 -36.5 5.16699 -47.5 15.5s-17.167 18.5 -18.5 24.5s-2 11.667 -2 17z" />
    <glyph glyph-name="plus" unicode="+" horiz-adv-x="1593" 
d="M117 512c0 16.667 16.334 25.002 49.001 25.002c4 0 9.5 -0.333008 16.5 -1s11.167 -1 12.5 -1h577v579c0 1.33301 -0.333008 5.16602 -1 11.499s-1 11.5 -1 15.5c0 32.667 8.16699 49 24.5 49s24.5 -16.333 24.5 -49v-606h578c1.33301 0 5.33301 0.333008 12 1
s12 1 16 1c31.333 0 47.166 -8.33301 47.499 -25s-16.167 -25 -49.5 -25c-4 0 -9 0.333008 -15 1s-9.66699 1 -11 1h-578v-608c0 -31.333 -8.16699 -47 -24.5 -47s-24.5 16.333 -24.5 49c0 4 0.333008 9.16699 1 15.5s1 10.166 1 11.499v579h-577
c-1.33301 0 -5.83301 -0.333008 -13.5 -1s-13.5 -1 -17.5 -1c-31.333 0 -47 8.33301 -47 25z" />
    <glyph glyph-name="comma" unicode="," horiz-adv-x="567" 
d="M176 109c0 28.667 9.5 53.835 28.5 75.502s45.833 32.5 80.5 32.5c40.667 0 72.667 -19.5 96 -58.5s35 -91.167 35 -156.5c0 -70.667 -14.333 -138.834 -43 -204.501s-57 -114.167 -85 -145.5s-47.667 -47 -59 -47c-13.333 0 -20 7.33301 -20 22
c0 5.33301 4.66699 13 14 23c98 105.333 147.333 222.666 148 351.999c0 20.667 -1.33301 31 -4 31l-5 -4c-23.333 -19.333 -49 -29 -77 -29c-34 0 -60.667 11 -80 33s-29 47.333 -29 76z" />
    <glyph glyph-name="hyphen" unicode="-" horiz-adv-x="681" 
d="M20 381v121h545v-121h-545z" />
    <glyph glyph-name="period" unicode="." horiz-adv-x="569" 
d="M174 109c0 28.667 10.333 53.501 31 74.501s46.667 31.5 78 31.5c30 0 55.167 -9.83301 75.5 -29.5s30.5 -45.334 30.5 -77.001s-10.833 -57.667 -32.5 -78s-46.167 -30.5 -73.5 -30.5c-31.333 0 -57.333 11 -78 33s-31 47.333 -31 76z" />
    <glyph glyph-name="slash" unicode="/" 
d="M117 -483c0 6.66699 2.66797 17.334 8.00098 32.001l723 1932c0 1.33301 1.66699 5.66602 5 12.999s6 13.5 8 18.5s5.16699 9.5 9.5 13.5s9.16602 6 14.499 6c13.333 0 20 -8.33301 20 -25c0 -1.33301 -2 -10 -6 -26l-725 -1934c-8 -23.333 -14.5 -38.333 -19.5 -45
s-11.5 -10 -19.5 -10c-12 0 -18 8.33301 -18 25z" />
    <glyph glyph-name="zero" unicode="0" 
d="M80 655c0 200.667 25.3301 355.669 75.9971 465.002c70.667 162.667 189.334 244 356.001 244c35.333 0 71.5 -4.83301 108.5 -14.5s79 -32.834 126 -69.501s84.833 -85 113.5 -145c54.667 -116 82 -276 82 -480c0 -199.333 -25.333 -353.333 -76 -462
c-74 -158.667 -192.667 -238 -356 -238c-61.333 0 -123.166 15.667 -185.499 47s-113.166 84.666 -152.499 159.999c-61.333 112.667 -92 277 -92 493zM249.997 680.002c0 -206 7.33105 -350.001 21.998 -432.001c16.667 -88.667 47.834 -152.167 93.501 -190.5
s93.834 -57.5 144.501 -57.5c54.667 0 104.834 20.5 150.501 61.5s75.5 105.833 89.5 194.5c15.333 87.333 22.666 228.666 21.999 423.999c0 190 -6.66699 323 -20 399c-18 88.667 -50.833 150.834 -98.5 186.501s-95.5 53.5 -143.5 53.5c-18 0 -36.5 -2.66699 -55.5 -8
s-42.167 -15.666 -69.5 -30.999s-51.5 -42 -72.5 -80s-36.5 -85.667 -46.5 -143c-10.667 -74 -16 -199.667 -16 -377z" />
    <glyph glyph-name="one" unicode="1" 
d="M182 1169l-0.000976562 64.002c164 0 288.333 43.667 373 131c23.333 0 37 -2.66699 41 -8s6 -20.333 6 -45v-1149c0 -40.667 10 -67.334 30 -80.001s73.667 -19 161 -19h65v-63c-48 4 -158.667 6 -332 6s-283.666 -2 -330.999 -6v63h65c86 0 139.333 6.16699 160 18.5
s31 39.166 31 80.499v1061c-71.333 -36 -161 -54 -269 -54z" />
    <glyph glyph-name="two" unicode="2" 
d="M102 0c0 24.667 1.16504 40.6699 3.49805 48.0029s8.83301 16.666 19.5 27.999l393 438c143.333 161.333 215 312.333 215 453c0 91.333 -23.833 169.666 -71.5 234.999s-115.167 98 -202.5 98c-60 0 -115.333 -18.333 -166 -55s-87.667 -87.667 -111 -153
c4 1.33301 13 2 27 2c34 0 60.5 -10.667 79.5 -32s28.5 -46.333 28.5 -75c0 -36.667 -11.833 -63.834 -35.5 -81.501s-47.167 -26.5 -70.5 -26.5c-9.33301 0 -20.166 1 -32.499 3s-28.166 12.5 -47.499 31.5s-29 45.5 -29 79.5c0 95.333 36.167 181 108.5 257
s163.833 114 274.5 114c125.333 0 229.166 -37.167 311.499 -111.5s123.5 -169.5 123.5 -285.5c0 -40.667 -6.16699 -79.5 -18.5 -116.5s-26.666 -69.833 -42.999 -98.5s-46.5 -66 -90.5 -112s-83.667 -85.333 -119 -118l-172 -153l-217 -211h369
c120 0 184.667 5.33301 194 16c13.333 19.333 28.333 80 45 182h52l-58 -356h-760z" />
    <glyph glyph-name="three" unicode="3" 
d="M86 276c0 40.667 11.6641 70.667 34.9971 90s50 29 80 29c31.333 0 58.166 -10.167 80.499 -30.5s33.5 -48.166 33.5 -83.499c0 -38 -13.167 -67.667 -39.5 -89s-58.166 -29.333 -95.499 -24c32.667 -54.667 79.167 -94.334 139.5 -119.001s118.5 -37 174.5 -37
c58.667 0 111.834 25.333 159.501 76s71.5 138 71.5 262c0 105.333 -20.5 188.333 -61.5 249s-101.833 91 -182.5 91h-90c-20.667 0 -34 1 -40 3s-9 8.66699 -9 20c0 13.333 10.333 21.333 31 24c20.667 0 47.334 2 80.001 6c79.333 2.66699 140 38.334 182 107.001
c38 64 57 141.667 57 233c0 83.333 -19.833 142.5 -59.5 177.5s-85.167 52.5 -136.5 52.5c-48 0 -98.333 -10 -151 -30s-93.334 -52.333 -122.001 -97c84.667 0 127 -34.333 127 -103c0 -30 -9.5 -54.833 -28.5 -74.5s-44.167 -29.5 -75.5 -29.5c-30 0 -55 9.5 -75 28.5
s-30 44.833 -30 77.5c0 78 34.833 144 104.5 198s155.834 81 258.501 81c101.333 0 189.5 -26.667 264.5 -80s112.5 -121 112.5 -203c0 -80.667 -26.667 -154 -80 -220s-122.333 -112.667 -207 -140c104 -20.667 187 -66.167 249 -136.5s93 -148.5 93 -234.5
c0 -106.667 -42 -199.167 -126 -277.5s-187.333 -117.5 -310 -117.5c-113.333 0 -210.666 30.667 -291.999 92s-122 137.666 -122 228.999z" />
    <glyph glyph-name="four" unicode="4" 
d="M57 338l-0.000976562 63l629 961c10.667 16.667 24.334 24.667 41.001 24c15.333 0 24.666 -3 27.999 -9s5 -20.667 5 -44v-932h205v-63h-205v-178c0 -39.333 8.16699 -65.333 24.5 -78s59.833 -19 130.5 -19h43v-63c-56 4 -148.667 6 -278 6c-128.667 0 -221 -2 -277 -6
v63h43c70.667 0 114.334 6.16699 131.001 18.5s25 38.5 25 78.5v178h-545zM114.999 401h499v764z" />
    <glyph glyph-name="five" unicode="5" 
d="M102 330c0 40.667 11.001 68.8311 33.001 84.498s44.667 23.5 68 23.5c31.333 0 56.166 -9.83301 74.499 -29.5s27.5 -43.167 27.5 -70.5s-9.16699 -50.833 -27.5 -70.5s-43.166 -29.5 -74.499 -29.5c-15.333 0 -27 1.33301 -35 4c18 -62.667 54.5 -116.667 109.5 -162
s118.833 -68 191.5 -68c91.333 0 164.333 44.333 219 133c32.667 57.333 49 151 49 281c0 114.667 -12.333 200.667 -37 258c-38 87.333 -96 131 -174 131c-110.667 0 -198.667 -47.667 -264 -143c-8 -12 -16.667 -18.333 -26 -19c-13.333 0 -21.5 3.83301 -24.5 11.5
s-4.5 21.834 -4.5 42.501v606c0 32.667 6.66699 49 20 49c5.33301 0 13.666 -2 24.999 -6c86 -38 176.667 -57.333 272 -58c98 0 191 20 279 60c6.66699 4 12 6 16 6c13.333 0 20.333 -7.66699 21 -23c0 -5.33301 -5.5 -15.833 -16.5 -31.5s-28.167 -33.667 -51.5 -54
s-50 -40.166 -80 -59.499s-66.833 -35.5 -110.5 -48.5s-89.5 -19.5 -137.5 -19.5c-57.333 0 -115.333 9 -174 27v-399c70.667 69.333 157.334 104 260.001 104c109.333 0 201.666 -44 276.999 -132s113 -193.333 113 -316c0 -128.667 -44.5 -237 -133.5 -325
s-193.5 -132 -313.5 -132c-109.333 0 -198.5 39 -267.5 117s-103.5 164 -103.5 258z" />
    <glyph glyph-name="six" unicode="6" 
d="M86 647c0 214.667 54.6699 387.83 164.003 519.497s234.333 197.5 375 197.5c82 0 145.833 -20.833 191.5 -62.5s68.5 -94.5 68.5 -158.5c0 -35.333 -10.333 -60.666 -31 -75.999s-41.667 -23 -63 -23c-24.667 0 -46.667 8.33301 -66 25s-29 40 -29 70
c0 61.333 37.667 92 113 92c-35.333 54.667 -95.333 82 -180 82c-26 0 -52.333 -3.83301 -79 -11.5s-57.334 -24.167 -92.001 -49.5s-65.334 -58 -92.001 -98s-49.334 -97.667 -68.001 -173s-28 -162 -28 -260v-49c56 135.333 141.333 202.833 256 202.5
s211.667 -44.166 291 -131.499s119 -195.666 119 -324.999c0 -132.667 -41.333 -243 -124 -331s-182 -132 -298 -132c-52 0 -101.5 10.833 -148.5 32.5s-92.333 57.167 -136 106.5s-78.5 121.333 -104.5 216s-39 207 -39 337zM274.003 462.996
c0 -134 12.333 -232.998 37 -296.998c4 -10.667 10.5 -23.334 19.5 -38.001s21.333 -31.5 37 -50.5s36.5 -34.667 62.5 -47s54 -18.5 84 -18.5c91.333 0 159 44.333 203 133c23.333 49.333 35 141 35 275c0 136.667 -12.333 230 -37 280c-42 84.667 -105.667 127 -191 127
c-57.333 0 -105.833 -19.667 -145.5 -59s-67 -85.333 -82 -138s-22.5 -108.334 -22.5 -167.001z" />
    <glyph glyph-name="seven" unicode="7" 
d="M115 963l66.999 420.999h51c4 -16.667 9.5 -28.667 16.5 -36s30 -14 69 -20s98.167 -9 177.5 -9h497c0 -31.333 -6 -55.333 -18 -72l-277 -389c-58.667 -82 -101 -198.667 -127 -350c-15.333 -101.333 -22.666 -213.333 -21.999 -336v-104
c0 -75.333 -31.5 -113 -94.5 -113s-94.5 37.667 -94.5 113c0 260.667 84 517.334 252 770.001l126.5 178c66.333 92.667 100.833 141 103.5 145h-424c-124 0 -191 -4 -201 -12c-13.333 -12 -30.333 -74 -51 -186h-51z" />
    <glyph glyph-name="eight" unicode="8" 
d="M86 309c0 152.667 98.333 278.334 295 377.001c-84.667 57.333 -134.667 94.333 -150 111c-60 66.667 -90 141.667 -90 225c0 95.333 36.167 176.166 108.5 242.499s159.833 99.5 262.5 99.5c98 0 184 -28.333 258 -85s111 -130 111 -220
c0 -126.667 -82.667 -232.667 -248 -318c109.333 -68 177 -116.333 203 -145c66.667 -74 100 -158 100 -252c0 -109.333 -42 -201.5 -126 -276.5s-184 -112.5 -300 -112.5c-113.333 0 -212.333 33 -297 99s-127 151 -127 255zM188 309
c0 -84.667 31.832 -155.334 95.499 -212.001s139.834 -85 228.501 -85c86 0 161.167 24.667 225.5 74s96.5 110.666 96.5 183.999c0 28.667 -4.83301 55.334 -14.5 80.001s-24 46.834 -43 66.501s-34.333 34 -46 43s-28.5 21.167 -50.5 36.5l-252 159
c-160 -88.667 -240 -204 -240 -346zM230.999 1102c0 -65.333 34.332 -120.667 102.999 -166l254 -164c135.333 79.333 203 175 203 287c0 72.667 -27.667 133.167 -83 181.5s-121.333 72.5 -198 72.5c-75.333 0 -140.666 -19.833 -195.999 -59.5s-83 -90.167 -83 -151.5z
" />
    <glyph glyph-name="nine" unicode="9" 
d="M86 903c0 72.667 10.666 133.832 31.999 183.499s54.333 99.167 99 148.5c82 86 182.333 129 301 129c50.667 0 98.5 -10.667 143.5 -32s89 -56.166 132 -104.499s77.5 -120 103.5 -215s39 -207.833 39 -338.5c0 -211.333 -51.167 -384 -153.5 -518
s-222.5 -201 -360.5 -201c-87.333 0 -156.666 19.833 -207.999 59.5s-77 93.5 -77 161.5c0 35.333 10 60.5 30 75.5s41.333 22.5 64 22.5c24.667 0 46.667 -8.16699 66 -24.5s29 -39.5 29 -69.5c0 -24.667 -7.83301 -46.5 -23.5 -65.5s-43.5 -28.5 -83.5 -28.5
c39.333 -49.333 106.333 -74 201 -74c34 0 68 7.83301 102 23.5s69.5 42.667 106.5 81s66.833 97.833 89.5 178.5s34 177.667 34 291v65c-54.667 -136.667 -140 -205 -256 -205c-114.667 0 -211.667 44 -291 132s-119 196.333 -119 325zM269.999 900.998
c0 -135.333 12.333 -228 37 -278c42 -86 105.667 -129 191 -129c83.333 0 145.833 37.167 187.5 111.5s62.5 159.833 62.5 256.5c0 134 -11 230.333 -33 289c-40.667 108 -106.167 162 -196.5 162s-158.833 -43 -205.5 -129c-28.667 -50.667 -43 -145 -43 -283z" />
    <glyph glyph-name="colon" unicode=":" horiz-adv-x="567" 
d="M176 108c0 30 10.667 55.667 32 77s47 32 77 32s55.667 -10.667 77 -32s32 -47 32 -77s-10.667 -55.5 -32 -76.5s-47 -31.5 -77 -31.5s-55.667 10.5 -77 31.5s-32 46.5 -32 76.5zM176 774c0 30 10.667 55.667 32 77s47 32 77 32s55.667 -10.667 77 -32s32 -47 32 -77
s-10.667 -55.5 -32 -76.5s-47 -31.5 -77 -31.5s-55.667 10.5 -77 31.5s-32 46.5 -32 76.5z" />
    <glyph glyph-name="semicolon" unicode=";" horiz-adv-x="569" 
d="M174 775c0 28.667 10.333 53.501 31 74.501s46.667 31.5 78 31.5c30 0 55.167 -9.83301 75.5 -29.5s30.5 -45.334 30.5 -77.001s-10.833 -57.667 -32.5 -78s-46.167 -30.5 -73.5 -30.5c-31.333 0 -57.333 11 -78 33s-31 47.333 -31 76zM176 109.001
c0 28.667 9.5 53.835 28.5 75.502s45.833 32.5 80.5 32.5c40.667 0 72.667 -19.5 96 -58.5s35 -91.167 35 -156.5c0 -70.667 -14.333 -138.834 -43 -204.501s-57 -114.167 -85 -145.5s-47.667 -47 -59 -47c-13.333 0 -20 7.33301 -20 22c0 5.33301 4.66699 13 14 23
c98 105.333 147.333 222.666 148 351.999c0 20.667 -1.33301 31 -4 31l-5 -4c-23.333 -19.333 -49 -29 -77 -29c-34 0 -60.667 11 -80 33s-29 47.333 -29 76z" />
    <glyph glyph-name="less" unicode="&#x3c;" horiz-adv-x="1593" 
d="M174 512c0 10.667 11.002 21.667 33.002 33l1136 518c27.333 13.333 44.666 20 51.999 20c13.333 0 20 -6.66699 20 -20c0 -10.667 -15.667 -23.667 -47 -39l-999 -459c-40.667 -19.333 -80.334 -37 -119.001 -53l119 -53l999 -459c31.333 -13.333 47 -26.333 47 -39
c0 -13.333 -6.66699 -20 -20 -20c-6.66699 0 -24 6.66699 -52 20l-1136 518c-20.667 8.66699 -31.667 19.667 -33 33z" />
    <glyph glyph-name="equal" unicode="=" horiz-adv-x="1593" 
d="M117 311c1.33301 16.667 15 25.001 41 25.001h1255c39.333 0 59.333 -7.66699 60 -23c0 -16.667 -18.667 -24.667 -56 -24h-1245c-36.667 -0.666992 -55 6.66602 -55 21.999zM117 711.001c0 16.667 14.332 24.667 42.999 24h1251c40.667 0 61.334 -8 62.001 -24
c0 -15.333 -17.333 -23 -52 -23h-1263c-27.333 0 -41 7.66699 -41 23z" />
    <glyph glyph-name="greater" unicode="&#x3e;" horiz-adv-x="1593" 
d="M174 -39c0 8 3.16406 14.166 9.49707 18.499s19.5 11.166 39.5 20.499l1000 459c52 24.667 91.333 42.334 118 53.001c-27.333 10.667 -66.666 28.334 -117.999 53.001l-1000 459c-2.66699 1.33301 -7 3.33301 -13 6s-10.833 5 -14.5 7s-7.16699 4.5 -10.5 7.5
s-6 5.83301 -8 8.5s-3 6 -3 10c0 13.333 7.66699 20 23 20c6.66699 0 23.667 -6.66699 51 -20l1136 -518c1.33301 0 3.83301 -1 7.5 -3s6.83398 -4.16699 9.50098 -6.5s5.33398 -4.5 8.00098 -6.5s4.66699 -4.33301 6 -7s2 -6 2 -10c-1.33301 -12 -21 -27 -59 -45
l-1110 -506c-27.333 -13.333 -44.333 -20 -51 -20c-15.333 0 -23 6.66699 -23 20z" />
    <glyph glyph-name="question" unicode="?" horiz-adv-x="966" 
d="M115 1171c0 70.667 31.666 133.836 94.999 189.503s147.666 83.5 252.999 83.5c138 0 237 -28 297 -84s90 -120.333 90 -193c0 -84.667 -32.667 -151.334 -98 -200.001c-180 -134 -270.333 -286.333 -271 -457v-72c0 -15.333 -0.333008 -26 -1 -32s-3 -11.333 -7 -16
s-10 -7 -18 -7c-10.667 0 -17.5 3 -20.5 9s-4.5 19.333 -4.5 40v92c0 72.667 14.333 150.667 43 234s74.334 159 137.001 227c15.333 15.333 27 28.666 35 39.999s15.833 30.333 23.5 57s11.5 59.334 11.5 98.001c0 23.333 -0.333008 41.666 -1 54.999
s-5.16699 31.666 -13.5 54.999s-19.666 41.833 -33.999 55.5s-36.5 26 -66.5 37s-66 16.5 -108 16.5c-124 0 -213.667 -46.333 -269 -139c76.667 0 115 -31 115 -93c0 -27.333 -8.5 -49.833 -25.5 -67.5s-39.833 -26.5 -68.5 -26.5c-26 0 -48.167 8.16699 -66.5 24.5
s-27.5 40.833 -27.5 73.5zM345.999 108.502c0 30.333 10.667 56 32 77s47 31.5 77 31.5s55.5 -10.5 76.5 -31.5s31.5 -46.667 31.5 -77s-10.5 -56 -31.5 -77s-46.5 -31.5 -76.5 -31.5s-55.667 10.5 -77 31.5s-32 46.667 -32 77z" />
    <glyph glyph-name="at" unicode="@" horiz-adv-x="1591" 
d="M115 711c0 203.333 66.5029 376.334 199.503 519.001s293.833 214 482.5 214c83.333 0 165.166 -17.167 245.499 -51.5s153 -82.166 218 -143.499s117.333 -140.5 157 -237.5s59.5 -203.5 59.5 -319.5c0 -61.333 -2.83301 -114.833 -8.5 -160.5
s-15.334 -90.334 -29.001 -134.001s-34.834 -77.167 -63.501 -100.5s-64.667 -35 -108 -35c-45.333 0 -88.5 12 -129.5 36s-66.167 60.667 -75.5 110c-69.333 -96.667 -159.333 -145.334 -270 -146.001c-108 0 -202.667 43.333 -284 130s-122 192.834 -122 318.501
s40.667 231.834 122 318.501s176 130 284 130c110.667 0 204 -52.667 280 -158c9.33301 -10.667 25 -16 47 -16h35c23.333 0 37.333 -2.33301 42 -7s7 -18.667 7 -42v-494c0 -90 24 -135 72 -135c32.667 0 59.167 10 79.5 30s35.333 49.333 45 88s16.167 77.167 19.5 115.5
s5 84.833 5 139.5c0 117.333 -19.333 223.5 -58 318.5s-89.5 170.833 -152.5 227.5s-130.667 99.667 -203 129s-144.5 44 -216.5 44c-170.667 0 -318.167 -66.667 -442.5 -200s-186.5 -296 -186.5 -488c0 -187.333 60.667 -348.833 182 -484.5
s273.666 -203.5 456.999 -203.5c186 0 371.667 43.667 557 131c6.66699 4 22.334 6 47.001 6h18c13.333 0 22.5 -0.333008 27.5 -1s9.66699 -2.33398 14 -5.00098s6.5 -7.66699 6.5 -15c0 -13.333 -38.333 -33.333 -115 -60s-138 -45.334 -184 -56.001
c-128.667 -30 -251.667 -45.333 -369 -46c-199.333 0 -364.5 72.833 -495.5 218.5s-196.5 317.5 -196.5 515.5zM528.003 711.001c0 -113.333 26.668 -209 80.001 -287s117 -117 191 -117c91.333 0 169.666 47.333 234.999 142c19.333 28.667 29 58 29 88v348
c0 28.667 -9 56 -27 82c-62.667 98 -141.667 147 -237 147c-75.333 0 -139.333 -38.833 -192 -116.5s-79 -173.167 -79 -286.5z" />
    <glyph glyph-name="A" unicode="A" horiz-adv-x="1536" 
d="M66 0l0.000976562 63c121.333 2.66699 197.666 48.667 228.999 138l424 1224c5.33301 16.667 11 27.667 17 33s16.667 8 32 8c8 0 14.5 -0.666992 19.5 -2s9.16699 -4.33301 12.5 -9s5.66602 -8.33398 6.99902 -11.001s4 -9 8 -19l442 -1280
c10.667 -34 27 -56.167 49 -66.5s64 -15.5 126 -15.5h36v-63c-86 4 -175.333 6 -268 6c-147.333 0 -245.666 -2 -294.999 -6v63c113.333 0 170 20.667 170 62c0 2.66699 -2 12.334 -6 29.001l-108 313h-506l-95 -268c-2.66699 -5.33301 -4 -15.666 -4 -30.999
c0 -28.667 13.333 -53.334 40 -74.001s64.667 -31 114 -31v-63c-131.333 4 -210 6 -236 6c-44.667 0 -114 -2 -208 -6zM477.001 530h461l-231 666z" />
    <glyph glyph-name="B" unicode="B" horiz-adv-x="1449" 
d="M74 0l-0.000976562 63.001h49c74 0 119.5 6.16699 136.5 18.5s25.5 38.5 25.5 78.5v1079c0 39.333 -8.66699 65.166 -26 77.499s-62.666 18.5 -135.999 18.5h-49v64h749c130 0 238.333 -34.833 325 -104.5s130 -150.167 130 -241.5c0 -75.333 -31.833 -143 -95.5 -203
s-145.167 -99.667 -244.5 -119c113.333 -12 207.5 -52.167 282.5 -120.5s112.5 -146.833 112.5 -235.5c0 -100 -43 -187.5 -129 -262.5s-195 -112.5 -327 -112.5h-803zM454.999 145.001c0 -35.333 5.00098 -57.833 15.001 -67.5s38.333 -14.5 85 -14.5h256
c98 0 175.333 32.167 232 96.5s85 136.833 85 217.5s-24.833 155.5 -74.5 224.5s-120.834 103.5 -213.501 103.5h-385v-560zM455 750.001h297.001c105.333 0 186.166 31.667 242.499 95s84.5 132.666 84.5 207.999c0 66.667 -22.5 130.334 -67.5 191.001
s-112.5 91 -202.5 91h-254c-46.667 0 -75 -4.66699 -85 -14s-15 -32 -15 -68v-503z" />
    <glyph glyph-name="C" unicode="C" horiz-adv-x="1478" 
d="M115 700c0 206 70.3359 381.501 211.003 526.501s307.667 217.5 501 217.5c60 0 116.667 -11 170 -33s92.333 -42.5 117 -61.5s54.667 -46.167 90 -81.5l103 151c10.667 16.667 21.5 25 32.5 25s17.5 -3.16699 19.5 -9.5s3 -19.5 3 -39.5v-486
c0 -22 -1.33301 -35.667 -4 -41s-12.334 -8 -29.001 -8c-13.333 0 -21.5 2 -24.5 6s-5.83301 13.667 -8.5 29c-20.667 147.333 -71.834 265 -153.501 353s-179.167 132 -292.5 132c-32.667 0 -67.167 -3.66699 -103.5 -11s-80.666 -25 -132.999 -53
s-98.666 -65.167 -138.999 -111.5s-75.166 -113.333 -104.499 -201s-44 -189.5 -44 -305.5c0 -114.667 14.667 -216 44 -304s64.166 -154.833 104.499 -200.5s86.666 -82.5 138.999 -110.5s97 -45.833 134 -53.5s71.833 -11.5 104.5 -11.5c117.333 0 221 41.667 311 125
s139.333 195.333 148 336c1.33301 6.66699 2 11.5 2 14.5s0.666992 6.16699 2 9.5s3.66602 5.66602 6.99902 6.99902s7.66602 2 12.999 2c18 0 27 -11.667 27 -35c0 -130 -49.833 -249.5 -149.5 -358.5s-228.167 -163.5 -385.5 -163.5c-194 0 -361.167 72 -501.5 216
s-210.5 320.333 -210.5 529z" />
    <glyph glyph-name="D" unicode="D" horiz-adv-x="1562" 
d="M72 0l-0.00292969 63h49c74 0 119.5 6.16699 136.5 18.5s25.5 38.5 25.5 78.5v1079c0 39.333 -8.66699 65.166 -26 77.499s-62.666 18.5 -135.999 18.5h-49v64h749c174.667 0 322.834 -69.667 444.501 -209s182.5 -306.666 182.5 -501.999
c0 -191.333 -61.167 -353.833 -183.5 -487.5s-270.166 -200.5 -443.499 -200.5h-749zM458.997 145c0 -35.333 4.99902 -57.832 14.999 -67.499s38.333 -14.5 85 -14.5h207c90 0 165.333 18.5 226 55.5s106.667 76.833 138 119.5c75.333 102.667 113 252.667 113 450
c0 207.333 -35.333 359.666 -106 456.999c-91.333 126.667 -215.666 190 -372.999 190h-205c-46.667 0 -75 -4.66699 -85 -14s-15 -32 -15 -68v-1108z" />
    <glyph glyph-name="E" unicode="E" horiz-adv-x="1392" 
d="M68 0l0.000976562 62.999h49c74 0 119.5 6.16699 136.5 18.5s25.5 38.5 25.5 78.5v1073c0 39.333 -8.66699 65.166 -26 77.499s-62.666 18.5 -135.999 18.5h-49v64h1153l57 -461h-51c-9.33301 78 -20.166 139.5 -32.499 184.5s-33.333 84.833 -63 119.5
s-68.667 58.834 -117 72.501s-111.5 20.5 -189.5 20.5h-264c-46.667 0 -75 -4.83301 -85 -14.5s-15 -32.167 -15 -67.5v-491h184c94 0 154.333 16.333 181 49s40 96 40 190h52v-542h-52c0 92.667 -13.333 155.667 -40 189s-87 50 -181 50h-184v-547
c0 -35.333 5.16699 -57.833 15.5 -67.5s38.5 -14.5 84.5 -14.5h273c58.667 0 109.5 3.83301 152.5 11.5s79.5 21 109.5 40s55.167 39.5 75.5 61.5s37.666 52.833 51.999 92.5s25.666 77.834 33.999 114.501s17.166 85 26.499 145h51l-86 -528h-1181z" />
    <glyph glyph-name="F" unicode="F" horiz-adv-x="1335" 
d="M68 0l-0.00390625 63.0029h49c74 0 119.5 6.16699 136.5 18.5s25.5 38.5 25.5 78.5v1073c0 39.333 -8.66699 65.166 -26 77.499s-62.666 18.5 -135.999 18.5h-49v64h1124l57 -461h-51c-9.33301 78 -20.166 139.167 -32.499 183.5s-32.5 84.166 -60.5 119.499
s-65.5 59.833 -112.5 73.5s-108.833 20.5 -185.5 20.5h-246c-46.667 0 -75 -4.83301 -85 -14.5s-15 -32.167 -15 -67.5v-518h176c92.667 0 152 16.667 178 50s39 96.666 39 189.999h51v-543h-51c0 94 -13 157.5 -39 190.5s-85.333 49.5 -178 49.5h-176v-504
c0 -28.667 2.33301 -48.5 7 -59.5s21.334 -20.333 50.001 -28s74.334 -11.5 137.001 -11.5h68v-63c-49.333 4 -164 6 -344 6c-159.333 0 -263 -2 -311 -6z" />
    <glyph glyph-name="G" unicode="G" horiz-adv-x="1605" 
d="M115 700.5c0 207.667 70.6689 383.5 212.002 527.5s308 216 500 216c48 0 92.5 -5.5 133.5 -16.5s77.833 -27.333 110.5 -49s57.5 -39.667 74.5 -54s37.167 -33.166 60.5 -56.499l103 151c10.667 16.667 21.5 25 32.5 25s17.5 -3.16699 19.5 -9.5s3 -19.5 3 -39.5v-486
c0 -22 -1.33301 -35.667 -4 -41s-12.334 -8 -29.001 -8c-13.333 0 -21.333 2 -24 6s-5.66699 13.667 -9 29c-20.667 147.333 -72.167 265 -154.5 353s-179.5 132 -291.5 132c-32.667 0 -67.167 -3.66699 -103.5 -11s-81 -25 -134 -53s-99.667 -64.833 -140 -110.5
s-75.166 -112.334 -104.499 -200.001s-44 -189.5 -44 -305.5c0 -114.667 14.667 -216 44 -304s64.5 -154.833 105.5 -200.5s88.333 -82.834 142 -111.501s99.667 -46.834 138 -54.501s74.5 -11.5 108.5 -11.5c23.333 0 48.666 2.5 75.999 7.5s61.5 15 102.5 30
s74.5 40.5 100.5 76.5s39 80.667 39 134v131c0 40.667 -10 67.334 -30 80.001s-73.667 19 -161 19h-65v63c49.333 -4 159 -6 329 -6c15.333 0 98.666 2 249.999 6v-63c-65.333 0 -105.166 -4.83301 -119.499 -14.5s-21.5 -34.834 -21.5 -75.501v-357
c0 -31.333 -6 -47 -18 -47c-10.667 0 -31.834 15.333 -63.501 46s-54.5 57.667 -68.5 81c-32.667 -57.333 -84.5 -100.666 -155.5 -129.999s-146.833 -44 -227.5 -44c-196.667 0 -365.167 72.333 -505.5 217s-210.5 320.834 -210.5 528.501z" />
    <glyph glyph-name="H" unicode="H" horiz-adv-x="1536" 
d="M68 0v63h49c74 0 119.5 6.16699 136.5 18.5s25.5 38.5 25.5 78.5v1079c0 39.333 -8.66699 65.166 -26 77.499s-62.666 18.5 -135.999 18.5h-49v64c48 -4 149 -6 303 -6c152.667 0 253 2 301 6v-64h-49c-74 0 -119.5 -6.16699 -136.5 -18.5s-25.5 -38.166 -25.5 -77.499
v-479h612v479c0 39.333 -8.5 65.166 -25.5 77.499s-62.5 18.5 -136.5 18.5h-49v64c48 -4 149 -6 303 -6c152.667 0 253 2 301 6v-64h-49c-74 0 -119.5 -6.16699 -136.5 -18.5s-25.5 -38.166 -25.5 -77.499v-1079c0 -39.333 8.66699 -65.333 26 -78s62.666 -19 135.999 -19
h49v-63c-48 4 -149 6 -303 6c-152.667 0 -253 -2 -301 -6v63h49c74 0 119.5 6.16699 136.5 18.5s25.5 38.5 25.5 78.5v536h-612v-536c0 -39.333 8.5 -65.333 25.5 -78s62.5 -19 136.5 -19h49v-63c-48 4 -149 6 -303 6c-152.667 0 -253 -2 -301 -6z" />
    <glyph glyph-name="I" unicode="I" horiz-adv-x="739" 
d="M57 0l-0.000976562 63h54c76.667 0 123.834 6.16699 141.501 18.5s26.5 38.5 26.5 78.5v1079c0 39.333 -9 65.166 -27 77.499s-65 18.5 -141 18.5h-54v64c48 -4 152.667 -6 314 -6c160 0 263.667 2 311 6v-64h-53c-76.667 0 -123.834 -6.16699 -141.501 -18.5
s-26.5 -38.166 -26.5 -77.499v-1079c0 -39.333 8.83301 -65.333 26.5 -78s64.834 -19 141.501 -19h53v-63c-48 4 -152.333 6 -313 6c-160 0 -264 -2 -312 -6z" />
    <glyph glyph-name="J" unicode="J" horiz-adv-x="1050" 
d="M84 229c0 40.667 12.0029 70.668 36.0029 90.001s50.333 29 79 29c30 0 56.5 -10.167 79.5 -30.5s34.5 -48.5 34.5 -84.5c0 -76 -43 -114 -129 -114h-2c49.333 -79.333 124.666 -119 225.999 -119c57.333 0 106.666 28 147.999 84s62 129 62 219v934
c0 28.667 -2.66699 48.5 -8 59.5s-22.333 20.167 -51 27.5s-75.667 11 -141 11h-74v64c52 -4 166.667 -6 344 -6c86 0 174 2 264 6v-64c-69.333 0 -112.833 -4 -130.5 -12s-26.5 -32 -26.5 -72v-909c0 -49.333 -0.666992 -79.333 -2 -90
c-12 -80.667 -53.333 -150.334 -124 -209.001s-156.334 -88 -257.001 -88c-91.333 0 -168.833 26.5 -232.5 79.5s-95.5 117.833 -95.5 194.5z" />
    <glyph glyph-name="K" unicode="K" horiz-adv-x="1591" 
d="M68 0l0.000976562 63.001h49c74 0 119.5 6.16699 136.5 18.5s25.5 38.5 25.5 78.5v1079c0 39.333 -8.66699 65.166 -26 77.499s-62.666 18.5 -135.999 18.5h-49v64c48 -4 149 -6 303 -6c152.667 0 253 2 301 6v-64h-49c-74 0 -119.5 -6.16699 -136.5 -18.5
s-25.5 -38.166 -25.5 -77.499v-651l641 612c24.667 22 37 44.667 37 68c0 8 -1.83301 16.5 -5.5 25.5s-13.334 18.167 -29.001 27.5s-35.834 14 -60.501 14v64c46.667 -4 133.667 -6 261 -6c80.667 0 138.667 2 174 6v-64c-113.333 -1.33301 -210.333 -42.333 -291 -123
l-369 -354l473 -696c28.667 -42 57 -69 85 -81s71.333 -18 130 -18v-63c-86 4 -164.333 6 -235 6c-147.333 0 -245 -2 -293 -6v63c80.667 0 121 20.667 121 62c0 15.333 -10.333 38.666 -31 69.999l-371 548l-237 -225v-358c0 -39.333 8.5 -65.333 25.5 -78
s62.5 -19 136.5 -19h49v-63c-48 4 -149 6 -303 6c-152.667 0 -253 -2 -301 -6z" />
    <glyph glyph-name="L" unicode="L" horiz-adv-x="1280" 
d="M68 0l-0.000976562 63.001h49c74 0 119.5 6.16699 136.5 18.5s25.5 38.5 25.5 78.5v1079c0 39.333 -8.66699 65.166 -26 77.499s-62.666 18.5 -135.999 18.5h-49v64c48 -4 151.667 -6 311 -6c180 0 294.667 2 344 6v-64h-68c-62.667 0 -108.334 -4 -137.001 -12
s-45.334 -17.5 -50.001 -28.5s-7 -30.167 -7 -57.5v-1092c0 -35.333 5.16699 -57.833 15.5 -67.5s38.5 -14.5 84.5 -14.5h168c69.333 0 129 10.333 179 31s88.333 44 115 70s48.834 63.5 66.501 112.5s29.334 89.167 35.001 120.5s11.167 75 16.5 131h51l-57 -528h-1067z
" />
    <glyph glyph-name="M" unicode="M" horiz-adv-x="1875" 
d="M76 0l-0.00195312 63c49.333 0 89.666 4.83301 120.999 14.5s52.833 23.667 64.5 42s18.834 33.666 21.501 45.999s4 28.833 4 49.5v1024c0 39.333 -8.5 65.166 -25.5 77.499s-62.5 18.5 -136.5 18.5h-49v64h346c24.667 0 40.334 -2.16699 47.001 -6.5
s15 -17.166 25 -38.499l444 -1147l448 1153c6.66699 19.333 13.167 30.666 19.5 33.999s22.5 5 48.5 5h346v-64h-49c-74 0 -119.5 -6.16699 -136.5 -18.5s-25.5 -38.166 -25.5 -77.499v-1079c0 -39.333 8.5 -65.333 25.5 -78s62.5 -19 136.5 -19h49v-63
c-50.667 4 -148.334 6 -293.001 6c-146 0 -244.333 -2 -295 -6v63h50c74 0 119.333 6.16699 136 18.5s25 38.5 25 78.5v1175h-2l-503 -1296c-9.33301 -26 -21.666 -39 -36.999 -39c-16.667 0 -30.334 15 -41.001 45l-494 1274h-2v-1104c0 -20.667 1.33301 -37.167 4 -49.5
s9.83398 -27.666 21.501 -45.999s33.167 -32.333 64.5 -42s71.666 -14.5 120.999 -14.5v-63c-143.333 4 -223.166 6 -239.499 6s-96.166 -2 -239.499 -6z" />
    <glyph glyph-name="N" unicode="N" horiz-adv-x="1536" 
d="M68 0l0.00195312 63c49.333 0 89.666 4.83301 120.999 14.5s52.666 23.667 63.999 42s18.5 33.666 21.5 45.999s4.5 28.833 4.5 49.5v1069c0 19.333 -2.5 31.333 -7.5 36s-19.167 8.33398 -42.5 11.001c-40.667 2.66699 -74.667 4 -102 4h-59v64h348
c19.333 0 31.666 -1.33301 36.999 -4s12.666 -10.334 21.999 -23.001l723 -1063v875c0 20.667 -1.33301 37 -4 49s-9.83398 27.333 -21.501 46s-33.167 32.667 -64.5 42s-71.666 14 -120.999 14v64c143.333 -4 223.166 -6 239.499 -6s96.166 2 239.499 6v-64
c-49.333 0 -89.666 -4.66699 -120.999 -14s-52.666 -23.333 -63.999 -42s-18.5 -34.167 -21.5 -46.5s-4.5 -28.5 -4.5 -48.5v-1131c0 -22 -1.33301 -36.333 -4 -43s-10.667 -10 -24 -10c-9.33301 0 -21 9 -35 27l-836 1228c-5.33301 8 -12 16.333 -20 25v-1065
c0 -20.667 1.33301 -37.167 4 -49.5s9.83398 -27.666 21.501 -45.999s33.167 -32.333 64.5 -42s71.666 -14.5 120.999 -14.5v-63c-143.333 4 -223.166 6 -239.499 6s-96.166 -2 -239.499 -6z" />
    <glyph glyph-name="O" unicode="O" horiz-adv-x="1591" 
d="M115 694c0 208.667 66.833 385.833 200.5 531.5s293.5 218.5 479.5 218.5c187.333 0 347.833 -73 481.5 -219s200.5 -323 200.5 -531c0 -206 -67 -380.667 -201 -524s-294.333 -215 -481 -215c-184 0 -343.333 71.333 -478 214s-202 317.667 -202 525zM326 722.999
c0 -126.667 14.998 -238.501 44.998 -335.501s69.167 -171.833 117.5 -224.5s98.5 -91.667 150.5 -117s104.667 -38 158 -38c52 0 103.5 12.333 154.5 37s100.833 63 149.5 115s88.334 126.667 119.001 224s46 210.333 46 339c0 100 -10.667 190.167 -32 270.5
s-48.666 144.833 -81.999 193.5s-71.5 89 -114.5 121s-84.667 54.167 -125 66.5s-79.5 18.5 -117.5 18.5c-48 0 -97 -10.667 -147 -32s-100.167 -55.5 -150.5 -102.5s-91.5 -116.667 -123.5 -209s-48 -201.166 -48 -326.499z" />
    <glyph glyph-name="P" unicode="P" horiz-adv-x="1392" 
d="M72 0l-0.000976562 63.001h49c74 0 119.5 6.16699 136.5 18.5s25.5 38.5 25.5 78.5v1079c0 39.333 -8.66699 65.166 -26 77.499s-62.666 18.5 -135.999 18.5h-49v64h723c138 0 253 -38 345 -114s138 -165 138 -267c0 -101.333 -46.833 -188.5 -140.5 -261.5
s-202.5 -109.5 -326.5 -109.5h-346v-487c0 -39.333 8.5 -65.333 25.5 -78s62.5 -19 136.5 -19h49v-63c-48 4 -149 6 -303 6c-152.667 0 -253 -2 -301 -6zM458.999 700.001h281.999c61.333 0 114.333 8.66699 159 26s77.167 36.5 97.5 57.5s36.333 48.667 48 83
s18.167 61 19.5 80s2 42.833 2 71.5c0 30 -0.666992 54.5 -2 73.5s-7.83301 45.667 -19.5 80s-27.667 62 -48 83s-52.666 39.667 -96.999 56s-97.5 24.5 -159.5 24.5h-182c-46.667 0 -75 -4.66699 -85 -14s-15 -32 -15 -68v-553z" />
    <glyph glyph-name="Q" unicode="Q" horiz-adv-x="1591" 
d="M115 694c0 208.667 66.8359 385.834 200.503 531.501s293.5 218.5 479.5 218.5c187.333 0 347.833 -73 481.5 -219s200.5 -323 200.5 -531c0 -151.333 -38.667 -288.5 -116 -411.5s-177.333 -212.5 -300 -268.5c26 -69.333 53.667 -120 83 -152s67.166 -48 113.499 -48
s87.666 15.333 123.999 46s57.166 72.667 62.499 126c2.66699 24.667 10 37 22 37c15.333 0 23 -14.333 23 -43c0 -32.667 -3.5 -67.5 -10.5 -104.5s-18.667 -77.333 -35 -121s-41.833 -79.834 -76.5 -108.501s-76.667 -43 -126 -43c-36.667 0 -68.667 7.83301 -96 23.5
s-48.833 33 -64.5 52s-30 49 -43 90s-21.833 74.5 -26.5 100.5l-20 117c-65.333 -20.667 -130 -31 -194 -31c-187.333 0 -347.833 71.667 -481.5 215s-200.5 318 -200.5 524zM319.003 694c0 -110.667 12.001 -208.669 36.001 -294.002s55.5 -152.166 94.5 -200.499
s75.167 -85.166 108.5 -110.499s67 -44 101 -56c-19.333 38 -28.666 70.667 -27.999 98c0 45.333 15.667 85.333 47 120s71.666 52 120.999 52c96.667 0 173.667 -72.333 231 -217c161.333 118.667 242 321.334 242 608.001c0 124 -15.333 233.167 -46 327.5
s-70.667 167.5 -120 219.5s-100.333 90.333 -153 115s-105.334 37 -158.001 37c-52 0 -104 -12 -156 -36s-102.5 -61.333 -151.5 -112s-89.333 -123.834 -121 -219.501s-47.5 -206.167 -47.5 -331.5zM676.004 130.998c0 -15.333 2.33398 -31.167 7.00098 -47.5
s17 -33.333 37 -51s45.667 -26.5 77 -26.5c64 0 124 15.667 180 47c-26 136.667 -85.333 205 -178 205c-36.667 0 -66.334 -13 -89.001 -39s-34 -55.333 -34 -88z" />
    <glyph glyph-name="R" unicode="R" horiz-adv-x="1507" 
d="M72 0l-0.000976562 63.001h49c74 0 119.5 6.16699 136.5 18.5s25.5 38.5 25.5 78.5v1079c0 39.333 -8.66699 65.166 -26 77.499s-62.666 18.5 -135.999 18.5h-49v64h643c148.667 0 274.834 -36.5 378.501 -109.5s155.5 -159.5 155.5 -259.5
c0 -76.667 -33.667 -145 -101 -205s-153 -103 -257 -129c135.333 -46.667 218.666 -125.667 249.999 -237l26 -164c5.33301 -39.333 9.83301 -69 13.5 -89s8.5 -43.667 14.5 -71s12.167 -47.5 18.5 -60.5s14.166 -26.333 23.499 -40s20.166 -22.834 32.499 -27.501
s26.833 -7 43.5 -7c31.333 0 60.333 14 87 42s42.667 74.667 48 140c2.66699 22 11 33 25 33c17.333 0 26 -11 26 -33c0 -19.333 -2.66699 -40.166 -8 -62.499s-14.5 -46.5 -27.5 -72.5s-33.5 -47.833 -61.5 -65.5s-60.333 -26.5 -97 -26.5
c-106.667 0 -192.667 28.667 -258 86c-27.333 24.667 -47.166 53 -59.499 85s-19.5 60.667 -21.5 86s-3 66 -3 122c0 79.333 -4.16699 136.333 -12.5 171s-30.166 69 -65.499 103c-48 46.667 -111.667 70 -191 70h-235v-518c0 -39.333 8.5 -65.333 25.5 -78
s62.5 -19 136.5 -19h49v-63c-49.333 4 -149 6 -299 6s-249.667 -2 -299 -6zM458.999 723.001l226.999 -0.00195312c72.667 0 133.5 8.83301 182.5 26.5s85.167 42.5 108.5 74.5s39.333 64.167 48 96.5s13 68.833 13 109.5c0 48 -5.33301 90 -16 126s-27.667 64.667 -51 86
s-46.666 38.833 -69.999 52.5s-53 23.167 -89 28.5s-66.333 8.66602 -91 9.99902s-56.667 2 -96 2c-66.667 0 -107 -1.33301 -121 -4c-15.333 -1.33301 -26 -5.66602 -32 -12.999s-9.66699 -15.166 -11 -23.499s-2 -22.166 -2 -41.499v-530z" />
    <glyph glyph-name="S" unicode="S" horiz-adv-x="1136" 
d="M115 4v409.996c0 15.333 0.333008 25.666 1 30.999s3 10 7 14s10 6 18 6c15.333 0 23.666 -7 24.999 -21c4 -135.333 46.333 -240.333 127 -315c79.333 -74 187 -111 323 -111c82 0 148.333 29.5 199 88.5s76 127.167 76 204.5c0 74 -21.333 137 -64 189
c-18 23.333 -38.167 42.5 -60.5 57.5s-40.333 24.833 -54 29.5s-33.5 10.334 -59.5 17.001c-169.333 40.667 -259.333 63.334 -270 68.001c-80.667 27.333 -145.5 75.5 -194.5 144.5s-73.5 145.833 -73.5 230.5c0 109.333 38.5 202.833 115.5 280.5s171.5 116.5 283.5 116.5
c56 0 107.5 -8.83301 154.5 -26.5s80.167 -34.5 99.5 -50.5s44 -38.333 74 -67l71 117c10.667 18 21 27 31 27c10.667 0 17.167 -3.16699 19.5 -9.5s3.5 -19.5 3.5 -39.5v-412c0 -15.333 -0.333008 -25.666 -1 -30.999s-3.16699 -9.66602 -7.5 -12.999s-10.5 -5 -18.5 -5
c-13.333 0 -21.666 8 -24.999 24c-38 285.333 -171 428 -399 428c-78 0 -142.5 -26.167 -193.5 -78.5s-76.5 -115.5 -76.5 -189.5c0 -60 18.667 -114.5 56 -163.5s87.666 -81.167 150.999 -96.5l262 -63c87.333 -20.667 160.333 -69.667 219 -147s88 -166.333 88 -267
c0 -116 -37.833 -216 -113.5 -300s-172.5 -126 -290.5 -126c-84.667 0 -159.667 14 -225 42s-115.666 61.667 -150.999 101c-27.333 -45.333 -50 -80.666 -68 -105.999l-6 -10c-10.667 -18 -21 -27 -31 -27c-10.667 0 -17 3.33301 -19 10s-3 19.667 -3 39z" />
    <glyph glyph-name="T" unicode="T" horiz-adv-x="1478" 
d="M74 926l38.998 460.001h1251l39 -460h-51c-5.33301 61.333 -10.5 109.666 -15.5 144.999s-13.333 69.833 -25 103.5s-24.667 58.667 -39 75s-35.166 31 -62.499 44s-58.666 21.167 -93.999 24.5s-79.666 5 -132.999 5c-62.667 0 -101.667 -1.33301 -117 -4
c-16.667 -4 -27 -11.833 -31 -23.5s-6 -29.834 -6 -54.501v-1079c0 -27.333 2.83301 -46.5 8.5 -57.5s24.167 -20.667 55.5 -29s81.666 -12.5 150.999 -12.5h82v-63c-56 4 -185.667 6 -389 6c-202 0 -331 -2 -387 -6v63h82c69.333 0 119.833 4.16699 151.5 12.5
s50.167 18 55.5 29s8 30.167 8 57.5v1079c0 19.333 -0.666992 33 -2 41s-5 15.5 -11 22.5s-15.833 11.833 -29.5 14.5s-50.5 4 -110.5 4c-53.333 0 -97.833 -1.66699 -133.5 -5s-67.167 -11.5 -94.5 -24.5s-48.166 -27.667 -62.499 -44s-27.333 -41.333 -39 -75
s-19.834 -68.167 -24.501 -103.5s-9.66699 -83.666 -15 -144.999h-51z" />
    <glyph glyph-name="U" unicode="U" horiz-adv-x="1536" 
d="M68 1335l0.00292969 64.001c48 -4 149 -6 303 -6c152.667 0 253 2 301 6v-64h-49c-74 0 -119.5 -6.16699 -136.5 -18.5s-25.5 -38.166 -25.5 -77.499v-780c0 -91.333 12.667 -168.5 38 -231.5s57.666 -108.5 96.999 -136.5s75.166 -47.167 107.499 -57.5
s64.166 -15.5 95.499 -15.5c104 0 195.5 41.333 274.5 124s118.5 193 118.5 331v711c0 20.667 -1.33301 37 -4 49s-9.83398 27.333 -21.501 46s-33.167 32.667 -64.5 42s-71.666 14 -120.999 14v64c147.333 -4 228.666 -6 243.999 -6c13.333 0 93.666 2 240.999 6v-64
c-49.333 0 -89.666 -4.33301 -120.999 -13s-52.666 -22.667 -63.999 -42s-18.5 -35.833 -21.5 -49.5s-4.5 -31.834 -4.5 -54.501v-656c0 -66.667 -2 -113.667 -6 -141c-18 -118.667 -69.167 -219 -153.5 -301s-184.5 -123 -300.5 -123
c-140.667 0 -261.834 49.5 -363.501 148.5s-152.5 220.167 -152.5 363.5v772c0 39.333 -8.66699 65.166 -26 77.499s-62.666 18.5 -135.999 18.5h-49z" />
    <glyph glyph-name="V" unicode="V" horiz-adv-x="1536" 
d="M39 1335l-0.000976562 63.999c147.333 -4 234 -6 260 -6c146 0 243.667 2 293 6v-64c-112 0 -168 -19.667 -168 -59c0 -5.33301 4 -17.666 12 -36.999l391 -1034l375 987c6.66699 20.667 10 34.334 10 41.001c0 27.333 -12.5 50.833 -37.5 70.5
s-62.167 30.167 -111.5 31.5v64c106.667 -4 184.334 -6 233.001 -6c69.333 0 135.666 2 198.999 6v-64c-114.667 -1.33301 -189 -47 -223 -137l-457 -1204c-5.33301 -16.667 -10.666 -27.334 -15.999 -32.001s-16.333 -7 -33 -7c-13.333 0 -23.5 2.66699 -30.5 8
s-13.833 17.666 -20.5 36.999l-475 1257c-13.333 36.667 -32 58.834 -56 66.501s-72.333 11.5 -145 11.5z" />
    <glyph glyph-name="W" unicode="W" horiz-adv-x="2103" 
d="M37 1335l-0.00488281 63.999c19.333 0 46.333 -0.666992 81 -2s65.667 -2.33301 93 -3s52.666 -1 75.999 -1c144.667 0 241.667 2 291 6v-64c-114.667 0 -172 -20.333 -172 -61c0 -9.33301 1.33301 -18.333 4 -27l329 -1007l285 878l-45 144
c-10.667 34 -27.667 54.667 -51 62s-67.666 11 -132.999 11v64c19.333 0 46.333 -0.666992 81 -2s65.667 -2.33301 93 -3s52.333 -1 75 -1c144.667 0 241.667 2 291 6v-64c-114.667 0 -172 -20.333 -172 -61c0 -4 2 -14.333 6 -31l328 -1003l307 946
c6.66699 20.667 10.334 34.334 11.001 41.001c0 24.667 -14.333 48.5 -43 71.5s-74 35.167 -136 36.5v64c106.667 -4 188 -6 244 -6c62.667 0 124.667 2 186 6v-64c-108 0 -176 -45.667 -204 -137l-392 -1202c-2.66699 -10.667 -5 -18.5 -7 -23.5
s-5.66699 -9.16699 -11 -12.5s-12.666 -5 -21.999 -5c-18 0 -31 13 -39 39l-340 1042l-338 -1040c-2.66699 -10.667 -5.16699 -18.5 -7.5 -23.5s-6.16602 -9.16699 -11.499 -12.5s-12.666 -5 -21.999 -5c-18 0 -31 13 -39 39l-410 1255c-12 39.333 -27.167 63.5 -45.5 72.5
s-65.166 13.5 -140.499 13.5z" />
    <glyph glyph-name="X" unicode="X" horiz-adv-x="1536" 
d="M49 0l-0.000976562 63.002c62.667 0 117 9.66699 163 29s75.833 36.166 89.5 50.499s28.5 33.166 44.5 56.499l336 495l-377 570c-19.333 28.667 -41.833 47.667 -67.5 57s-66.5 14 -122.5 14h-39v64c75.333 -4 164 -6 266 -6c151.333 0 251 2 299 6v-64
c-40.667 -1.33301 -73 -8.5 -97 -21.5s-36 -26.167 -36 -39.5c0 -5.33301 4.66699 -15.666 14 -30.999l264 -395l234 346c12 19.333 18 35 18 47c0 24.667 -11.167 46.167 -33.5 64.5s-53.5 28.166 -93.5 29.499v64c54.667 -4 142.334 -6 263.001 -6
c15.333 0 35.5 0.333008 60.5 1s54.167 1.66699 87.5 3s59.666 2 78.999 2v-64c-138 -1.33301 -237 -45.666 -297 -132.999l-281 -411l432 -654c20.667 -30 44 -49.833 70 -59.5s67 -14.5 123 -14.5h39v-63c-86 4 -174.667 6 -266 6c-151.333 0 -251 -2 -299 -6v63
c40.667 1.33301 73 8.5 97 21.5s36 26.5 36 40.5c0 1.33301 -3.66699 8.66602 -11 21.999l-323 490l-291 -430c-13.333 -22 -20 -38.333 -20 -49c0 -22 10.833 -42.833 32.5 -62.5s53.834 -30.5 96.501 -32.5v-63c-49.333 4 -137 6 -263 6c-4 0 -79.667 -2 -227 -6z" />
    <glyph glyph-name="Y" unicode="Y" horiz-adv-x="1536" 
d="M23 1335l-0.00195312 64c86 -4 174.667 -6 266 -6c152.667 0 253.667 2 303 6v-64c-50.667 0 -87.167 -3.33301 -109.5 -10s-33.5 -20.334 -33.5 -41.001c0 -9.33301 4.66699 -21 14 -35l371 -604l337 549c13.333 20.667 20.333 41 21 61c0 23.333 -9.5 42.5 -28.5 57.5
s-48.5 22.5 -88.5 22.5v64c106.667 -4 185.334 -6 236.001 -6c70.667 0 137.334 2 200.001 6v-64c-121.333 0 -208.666 -44.333 -261.999 -133l-395 -643v-395c0 -42 8.5 -69.333 25.5 -82s63.167 -19 138.5 -19h47v-63c-49.333 4 -149 6 -299 6s-249.667 -2 -299 -6v63h49
c74 0 119.5 6.16699 136.5 18.5s25.5 38.5 25.5 78.5v399l-430 701c-12 20.667 -22.833 35.334 -32.5 44.001s-26.834 16 -51.501 22s-59.667 9 -105 9h-36z" />
    <glyph glyph-name="Z" unicode="Z" horiz-adv-x="1251" 
d="M115 35c0 12 4.66699 25.666 14 40.999l797 1259h-322c-82 0 -150 -9.16699 -204 -27.5s-95.333 -47 -124 -86s-48.667 -80 -60 -123s-19 -96.5 -23 -160.5h-52l23 461h917h25.5c5 0 10.167 -1.33301 15.5 -4s8.83301 -6.16699 10.5 -10.5s2.5 -10.5 2.5 -18.5
c0 -10.667 -5 -23.667 -15 -39l-794 -1257h336c74 0 136.833 7.83301 188.5 23.5s92.5 35.667 122.5 60s53.833 58.833 71.5 103.5s29.667 87.834 36 129.501s11.5 95.167 15.5 160.5h51l-35 -547h-944c-23.333 0 -38 1.66699 -44 5s-9 13.333 -9 30z" />
    <glyph glyph-name="bracketleft" unicode="[" horiz-adv-x="569" 
d="M213 -512v2048h309v-47h-172v-1954h172v-47h-309z" />
    <glyph glyph-name="backslash" unicode="\" 
d="M117 1507c0 16.667 6.16797 25 18.501 25s23.833 -14.333 34.5 -43l725 -1935c6.66699 -20.667 10 -33 10 -37c0 -16.667 -6.66699 -25 -20 -25c-10.667 0 -22.334 15.667 -35.001 47l-725 1938c-5.33301 13.333 -8 23.333 -8 30z" />
    <glyph glyph-name="bracketright" unicode="]" horiz-adv-x="569" 
d="M43 -465h172v1954h-172v47h309v-2048h-309v47z" />
    <glyph glyph-name="asciicircum" unicode="^" horiz-adv-x="1251" 
d="M240 991l383 295l385 -295l-31 -43l-354 230l-353 -230z" />
    <glyph glyph-name="underscore" unicode="_" horiz-adv-x="1593" 
d="M172 -436c0 27.333 20.333 41 61 41h1123c40.667 0 61 -13.667 61 -41s-19 -41 -57 -41h-1129c-39.333 0 -59 13.667 -59 41z" />
    <glyph glyph-name="grave" unicode="`" 
d="M205 1239c0 18 6.83301 35.168 20.5 51.501s30.5 24.5 50.5 24.5c15.333 0 32.166 -7.5 50.499 -22.5s65.166 -59.5 140.499 -133.5l117 -115l-31 -40c-27.333 13.333 -118.666 64.333 -273.999 153l-13 6c-6.66699 4 -11.667 7.16699 -15 9.5s-8.5 6.16602 -15.5 11.499
s-12.167 10.333 -15.5 15s-6.66602 10.5 -9.99902 17.5s-5 14.5 -5 22.5z" />
    <glyph glyph-name="a" unicode="a" 
d="M86 195c0 116 68.3301 204.669 204.997 266.002c82 39.333 207.667 64 377 74v75c0 84.667 -22.167 149.5 -66.5 194.5s-94.5 67.5 -150.5 67.5c-100 0 -174 -31.333 -222 -94c40.667 -1.33301 68.334 -12.166 83.001 -32.499s22 -40.833 22 -61.5
c0 -27.333 -8.5 -49.833 -25.5 -67.5s-39.833 -26.5 -68.5 -26.5c-27.333 0 -50 8.5 -68 25.5s-27 40.5 -27 70.5c0 66.667 30.167 122 90.5 166s133.5 66 219.5 66c112 0 205.333 -37.667 280 -113c23.333 -23.333 40.833 -50 52.5 -80s18.167 -54.833 19.5 -74.5
s2 -48.834 2 -87.501v-409c0 -8 1.33301 -18.667 4 -32s10.167 -28.5 22.5 -45.5s28.833 -25.5 49.5 -25.5c49.333 0 73.666 43.667 72.999 131v115h52v-115c0 -72.667 -19.167 -123.167 -57.5 -151.5s-75.166 -42.5 -110.499 -42.5c-45.333 0 -82.333 16.667 -111 50
s-45 72.666 -49 117.999c-20.667 -52 -54.5 -94.833 -101.5 -128.5s-102.5 -50.5 -166.5 -50.5c-49.333 0 -97.166 6.16699 -143.499 18.5s-88.666 35.666 -126.999 69.999s-57.5 77.5 -57.5 129.5zM243.997 197.002c0 -50.667 18.001 -92.333 54.001 -125
s79.333 -49 130 -49c57.333 0 111.666 22.167 162.999 66.5s77 110.166 77 197.499v205c-151.333 -5.33301 -259.833 -38.166 -325.5 -98.499s-98.5 -125.833 -98.5 -196.5z" />
    <glyph glyph-name="b" unicode="b" horiz-adv-x="1136" 
d="M57 1335l-0.000976562 63.998l295 22v-649c79.333 88.667 173 133 281 133c117.333 0 219 -45 305 -135s129 -199.333 129 -328c0 -130 -45 -240 -135 -330s-197.333 -135 -322 -135c-113.333 0 -202.666 50 -267.999 150c-48 -83.333 -72.667 -125.666 -74 -126.999h-51
v1221c0 50.667 -9 82.334 -27 95.001s-62.333 19 -133 19zM357.999 232.998c0 -28.667 9.66895 -57.333 29.002 -86c54 -82.667 125 -124 213 -124h2c95.333 0 172.666 43.667 231.999 131c42 65.333 63 162 63 290c0 126.667 -19.667 221.667 -59 285
c-54.667 87.333 -126.334 131 -215.001 131c-100 0 -180.667 -43.667 -242 -131c-15.333 -22 -23 -46.667 -23 -74v-422z" />
    <glyph glyph-name="c" unicode="c" horiz-adv-x="909" 
d="M70 442.5c0 129.667 42.6699 241.331 128.003 334.998s190.666 140.5 315.999 140.5c83.333 0 156.333 -19.833 219 -59.5s94 -93.167 94 -160.5c0 -30 -8.83301 -53.5 -26.5 -70.5s-40.167 -25.5 -67.5 -25.5c-28.667 0 -51.5 8.83301 -68.5 26.5
s-25.5 40.167 -25.5 67.5c0 12 2 24 6 36s13.5 24.333 28.5 37s35.5 20 61.5 22c-48.667 50 -120.334 75 -215.001 75h-4c-69.333 0 -132.666 -32.667 -189.999 -98s-86 -172.666 -86 -321.999c0 -78 9.5 -145.5 28.5 -202.5s44.167 -100.167 75.5 -129.5
s62.333 -50.833 93 -64.5s61 -20.5 91 -20.5c134 0 223.667 71.667 269 215c4 13.333 12.667 20 26 20c18 0 27 -6.66699 27 -20c0 -6.66699 -2.66699 -18.667 -8 -36s-16.333 -39.666 -33 -66.999s-36.834 -52.833 -60.501 -76.5s-56.334 -44.167 -98.001 -61.5
s-88.5 -26 -140.5 -26c-120 0 -223.333 45.167 -310 135.5s-130 200.333 -130 330z" />
    <glyph glyph-name="d" unicode="d" horiz-adv-x="1136" 
d="M70 440c0 130 45.332 239.999 135.999 329.999s197.334 135 320.001 135c104 0 190 -42.333 258 -127v443c0 50.667 -8.83301 82.334 -26.5 95.001s-61.834 19 -132.501 19v64l295 22v-1243c0 -50.667 8.83301 -82.5 26.5 -95.5s61.834 -19.5 132.501 -19.5v-63l-301 -23
v136c-70.667 -90 -162 -135.333 -274 -136c-117.333 0 -219 45 -305 135s-129 199.333 -129 328zM239.999 437.999c0 -126.667 19.666 -221.332 58.999 -283.999c54.667 -87.333 126.334 -131 215.001 -131c101.333 0 182 47.667 242 143
c15.333 23.333 22.666 48.666 21.999 75.999v420c0 27.333 -7.33301 52.333 -22 75c-56 82 -129.667 123 -221 123c-95.333 0 -172.666 -43.667 -231.999 -131c-42 -65.333 -63 -162.333 -63 -291z" />
    <glyph glyph-name="e" unicode="e" horiz-adv-x="909" 
d="M57 451c0 128.667 41.3301 238.667 123.997 330s183.334 137 302.001 137c120 0 211.167 -39 273.5 -117s93.5 -173 93.5 -285c0 -20.667 -2.66699 -33 -8 -37s-19.666 -6 -42.999 -6h-572c0 -139.333 20.667 -241.666 62 -306.999c57.333 -91.333 134.333 -137 231 -137
c13.333 0 28 1.33301 44 4s40.333 9.83398 73 21.501s63.334 33.167 92.001 64.5s51.334 71.666 68.001 120.999c4 19.333 12.667 28.666 26 27.999c18 0 27 -8 27 -24c0 -12 -6.5 -31.5 -19.5 -58.5s-31.833 -56.5 -56.5 -88.5s-60.834 -60 -108.501 -84
s-100.167 -36 -157.5 -36c-120 0 -225.167 45.5 -315.5 136.5s-135.5 203.5 -135.5 337.5zM228.997 516h485.999c0 28.667 -2.5 59 -7.5 91s-14.667 70.167 -29 114.5s-38.166 80.5 -71.499 108.5s-74.666 42 -123.999 42c-22 0 -44.833 -4.66699 -68.5 -14
s-49.834 -25.333 -78.501 -48s-53 -59.667 -73 -111s-31.333 -112.333 -34 -183z" />
    <glyph glyph-name="f" unicode="f" horiz-adv-x="624" 
d="M68 819v64.002h161v235c0 101.333 32.833 181 98.5 239s138.834 87 219.501 87c53.333 0 97.333 -14.333 132 -43s52 -62.334 52 -101.001c0 -26 -7.83301 -47.5 -23.5 -64.5s-37.834 -25.5 -66.501 -25.5c-27.333 0 -48.833 8.66699 -64.5 26s-23.5 38 -23.5 62
c0 44 20.333 72.667 61 86c-20.667 9.33301 -43 14.333 -67 15c-49.333 0 -93.166 -25.333 -131.499 -76s-57.5 -118.334 -57.5 -203.001v-237h240v-64h-233v-659c0 -39.333 8.16699 -65.333 24.5 -78s59.833 -19 130.5 -19h43v-63c-54.667 4 -141.334 6 -260.001 6
c-16.667 0 -37.834 -0.333008 -63.501 -1s-55.667 -1.66699 -90 -3s-60.833 -2 -79.5 -2v63c72.667 0 117.334 4.5 134.001 13.5s25 35.5 25 79.5v663h-161z" />
    <glyph glyph-name="g" unicode="g" 
d="M57 -162c0 44 16.834 84.999 50.501 122.999s79.834 65.333 138.501 82c-60 38 -90 98.667 -90 182c0 64 21 120.667 63 170c-64 53.333 -96 123.666 -96 210.999c0 80.667 32 150.667 96 210s142.667 89 236 89c82 0 154.333 -24.667 217 -74
c65.333 64 137.666 96.333 216.999 97c35.333 0 61.5 -11 78.5 -33s25.5 -44.667 25.5 -68c0 -20.667 -6.5 -36 -19.5 -46s-26.167 -15 -39.5 -15c-16.667 0 -30.834 5.5 -42.501 16.5s-17.5 25.167 -17.5 42.5c0 28.667 11 47.334 33 56.001c-4 1.33301 -10.667 2 -20 2
c-66.667 0 -128.334 -26.667 -185.001 -80c56 -52 84 -118.333 84 -199s-32 -150.667 -96 -210s-142.333 -89 -235 -89c-76.667 0 -144.334 21.333 -203.001 64c-23.333 -27.333 -35 -59.666 -35 -96.999c0 -34 10.333 -64.333 31 -91s46.667 -42 78 -46
c9.33301 -1.33301 60.333 -2 153 -2c54.667 0 97 -0.666992 127 -2s66.5 -6.5 109.5 -15.5s81.5 -22.167 115.5 -39.5c88.667 -49.333 133.334 -127.333 134.001 -234c0 -78 -44.833 -141.5 -134.5 -190.5s-196.5 -73.5 -320.5 -73.5
c-125.333 0 -232.166 24.833 -320.499 74.5s-132.5 111.5 -132.5 185.5zM164.001 -162.001c0 -56 33 -105.499 99 -148.499s149 -64.5 249 -64.5c98 0 180.167 21.167 246.5 63.5s99.5 92.166 99.5 149.499c0 40.667 -11.667 74 -35 100s-58.833 44.167 -106.5 54.5
s-88.167 16.5 -121.5 18.5s-80.666 3 -141.999 3h-121c-46.667 -2.66699 -86.334 -21 -119.001 -55s-49 -74.333 -49 -121zM276.001 604c0 -168 59.667 -252 179 -252c60 0 108.333 27.333 145 82c22 36.667 33 94 33 172c0 168 -59.333 252 -178 252
c-60 0 -108.667 -27.333 -146 -82c-22 -36.667 -33 -94 -33 -172z" />
    <glyph glyph-name="h" unicode="h" horiz-adv-x="1136" 
d="M66 0l-0.000976562 62.999c72.667 0 117.334 4.5 134.001 13.5s25 35.5 25 79.5v1065c0 50.667 -8.83301 82.334 -26.5 95.001s-61.834 19 -132.501 19v64l294 22v-712h2c22 49.333 57.667 94.333 107 135s112 61 188 61c102.667 0 174.334 -25.333 215.001 -76
c30 -34 48.167 -70 54.5 -108s9.5 -106.333 9.5 -205v-391c1.33301 -28.667 13 -46.167 35 -52.5s63.667 -9.5 125 -9.5v-63c-139.333 4 -216 6 -230 6c-10.667 0 -87.667 -2 -231 -6v63c72.667 0 117.5 4.5 134.5 13.5s25.5 35.5 25.5 79.5v477
c0 69.333 -10.667 124.5 -32 165.5s-61.333 61.5 -120 61.5c-70.667 0 -134.334 -29.667 -191.001 -89s-85 -139 -85 -239v-376c0 -44 8.5 -70.5 25.5 -79.5s61.5 -13.5 133.5 -13.5v-63c-139.333 4 -215.666 6 -228.999 6c-10.667 0 -87.667 -2 -231 -6z" />
    <glyph glyph-name="i" unicode="i" horiz-adv-x="567" 
d="M68 0l-0.00195312 63c72.667 0 117.334 4.5 134.001 13.5s25 35.5 25 79.5v551c0 50.667 -8.5 82 -25.5 94s-58.833 18 -125.5 18v64l286 22v-751c0 -40.667 7.33301 -66 22 -76s55.334 -15 122.001 -15v-63c-139.333 4 -210.333 6 -213 6c-18.667 0 -93.667 -2 -225 -6z
M153.998 1262c0 27.333 10.499 52.167 31.499 74.5s46.5 33.5 76.5 33.5s55.667 -10.167 77 -30.5s32 -46.333 32 -78s-10.667 -57.667 -32 -78s-47 -30.5 -77 -30.5c-31.333 0 -57.166 11 -77.499 33s-30.5 47.333 -30.5 76z" />
    <glyph glyph-name="j" unicode="j" horiz-adv-x="624" 
d="M-82 -256c0 27.333 8.50098 49.8301 25.501 67.4971s39.833 26.5 68.5 26.5s51.5 -8.83301 68.5 -26.5s25.5 -40.167 25.5 -67.5c0 -24.667 -7.16699 -44.834 -21.5 -60.501s-30.833 -26.167 -49.5 -31.5c35.333 -18 72 -27 110 -27c31.333 0 57.666 9.33301 78.999 28
s36.833 43.334 46.5 74.001s16.167 58.834 19.5 84.501s5 53.167 5 82.5v811c0 50.667 -9.83301 82.334 -29.5 95.001s-68.5 19 -146.5 19v64l311 22v-1007c0 -91.333 -27.333 -167.166 -82 -227.499s-120.667 -90.5 -198 -90.5c-62.667 0 -117 14.667 -163 44
s-69 69.333 -69 120zM213.001 1261c0 30 10.667 55.667 32 77s47 32 77 32s55.667 -10.667 77 -32s32 -47 32 -77s-10.667 -55.5 -32 -76.5s-47 -31.5 -77 -31.5s-55.667 10.5 -77 31.5s-32 46.5 -32 76.5z" />
    <glyph glyph-name="k" unicode="k" horiz-adv-x="1079" 
d="M57 0l0.00195312 62.998c72.667 0 117.5 4.5 134.5 13.5s25.5 35.5 25.5 79.5v1065c0 50.667 -8.83301 82.334 -26.5 95.001s-62.167 19 -133.5 19v64l295 22v-983l289 250c30 26 45 52.667 45 80c0 31.333 -19.667 48.333 -59 51v64c57.333 -4 133.666 -6 228.999 -6
c56 0 103.667 2 143 6v-64c-86 -4 -172 -40.667 -258 -110c-19.333 -15.333 -51.833 -42.833 -97.5 -82.5s-68.5 -61.5 -68.5 -65.5c0 -1.33301 0.833008 -3.66602 2.5 -6.99902s3.83398 -6.33301 6.50098 -9s4 -4.66699 4 -6l260 -367c35.333 -49.333 66 -79.833 92 -91.5
s61.667 -17.5 107 -17.5v-63c-58.667 4 -118.334 6 -179.001 6c-32.667 0 -106.334 -2 -221.001 -6v63c49.333 0 74 16 74 48c0 22 -55.333 109.333 -166 262l-39 51c-16.667 24.667 -29.667 43 -39 55l-131 -112v-211c0 -44 8.5 -70.5 25.5 -79.5s61.833 -13.5 134.5 -13.5
v-63c-82 4 -157 6 -225 6c-14 0 -88.667 -2 -224 -6z" />
    <glyph glyph-name="l" unicode="l" horiz-adv-x="567" 
d="M68 0l0.000976562 62.999c72.667 0 117.334 4.5 134.001 13.5s25 35.5 25 79.5v1065c0 50.667 -8.83301 82.334 -26.5 95.001s-61.834 19 -132.501 19v64l294 22v-1265c0 -44 8.66699 -70.5 26 -79.5s62 -13.5 134 -13.5v-63c-16.667 0 -42.334 0.666992 -77.001 2
s-64.667 2.33301 -90 3s-45.333 1 -60 1c-16 0 -91.667 -2 -227 -6z" />
    <glyph glyph-name="m" unicode="m" horiz-adv-x="1705" 
d="M66 0l-0.000976562 62.999c72.667 0 117.334 4.5 134.001 13.5s25 35.5 25 79.5v549c0 50.667 -8.83301 82.334 -26.5 95.001s-61.834 19 -132.501 19v64l288 22v-215c64 143.333 165 215 303 215c160 0 251 -66.667 273 -200c23.333 52 59.5 98.333 108.5 139
s111.833 61 188.5 61c102.667 0 174.334 -25.333 215.001 -76c30 -34 48 -70 54 -108s9 -106.333 9 -205v-391c1.33301 -28.667 13 -46.167 35 -52.5s63.667 -9.5 125 -9.5v-63c-139.333 4 -215.666 6 -228.999 6c-10.667 0 -88 -2 -232 -6v63
c72.667 0 117.5 4.5 134.5 13.5s25.5 35.5 25.5 79.5v477c0 69.333 -10.667 124.5 -32 165.5s-61.333 61.5 -120 61.5c-70.667 0 -134.334 -29.667 -191.001 -89s-85 -139 -85 -239v-376c0 -44 8.5 -70.5 25.5 -79.5s61.833 -13.5 134.5 -13.5v-63c-139.333 4 -216 6 -230 6
c-10.667 0 -87.667 -2 -231 -6v63c72.667 0 117.5 4.5 134.5 13.5s25.5 35.5 25.5 79.5v477c0 69.333 -10.667 124.5 -32 165.5s-61.333 61.5 -120 61.5c-70.667 0 -134.334 -29.667 -191.001 -89s-85 -139 -85 -239v-376c0 -44 8.5 -70.5 25.5 -79.5
s61.5 -13.5 133.5 -13.5v-63c-139.333 4 -215.666 6 -228.999 6c-10.667 0 -87.667 -2 -231 -6z" />
    <glyph glyph-name="n" unicode="n" horiz-adv-x="1136" 
d="M66 0l-0.000976562 62.999c72.667 0 117.334 4.5 134.001 13.5s25 35.5 25 79.5v549c0 50.667 -8.83301 82.334 -26.5 95.001s-61.834 19 -132.501 19v64l288 22v-215c64 143.333 165 215 303 215c102.667 0 174.334 -25.333 215.001 -76c30 -34 48.167 -70 54.5 -108
s9.5 -106.333 9.5 -205v-391c1.33301 -28.667 13 -46.167 35 -52.5s63.667 -9.5 125 -9.5v-63c-139.333 4 -216 6 -230 6c-10.667 0 -87.667 -2 -231 -6v63c72.667 0 117.5 4.5 134.5 13.5s25.5 35.5 25.5 79.5v477c0 69.333 -10.667 124.5 -32 165.5
s-61.333 61.5 -120 61.5c-70.667 0 -134.334 -29.667 -191.001 -89s-85 -139 -85 -239v-376c0 -44 8.5 -70.5 25.5 -79.5s61.5 -13.5 133.5 -13.5v-63c-139.333 4 -215.666 6 -228.999 6c-10.667 0 -87.667 -2 -231 -6z" />
    <glyph glyph-name="o" unicode="o" 
d="M57 438.5c0 129.667 44.166 241.999 132.499 336.999s195.833 142.5 322.5 142.5c124 0 230.5 -47.167 319.5 -141.5s133.5 -207.166 133.5 -338.499c0 -128.667 -44.833 -237.667 -134.5 -327s-196.5 -134 -320.5 -134c-121.333 0 -227.166 44.5 -317.499 133.5
s-135.5 198.333 -135.5 328zM226.999 454.999c0 -132.667 17.334 -229 52.001 -289c53.333 -91.333 131 -137 233 -137c50.667 0 97.167 13.667 139.5 41s75.166 64 98.499 110c30 60 45 151.667 45 275c0 131.333 -18 226 -54 284c-53.333 88.667 -130.333 133 -231 133
c-44 0 -87.5 -11.5 -130.5 -34.5s-77.5 -57.167 -103.5 -102.5c-32.667 -60 -49 -153.333 -49 -280z" />
    <glyph glyph-name="p" unicode="p" horiz-adv-x="1136" 
d="M57 -334c72.667 0 117.501 4.50098 134.501 13.501s25.5 35.167 25.5 78.5v959c0 45.333 -8.5 73.666 -25.5 84.999s-61.833 17 -134.5 17v64l295 22v-135c82 90 177.667 135 287 135c116 0 216.333 -45 301 -135s127 -199.333 127 -328c0 -130 -45 -240 -135 -330
s-197.333 -135 -322 -135c-68 0 -124.833 17.5 -170.5 52.5s-72.834 65.5 -81.501 91.5v-19v-344c0 -44 8.66699 -70.333 26 -79s62 -13 134 -13v-63c-143.333 4 -220.333 6 -231 6c-13.333 0 -90 -2 -230 -6v63zM358.001 233.001c0 -20.667 1.5 -34.667 4.5 -42
s11.167 -22 24.5 -44c54 -82.667 125 -124 213 -124h2c78 0 146.667 39.833 206 119.5s89 179.5 89 299.5c0 114.667 -27 212 -81 292s-118.333 120 -193 120c-53.333 0 -103.333 -14.333 -150 -43s-85 -69 -115 -121v-457z" />
    <glyph glyph-name="q" unicode="q" horiz-adv-x="1079" 
d="M70 440c0 131.333 44.999 241.667 134.999 331s195.667 134 317 134c50.667 0 96.834 -12.333 138.501 -37s71.667 -49.167 90 -73.5s33.833 -49.5 46.5 -75.5l77 186h46v-1147c0 -44 8.5 -70.333 25.5 -79s61.5 -13 133.5 -13v-63c-143.333 4 -220.333 6 -231 6
c-13.333 0 -90 -2 -230 -6v63c72.667 0 117.5 4.5 134.5 13.5s25.5 35.167 25.5 78.5v367c-75.333 -98 -166 -147.333 -272 -148c-118.667 0 -221 45.5 -307 136.5s-129 199.833 -129 326.5zM239.999 440.001c0 -117.333 26.834 -216.166 80.501 -296.499
s118.167 -120.5 193.5 -120.5c74 0 136.667 27.667 188 83c54.667 60 82 117.667 82 173v288c0 64 -22.833 127.833 -68.5 191.5s-105.834 95.5 -180.501 95.5c-78 0 -146.667 -39.333 -206 -118s-89 -177.334 -89 -296.001z" />
    <glyph glyph-name="r" unicode="r" horiz-adv-x="800" 
d="M57 0l0.00195312 62.998c72.667 0 117.5 4.5 134.5 13.5s25.5 35.5 25.5 79.5v549c0 50.667 -8.83301 82.334 -26.5 95.001s-62.167 19 -133.5 19v64l285 22v-225c19.333 58.667 49.5 110.834 90.5 156.501s94.833 68.5 161.5 68.5c44 0 80.167 -12.333 108.5 -37
s42.5 -54 42.5 -88c0 -30 -9.16699 -52.5 -27.5 -67.5s-38.5 -22.5 -60.5 -22.5c-24.667 0 -45.5 7.83301 -62.5 23.5s-25.5 37.167 -25.5 64.5c0 16.667 3.83301 31.5 11.5 44.5s14.5 21.833 20.5 26.5s11 7.66699 15 9c-2.66699 1.33301 -10 2 -22 2
c-75.333 0 -134.5 -37.5 -177.5 -112.5s-64.5 -165.833 -64.5 -272.5v-315c0 -39.333 8.16699 -65.333 24.5 -78s60.166 -19 131.499 -19h43v-63c-54.667 4 -141.334 6 -260.001 6c-16.667 0 -38 -0.333008 -64 -1s-56 -1.66699 -90 -3s-60.667 -2 -80 -2z" />
    <glyph glyph-name="s" unicode="s" horiz-adv-x="806" 
d="M68 27l-0.00292969 270.003c0 15.333 0.333008 25.666 1 30.999s3 10 7 14s10 6 18 6c9.33301 0 15.833 -2 19.5 -6s6.83398 -13.667 9.50098 -29c20.667 -94 53.167 -165.833 97.5 -215.5s106.833 -74.5 187.5 -74.5c76.667 0 134.334 17 173.001 51s58 79 58 135
c0 100 -71 162.667 -213 188c-82 16.667 -140 30.5 -174 41.5s-66 28.833 -96 53.5c-58.667 48 -88 106 -88 174s25.833 127 77.5 177s134.834 75 249.501 75c76.667 0 141 -19.333 193 -58c15.333 12 27 23 35 33c18 16.667 31.667 25 41 25c10.667 0 17 -3.5 19 -10.5
s3 -20.167 3 -39.5v-206c0 -15.333 -0.333008 -25.666 -1 -30.999s-3 -9.83301 -7 -13.5s-10.333 -5.5 -19 -5.5c-15.333 0 -23.333 6.33301 -24 19c-10.667 165.333 -90.667 248 -240 248c-80.667 0 -139 -15.5 -175 -46.5s-54 -67.5 -54 -109.5
c0 -23.333 5.5 -43.833 16.5 -61.5s23.667 -31.667 38 -42s34.833 -20.333 61.5 -30s48.167 -16.167 64.5 -19.5l71.5 -15c109.333 -20.667 187 -53.334 233 -98.001c57.333 -57.333 86 -122.333 86 -195c0 -80.667 -27.333 -148.334 -82 -203.001s-137 -82 -247 -82
c-88.667 0 -164 29.667 -226 89c-8 -8 -15 -15.5 -21 -22.5l-12.5 -14.5c-2.33301 -2.66699 -3.83301 -4.83398 -4.5 -6.50098s-1.66699 -3.16699 -3 -4.5c-27.333 -27.333 -44.333 -41 -51 -41c-10.667 0 -17 3.5 -19 10.5s-3 20.167 -3 39.5z" />
    <glyph glyph-name="t" unicode="t" horiz-adv-x="794" 
d="M39 819l0.000976562 45.002c62.667 2.66699 114.834 26.167 156.501 70.5s69.667 93.833 84 148.5s22.166 113.667 23.499 177h51v-377h293v-64h-293v-569c0 -147.333 46 -221 138 -221c39.333 0 72 20.167 98 60.5s39 96.5 39 168.5v113h51v-117
c0 -74 -17 -138.667 -51 -194s-84.667 -83 -152 -83c-24.667 0 -49.167 3.16699 -73.5 9.5s-52.333 17.666 -84 33.999s-57.334 44.666 -77.001 84.999s-29.5 89.833 -29.5 148.5v565h-174z" />
    <glyph glyph-name="u" unicode="u" horiz-adv-x="1136" 
d="M66 819l-0.000976562 63.999l301 22v-680c0 -32.667 1.33301 -58.5 4 -77.5s9.5 -39.5 20.5 -61.5s29.333 -38 55 -48s59.167 -15 100.5 -15c74 0 133.833 30.333 179.5 91s68.5 136 68.5 226v365c0 50.667 -9 82.334 -27 95.001s-62.333 19 -133 19v64l301 22v-727
c0 -50.667 8.83301 -82.5 26.5 -95.5s62.167 -19.5 133.5 -19.5v-63l-295 -23v185c-57.333 -122.667 -145.333 -184.334 -264 -185.001c-60 0 -110.5 7.66699 -151.5 23s-71.833 32.5 -92.5 51.5s-36.5 46.833 -47.5 83.5s-17.167 66.334 -18.5 89.001s-2 56 -2 100v307
c0 92.667 -6.66699 147.167 -20 163.5s-59.666 24.5 -138.999 24.5z" />
    <glyph glyph-name="v" unicode="v" horiz-adv-x="1079" 
d="M39 819l0.000976562 64.001c61.333 -4 127.666 -6 198.999 -6c26 0 100.333 2 223 6v-64c-78 0 -117 -17.667 -117 -53c0 -5.33301 4 -17 12 -35l230 -571l209 522c8 23.333 12 39.666 12 48.999c0 23.333 -7.83301 43.5 -23.5 60.5s-40.5 26.167 -74.5 27.5v64
c69.333 -4 128.666 -6 177.999 -6c56 0 107 2 153 6v-64c-40.667 0 -75.334 -9.16699 -104.001 -27.5s-47.5 -35.333 -56.5 -51s-18.167 -35.167 -27.5 -58.5l-268 -666c-10.667 -26 -25 -39 -43 -39c-12 0 -20.5 2.5 -25.5 7.5s-10.833 15.5 -17.5 31.5l-295 727
c-13.333 34 -28.666 55.167 -45.999 63.5s-56.666 12.5 -117.999 12.5z" />
    <glyph glyph-name="w" unicode="w" horiz-adv-x="1478" 
d="M37 819l-0.000976562 64.001c74 -4 137.333 -6 190 -6c26 0 100.667 2 224 6v-64c-80.667 0 -121 -18.333 -121 -55c0 -8 3.33301 -20.333 10 -37l195 -547l176 496c-24.667 66.667 -40.334 104 -47.001 112c-16.667 20.667 -59.667 31 -129 31v64
c61.333 -4 122 -6 182 -6c23.333 0 94.333 2 213 6v-64c-80.667 0 -121 -18.333 -121 -55c0 -5.33301 3.33301 -18.333 10 -39l203 -571l186 524c6.66699 18 10.334 32.333 11.001 43c0 30 -10.667 53.5 -32 70.5s-50.333 26.167 -87 27.5v64c78 -4 141.333 -6 190 -6
c54.667 0 104.667 2 150 6v-64c-84.667 -2.66699 -142 -46.334 -172 -131.001l-240 -672c-15.333 -24.667 -29 -37.667 -41 -39c-18 0 -31.667 13 -41 39l-209 582l-207 -580c-5.33301 -16.667 -10.333 -27.667 -15 -33s-13.167 -8 -25.5 -8s-21.166 3.5 -26.499 10.5
s-11 18.833 -17 35.5l-258 725c-12 31.333 -26.833 51 -44.5 59s-53.167 12 -106.5 12z" />
    <glyph glyph-name="x" unicode="x" horiz-adv-x="1079" 
d="M25 0v63.002c106.667 0 194 41 262 123l192 244l-203 264c-48 61.333 -82.5 97.5 -103.5 108.5s-66.833 16.5 -137.5 16.5v64c56 -4 120.667 -6 194 -6c40.667 0 114.667 2 222 6v-64c-48 -2.66699 -72 -19.667 -72 -51c0 -10.667 6 -23 18 -37l160 -207l127 160
c20.667 24.667 31 48.667 31 72c0 38 -20 59 -60 63v64c53.333 -4 119 -6 197 -6c58.667 0 114.667 2 168 6v-64c-104 -2.66699 -185.333 -38 -244 -106c-26 -28.667 -88.667 -106 -188 -232l274 -354c22 -28.667 45.333 -46.5 70 -53.5s66.334 -10.5 125.001 -10.5v-63
c-61.333 4 -127 6 -197 6c-24.667 0 -98.334 -2 -221.001 -6v63c24.667 1.33301 43.167 7.5 55.5 18.5s18.5 22.167 18.5 33.5c0 5.33301 -14.333 27.666 -43 66.999l-156 205c-104 -122.667 -162.667 -198.334 -176 -227.001c-5.33301 -12 -8 -23 -8 -33
c0 -36.667 19.667 -58 59 -64v-63c-98 4 -162.667 6 -194 6c-60 0 -116.667 -2 -170 -6z" />
    <glyph glyph-name="y" unicode="y" horiz-adv-x="1079" 
d="M39 -254c0 28.667 8.49902 50.502 25.499 65.502s37.167 22.5 60.5 22.5c24.667 0 45.167 -7.83301 61.5 -23.5s24.5 -36.5 24.5 -62.5c0 -50.667 -26.667 -79.334 -80 -86.001c26 -24.667 58 -37 96 -37c40.667 0 77.5 15 110.5 45s56.667 59.333 71 88
s31.833 69 52.5 121c19.333 40.667 36.333 81 51 121l-307 748c-13.333 32.667 -30.333 52.667 -51 60s-59 11 -115 11v64c61.333 -4 127.666 -6 198.999 -6c42 0 116.333 2 223 6v-64c-76.667 0 -115 -17.667 -115 -53c0 -4 4 -16.333 12 -37l228 -551l207 504
c8 19.333 12 35.666 12 48.999c0 56 -32 85.333 -96 88v64c90 -4 149.333 -6 178 -6c56 0 107 2 153 6v-64c-91.333 0 -154.666 -43.667 -189.999 -131l-361 -874c-65.333 -155.333 -152.666 -233.333 -261.999 -234c-52 0 -96.333 16 -133 48s-55 71.333 -55 118z" />
    <glyph glyph-name="z" unicode="z" horiz-adv-x="909" 
d="M57 29c0 9.33301 6.33496 21.668 19.002 37.001l571 772h-233c-108 0 -179.5 -19.833 -214.5 -59.5s-55.833 -114.834 -62.5 -225.501h-51l23 330h655c15.333 0 26 -0.333008 32 -1s11 -3.16699 15 -7.5s6 -10.5 6 -18.5s-6 -19.667 -18 -35l-570 -770h242
c113.333 0 189.166 23.667 227.499 71s62.166 134.333 71.499 261h51l-35 -383h-675c-22 0 -36.5 1.5 -43.5 4.5s-10.5 11.167 -10.5 24.5z" />
    <glyph glyph-name="braceleft" unicode="{" 
d="M150 512c0 5.33301 1.00293 9.66797 3.00293 13.001s5.33301 5.83301 10 7.5s9.33398 2.83398 14.001 3.50098s12.167 1.66699 22.5 3s19.5 2.66602 27.5 3.99902c49.333 9.33301 94.166 30.666 134.499 63.999s64.5 74.666 72.5 123.999c2.66699 13.333 4 33.333 4 60
v446c0 70.667 17 126.667 51 168c36.667 45.333 88.167 78.5 154.5 99.5s129.833 31.5 190.5 31.5c24.667 0 36.667 -7.66699 36 -23c0 -6.66699 -2 -11.667 -6 -15s-9.66699 -5.66602 -17 -6.99902s-15.5 -2.66602 -24.5 -3.99902s-19.667 -3 -32 -5
s-23.833 -4.33301 -34.5 -7c-116 -38 -174 -113.333 -174 -226v-461c0 -143.333 -81.333 -235.333 -244 -276c162.667 -40.667 244 -128.667 244 -264v-455c0 -32.667 1.33301 -57.334 4 -74.001c9.33301 -46.667 35.166 -87 77.499 -121s94.833 -54.333 157.5 -61
c32.667 -4 49 -12.667 49 -26c0 -15.333 -11.333 -23 -34 -23c-96.667 0 -184.334 20.833 -263.001 62.5s-123 102.167 -133 181.5c-1.33301 13.333 -2 33 -2 59v449c0 45.333 -9.16699 85 -27.5 119s-41.166 59.167 -68.499 75.5s-51.166 28.166 -71.499 35.499
s-38.833 12.333 -55.5 15c-4 0 -9.83301 0.333008 -17.5 1s-13.834 1.33398 -18.501 2.00098s-9.33398 1.83398 -14.001 3.50098s-8.33398 4.16699 -11.001 7.5s-4 7.66602 -4 12.999z" />
    <glyph glyph-name="bar" unicode="|" horiz-adv-x="569" 
d="M242 -449v1907c0 50.667 13.667 76 41 76s41 -20.333 41 -61v-1907c0 -50.667 -13.667 -76 -41 -76s-41 20.333 -41 61z" />
    <glyph glyph-name="braceright" unicode="}" 
d="M150 -489c0 9.33301 4.32812 15.3271 12.9951 17.9941s23.667 5.33398 45 8.00098s40 6.66699 56 12c116 38 174 113.333 174 226v461c0 143.333 81.333 235.333 244 276c-162.667 40.667 -244 128 -244 262v457c0 32.667 -1.33301 57.334 -4 74.001
c-9.33301 46.667 -35.166 87 -77.499 121s-94.833 54.333 -157.5 61c-1.33301 0 -5.16602 0.333008 -11.499 1s-10.833 1.33398 -13.5 2.00098s-6.33398 1.66699 -11.001 3s-8 3.66602 -10 6.99902s-3 7 -3 11c0 16.667 11.333 25 34 25
c96.667 0 184.334 -20.833 263.001 -62.5s123 -102.167 133 -181.5c1.33301 -13.333 2 -33 2 -59v-449c0 -45.333 8.83301 -85 26.5 -119s40.5 -59.167 68.5 -75.5s51.5 -28.166 70.5 -35.499s38.167 -12.333 57.5 -15c4 0 9.83301 -0.333008 17.5 -1
s13.834 -1.83398 18.501 -3.50098s9.33398 -3.16699 14.001 -4.5s8.33398 -3.66602 11.001 -6.99902s4 -7 4 -11c0 -5.33301 -1 -9.66602 -3 -12.999s-5.66699 -5.83301 -11 -7.5s-10.833 -2.83398 -16.5 -3.50098s-13.167 -1.66699 -22.5 -3s-18 -2.66602 -26 -3.99902
c-49.333 -9.33301 -93.833 -30.333 -133.5 -63s-63.5 -74.334 -71.5 -125.001c-2.66699 -13.333 -4 -33.333 -4 -60v-446c0 -27.333 -1.16699 -49.166 -3.5 -65.499s-11.333 -39.166 -27 -68.499s-38.5 -55.666 -68.5 -78.999c-78 -57.333 -177 -86 -297 -86
c-24 0 -36 7.66699 -36 23z" />
    <glyph glyph-name="asciitilde" unicode="~" horiz-adv-x="1251" 
d="M170 1204c2.66699 2.66699 11.834 13.335 27.501 32.002s26 30.334 31 35.001s14.667 14.167 29 28.5s26.166 23.833 35.499 28.5s21.5 11.167 36.5 19.5s30.333 13.833 46 16.5s32.5 4 50.5 4c48 0 117.667 -16.333 209 -49s161 -49 209 -49
c44 0 80.167 8.16699 108.5 24.5s58.833 40.833 91.5 73.5l35 -31c-1.33301 -2.66699 -8.83301 -11.834 -22.5 -27.501l-25.5 -29.5c-3.33301 -4 -11.833 -12.5 -25.5 -25.5s-23.5 -21.5 -29.5 -25.5l-29.5 -20.5c-13.667 -9.66699 -26 -15.834 -37 -18.501
s-24 -5.66699 -39 -9s-30.833 -5 -47.5 -5c-48 0 -117.667 16 -209 48s-160.666 48 -207.999 48c-44 0 -80.333 -7.83301 -109 -23.5s-59.334 -39.834 -92.001 -72.501z" />
    <glyph glyph-name="uni00A0" unicode="&#xa0;" horiz-adv-x="681" 
 />
    <glyph glyph-name="exclamdown" unicode="&#xa1;" horiz-adv-x="569" 
d="M174 -336c0 10.667 2.66504 40.667 7.99805 90l72 834c4 34 13.667 51 29 51s24 -11.667 26 -35c2.66699 -12 5.33398 -40 8.00098 -84c4 -46.667 7.66699 -85.667 11 -117l59 -698c2.66699 -19.333 4 -33 4 -41c0 -34 -11.167 -60.167 -33.5 -78.5
s-47.166 -27.5 -74.499 -27.5c-28.667 0 -54 9.5 -76 28.5s-33 44.833 -33 77.5zM173.998 915c0 31.333 11 57.333 33 78s47.333 31 76 31s53.5 -10.167 74.5 -30.5s31.5 -46.5 31.5 -78.5c0 -30 -10.833 -55.167 -32.5 -75.5s-46.167 -30.5 -73.5 -30.5
c-31.333 0 -57.333 10.5 -78 31.5s-31 45.833 -31 74.5z" />
    <glyph glyph-name="cent" unicode="&#xa2;" 
d="M68 440c0 124 44.002 231.5 132.002 322.5s200.333 141.167 337 150.5v179h63v-179c105.333 -2.66699 188.666 -22.667 249.999 -60s92 -88.333 92 -153c0 -31.333 -8.83301 -55.5 -26.5 -72.5s-39.5 -25.5 -65.5 -25.5c-27.333 0 -49.833 9.16699 -67.5 27.5
s-26.5 40.5 -26.5 66.5c0 53.333 30.667 85 92 95c-58.667 44 -141.334 67.667 -248.001 71v-831c57.333 4 106.5 14.833 147.5 32.5s71 37.5 90 59.5s34.333 43.833 46 65.5l29 54c7.66699 14.333 16.167 21.5 25.5 21.5c16.667 0 25 -7.33301 25 -22
c0 -6.66699 -3.16699 -18.334 -9.5 -35.001s-18 -37.667 -35 -63s-38.167 -49.166 -63.5 -71.499s-60.5 -42.333 -105.5 -60s-94.833 -28.5 -149.5 -32.5v-179h-63v179c-135.333 9.33301 -247.333 58 -336 146s-133 192.667 -133 314zM240.002 442
c0 -101.333 24.167 -190.167 72.5 -266.5s123.166 -123.833 224.499 -142.5v827c-91.333 -12 -163.666 -54.333 -216.999 -127s-80 -169.667 -80 -291z" />
    <glyph glyph-name="sterling" unicode="&#xa3;" horiz-adv-x="1308" 
d="M113 98c0 52 23.498 96.1699 70.498 132.503s104.5 54.5 172.5 54.5h2c36.667 0 81.334 -8.33301 134.001 -25c2.66699 26 4 89 4 189v231h-123c-26 0 -41.667 4.66699 -47 14c-4 6.66699 -6.33301 13 -7 19c0 20.667 16.667 30.667 50 30h127v301
c0 130 37.167 229.5 111.5 298.5s155.833 103.5 244.5 103.5c100 0 181.667 -38.667 245 -116s95 -162.333 95 -255c0 -36.667 -9.83301 -62.834 -29.5 -78.501s-41.167 -23.5 -64.5 -23.5c-26 0 -48.167 8.5 -66.5 25.5s-27.5 39.167 -27.5 66.5s9.16699 49.833 27.5 67.5
s40.5 26.5 66.5 26.5c8 0 18.667 -1.33301 32 -4c-22 79.333 -58.5 139.833 -109.5 181.5s-105.833 62.5 -164.5 62.5c-74 0 -132 -36.333 -174 -109c-28.667 -52 -43 -136.667 -43 -254v-293h174c35.333 -8 54.333 -18 57 -30c0 -22 -16.333 -33 -49 -33h-182v-301
c0 -60 -9.66699 -116.667 -29 -170c10.667 -5.33301 37 -19.333 79 -42s74.5 -39.5 97.5 -50.5s52.667 -21.833 89 -32.5s69.5 -16 99.5 -16c58.667 0 107.834 18 147.501 54s63.5 78.667 71.5 128c5.33301 35.333 14.333 53 27 53c5.33301 0 10 -1.33301 14 -4
c9.33301 -5.33301 14 -16.333 14 -33c0 -64 -27.333 -128.167 -82 -192.5s-127.667 -96.5 -219 -96.5c-19.333 0 -38.5 1.5 -57.5 4.5s-39.667 8.5 -62 16.5l-57 20.5c-15.667 5.66699 -36.167 14.5 -61.5 26.5s-42.5 20.5 -51.5 25.5l-53.5 29
c-26.667 14.333 -40.667 22.166 -42 23.499c-75.333 -96.667 -168 -145.334 -278 -146.001c-52 0 -93.667 11 -125 33s-47 51.333 -47 88zM189.998 96.0029c0 -20.667 9.66602 -37.667 28.999 -51s42 -20 68 -20c36.667 0 71.334 12.5 104.001 37.5s58 59.5 76 103.5
c-48 18 -93.667 27 -137 27c-45.333 0 -80 -10 -104 -30s-36 -42.333 -36 -67z" />
    <glyph glyph-name="yen" unicode="&#xa5;" horiz-adv-x="1536" 
d="M23 1335l-0.00390625 64.002c78 -4 165.333 -6 262 -6c102.667 0 205 2 307 6v-64h-12c-86 0 -129 -17 -129 -51c0 -2.66699 0.333008 -5.66699 1 -9s2.33398 -7.83301 5.00098 -13.5s6 -11.834 10 -18.501l16.5 -27.5l21.5 -36l30.5 -49l39 -62.5l48 -79l59.5 -96h303
c131.333 214.667 199 326.667 203 336c2.66699 8 4 17.333 4 28c0 49.333 -38.333 75.333 -115 78v64c79.333 -4 159.333 -6 240 -6c69.333 0 134 2 194 6v-64c-106.667 -1.33301 -187 -36 -241 -104c-8 -10.667 -77.667 -123.334 -209 -338.001h260
c30 0 48.333 -1.33301 55 -4c16.667 -6.66699 21 -16.334 13 -29.001c-5.33301 -9.33301 -22 -14 -50 -14h-274c-15.333 0 -25.666 -1.66699 -30.999 -5s-13.333 -14 -24 -32c-96.667 -157.333 -146.667 -241.333 -150 -252c-2.66699 -6.66699 -4 -17 -4 -31v-30h483
c32.667 0 49.334 -8.33301 50.001 -25c0 -15.333 -15.333 -22.666 -46 -21.999h-487v-291c0 -42 11 -68.333 33 -79s74.667 -16 158 -16h20v-63c-172 4 -267.667 6 -287 6c-105.333 0 -209.666 -2 -312.999 -6v63h20c83.333 0 136 5.5 158 16.5s33 37.833 33 80.5v289h-488
c-31.333 0 -47 7.33301 -47 22c0 16.667 17.333 25 52 25h483v32v2c0 19.333 -10.333 45.333 -31 78c-6.66699 12 -21 36 -43 72l-80 129c-10.667 18 -18.667 28.667 -24 32s-15 5 -29 5h-276c-34 0 -51.333 8 -52 24c0 15.333 23.333 23 70 23h260l-217 354
c-26 40.667 -51.333 65.5 -76 74.5s-71 13.5 -139 13.5h-18zM710.996 846.002l123 -201l122 201h-245z" />
    <glyph glyph-name="section" unicode="&#xa7;" horiz-adv-x="909" 
d="M141 522c0 122.667 53.999 214.999 161.999 276.999c-108 104 -162 213 -162 327c0 91.333 31.167 167.166 93.5 227.499s135.833 90.5 220.5 90.5c79.333 0 146.166 -25 200.499 -75s81.5 -106.333 81.5 -169c0 -27.333 -7.83301 -47.166 -23.5 -59.499
s-31.5 -18.5 -47.5 -18.5c-19.333 0 -35.833 6.83301 -49.5 20.5s-20.5 30.834 -20.5 51.501c0 8 1.66699 16.833 5 26.5s11.166 19.334 23.499 29.001s28.166 15.167 47.499 16.5c-23.333 49.333 -56.166 83.5 -98.499 102.5s-81.166 28.5 -116.499 28.5
c-68 0 -122.333 -28 -163 -84s-61 -115.333 -61 -178c0 -19.333 2.83301 -37.5 8.5 -54.5s15.334 -32.667 29.001 -47l34.5 -36c9.33301 -9.66699 25.333 -20.667 48 -33l45.5 -24.5c7.66699 -4 23.5 -11.333 47.5 -22l39 -15c96.667 -44 167.667 -103.833 213 -179.5
s68 -149.5 68 -221.5c0 -121.333 -54 -213.666 -162 -276.999c108 -100 162 -209.667 162 -329c0 -87.333 -30 -161.833 -90 -223.5s-134.333 -92.5 -223 -92.5c-80.667 0 -148 25 -202 75s-81 105.667 -81 167c0 27.333 7.83301 47.166 23.5 59.499
s31.834 18.5 48.501 18.5c19.333 0 35.666 -6.5 48.999 -19.5s20 -29.833 20 -50.5c0 -8 -1.66699 -16.833 -5 -26.5s-11.166 -19.334 -23.499 -29.001s-27.833 -15.167 -46.5 -16.5c23.333 -50.667 56.333 -85.5 99 -104.5s81.334 -28.5 116.001 -28.5
c68 0 122.167 27.667 162.5 83s60.5 115 60.5 179c0 19.333 -2.83301 37.5 -8.5 54.5s-15.334 32.667 -29.001 47l-34.5 36c-9.33301 9.66699 -25.333 20.667 -48 33l-45 24.5c-7.33301 4 -24 10.667 -50 20l-37 17c-96.667 44 -167.667 104 -213 180s-68 150.333 -68 223z
M232.999 527.999c0 -28.667 6.16699 -54.833 18.5 -78.5s30.5 -44.167 54.5 -61.5s46.667 -31.333 68 -42s47.666 -22.834 78.999 -36.501s53.833 -24 67.5 -31s23.834 -10.5 30.501 -10.5c22 0 48 23.333 78 70s45 98 45 154c0 30 -6.5 56.833 -19.5 80.5
s-31.833 44.5 -56.5 62.5s-47.5 32.333 -68.5 43s-46.833 22.834 -77.5 36.501l-65 28.5c-13.333 8 -23.666 12.333 -30.999 13c-24.667 0 -51.334 -24 -80.001 -72s-43 -100 -43 -156z" />
    <glyph glyph-name="dieresis" unicode="&#xa8;" 
d="M205 1241c0 31.333 10.5 57.333 31.5 78s45.833 31 74.5 31c27.333 0 52.333 -10.667 75 -32s34 -47 34 -77s-11.333 -55.167 -34 -75.5s-47.667 -30.5 -75 -30.5c-31.333 0 -56.833 10.5 -76.5 31.5s-29.5 45.833 -29.5 74.5zM602 1241c0 31.333 11 57.333 33 78
s47.333 31 76 31s53.5 -10.333 74.5 -31s31.5 -46.667 31.5 -78c0 -30 -10.833 -55.167 -32.5 -75.5s-46.167 -30.5 -73.5 -30.5c-31.333 0 -57.333 10.5 -78 31.5s-31 45.833 -31 74.5z" />
    <glyph glyph-name="copyright" unicode="&#xa9;" horiz-adv-x="2275" 
d="M113 512c0 200.667 48 383.667 144 549s221.833 293.333 377.5 384s323.167 136 502.5 136c135.333 0 265.333 -27.667 390 -83s233.5 -130 326.5 -224s167.167 -207.667 222.5 -341s83 -273.666 83 -420.999c0 -148.667 -27.667 -289.667 -83 -423
s-129.5 -247 -222.5 -341s-202.333 -168.333 -328 -223s-256 -82 -391 -82s-265 27.667 -390 83s-233.833 130 -326.5 224s-166.667 207.667 -222 341s-83 273.666 -83 420.999zM195 510c0 -276 92.835 -509.167 278.502 -699.5s405.5 -285.5 659.5 -285.5
c169.333 0 326 43.333 470 130s259 205.834 345 357.501s129 318.167 129 499.5c0 182.667 -43.333 350.167 -130 502.5s-201.834 271.166 -345.501 356.499s-297.834 128 -462.501 128c-168 0 -324 -42.667 -468 -128s-259.333 -204.5 -346 -357.5
s-130 -320.833 -130 -503.5zM567.002 489c0 147.333 58.001 273.331 174.001 377.998s253.333 157 412 157c109.333 0 206.333 -37.667 291 -113h2c66.667 74 107 111 121 111c16.667 0 24.667 -14.333 24 -43v-336c0 -19.333 -4.66699 -33.666 -14 -42.999
c-19.333 -13.333 -34.333 -10 -45 10c0 4 -2.33301 16.333 -7 37s-15 49.334 -31 86.001s-35.833 71.5 -59.5 104.5s-58 61.833 -103 86.5s-95.5 37 -151.5 37c-28.667 0 -58 -2.83301 -88 -8.5s-64.833 -18.334 -104.5 -38.001s-74.167 -45.667 -103.5 -78
s-54.333 -78.5 -75 -138.5s-31 -128.667 -31 -206c0 -79.333 10.333 -148.666 31 -207.999s45.667 -105.5 75 -138.5s63.333 -59.333 102 -79s73.5 -32.667 104.5 -39s61.5 -9.5 91.5 -9.5c91.333 0 170.833 27.667 238.5 83s106.167 127.333 115.5 216
c4 31.333 14.167 47.166 30.5 47.499s24.5 -12.5 24.5 -38.5c0 -83.333 -39.167 -166 -117.5 -248s-184.5 -123 -318.5 -123c-162.667 0 -301.334 52.833 -416.001 158.5s-172 230.834 -172 375.501z" />
    <glyph glyph-name="ordfeminine" unicode="&#xaa;" horiz-adv-x="909" 
d="M84 889c0 57.333 41.665 103.003 124.998 137.003s198 52.333 344 55v93c0 121.333 -16.667 209.666 -50 264.999s-70 83 -110 83c-40.667 0 -78.5 -16.833 -113.5 -50.5s-59.833 -83.834 -74.5 -150.501c6.66699 1.33301 17.667 2 33 2c26 0 48.167 -8.83301 66.5 -26.5
s27.5 -39.5 27.5 -65.5s-8.83301 -48.167 -26.5 -66.5s-40.167 -27.5 -67.5 -27.5c-12 0 -24.333 2 -37 6s-25.5 14.5 -38.5 31.5s-19.5 39.833 -19.5 68.5c0 76.667 22.167 150.167 66.5 220.5s107.5 105.5 189.5 105.5c70.667 0 137.834 -31.833 201.501 -95.5
s95.5 -160.167 95.5 -289.5v-301c0 -12 1.5 -21.833 4.5 -29.5s10.167 -14.667 21.5 -21s28 -9.5 50 -9.5c31.333 1.33301 51.5 6.16602 60.5 14.499s13.5 22.833 13.5 43.5v51h51v-47c0 -46.667 -13.333 -79.167 -40 -97.5s-85.667 -28.166 -177 -29.499h-27
c-26 1.33301 -44.667 7.5 -56 18.5s-20.666 32.167 -27.999 63.5c-48 -62.667 -121 -94.334 -219 -95.001c-177.333 0.666992 -266 48.667 -266 144zM93.998 662.003c0 16.667 13 24.667 39 24h635c30 0 45 -7.33301 45 -22c0 -16.667 -15 -25 -45 -25h-633
c-27.333 0 -41 7.66699 -41 23zM245.998 889.003c0 -28.667 12.167 -51.833 36.5 -69.5s54.5 -26.5 90.5 -26.5c36.667 0 71 7.5 103 22.5s54.333 35.5 67 61.5c6.66699 15.333 10 39 10 71v90c-90 -2.66699 -163.667 -17.167 -221 -43.5s-86 -61.5 -86 -105.5z" />
    <glyph glyph-name="guillemotleft" unicode="&#xab;" horiz-adv-x="1136" 
d="M231 496c0 8 10.9971 19.999 32.9971 35.999c57.333 40.667 108.833 84.667 154.5 132s80.834 89.166 105.501 125.499s45.834 69.833 63.501 100.5s32 54.167 43 70.5s19.833 24.5 26.5 24.5c12 0 18.333 -5.33301 19 -16c0 -15.333 -9.16699 -44.833 -27.5 -88.5
s-51.833 -102.667 -100.5 -177s-105 -144.166 -169 -209.499c60 -58.667 114.167 -124.667 162.5 -198s82.833 -133.5 103.5 -180.5s31 -77.833 31 -92.5c0 -12 -6.33301 -18.333 -19 -19c-15.333 0 -26.666 12.333 -33.999 37c-84.667 164 -203.667 302 -357 414
c-23.333 16.667 -35 30.334 -35 41.001zM570.997 493.499c0 7 7.16504 16.668 21.498 29.001s34.833 29 61.5 50s55.667 46.167 87 75.5s67.166 70.666 107.499 123.999s78.5 112.666 114.5 177.999c12 23.333 23.333 35 34 35c13.333 0 20.333 -5.33301 21 -16
c0 -15.333 -9.16699 -44.833 -27.5 -88.5s-52.166 -102.667 -101.499 -177s-106 -144.166 -170 -209.499c60 -58.667 114.5 -124.667 163.5 -198s83.833 -133.5 104.5 -180.5s31 -77.833 31 -92.5c0 -12 -7 -18.333 -21 -19c-15.333 0 -26.666 12.333 -33.999 37
c-48 94 -105.167 176.167 -171.5 246.5s-119.666 120.5 -159.999 150.5s-60.5 48.5 -60.5 55.5z" />
    <glyph glyph-name="logicalnot" unicode="&#xac;" horiz-adv-x="1366" 
d="M115 688c0 27.333 19.666 40.999 58.999 40.999h1012c24.667 0 41.334 -4.83301 50.001 -14.5s13 -27.167 13 -52.5v-412c0 -42 -13.667 -63.167 -41 -63.5s-41 18.834 -41 57.501v403h-987c-43.333 0 -65 13.667 -65 41z" />
    <glyph glyph-name="uni00AD" unicode="&#xad;" horiz-adv-x="681" 
d="M20 381v121h545v-121h-545z" />
    <glyph glyph-name="registered" unicode="&#xae;" horiz-adv-x="2275" 
d="M113 512c0 200.667 48 383.667 144 549s221.833 293.333 377.5 384s323.167 136 502.5 136c135.333 0 265.333 -27.667 390 -83s233.5 -130 326.5 -224s167.167 -207.667 222.5 -341s83 -273.666 83 -420.999c0 -148.667 -27.667 -289.667 -83 -423
s-129.5 -247 -222.5 -341s-202.333 -168.333 -328 -223s-256 -82 -391 -82s-265 27.667 -390 83s-233.833 130 -326.5 224s-166.667 207.667 -222 341s-83 273.666 -83 420.999zM195 510c0 -276 92.835 -509.167 278.502 -699.5s405.5 -285.5 659.5 -285.5
c169.333 0 326 43.333 470 130s259 205.834 345 357.501s129 318.167 129 499.5c0 182.667 -43.333 350.167 -130 502.5s-201.834 271.166 -345.501 356.499s-297.834 128 -462.501 128c-168 0 -324 -42.667 -468 -128s-259.333 -204.5 -346 -357.5
s-130 -320.833 -130 -503.5zM496.002 0l0.0078125 62.9971h26c80.667 0 131.667 5.83301 153 17.5s32 38.167 32 79.5v659c0 42 -10.667 68.5 -32 79.5s-73 16.5 -155 16.5h-24v64h548c174.667 0 304.5 -27.667 389.5 -83s127.5 -115.666 127.5 -180.999
c0 -46.667 -23.667 -90.5 -71 -131.5s-119.333 -73.833 -216 -98.5c38 -13.333 69.333 -27.833 94 -43.5s44.167 -36.167 58.5 -61.5s24.166 -47.166 29.499 -65.499s12.166 -47.666 20.499 -87.999s15.833 -72.833 22.5 -97.5c22 -84.667 59.667 -127 113 -127
c27.333 0 50.5 8.83301 69.5 26.5s31.667 37.167 38 58.5s11.5 42.5 15.5 63.5s6 32.167 6 33.5c5.33301 9.33301 12.666 14.333 21.999 15c16.667 0 25 -11.667 25 -35c0 -15.333 -2.33301 -32.833 -7 -52.5s-12.834 -42.167 -24.501 -67.5s-30.834 -46.5 -57.501 -63.5
s-58.334 -25.5 -95.001 -25.5c-100 0 -180 18.5 -240 55.5s-89.333 99.833 -88 188.5v84c0 61.333 -19.833 107.333 -59.5 138s-92.834 46 -159.501 46h-174v-307c0 -42 11.167 -68.667 33.5 -80s75.166 -17 158.499 -17h19v-63c-101.333 4 -201 6 -299 6
s-197.667 -2 -299 -6zM883.01 511.997h153c32.667 0 60.334 0.666992 83.001 2s50 5.83301 82 13.5s57.667 18.334 77 32.001s36.166 33.667 50.499 60s21.5 58.166 21.5 95.499c0 76.667 -24.333 129.167 -73 157.5s-122 42.5 -220 42.5h-82
c-40.667 0 -66.167 -6 -76.5 -18s-15.5 -36.667 -15.5 -74v-311z" />
    <glyph glyph-name="macron" unicode="&#xaf;" 
d="M141 1329v66h738v-66h-738z" />
    <glyph glyph-name="degree" unicode="&#xb0;" horiz-adv-x="681" 
d="M113 1171c0 62.667 22.167 116.334 66.5 161.001s97.833 67 160.5 67c64 0 117.833 -22.5 161.5 -67.5s65.5 -97.5 65.5 -157.5c0 -62.667 -22.5 -116.334 -67.5 -161.001s-98.167 -67 -159.5 -67c-64 0 -117.833 22.5 -161.5 67.5s-65.5 97.5 -65.5 157.5zM195 1171.5
c0 -41 14.333 -75.167 43 -102.5s62.667 -41 102 -41s73 13.667 101 41s42 61.5 42 102.5s-14.333 75.5 -43 103.5s-62 42 -100 42c-39.333 0 -73.333 -14 -102 -42s-43 -62.5 -43 -103.5z" />
    <glyph glyph-name="plusminus" unicode="&#xb1;" horiz-adv-x="1593" 
d="M115 41c0 26 19 39.667 57 41h582v559h-578c-40.667 0 -61 13.667 -61 41s20.333 41 61 41h578v577c0 40.667 13.667 61.167 41 61.5s41 -20.167 41 -61.5v-577h577c40.667 0 61.167 -13.667 61.5 -41s-20.167 -41 -61.5 -41h-577v-559h577
c40.667 0 61.167 -13.667 61.5 -41s-19.5 -41 -59.5 -41h-1239c-40.667 0 -61 13.667 -61 41z" />
    <glyph glyph-name="acute" unicode="&#xb4;" 
d="M438 1044l134.998 132c65.333 65.333 106.666 104.833 123.999 118.5s33.333 20.5 48 20.5c20.667 0 37.834 -8.16699 51.501 -24.5s20.5 -33.5 20.5 -51.5c0 -8 -1.33301 -15.167 -4 -21.5s-5.66699 -11.833 -9 -16.5s-8.16602 -9.33398 -14.499 -14.001
s-11.166 -8 -14.499 -10l-16 -9.5c-7.33301 -4.33301 -12 -7.16602 -14 -8.49902c-178.667 -101.333 -270.667 -153 -276 -155z" />
    <glyph glyph-name="uni00B5" unicode="&#xb5;" horiz-adv-x="1136" 
d="M63 -336l21.001 0.000976562c64 0 103.167 6.16699 117.5 18.5s21.5 41.166 21.5 86.499v931c0 52 -8.5 84.167 -25.5 96.5s-52.167 19.833 -105.5 22.5h-29v62l304 22v-661c0 -35.333 1 -62.666 3 -81.999s8.5 -41.333 19.5 -66s29 -42.334 54 -53.001
s58.833 -16 101.5 -16c61.333 0 118 26.167 170 78.5s78 136.5 78 252.5c0 5.33301 -0.333008 13.833 -1 25.5s-1 20.5 -1 26.5v309c-1.33301 42 -12 69.5 -32 82.5s-58.667 19.5 -116 19.5h-10v62l301 22v-733c0 -45.333 9.83301 -74.5 29.5 -87.5s59.5 -19.5 119.5 -19.5
h11v-63l-297 -23v181c-54.667 -120 -143 -180.333 -265 -181c-57.333 0 -112.333 9 -165 27v-248c0 -39.333 8.16699 -64.5 24.5 -75.5s57.166 -16.5 122.499 -16.5h10v-63c-79.333 4 -158.333 6 -237 6h-8c-64 0 -136 -2 -216 -6v63z" />
    <glyph glyph-name="paragraph" unicode="&#xb6;" horiz-adv-x="1251" 
d="M113 948c0 50.667 9.83203 102.333 29.499 155s49.667 103.5 90 152.5s97 88.833 170 119.5s155.833 46 248.5 46h471c45.333 0 68 -13.667 68 -41s-21.333 -41 -64 -41h-104v-1656h96c48 0 72 -13.667 72 -41s-20 -41 -60 -41h-522c-39.333 0 -59 13.667 -59 41
c0 28.667 19.667 43 59 43c2.66699 0 5.83398 -0.333008 9.50098 -1s6.16699 -1 7.5 -1h92v788c-170.667 8 -314 55 -430 141s-174 198 -174 336zM798.999 -317.001h141v1656h-141v-1656z" />
    <glyph glyph-name="periodcentered" unicode="&#xb7;" horiz-adv-x="569" 
d="M174 496c0 28.667 10.333 53.501 31 74.501s46.667 31.5 78 31.5c30 0 55.167 -9.83301 75.5 -29.5s30.5 -45.334 30.5 -77.001s-10.833 -57.667 -32.5 -78s-46.167 -30.5 -73.5 -30.5c-31.333 0 -57.333 11 -78 33s-31 47.333 -31 76z" />
    <glyph glyph-name="cedilla" unicode="&#xb8;" horiz-adv-x="909" 
d="M211 -371l25.001 0.00195312c105.333 0 184.166 8.16699 236.499 24.5s78.5 45.833 78.5 88.5c0 27.333 -13 52.166 -39 74.499s-69 35.166 -129 38.499v145h143v-111c112 -26 168 -75 168 -147c0 -106.667 -131 -160 -393 -160h-90v47z" />
    <glyph glyph-name="ordmasculine" unicode="&#xba;" horiz-adv-x="909" 
d="M55 1149c0 117.333 39.3311 216.666 117.998 297.999s171.834 122 279.501 122s200.834 -40.667 279.501 -122s118 -180.666 118 -297.999c0 -112 -38.167 -207.333 -114.5 -286s-170.5 -118 -282.5 -118s-206.333 39.667 -283 119s-115 174.333 -115 285zM93.998 662
c0 16.667 12.333 24.667 37 24h635c31.333 0 47 -7.33301 47 -22c0 -16.667 -15.667 -25 -47 -25h-631c-27.333 0 -41 7.66699 -41 23zM226.998 1155c0 -45.333 0.664062 -80.5029 1.99707 -105.503s7.83301 -56.333 19.5 -94s29.167 -68.167 52.5 -91.5
c40.667 -44 91.334 -65.667 152.001 -65c64 0 117 23.667 159 71c45.333 52 68 144.333 68 277v45c0 64 -4.83301 116.833 -14.5 158.5s-30.167 78.167 -61.5 109.5c-40.667 40.667 -91 61.334 -151 62.001c-65.333 0 -119.333 -24.667 -162 -74
c-19.333 -23.333 -34.166 -51.666 -44.499 -84.999s-16.166 -61.666 -17.499 -84.999s-2 -56 -2 -98v-25z" />
    <glyph glyph-name="guillemotright" unicode="&#xbb;" horiz-adv-x="1136" 
d="M117 22.5c0 12.333 8.16602 38.999 24.499 79.999s49 99.667 98 176s107.833 148.833 176.5 217.5c-60 58.667 -114.333 124.5 -163 197.5s-83.5 133 -104.5 180s-31.5 78.167 -31.5 93.5c0 12 6 18 18 18c10.667 0 22.334 -11.667 35.001 -35
c49.333 -95.333 107 -178.166 173 -248.499s119.167 -120.166 159.5 -149.499s60.5 -48 60.5 -56c0 -6.66699 -7.5 -16.167 -22.5 -28.5l-63.5 -51.5c-27.333 -22 -57 -48 -89 -78s-67.833 -71.333 -107.5 -124s-76.5 -110.334 -110.5 -173.001
c-13.333 -24.667 -25 -37 -35 -37c-12 0 -18 6.16699 -18 18.5zM456.999 22.499c0 12.333 8.16504 38.999 24.498 79.999s49 99.333 98 175s107.833 148.5 176.5 218.5c-60 58.667 -114.333 124.5 -163 197.5s-83.5 133 -104.5 180s-31.5 78.167 -31.5 93.5
c0 12 6.66699 18 20 18c10.667 0 22.334 -11.667 35.001 -35c49.333 -95.333 107 -178.166 173 -248.499s118.833 -120.166 158.5 -149.499s59.5 -48 59.5 -56c0 -6.66699 -7.5 -16.167 -22.5 -28.5l-63.5 -51.5c-27.333 -22 -56.666 -48 -87.999 -78
s-66.833 -71.333 -106.5 -124s-76.5 -110.334 -110.5 -173.001c-13.333 -24.667 -25 -37 -35 -37c-13.333 0 -20 6.16699 -20 18.5z" />
    <glyph glyph-name="questiondown" unicode="&#xbf;" horiz-adv-x="966" 
d="M113 -141c0 35.333 5.66699 67.668 17 97.001s22.833 51.166 34.5 65.499s30.167 32.833 55.5 55.5s41.333 38 48 46c106.667 113.333 160 260 160 440v31c-1.33301 31.333 7.66699 47 27 47c18 0 26.667 -18.333 26 -55v-13c0 -96.667 -8.5 -186.334 -25.5 -269.001
s-52.833 -165 -107.5 -247c-16.667 -22 -28.334 -39 -35.001 -51s-13 -32 -19 -60s-9 -62 -9 -102c0 -27.333 0.333008 -48.5 1 -63.5s4 -33.667 10 -56s14.833 -39.666 26.5 -51.999s29.167 -23.333 52.5 -33s51.333 -14.5 84 -14.5c143.333 0 248.333 46.333 315 139h-10
c-34 0 -59.167 9.66699 -75.5 29s-24.5 41.333 -24.5 66c0 27.333 8.83301 49.5 26.5 66.5s39.5 25.5 65.5 25.5c22 0 43.5 -7.83301 64.5 -23.5s31.5 -41.5 31.5 -77.5c0 -79.333 -38.5 -144.166 -115.5 -194.499s-168.833 -75.5 -275.5 -75.5
c-69.333 0 -128.666 9.16699 -177.999 27.5s-85.333 42.666 -108 72.999s-38.667 59.833 -48 88.5s-14 58.667 -14 90zM346 915.002c0 31.333 11 57.333 33 78s47.333 31 76 31s53.5 -10.167 74.5 -30.5s31.5 -46.5 31.5 -78.5c0 -30 -10.833 -55.167 -32.5 -75.5
s-46.167 -30.5 -73.5 -30.5c-31.333 0 -57.333 10.5 -78 31.5s-31 45.833 -31 74.5z" />
    <glyph glyph-name="Agrave" unicode="&#xc0;" horiz-adv-x="1536" 
d="M66 0l0.000976562 63c121.333 2.66699 197.666 48.667 228.999 138l424 1224c5.33301 16.667 11 27.667 17 33s16.667 8 32 8c8 0 14.5 -0.666992 19.5 -2s9.16699 -4.33301 12.5 -9s5.66602 -8.33398 6.99902 -11.001s4 -9 8 -19l442 -1280
c10.667 -34 27 -56.167 49 -66.5s64 -15.5 126 -15.5h36v-63c-86 4 -175.333 6 -268 6c-147.333 0 -245.666 -2 -294.999 -6v63c113.333 0 170 20.667 170 62c0 2.66699 -2 12.334 -6 29.001l-108 313h-506l-95 -268c-2.66699 -5.33301 -4 -15.666 -4 -30.999
c0 -28.667 13.333 -53.334 40 -74.001s64.667 -31 114 -31v-63c-131.333 4 -210 6 -236 6c-44.667 0 -114 -2 -208 -6zM477.001 530h461l-231 666zM479.001 1690c0 18 6.50195 35.001 19.502 51.001s29.833 24 50.5 24c13.333 0 33.666 -7.83301 60.999 -23.5
s121.666 -73.834 282.999 -174.501l-23 -49c-9.33301 2.66699 -111 34 -305 94c-19.333 5.33301 -33.333 10 -42 14s-18.167 11.5 -28.5 22.5s-15.5 24.833 -15.5 41.5z" />
    <glyph glyph-name="Aacute" unicode="&#xc1;" horiz-adv-x="1536" 
d="M66 0l0.000976562 63c121.333 2.66699 197.666 48.667 228.999 138l424 1224c5.33301 16.667 11 27.667 17 33s16.667 8 32 8c8 0 14.5 -0.666992 19.5 -2s9.16699 -4.33301 12.5 -9s5.66602 -8.33398 6.99902 -11.001s4 -9 8 -19l442 -1280
c10.667 -34 27 -56.167 49 -66.5s64 -15.5 126 -15.5h36v-63c-86 4 -175.333 6 -268 6c-147.333 0 -245.666 -2 -294.999 -6v63c113.333 0 170 20.667 170 62c0 2.66699 -2 12.334 -6 29.001l-108 313h-506l-95 -268c-2.66699 -5.33301 -4 -15.666 -4 -30.999
c0 -28.667 13.333 -53.334 40 -74.001s64.667 -31 114 -31v-63c-131.333 4 -210 6 -236 6c-44.667 0 -114 -2 -208 -6zM477.001 530h461l-231 666zM586.001 1567c204.667 126.667 313.668 192 327.001 196c4 1.33301 9.66699 2 17 2c19.333 0 35.666 -8.16699 48.999 -24.5
s20 -33.5 20 -51.5c0 -39.333 -28.667 -64.333 -86 -75l-307 -95z" />
    <glyph glyph-name="Acircumflex" unicode="&#xc2;" horiz-adv-x="1536" 
d="M66 0l0.000976562 63c121.333 2.66699 197.666 48.667 228.999 138l424 1224c5.33301 16.667 11 27.667 17 33s16.667 8 32 8c8 0 14.5 -0.666992 19.5 -2s9.16699 -4.33301 12.5 -9s5.66602 -8.33398 6.99902 -11.001s4 -9 8 -19l442 -1280
c10.667 -34 27 -56.167 49 -66.5s64 -15.5 126 -15.5h36v-63c-86 4 -175.333 6 -268 6c-147.333 0 -245.666 -2 -294.999 -6v63c113.333 0 170 20.667 170 62c0 2.66699 -2 12.334 -6 29.001l-108 313h-506l-95 -268c-2.66699 -5.33301 -4 -15.666 -4 -30.999
c0 -28.667 13.333 -53.334 40 -74.001s64.667 -31 114 -31v-63c-131.333 4 -210 6 -236 6c-44.667 0 -114 -2 -208 -6zM477.001 530h461l-231 666zM494.001 1559l272 288h2l272 -288l-34 -35h-2l-236 215h-2l-236 -215h-2z" />
    <glyph glyph-name="Atilde" unicode="&#xc3;" horiz-adv-x="1536" 
d="M66 0l0.000976562 63c121.333 2.66699 197.666 48.667 228.999 138l424 1224c5.33301 16.667 11 27.667 17 33s16.667 8 32 8c8 0 14.5 -0.666992 19.5 -2s9.16699 -4.33301 12.5 -9s5.66602 -8.33398 6.99902 -11.001s4 -9 8 -19l442 -1280
c10.667 -34 27 -56.167 49 -66.5s64 -15.5 126 -15.5h36v-63c-86 4 -175.333 6 -268 6c-147.333 0 -245.666 -2 -294.999 -6v63c113.333 0 170 20.667 170 62c0 2.66699 -2 12.334 -6 29.001l-108 313h-506l-95 -268c-2.66699 -5.33301 -4 -15.666 -4 -30.999
c0 -28.667 13.333 -53.334 40 -74.001s64.667 -31 114 -31v-63c-131.333 4 -210 6 -236 6c-44.667 0 -114 -2 -208 -6zM369.001 1685c2.66699 2.66699 10.167 11.166 22.5 25.499l23.5 27c3.33301 3.66699 10.833 11.334 22.5 23.001s20.167 19.167 25.5 22.5l25.5 16
c11.667 7.33301 22.334 12 32.001 14s20.834 4.5 33.501 7.5s26 4.5 40 4.5c36.667 0 97.334 -12.667 182.001 -38s146.334 -38 185.001 -38c58.667 0 115 26 169 78l35 -33c-2.66699 -2.66699 -11.167 -12.5 -25.5 -29.5s-23.5 -27.333 -27.5 -31s-12.5 -12 -25.5 -25
s-23.333 -21.167 -31 -24.5s-17.834 -8.33301 -30.501 -15s-25.834 -11 -39.501 -13s-28.834 -3 -45.501 -3c-38 0 -99.333 12.833 -184 38.5s-145.667 38.5 -183 38.5c-58.667 0 -115.334 -25.667 -170.001 -77zM477.001 529.999h461l-231 666z" />
    <glyph glyph-name="Adieresis" unicode="&#xc4;" horiz-adv-x="1536" 
d="M66 0l0.000976562 63c121.333 2.66699 197.666 48.667 228.999 138l424 1224c5.33301 16.667 11 27.667 17 33s16.667 8 32 8c8 0 14.5 -0.666992 19.5 -2s9.16699 -4.33301 12.5 -9s5.66602 -8.33398 6.99902 -11.001s4 -9 8 -19l442 -1280
c10.667 -34 27 -56.167 49 -66.5s64 -15.5 126 -15.5h36v-63c-86 4 -175.333 6 -268 6c-147.333 0 -245.666 -2 -294.999 -6v63c113.333 0 170 20.667 170 62c0 2.66699 -2 12.334 -6 29.001l-108 313h-506l-95 -268c-2.66699 -5.33301 -4 -15.666 -4 -30.999
c0 -28.667 13.333 -53.334 40 -74.001s64.667 -31 114 -31v-63c-131.333 4 -210 6 -236 6c-44.667 0 -114 -2 -208 -6zM461.001 1665c0 28.667 10.167 54 30.5 76s45.5 33 75.5 33c27.333 0 52.333 -10.667 75 -32s34 -47 34 -77s-11.333 -55.167 -34 -75.5
s-47.667 -30.5 -75 -30.5c-30 0 -55.167 10.833 -75.5 32.5s-30.5 46.167 -30.5 73.5zM477.001 530h461l-231 666zM858.001 1665c0 31.333 10.668 57.334 32.001 78.001s46.333 31 75 31c31.333 0 57.166 -11 77.499 -33s30.5 -46.667 30.5 -74
c0 -28.667 -10.167 -53.834 -30.5 -75.501s-45.5 -32.5 -75.5 -32.5c-27.333 0 -52.333 10.167 -75 30.5s-34 45.5 -34 75.5z" />
    <glyph glyph-name="Aring" unicode="&#xc5;" horiz-adv-x="1536" 
d="M66 0l-0.00292969 63.0029c44 1.33301 80.5 6.16602 109.5 14.499s52 23.166 69 44.499s29 39.166 36 53.499s16.5 38.5 28.5 72.5l365 1046c4 15.333 11.5 37.666 22.5 66.999s18.5 51.333 22.5 66c-98 38 -147.333 111.333 -148 220
c0 57.333 17.833 108.833 53.5 154.5s82.834 68.5 141.501 68.5c57.333 0 104.5 -22.5 141.5 -67.5s55.5 -96.833 55.5 -155.5c0 -108 -49.333 -181.333 -148 -220l430 -1243c20.667 -57.333 40.834 -91.833 60.501 -103.5s71.167 -17.5 154.5 -17.5h8v-63
c-87.333 4 -174.666 6 -261.999 6c-100 0 -200.333 -2 -301 -6v63h4c108 0 162 22 162 66c0 10.667 -36.667 123.334 -110 338.001h-508c-8 -27.333 -21 -65.5 -39 -114.5s-32.167 -89.667 -42.5 -122s-15.5 -53.833 -15.5 -64.5c0 -24.667 12 -47.5 36 -68.5
s62.667 -32.5 116 -34.5v-63c-79.333 4 -159.333 6 -240 6c-66.667 0 -134 -2 -202 -6zM474.997 530.003h463l-231 666zM622.997 1649c0 -68 14.667 -115.167 44 -141.5s63 -39.5 101 -39.5s71.333 13 100 39s43 72 43 138c0 68 -14.667 115 -44 141s-63 39 -101 39
s-71.333 -13 -100 -39s-43 -71.667 -43 -137z" />
    <glyph glyph-name="AE" unicode="&#xc6;" horiz-adv-x="1849" 
d="M66 0l-0.000976562 63.001c44 1.33301 80.5 6.5 109.5 15.5s52.333 23.833 70 44.5s30.667 38.5 39 53.5s17.833 38.833 28.5 71.5l392 1085l-177 2v64h1149l58 -461h-54c-6.66699 56 -13 99.333 -19 130s-14.5 63.5 -25.5 98.5s-24.667 61 -41 78
s-37.833 33.667 -64.5 50s-58.5 27.166 -95.5 32.499s-82.167 8 -135.5 8h-143c-2.66699 0 -7.83398 0.333008 -15.501 1s-14.167 1 -19.5 1c-44 0 -71.667 -6.16699 -83 -18.5s-17 -33.5 -17 -63.5v-550h154c32.667 0 58.5 1 77.5 3s40.5 6.66699 64.5 14
s42.833 20.666 56.5 39.999s22.5 44 26.5 74c4 23.333 6 58.666 6 105.999h51v-541h-51v23c0 92.667 -16.667 152 -50 178s-93.666 39 -180.999 39h-154v-502c1.33301 -32.667 9.5 -53.5 24.5 -62.5s42.167 -13.5 81.5 -13.5h185c49.333 0 92.666 3.83301 129.999 11.5
s69.333 16.667 96 27s50.167 27.333 70.5 51s36.333 44.834 48 63.501s23.334 48.5 35.001 89.5s19.834 74.667 24.501 101l22 121.5h51l-86 -528h-1010v63h17c57.333 0 94.833 4.83301 112.5 14.5s27.167 32.167 28.5 67.5v496h-330l-51 -140l-79 -222.5
c-22.667 -65.667 -34 -103.167 -34 -112.5c0 -24.667 11.667 -47.167 35 -67.5s61.666 -32.166 114.999 -35.499v-63c-79.333 4 -158.666 6 -237.999 6c-54 0 -122 -2 -204 -6zM544.999 705.001l307.003 0.000976562v522c0 18 -0.333008 31 -1 39
s-3.33398 17.167 -8.00098 27.5s-12.834 18.166 -24.501 23.499s-27.834 9.33301 -48.501 12z" />
    <glyph glyph-name="Ccedilla" unicode="&#xc7;" horiz-adv-x="1478" 
d="M113 700c0 210 71.333 386.501 214 529.501s309.334 214.5 500.001 214.5c142 0 267.667 -58.667 377 -176c74 116 119 174 135 174h2c1.33301 -1.33301 3 -2 5 -2c12 -4 18 -18.333 18 -43v-496c0 -27.333 -11 -41 -33 -41c-6.66699 0 -14 2.66699 -22 8
c-4 4 -7.5 14.333 -10.5 31s-8.16699 41.334 -15.5 74.001s-17.333 64.667 -30 96c-39.333 98 -94.5 174.333 -165.5 229s-150.833 82 -239.5 82c-100 0 -191.5 -29 -274.5 -87s-144.5 -132.667 -184.5 -224c-44 -100 -65.667 -223.667 -65 -371
c0 -109.333 12.833 -205.833 38.5 -289.5s57.667 -149.5 96 -197.5s82.833 -87.333 133.5 -118s96.834 -50.834 138.501 -60.501s82.167 -14.5 121.5 -14.5c121.333 0 225.333 42.667 312 128s135.667 190.333 147 315c0 2.66699 0.333008 6.66699 1 12s1 9.33301 1 12
s0.666992 6.16699 2 10.5s2.66602 7.5 3.99902 9.5s3.66602 3.66699 6.99902 5s7.66602 2 12.999 2c16.667 0 25 -14.333 25 -43c0 -38 -7.5 -81 -22.5 -129s-38.5 -98.5 -70.5 -151.5s-80.167 -100.667 -144.5 -143s-138.833 -71.166 -223.5 -86.499v-70
c19.333 -2.66699 38.833 -7 58.5 -13s43.167 -21 70.5 -45s41 -53.667 41 -89c0 -60 -36.833 -101.667 -110.5 -125s-189.167 -35 -346.5 -35h-28v47h24c101.333 0 179.333 7.5 234 22.5s82 44.5 82 88.5c0 28.667 -12.667 54.167 -38 76.5s-68.666 35.166 -129.999 38.499
v104c-191.333 22 -347 104.167 -467 246.5s-180 307.166 -180 494.499z" />
    <glyph glyph-name="Egrave" unicode="&#xc8;" horiz-adv-x="1392" 
d="M68 0l0.000976562 62.999h49c74 0 119.5 6.16699 136.5 18.5s25.5 38.5 25.5 78.5v1073c0 39.333 -8.66699 65.166 -26 77.499s-62.666 18.5 -135.999 18.5h-49v64h1153l57 -461h-51c-9.33301 78 -20.166 139.5 -32.499 184.5s-33.333 84.833 -63 119.5
s-68.667 58.834 -117 72.501s-111.5 20.5 -189.5 20.5h-264c-46.667 0 -75 -4.83301 -85 -14.5s-15 -32.167 -15 -67.5v-491h184c94 0 154.333 16.333 181 49s40 96 40 190h52v-542h-52c0 92.667 -13.333 155.667 -40 189s-87 50 -181 50h-184v-547
c0 -35.333 5.16699 -57.833 15.5 -67.5s38.5 -14.5 84.5 -14.5h273c58.667 0 109.5 3.83301 152.5 11.5s79.5 21 109.5 40s55.167 39.5 75.5 61.5s37.666 52.833 51.999 92.5s25.666 77.834 33.999 114.501s17.166 85 26.499 145h51l-86 -528h-1181zM480.001 1689
c0 18 6.33301 35.167 19 51.5s29.334 24.5 50.001 24.5c13.333 0 31.333 -6.5 54 -19.5s119.334 -72.5 290.001 -178.5l-22 -48c-9.33301 2.66699 -111 34.334 -305 95.001c-16.667 5.33301 -27.334 8.66602 -32.001 9.99902s-12.834 5 -24.501 11s-19.5 13.5 -23.5 22.5
s-6 19.5 -6 31.5z" />
    <glyph glyph-name="Eacute" unicode="&#xc9;" horiz-adv-x="1392" 
d="M68 0l0.000976562 62.999h49c74 0 119.5 6.16699 136.5 18.5s25.5 38.5 25.5 78.5v1073c0 39.333 -8.66699 65.166 -26 77.499s-62.666 18.5 -135.999 18.5h-49v64h1153l57 -461h-51c-9.33301 78 -20.166 139.5 -32.499 184.5s-33.333 84.833 -63 119.5
s-68.667 58.834 -117 72.501s-111.5 20.5 -189.5 20.5h-264c-46.667 0 -75 -4.83301 -85 -14.5s-15 -32.167 -15 -67.5v-491h184c94 0 154.333 16.333 181 49s40 96 40 190h52v-542h-52c0 92.667 -13.333 155.667 -40 189s-87 50 -181 50h-184v-547
c0 -35.333 5.16699 -57.833 15.5 -67.5s38.5 -14.5 84.5 -14.5h273c58.667 0 109.5 3.83301 152.5 11.5s79.5 21 109.5 40s55.167 39.5 75.5 61.5s37.666 52.833 51.999 92.5s25.666 77.834 33.999 114.501s17.166 85 26.499 145h51l-86 -528h-1181zM615.001 1567
c204.667 126.667 313.668 192 327.001 196c4 1.33301 9.66699 2 17 2c19.333 0 35.666 -8.16699 48.999 -24.5s20 -33.5 20 -51.5c0 -39.333 -28.667 -64.333 -86 -75l-307 -95z" />
    <glyph glyph-name="Ecircumflex" unicode="&#xca;" horiz-adv-x="1392" 
d="M68 0l0.000976562 62.999h49c74 0 119.5 6.16699 136.5 18.5s25.5 38.5 25.5 78.5v1073c0 39.333 -8.66699 65.166 -26 77.499s-62.666 18.5 -135.999 18.5h-49v64h1153l57 -461h-51c-9.33301 78 -20.166 139.5 -32.499 184.5s-33.333 84.833 -63 119.5
s-68.667 58.834 -117 72.501s-111.5 20.5 -189.5 20.5h-264c-46.667 0 -75 -4.83301 -85 -14.5s-15 -32.167 -15 -67.5v-491h184c94 0 154.333 16.333 181 49s40 96 40 190h52v-542h-52c0 92.667 -13.333 155.667 -40 189s-87 50 -181 50h-184v-547
c0 -35.333 5.16699 -57.833 15.5 -67.5s38.5 -14.5 84.5 -14.5h273c58.667 0 109.5 3.83301 152.5 11.5s79.5 21 109.5 40s55.167 39.5 75.5 61.5s37.666 52.833 51.999 92.5s25.666 77.834 33.999 114.501s17.166 85 26.499 145h51l-86 -528h-1181zM436.001 1559l275 288h2
l272 -288l-37 -35l-235 215h-2l-236 -215h-2z" />
    <glyph glyph-name="Edieresis" unicode="&#xcb;" horiz-adv-x="1392" 
d="M68 0l0.000976562 62.999h49c74 0 119.5 6.16699 136.5 18.5s25.5 38.5 25.5 78.5v1073c0 39.333 -8.66699 65.166 -26 77.499s-62.666 18.5 -135.999 18.5h-49v64h1153l57 -461h-51c-9.33301 78 -20.166 139.5 -32.499 184.5s-33.333 84.833 -63 119.5
s-68.667 58.834 -117 72.501s-111.5 20.5 -189.5 20.5h-264c-46.667 0 -75 -4.83301 -85 -14.5s-15 -32.167 -15 -67.5v-491h184c94 0 154.333 16.333 181 49s40 96 40 190h52v-542h-52c0 92.667 -13.333 155.667 -40 189s-87 50 -181 50h-184v-547
c0 -35.333 5.16699 -57.833 15.5 -67.5s38.5 -14.5 84.5 -14.5h273c58.667 0 109.5 3.83301 152.5 11.5s79.5 21 109.5 40s55.167 39.5 75.5 61.5s37.666 52.833 51.999 92.5s25.666 77.834 33.999 114.501s17.166 85 26.499 145h51l-86 -528h-1181zM404.001 1665
c0 31.333 10.5 57.333 31.5 78s45.833 31 74.5 31c27.333 0 52.333 -10.667 75 -32s34 -47 34 -77s-11.333 -55.167 -34 -75.5s-47.667 -30.5 -75 -30.5c-31.333 0 -56.833 10.5 -76.5 31.5s-29.5 45.833 -29.5 74.5zM801.001 1665c0 31.333 11 57.333 33 78
s47.333 31 76 31s53.5 -10.333 74.5 -31s31.5 -46.667 31.5 -78c0 -30 -10.833 -55.167 -32.5 -75.5s-46.167 -30.5 -73.5 -30.5c-31.333 0 -57.333 10.5 -78 31.5s-31 45.833 -31 74.5z" />
    <glyph glyph-name="Igrave" unicode="&#xcc;" horiz-adv-x="739" 
d="M57 0l-0.000976562 63h54c76.667 0 123.834 6.16699 141.501 18.5s26.5 38.5 26.5 78.5v1079c0 39.333 -9 65.166 -27 77.499s-65 18.5 -141 18.5h-54v64c48 -4 152.667 -6 314 -6c160 0 263.667 2 311 6v-64h-53c-76.667 0 -123.834 -6.16699 -141.501 -18.5
s-26.5 -38.166 -26.5 -77.499v-1079c0 -39.333 8.83301 -65.333 26.5 -78s64.834 -19 141.501 -19h53v-63c-48 4 -152.333 6 -313 6c-160 0 -264 -2 -312 -6zM108.999 1690c0 18 6.33203 35 18.999 51s29.334 24 50.001 24h4c10.667 0 28.667 -7.5 54 -22.5l284 -175.5
l-20 -49c-12 2.66699 -113 34 -303 94c-19.333 5.33301 -33.833 10 -43.5 14s-19.5 11.5 -29.5 22.5s-15 24.833 -15 41.5z" />
    <glyph glyph-name="Iacute" unicode="&#xcd;" horiz-adv-x="739" 
d="M57 0l-0.000976562 63h54c76.667 0 123.834 6.16699 141.501 18.5s26.5 38.5 26.5 78.5v1079c0 39.333 -9 65.166 -27 77.499s-65 18.5 -141 18.5h-54v64c48 -4 152.667 -6 314 -6c160 0 263.667 2 311 6v-64h-53c-76.667 0 -123.834 -6.16699 -141.501 -18.5
s-26.5 -38.166 -26.5 -77.499v-1079c0 -39.333 8.83301 -65.333 26.5 -78s64.834 -19 141.501 -19h53v-63c-48 4 -152.333 6 -313 6c-160 0 -264 -2 -312 -6zM165.999 1567l158 97.999c106.667 66.667 168 100 184 100c20.667 0 37.5 -8.16699 50.5 -24.5
s19.5 -33.166 19.5 -50.499c0 -16.667 -5.16699 -30.834 -15.5 -42.501s-20 -19.167 -29 -22.5s-22.833 -7.66602 -41.5 -12.999c-190 -60 -291.333 -91.333 -304 -94z" />
    <glyph glyph-name="Icircumflex" unicode="&#xce;" horiz-adv-x="739" 
d="M57 0l-0.000976562 63h54c76.667 0 123.834 6.16699 141.501 18.5s26.5 38.5 26.5 78.5v1079c0 39.333 -9 65.166 -27 77.499s-65 18.5 -141 18.5h-54v64c48 -4 152.667 -6 314 -6c160 0 263.667 2 311 6v-64h-53c-76.667 0 -123.834 -6.16699 -141.501 -18.5
s-26.5 -38.166 -26.5 -77.499v-1079c0 -39.333 8.83301 -65.333 26.5 -78s64.834 -19 141.501 -19h53v-63c-48 4 -152.333 6 -313 6c-160 0 -264 -2 -312 -6zM93.999 1561l273 286h2l272 -288l-37 -35l-235 215h-2l-236 -215z" />
    <glyph glyph-name="Idieresis" unicode="&#xcf;" horiz-adv-x="739" 
d="M57 0l-0.000976562 63h54c76.667 0 123.834 6.16699 141.501 18.5s26.5 38.5 26.5 78.5v1079c0 39.333 -9 65.166 -27 77.499s-65 18.5 -141 18.5h-54v64c48 -4 152.667 -6 314 -6c160 0 263.667 2 311 6v-64h-53c-76.667 0 -123.834 -6.16699 -141.501 -18.5
s-26.5 -38.166 -26.5 -77.499v-1079c0 -39.333 8.83301 -65.333 26.5 -78s64.834 -19 141.501 -19h53v-63c-48 4 -152.333 6 -313 6c-160 0 -264 -2 -312 -6zM60.999 1665c0 31.333 11 57.333 33 78s47.333 31 76 31s53.5 -10.333 74.5 -31s31.5 -46.667 31.5 -78
c0 -30 -10.833 -55.167 -32.5 -75.5s-46.167 -30.5 -73.5 -30.5c-31.333 0 -57.333 10.5 -78 31.5s-31 45.833 -31 74.5zM458.999 1665c0 31.333 10.499 57.333 31.499 78s45.833 31 74.5 31c27.333 0 52.333 -10.667 75 -32s34 -47 34 -77s-11 -55.167 -33 -75.5
s-46.667 -30.5 -74 -30.5c-31.333 0 -57.166 10.5 -77.499 31.5s-30.5 45.833 -30.5 74.5z" />
    <glyph glyph-name="Eth" unicode="&#xd0;" horiz-adv-x="1564" 
d="M70 0v62.998h22c80.667 0 132.334 5.5 155.001 16.5s34 36.5 34 76.5v499c-12 0 -30.167 -0.333008 -54.5 -1s-42.5 -1 -54.5 -1c-42 0 -68.167 1.5 -78.5 4.5s-17.5 9.83301 -21.5 20.5v10c0 19.333 16.333 29 49 29c6.66699 0 15.5 0.333008 26.5 1s19.833 1 26.5 1
c12 0 29.667 -0.333008 53 -1s41.333 -1 54 -1v526c0 39.333 -11.333 64.5 -34 75.5s-74.334 16.5 -155.001 16.5h-22v64h710c136.667 0 250.667 -28.667 342 -86c101.333 -62.667 181 -150.667 239 -264s87 -233.666 87 -360.999c0 -176 -53 -329.167 -159 -459.5
s-238.667 -205.166 -398 -224.499c-22 -2.66699 -55.333 -4 -100 -4h-721zM459 136.998c1.33301 -35.333 9.49902 -56.5 24.499 -63.5s54.5 -10.5 118.5 -10.5h150c174.667 0 305 64.333 391 193c66.667 96.667 100 242 100 436c0 202 -35.333 353.667 -106 455
c-87.333 125.333 -215.666 188 -384.999 188h-35c-13.333 0 -32.333 0.333008 -57 1s-44 1 -58 1h-20c-49.333 0 -81.833 -4 -97.5 -12s-24.167 -29 -25.5 -63v-545h340c30 -2.66699 45 -13 45 -31s-15.667 -28.333 -47 -31h-338v-518z" />
    <glyph glyph-name="Ntilde" unicode="&#xd1;" horiz-adv-x="1536" 
d="M68 0l0.00195312 63c49.333 0 89.666 4.83301 120.999 14.5s52.666 23.667 63.999 42s18.5 33.666 21.5 45.999s4.5 28.833 4.5 49.5v1069c0 19.333 -2.5 31.333 -7.5 36s-19.167 8.33398 -42.5 11.001c-40.667 2.66699 -74.667 4 -102 4h-59v64h348
c19.333 0 31.666 -1.33301 36.999 -4s12.666 -10.334 21.999 -23.001l723 -1063v875c0 20.667 -1.33301 37 -4 49s-9.83398 27.333 -21.501 46s-33.167 32.667 -64.5 42s-71.666 14 -120.999 14v64c143.333 -4 223.166 -6 239.499 -6s96.166 2 239.499 6v-64
c-49.333 0 -89.666 -4.66699 -120.999 -14s-52.666 -23.333 -63.999 -42s-18.5 -34.167 -21.5 -46.5s-4.5 -28.5 -4.5 -48.5v-1131c0 -22 -1.33301 -36.333 -4 -43s-10.667 -10 -24 -10c-9.33301 0 -21 9 -35 27l-836 1228c-5.33301 8 -12 16.333 -20 25v-1065
c0 -20.667 1.33301 -37.167 4 -49.5s9.83398 -27.666 21.501 -45.999s33.167 -32.333 64.5 -42s71.666 -14.5 120.999 -14.5v-63c-143.333 4 -223.166 6 -239.499 6s-96.166 -2 -239.499 -6zM369.002 1685c2.66699 2.66699 10.167 11.166 22.5 25.499l23.5 27
c3.33301 3.66699 10.833 11.334 22.5 23.001s20.167 19.167 25.5 22.5l25.5 16c11.667 7.33301 22.334 12 32.001 14s20.834 4.5 33.501 7.5s26 4.5 40 4.5c36.667 0 97.334 -12.667 182.001 -38s146.334 -38 185.001 -38c58.667 0 115 26 169 78l35 -33
c-2.66699 -2.66699 -11.167 -12.5 -25.5 -29.5s-23.5 -27.333 -27.5 -31s-12.5 -12 -25.5 -25s-23.333 -21.167 -31 -24.5s-17.834 -8.33301 -30.501 -15s-25.834 -11 -39.501 -13s-28.834 -3 -45.501 -3c-38 0 -99.333 12.833 -184 38.5s-145.667 38.5 -183 38.5
c-58.667 0 -115.334 -25.667 -170.001 -77z" />
    <glyph glyph-name="Ograve" unicode="&#xd2;" horiz-adv-x="1591" 
d="M115 694c0 208.667 66.833 385.833 200.5 531.5s293.5 218.5 479.5 218.5c187.333 0 347.833 -73 481.5 -219s200.5 -323 200.5 -531c0 -206 -67 -380.667 -201 -524s-294.333 -215 -481 -215c-184 0 -343.333 71.333 -478 214s-202 317.667 -202 525zM326 722.999
c0 -126.667 14.998 -238.501 44.998 -335.501s69.167 -171.833 117.5 -224.5s98.5 -91.667 150.5 -117s104.667 -38 158 -38c52 0 103.5 12.333 154.5 37s100.833 63 149.5 115s88.334 126.667 119.001 224s46 210.333 46 339c0 100 -10.667 190.167 -32 270.5
s-48.666 144.833 -81.999 193.5s-71.5 89 -114.5 121s-84.667 54.167 -125 66.5s-79.5 18.5 -117.5 18.5c-48 0 -97 -10.667 -147 -32s-100.167 -55.5 -150.5 -102.5s-91.5 -116.667 -123.5 -209s-48 -201.166 -48 -326.499zM563.998 1689c0 18 6.33301 35.167 19 51.5
s29.334 24.5 50.001 24.5c13.333 0 31.333 -6.5 54 -19.5s119.334 -72.5 290.001 -178.5l-22 -48c-9.33301 2.66699 -111 34.334 -305 95.001c-16.667 5.33301 -27.334 8.66602 -32.001 9.99902s-12.834 5 -24.501 11s-19.5 13.5 -23.5 22.5s-6 19.5 -6 31.5z" />
    <glyph glyph-name="Oacute" unicode="&#xd3;" horiz-adv-x="1591" 
d="M115 694c0 208.667 66.833 385.833 200.5 531.5s293.5 218.5 479.5 218.5c187.333 0 347.833 -73 481.5 -219s200.5 -323 200.5 -531c0 -206 -67 -380.667 -201 -524s-294.333 -215 -481 -215c-184 0 -343.333 71.333 -478 214s-202 317.667 -202 525zM326 722.999
c0 -126.667 14.998 -238.501 44.998 -335.501s69.167 -171.833 117.5 -224.5s98.5 -91.667 150.5 -117s104.667 -38 158 -38c52 0 103.5 12.333 154.5 37s100.833 63 149.5 115s88.334 126.667 119.001 224s46 210.333 46 339c0 100 -10.667 190.167 -32 270.5
s-48.666 144.833 -81.999 193.5s-71.5 89 -114.5 121s-84.667 54.167 -125 66.5s-79.5 18.5 -117.5 18.5c-48 0 -97 -10.667 -147 -32s-100.167 -55.5 -150.5 -102.5s-91.5 -116.667 -123.5 -209s-48 -201.166 -48 -326.499zM614.998 1567
c204.667 126.667 313.668 192 327.001 196c4 1.33301 9.66699 2 17 2c19.333 0 35.666 -8.16699 48.999 -24.5s20 -33.5 20 -51.5c0 -39.333 -28.667 -64.333 -86 -75l-307 -95z" />
    <glyph glyph-name="Ocircumflex" unicode="&#xd4;" horiz-adv-x="1591" 
d="M115 694c0 208.667 66.833 385.833 200.5 531.5s293.5 218.5 479.5 218.5c187.333 0 347.833 -73 481.5 -219s200.5 -323 200.5 -531c0 -206 -67 -380.667 -201 -524s-294.333 -215 -481 -215c-184 0 -343.333 71.333 -478 214s-202 317.667 -202 525zM326 722.999
c0 -126.667 14.998 -238.501 44.998 -335.501s69.167 -171.833 117.5 -224.5s98.5 -91.667 150.5 -117s104.667 -38 158 -38c52 0 103.5 12.333 154.5 37s100.833 63 149.5 115s88.334 126.667 119.001 224s46 210.333 46 339c0 100 -10.667 190.167 -32 270.5
s-48.666 144.833 -81.999 193.5s-71.5 89 -114.5 121s-84.667 54.167 -125 66.5s-79.5 18.5 -117.5 18.5c-48 0 -97 -10.667 -147 -32s-100.167 -55.5 -150.5 -102.5s-91.5 -116.667 -123.5 -209s-48 -201.166 -48 -326.499zM521.998 1559v2l273 286h2l272 -286v-2l-35 -35
h-2l-235 215h-2l-236 -215h-2z" />
    <glyph glyph-name="Otilde" unicode="&#xd5;" horiz-adv-x="1591" 
d="M115 694c0 208.667 66.833 385.833 200.5 531.5s293.5 218.5 479.5 218.5c187.333 0 347.833 -73 481.5 -219s200.5 -323 200.5 -531c0 -206 -67 -380.667 -201 -524s-294.333 -215 -481 -215c-184 0 -343.333 71.333 -478 214s-202 317.667 -202 525zM326 722.999
c0 -126.667 14.998 -238.501 44.998 -335.501s69.167 -171.833 117.5 -224.5s98.5 -91.667 150.5 -117s104.667 -38 158 -38c52 0 103.5 12.333 154.5 37s100.833 63 149.5 115s88.334 126.667 119.001 224s46 210.333 46 339c0 100 -10.667 190.167 -32 270.5
s-48.666 144.833 -81.999 193.5s-71.5 89 -114.5 121s-84.667 54.167 -125 66.5s-79.5 18.5 -117.5 18.5c-48 0 -97 -10.667 -147 -32s-100.167 -55.5 -150.5 -102.5s-91.5 -116.667 -123.5 -209s-48 -201.166 -48 -326.499zM396.998 1683
c2.66699 2.66699 11.168 12.667 25.501 30s23.666 27.666 27.999 30.999s13 11.5 26 24.5s23.167 21.167 30.5 24.5s17.5 8.5 30.5 15.5s26.333 11.5 40 13.5s28.834 3 45.501 3c40.667 0 101.334 -13 182.001 -39s142 -39 184 -39c35.333 0 65 5.83301 89 17.5
s50.333 31.834 79 60.501l35 -31c-2.66699 -2.66699 -11.167 -12.5 -25.5 -29.5s-23.5 -27.167 -27.5 -30.5s-12.5 -11.5 -25.5 -24.5s-23.333 -21.333 -31 -25l-31 -15.5c-13 -6.66699 -26.333 -11 -40 -13s-28.5 -3 -44.5 -3c-40.667 0 -101.334 13 -182.001 39
s-141.667 39 -183 39c-58.667 0 -115.334 -26 -170.001 -78z" />
    <glyph glyph-name="Odieresis" unicode="&#xd6;" horiz-adv-x="1591" 
d="M115 694c0 208.667 66.833 385.833 200.5 531.5s293.5 218.5 479.5 218.5c187.333 0 347.833 -73 481.5 -219s200.5 -323 200.5 -531c0 -206 -67 -380.667 -201 -524s-294.333 -215 -481 -215c-184 0 -343.333 71.333 -478 214s-202 317.667 -202 525zM326 722.999
c0 -126.667 14.998 -238.501 44.998 -335.501s69.167 -171.833 117.5 -224.5s98.5 -91.667 150.5 -117s104.667 -38 158 -38c52 0 103.5 12.333 154.5 37s100.833 63 149.5 115s88.334 126.667 119.001 224s46 210.333 46 339c0 100 -10.667 190.167 -32 270.5
s-48.666 144.833 -81.999 193.5s-71.5 89 -114.5 121s-84.667 54.167 -125 66.5s-79.5 18.5 -117.5 18.5c-48 0 -97 -10.667 -147 -32s-100.167 -55.5 -150.5 -102.5s-91.5 -116.667 -123.5 -209s-48 -201.166 -48 -326.499zM488.998 1665c0 31.333 11 57.333 33 78
s47.333 31 76 31s53.667 -10.333 75 -31s32 -46.667 32 -78c0 -30 -11 -55.167 -33 -75.5s-46.667 -30.5 -74 -30.5c-31.333 0 -57.333 10.5 -78 31.5s-31 45.833 -31 74.5zM886.998 1665c0 31.333 10.499 57.333 31.499 78s45.833 31 74.5 31
c27.333 0 52.333 -10.667 75 -32s34 -47 34 -77s-11 -55.167 -33 -75.5s-46.667 -30.5 -74 -30.5c-31.333 0 -57.166 10.5 -77.499 31.5s-30.5 45.833 -30.5 74.5z" />
    <glyph glyph-name="Oslash" unicode="&#xd8;" horiz-adv-x="1593" 
d="M113 694c0 210 67.5 387.504 202.5 532.504s294.833 217.5 479.5 217.5c140.667 0 269.667 -43.667 387 -131l135 200l43 -28l-137 -203v-2c80.667 -72.667 143.167 -159.834 187.5 -261.501s66.5 -209.834 66.5 -324.501c0 -210 -67.667 -385.667 -203 -527
s-295 -212 -479 -212c-138 0 -267 43 -387 129l-136 -199l-43 29l140 205c-22 19.333 -43 40.166 -63 62.499s-47 57.666 -81 105.999s-61.167 108 -81.5 179s-30.5 146.833 -30.5 227.5zM297 692.004c0 -91.333 7.16699 -172.501 21.5 -243.501s29 -121.833 44 -152.5
s34.167 -63.667 57.5 -99l713 1046c-101.333 104 -214 156 -338 156c-94 0 -176 -25.333 -246 -76s-124 -110.667 -162 -180c-60 -109.333 -90 -259.666 -90 -450.999zM457 154.003c101.333 -101.333 214 -152 338 -152c95.333 0 178.5 25.333 249.5 76
s126.167 113.334 165.5 188.001c56 106.667 84 250 84 430c0 92.667 -7.83301 175.667 -23.5 249s-30.667 124.666 -45 153.999s-33.833 63 -58.5 101l-710 -1044v-2z" />
    <glyph glyph-name="Ugrave" unicode="&#xd9;" horiz-adv-x="1536" 
d="M68 1335l0.00292969 64.001c48 -4 149 -6 303 -6c152.667 0 253 2 301 6v-64h-49c-74 0 -119.5 -6.16699 -136.5 -18.5s-25.5 -38.166 -25.5 -77.499v-780c0 -91.333 12.667 -168.5 38 -231.5s57.666 -108.5 96.999 -136.5s75.166 -47.167 107.499 -57.5
s64.166 -15.5 95.499 -15.5c104 0 195.5 41.333 274.5 124s118.5 193 118.5 331v711c0 20.667 -1.33301 37 -4 49s-9.83398 27.333 -21.501 46s-33.167 32.667 -64.5 42s-71.666 14 -120.999 14v64c147.333 -4 228.666 -6 243.999 -6c13.333 0 93.666 2 240.999 6v-64
c-49.333 0 -89.666 -4.33301 -120.999 -13s-52.666 -22.667 -63.999 -42s-18.5 -35.833 -21.5 -49.5s-4.5 -31.834 -4.5 -54.501v-656c0 -66.667 -2 -113.667 -6 -141c-18 -118.667 -69.167 -219 -153.5 -301s-184.5 -123 -300.5 -123
c-140.667 0 -261.834 49.5 -363.501 148.5s-152.5 220.167 -152.5 363.5v772c0 39.333 -8.66699 65.166 -26 77.499s-62.666 18.5 -135.999 18.5h-49zM535.003 1689c0 18 6.33301 35.167 19 51.5s29.334 24.5 50.001 24.5c13.333 0 31.333 -6.5 54 -19.5
s119.334 -72.5 290.001 -178.5l-22 -48c-9.33301 2.66699 -111 34.334 -305 95.001c-16.667 5.33301 -27.334 8.66602 -32.001 9.99902s-12.834 5 -24.501 11s-19.5 13.5 -23.5 22.5s-6 19.5 -6 31.5z" />
    <glyph glyph-name="Uacute" unicode="&#xda;" horiz-adv-x="1536" 
d="M68 1335l0.00292969 64.001c48 -4 149 -6 303 -6c152.667 0 253 2 301 6v-64h-49c-74 0 -119.5 -6.16699 -136.5 -18.5s-25.5 -38.166 -25.5 -77.499v-780c0 -91.333 12.667 -168.5 38 -231.5s57.666 -108.5 96.999 -136.5s75.166 -47.167 107.499 -57.5
s64.166 -15.5 95.499 -15.5c104 0 195.5 41.333 274.5 124s118.5 193 118.5 331v711c0 20.667 -1.33301 37 -4 49s-9.83398 27.333 -21.501 46s-33.167 32.667 -64.5 42s-71.666 14 -120.999 14v64c147.333 -4 228.666 -6 243.999 -6c13.333 0 93.666 2 240.999 6v-64
c-49.333 0 -89.666 -4.33301 -120.999 -13s-52.666 -22.667 -63.999 -42s-18.5 -35.833 -21.5 -49.5s-4.5 -31.834 -4.5 -54.501v-656c0 -66.667 -2 -113.667 -6 -141c-18 -118.667 -69.167 -219 -153.5 -301s-184.5 -123 -300.5 -123
c-140.667 0 -261.834 49.5 -363.501 148.5s-152.5 220.167 -152.5 363.5v772c0 39.333 -8.66699 65.166 -26 77.499s-62.666 18.5 -135.999 18.5h-49zM672.003 1567c204.667 126.667 313.668 192 327.001 196c4 1.33301 9.66699 2 17 2
c19.333 0 35.666 -8.16699 48.999 -24.5s20 -33.5 20 -51.5c0 -39.333 -28.667 -64.333 -86 -75l-307 -95z" />
    <glyph glyph-name="Ucircumflex" unicode="&#xdb;" horiz-adv-x="1536" 
d="M68 1335l0.00292969 64.001c48 -4 149 -6 303 -6c152.667 0 253 2 301 6v-64h-49c-74 0 -119.5 -6.16699 -136.5 -18.5s-25.5 -38.166 -25.5 -77.499v-780c0 -91.333 12.667 -168.5 38 -231.5s57.666 -108.5 96.999 -136.5s75.166 -47.167 107.499 -57.5
s64.166 -15.5 95.499 -15.5c104 0 195.5 41.333 274.5 124s118.5 193 118.5 331v711c0 20.667 -1.33301 37 -4 49s-9.83398 27.333 -21.501 46s-33.167 32.667 -64.5 42s-71.666 14 -120.999 14v64c147.333 -4 228.666 -6 243.999 -6c13.333 0 93.666 2 240.999 6v-64
c-49.333 0 -89.666 -4.33301 -120.999 -13s-52.666 -22.667 -63.999 -42s-18.5 -35.833 -21.5 -49.5s-4.5 -31.834 -4.5 -54.501v-656c0 -66.667 -2 -113.667 -6 -141c-18 -118.667 -69.167 -219 -153.5 -301s-184.5 -123 -300.5 -123
c-140.667 0 -261.834 49.5 -363.501 148.5s-152.5 220.167 -152.5 363.5v772c0 39.333 -8.66699 65.166 -26 77.499s-62.666 18.5 -135.999 18.5h-49zM524.003 1559l273 288h2l272 -288l-35 -35h-2l-235 215h-2l-236 -215h-2z" />
    <glyph glyph-name="Udieresis" unicode="&#xdc;" horiz-adv-x="1536" 
d="M68 1335l0.00292969 64.001c48 -4 149 -6 303 -6c152.667 0 253 2 301 6v-64h-49c-74 0 -119.5 -6.16699 -136.5 -18.5s-25.5 -38.166 -25.5 -77.499v-780c0 -91.333 12.667 -168.5 38 -231.5s57.666 -108.5 96.999 -136.5s75.166 -47.167 107.499 -57.5
s64.166 -15.5 95.499 -15.5c104 0 195.5 41.333 274.5 124s118.5 193 118.5 331v711c0 20.667 -1.33301 37 -4 49s-9.83398 27.333 -21.501 46s-33.167 32.667 -64.5 42s-71.666 14 -120.999 14v64c147.333 -4 228.666 -6 243.999 -6c13.333 0 93.666 2 240.999 6v-64
c-49.333 0 -89.666 -4.33301 -120.999 -13s-52.666 -22.667 -63.999 -42s-18.5 -35.833 -21.5 -49.5s-4.5 -31.834 -4.5 -54.501v-656c0 -66.667 -2 -113.667 -6 -141c-18 -118.667 -69.167 -219 -153.5 -301s-184.5 -123 -300.5 -123
c-140.667 0 -261.834 49.5 -363.501 148.5s-152.5 220.167 -152.5 363.5v772c0 39.333 -8.66699 65.166 -26 77.499s-62.666 18.5 -135.999 18.5h-49zM461.003 1665c0 28.667 10.167 54 30.5 76s45.5 33 75.5 33c27.333 0 52.333 -10.667 75 -32s34 -47 34 -77
s-11.333 -55.167 -34 -75.5s-47.667 -30.5 -75 -30.5c-30 0 -55.167 10.833 -75.5 32.5s-30.5 46.167 -30.5 73.5zM858.003 1665c0 31.333 11 57.334 33 78.001s47.333 31 76 31c31.333 0 56.833 -10.667 76.5 -32s29.5 -46.333 29.5 -75s-10.167 -53.834 -30.5 -75.501
s-45.5 -32.5 -75.5 -32.5c-27.333 0 -52.333 10.167 -75 30.5s-34 45.5 -34 75.5z" />
    <glyph glyph-name="Yacute" unicode="&#xdd;" horiz-adv-x="1536" 
d="M23 1335l-0.00195312 64c86 -4 174.667 -6 266 -6c152.667 0 253.667 2 303 6v-64c-50.667 0 -87.167 -3.33301 -109.5 -10s-33.5 -20.334 -33.5 -41.001c0 -9.33301 4.66699 -21 14 -35l371 -604l337 549c13.333 20.667 20.333 41 21 61c0 23.333 -9.5 42.5 -28.5 57.5
s-48.5 22.5 -88.5 22.5v64c106.667 -4 185.334 -6 236.001 -6c70.667 0 137.334 2 200.001 6v-64c-121.333 0 -208.666 -44.333 -261.999 -133l-395 -643v-395c0 -42 8.5 -69.333 25.5 -82s63.167 -19 138.5 -19h47v-63c-49.333 4 -149 6 -299 6s-249.667 -2 -299 -6v63h49
c74 0 119.5 6.16699 136.5 18.5s25.5 38.5 25.5 78.5v399l-430 701c-12 20.667 -22.833 35.334 -32.5 44.001s-26.834 16 -51.501 22s-59.667 9 -105 9h-36zM669.998 1567c204.667 126.667 313.668 192 327.001 196c4 1.33301 9.66699 2 17 2
c19.333 0 35.666 -8.16699 48.999 -24.5s20 -33.5 20 -51.5c0 -39.333 -28.667 -64.333 -86 -75l-307 -95z" />
    <glyph glyph-name="Thorn" unicode="&#xde;" horiz-adv-x="1280" 
d="M72 0l0.000976562 63.001h32c74 0 122 5.5 144 16.5s33.667 34.5 35 70.5v1099c-1.33301 38 -13.333 61.833 -36 71.5s-71 14.5 -145 14.5h-30v64c96.667 -4 192 -6 286 -6l308 6v-64h-23c-84.667 0 -137.167 -5.33301 -157.5 -16s-30.5 -37.334 -30.5 -80.001v-109h264
c75.333 0 142.666 -12.167 201.999 -36.5s106 -56.333 140 -96s59.5 -81 76.5 -124s25.5 -85 25.5 -126s-8.16699 -82.667 -24.5 -125s-41.166 -83.333 -74.499 -123s-80 -72 -140 -97s-129 -37.5 -207 -37.5h-262v-205c0 -42 10.833 -68.667 32.5 -80s74.167 -17 157.5 -17
h21v-63c-102.667 4 -205.334 6 -308.001 6h-14c-80 0 -170.667 -2 -272 -6zM455.001 428.001h159c4 0 11.5 -0.333008 22.5 -1s19.5 -1 25.5 -1c96.667 0 170.167 33.167 220.5 99.5s75.5 141 75.5 224s-23.5 156.667 -70.5 221s-109.5 96.5 -187.5 96.5h-245v-639z" />
    <glyph glyph-name="germandbls" unicode="&#xdf;" 
d="M55 0l-0.00292969 63h17c64 0 103.833 5.5 119.5 16.5s23.5 37.167 23.5 78.5v661h-160v62h160v254c0 58.667 8.83301 109.167 26.5 151.5s41.834 74.333 72.501 96s63.167 37.334 97.5 47.001s71.166 14.5 110.499 14.5c76.667 0 141.334 -23.167 194.001 -69.5
s79 -124.833 79 -235.5c0 -50.667 -3.83301 -93.834 -11.5 -129.501s-14.834 -61.667 -21.501 -78s-18.334 -29.5 -35.001 -39.5s-26.667 -15.5 -30 -16.5s-11.666 -2.16699 -24.999 -3.5c-12 -1.33301 -24.667 -4.66602 -38 -9.99902s-27.833 -20.333 -43.5 -45
s-23.5 -57.334 -23.5 -98.001c0 -32.667 4.83301 -60 14.5 -82s23.334 -38.5 41.001 -49.5s34 -19.167 49 -24.5s33.5 -10 55.5 -14s37 -7.33301 45 -10c46.667 -16.667 88.667 -48.834 126 -96.501s56 -108.5 56 -182.5c0 -86 -23.5 -154.667 -70.5 -206
s-111.5 -77 -193.5 -77c-53.333 0 -99 18.667 -137 56c-30 -34 -51.333 -51 -64 -51c-16.667 0 -24.667 14.333 -24 43v256c0 30 5.33301 47.667 16 53c15.333 8 27 3 35 -15c1.33301 -2.66699 5.5 -32 12.5 -88s22.667 -104.333 47 -145s61.833 -61 112.5 -61
c53.333 0 94.333 16.667 123 50s43 77.333 43 132c0 40.667 -9.5 76 -28.5 106s-42.833 52.667 -71.5 68c-13.333 6.66699 -40.666 13.834 -81.999 21.501s-72.666 18.834 -93.999 33.501c-75.333 50.667 -113 126.667 -113 228c0 23.333 2.33301 46.166 7 68.499
s13.167 47.5 25.5 75.5s32.833 51.5 61.5 70.5s64.334 30.5 107.001 34.5c9.33301 1.33301 15.333 2.5 18 3.5s9.16699 5.5 19.5 13.5s17.5 18.833 21.5 32.5s8 35.167 12 64.5s6 65.333 6 108c0 174.667 -71 262 -213 262c-50.667 0 -89.834 -14 -117.501 -42
s-44.667 -57.667 -51 -89s-9.5 -70.333 -9.5 -117v-1149l-47 4h-102z" />
    <glyph glyph-name="agrave" unicode="&#xe0;" 
d="M86 195c0 116 68.3301 204.669 204.997 266.002c82 39.333 207.667 64 377 74v75c0 84.667 -22.167 149.5 -66.5 194.5s-94.5 67.5 -150.5 67.5c-100 0 -174 -31.333 -222 -94c40.667 -1.33301 68.334 -12.166 83.001 -32.499s22 -40.833 22 -61.5
c0 -27.333 -8.5 -49.833 -25.5 -67.5s-39.833 -26.5 -68.5 -26.5c-27.333 0 -50 8.5 -68 25.5s-27 40.5 -27 70.5c0 66.667 30.167 122 90.5 166s133.5 66 219.5 66c112 0 205.333 -37.667 280 -113c23.333 -23.333 40.833 -50 52.5 -80s18.167 -54.833 19.5 -74.5
s2 -48.834 2 -87.501v-409c0 -8 1.33301 -18.667 4 -32s10.167 -28.5 22.5 -45.5s28.833 -25.5 49.5 -25.5c49.333 0 73.666 43.667 72.999 131v115h52v-115c0 -72.667 -19.167 -123.167 -57.5 -151.5s-75.166 -42.5 -110.499 -42.5c-45.333 0 -82.333 16.667 -111 50
s-45 72.666 -49 117.999c-20.667 -52 -54.5 -94.833 -101.5 -128.5s-102.5 -50.5 -166.5 -50.5c-49.333 0 -97.166 6.16699 -143.499 18.5s-88.666 35.666 -126.999 69.999s-57.5 77.5 -57.5 129.5zM243.997 197.002c0 -50.667 18.001 -92.333 54.001 -125
s79.333 -49 130 -49c57.333 0 111.666 22.167 162.999 66.5s77 110.166 77 197.499v205c-151.333 -5.33301 -259.833 -38.166 -325.5 -98.499s-98.5 -125.833 -98.5 -196.5zM317.998 1239c0 18 6.83301 35.168 20.5 51.501s30.5 24.5 50.5 24.5
c15.333 0 32.166 -7.5 50.499 -22.5s65.166 -59.5 140.499 -133.5l117 -115l-31 -40c-27.333 13.333 -118.666 64.333 -273.999 153l-13 6c-6.66699 4 -11.667 7.16699 -15 9.5s-8.5 6.16602 -15.5 11.499s-12.167 10.333 -15.5 15s-6.66602 10.5 -9.99902 17.5
s-5 14.5 -5 22.5z" />
    <glyph glyph-name="aacute" unicode="&#xe1;" 
d="M86 195c0 116 68.3301 204.669 204.997 266.002c82 39.333 207.667 64 377 74v75c0 84.667 -22.167 149.5 -66.5 194.5s-94.5 67.5 -150.5 67.5c-100 0 -174 -31.333 -222 -94c40.667 -1.33301 68.334 -12.166 83.001 -32.499s22 -40.833 22 -61.5
c0 -27.333 -8.5 -49.833 -25.5 -67.5s-39.833 -26.5 -68.5 -26.5c-27.333 0 -50 8.5 -68 25.5s-27 40.5 -27 70.5c0 66.667 30.167 122 90.5 166s133.5 66 219.5 66c112 0 205.333 -37.667 280 -113c23.333 -23.333 40.833 -50 52.5 -80s18.167 -54.833 19.5 -74.5
s2 -48.834 2 -87.501v-409c0 -8 1.33301 -18.667 4 -32s10.167 -28.5 22.5 -45.5s28.833 -25.5 49.5 -25.5c49.333 0 73.666 43.667 72.999 131v115h52v-115c0 -72.667 -19.167 -123.167 -57.5 -151.5s-75.166 -42.5 -110.499 -42.5c-45.333 0 -82.333 16.667 -111 50
s-45 72.666 -49 117.999c-20.667 -52 -54.5 -94.833 -101.5 -128.5s-102.5 -50.5 -166.5 -50.5c-49.333 0 -97.166 6.16699 -143.499 18.5s-88.666 35.666 -126.999 69.999s-57.5 77.5 -57.5 129.5zM243.997 197.002c0 -50.667 18.001 -92.333 54.001 -125
s79.333 -49 130 -49c57.333 0 111.666 22.167 162.999 66.5s77 110.166 77 197.499v205c-151.333 -5.33301 -259.833 -38.166 -325.5 -98.499s-98.5 -125.833 -98.5 -196.5zM322.998 1044l134.998 132c65.333 65.333 106.666 104.833 123.999 118.5s33.333 20.5 48 20.5
c20.667 0 37.834 -8.16699 51.501 -24.5s20.5 -33.5 20.5 -51.5c0 -8 -1.33301 -15.167 -4 -21.5s-5.66699 -11.833 -9 -16.5s-8.16602 -9.33398 -14.499 -14.001s-11.166 -8 -14.499 -10l-16 -9.5c-7.33301 -4.33301 -12 -7.16602 -14 -8.49902
c-178.667 -101.333 -270.667 -153 -276 -155z" />
    <glyph glyph-name="acircumflex" unicode="&#xe2;" 
d="M86 195c0 116 68.3301 204.669 204.997 266.002c82 39.333 207.667 64 377 74v75c0 84.667 -22.167 149.5 -66.5 194.5s-94.5 67.5 -150.5 67.5c-100 0 -174 -31.333 -222 -94c40.667 -1.33301 68.334 -12.166 83.001 -32.499s22 -40.833 22 -61.5
c0 -27.333 -8.5 -49.833 -25.5 -67.5s-39.833 -26.5 -68.5 -26.5c-27.333 0 -50 8.5 -68 25.5s-27 40.5 -27 70.5c0 66.667 30.167 122 90.5 166s133.5 66 219.5 66c112 0 205.333 -37.667 280 -113c23.333 -23.333 40.833 -50 52.5 -80s18.167 -54.833 19.5 -74.5
s2 -48.834 2 -87.501v-409c0 -8 1.33301 -18.667 4 -32s10.167 -28.5 22.5 -45.5s28.833 -25.5 49.5 -25.5c49.333 0 73.666 43.667 72.999 131v115h52v-115c0 -72.667 -19.167 -123.167 -57.5 -151.5s-75.166 -42.5 -110.499 -42.5c-45.333 0 -82.333 16.667 -111 50
s-45 72.666 -49 117.999c-20.667 -52 -54.5 -94.833 -101.5 -128.5s-102.5 -50.5 -166.5 -50.5c-49.333 0 -97.166 6.16699 -143.499 18.5s-88.666 35.666 -126.999 69.999s-57.5 77.5 -57.5 129.5zM178.997 1024l274 305h2l272 -305l-36 -37l-236 234h-2l-238 -234z
M243.997 197.002c0 -50.667 18.001 -92.333 54.001 -125s79.333 -49 130 -49c57.333 0 111.666 22.167 162.999 66.5s77 110.166 77 197.499v205c-151.333 -5.33301 -259.833 -38.166 -325.5 -98.499s-98.5 -125.833 -98.5 -196.5z" />
    <glyph glyph-name="atilde" unicode="&#xe3;" 
d="M86 195c0 116 68.3301 204.669 204.997 266.002c82 39.333 207.667 64 377 74v75c0 84.667 -22.167 149.5 -66.5 194.5s-94.5 67.5 -150.5 67.5c-100 0 -174 -31.333 -222 -94c40.667 -1.33301 68.334 -12.166 83.001 -32.499s22 -40.833 22 -61.5
c0 -27.333 -8.5 -49.833 -25.5 -67.5s-39.833 -26.5 -68.5 -26.5c-27.333 0 -50 8.5 -68 25.5s-27 40.5 -27 70.5c0 66.667 30.167 122 90.5 166s133.5 66 219.5 66c112 0 205.333 -37.667 280 -113c23.333 -23.333 40.833 -50 52.5 -80s18.167 -54.833 19.5 -74.5
s2 -48.834 2 -87.501v-409c0 -8 1.33301 -18.667 4 -32s10.167 -28.5 22.5 -45.5s28.833 -25.5 49.5 -25.5c49.333 0 73.666 43.667 72.999 131v115h52v-115c0 -72.667 -19.167 -123.167 -57.5 -151.5s-75.166 -42.5 -110.499 -42.5c-45.333 0 -82.333 16.667 -111 50
s-45 72.666 -49 117.999c-20.667 -52 -54.5 -94.833 -101.5 -128.5s-102.5 -50.5 -166.5 -50.5c-49.333 0 -97.166 6.16699 -143.499 18.5s-88.666 35.666 -126.999 69.999s-57.5 77.5 -57.5 129.5zM112.997 1091c32.667 39.333 56.5049 67 71.5049 83
s36.833 33.167 65.5 51.5s56.667 27.5 84 27.5c31.333 0 75 -16 131 -48s99.667 -48 131 -48c20.667 0 41.667 5.5 63 16.5s37 21.167 47 30.5l54 51l35 -31c-2.66699 -2.66699 -9.5 -10.5 -20.5 -23.5s-18.167 -21.167 -21.5 -24.5s-9.83301 -10.5 -19.5 -21.5
s-16.834 -18.5 -21.501 -22.5s-11.5 -10.167 -20.5 -18.5s-16.167 -14.166 -21.5 -17.499s-12.833 -7.66602 -22.5 -12.999s-17.834 -9 -24.501 -11s-14.5 -4 -23.5 -6s-17.5 -3 -25.5 -3c-32.667 0 -76.334 16 -131.001 48s-98.334 48 -131.001 48
c-10.667 0 -21.667 -1.33301 -33 -4s-22 -6.83398 -32 -12.501l-26.5 -15.5c-7.66699 -4.66699 -15.834 -10.834 -24.501 -18.501s-15.5 -13.5 -20.5 -17.5s-10.833 -9.33301 -17.5 -16l-10 -12zM244.002 197.002c0 -50.667 18.001 -92.333 54.001 -125s79.333 -49 130 -49
c57.333 0 111.666 22.167 162.999 66.5s77 110.166 77 197.499v205c-151.333 -5.33301 -259.833 -38.166 -325.5 -98.499s-98.5 -125.833 -98.5 -196.5z" />
    <glyph glyph-name="adieresis" unicode="&#xe4;" 
d="M86 195c0 116 68.3301 204.669 204.997 266.002c82 39.333 207.667 64 377 74v75c0 84.667 -22.167 149.5 -66.5 194.5s-94.5 67.5 -150.5 67.5c-100 0 -174 -31.333 -222 -94c40.667 -1.33301 68.334 -12.166 83.001 -32.499s22 -40.833 22 -61.5
c0 -27.333 -8.5 -49.833 -25.5 -67.5s-39.833 -26.5 -68.5 -26.5c-27.333 0 -50 8.5 -68 25.5s-27 40.5 -27 70.5c0 66.667 30.167 122 90.5 166s133.5 66 219.5 66c112 0 205.333 -37.667 280 -113c23.333 -23.333 40.833 -50 52.5 -80s18.167 -54.833 19.5 -74.5
s2 -48.834 2 -87.501v-409c0 -8 1.33301 -18.667 4 -32s10.167 -28.5 22.5 -45.5s28.833 -25.5 49.5 -25.5c49.333 0 73.666 43.667 72.999 131v115h52v-115c0 -72.667 -19.167 -123.167 -57.5 -151.5s-75.166 -42.5 -110.499 -42.5c-45.333 0 -82.333 16.667 -111 50
s-45 72.666 -49 117.999c-20.667 -52 -54.5 -94.833 -101.5 -128.5s-102.5 -50.5 -166.5 -50.5c-49.333 0 -97.166 6.16699 -143.499 18.5s-88.666 35.666 -126.999 69.999s-57.5 77.5 -57.5 129.5zM204.997 1241c0 31.333 10.5 57.333 31.5 78s45.833 31 74.5 31
c27.333 0 52.333 -10.667 75 -32s34 -47 34 -77s-11.333 -55.167 -34 -75.5s-47.667 -30.5 -75 -30.5c-31.333 0 -56.833 10.5 -76.5 31.5s-29.5 45.833 -29.5 74.5zM243.997 197.002c0 -50.667 18.001 -92.333 54.001 -125s79.333 -49 130 -49
c57.333 0 111.666 22.167 162.999 66.5s77 110.166 77 197.499v205c-151.333 -5.33301 -259.833 -38.166 -325.5 -98.499s-98.5 -125.833 -98.5 -196.5zM601.998 1241c0 31.333 11 57.333 33 78s47.333 31 76 31s53.5 -10.333 74.5 -31s31.5 -46.667 31.5 -78
c0 -30 -10.833 -55.167 -32.5 -75.5s-46.167 -30.5 -73.5 -30.5c-31.333 0 -57.333 10.5 -78 31.5s-31 45.833 -31 74.5z" />
    <glyph glyph-name="aring" unicode="&#xe5;" 
d="M86 195c0 116 68.3301 204.669 204.997 266.002c82 39.333 207.667 64 377 74v75c0 84.667 -22.167 149.5 -66.5 194.5s-94.5 67.5 -150.5 67.5c-100 0 -174 -31.333 -222 -94c40.667 -1.33301 68.334 -12.166 83.001 -32.499s22 -40.833 22 -61.5
c0 -27.333 -8.5 -49.833 -25.5 -67.5s-39.833 -26.5 -68.5 -26.5c-27.333 0 -50 8.5 -68 25.5s-27 40.5 -27 70.5c0 66.667 30.167 122 90.5 166s133.5 66 219.5 66c112 0 205.333 -37.667 280 -113c23.333 -23.333 40.833 -50 52.5 -80s18.167 -54.833 19.5 -74.5
s2 -48.834 2 -87.501v-409c0 -8 1.33301 -18.667 4 -32s10.167 -28.5 22.5 -45.5s28.833 -25.5 49.5 -25.5c49.333 0 73.666 43.667 72.999 131v115h52v-115c0 -72.667 -19.167 -123.167 -57.5 -151.5s-75.166 -42.5 -110.499 -42.5c-45.333 0 -82.333 16.667 -111 50
s-45 72.666 -49 117.999c-20.667 -52 -54.5 -94.833 -101.5 -128.5s-102.5 -50.5 -166.5 -50.5c-49.333 0 -97.166 6.16699 -143.499 18.5s-88.666 35.666 -126.999 69.999s-57.5 77.5 -57.5 129.5zM243.997 197.002c0 -50.667 18.001 -92.333 54.001 -125
s79.333 -49 130 -49c57.333 0 111.666 22.167 162.999 66.5s77 110.166 77 197.499v205c-151.333 -5.33301 -259.833 -38.166 -325.5 -98.499s-98.5 -125.833 -98.5 -196.5zM257.998 1188c0 44 18.5 82.667 55.5 116s83.5 50 139.5 50c50.667 0 96 -15.333 136 -46
s60 -70.667 60 -120c0 -42 -18.333 -79.833 -55 -113.5s-83 -50.5 -139 -50.5c-50.667 0 -96.167 15 -136.5 45s-60.5 69.667 -60.5 119zM308.998 1188c0 -79.333 47.333 -119 142 -119c98 0 147 39.667 147 119s-47 119 -141 119c-98.667 0 -148 -39.667 -148 -119z" />
    <glyph glyph-name="ae" unicode="&#xe6;" horiz-adv-x="1478" 
d="M90 188c0 96.667 52.9971 174.167 158.997 232.5s245.667 88.833 419 91.5v80c0 56 -7.83301 103.833 -23.5 143.5s-36.5 68.334 -62.5 86.001s-49.667 29.834 -71 36.501s-42 10 -62 10c-86 0 -159.333 -30 -220 -90h2c36.667 0 62.667 -9.83301 78 -29.5
s23 -41.167 23 -64.5c0 -27.333 -9.33301 -49.833 -28 -67.5s-40 -26.5 -64 -26.5c-30 0 -53.333 9.5 -70 28.5s-25 43.5 -25 73.5c0 61.333 30.167 113.833 90.5 157.5s133.5 65.5 219.5 65.5c138 0 243 -52.333 315 -157h2
c83.333 105.333 185.666 157.666 306.999 156.999c106.667 0 190.334 -37.5 251.001 -112.5s91 -169.833 91 -284.5c0 -20.667 -3.33301 -33.667 -10 -39s-18.334 -8 -35.001 -8h-565v-14c0 -79.333 9.83301 -148 29.5 -206s45.334 -102 77.001 -132
s63.834 -52.167 96.501 -66.5s65.334 -21.5 98.001 -21.5c60 0 111.5 18.667 154.5 56s73.5 80.666 91.5 129.999c10.667 27.333 19.334 42.333 26.001 45c10.667 4 19.5 2.33301 26.5 -5s9.16699 -18 6.5 -32c-13.333 -57.333 -47.666 -113 -102.999 -167
s-126 -81 -212 -81c-131.333 0 -245.333 60.333 -342 181c-66.667 -120 -182 -180.333 -346 -181c-50.667 0 -98.834 5.83301 -144.501 17.5s-87 34.167 -124 67.5s-55.5 75.333 -55.5 126zM249.997 190c0 -49.333 17.668 -89.167 53.001 -119.5s77.666 -45.5 126.999 -45.5
c70.667 0 131.667 24.167 183 72.5s77 105.166 77 170.499c0 12 -3.66699 35.833 -11 71.5s-11 78.834 -11 129.501c-150 -8 -257.167 -39.5 -321.5 -94.5s-96.5 -116.5 -96.5 -184.5zM812.998 515.999l471.001 -0.000976562c-8 234.667 -77.667 352 -209 352
c-19.333 0 -39.833 -3.66699 -61.5 -11s-47.5 -21.666 -77.5 -42.999s-56.333 -57.5 -79 -108.5s-37.334 -114.167 -44.001 -189.5z" />
    <glyph glyph-name="ccedilla" unicode="&#xe7;" horiz-adv-x="909" 
d="M68 442c0 132.667 43.667 244.669 131 336.002s192.333 137 315 137c87.333 0 161.666 -20 222.999 -60s92 -91.667 92 -155c0 -27.333 -8.83301 -50.5 -26.5 -69.5s-40.167 -28.5 -67.5 -28.5c-26 0 -48.167 8.83301 -66.5 26.5s-27.5 40.167 -27.5 67.5
c0 53.333 32 85 96 95c-68 48 -141 71.667 -219 71c-31.333 0 -62 -6.5 -92 -19.5s-59.667 -33.833 -89 -62.5s-52.833 -72 -70.5 -130s-26.5 -127.333 -26.5 -208c0 -142 30.333 -246 91 -312s127 -99 199 -99c113.333 0 195.333 51.667 246 155
c2.66699 5.33301 6.16699 13.833 10.5 25.5s8.5 21.667 12.5 30s8 13.833 12 16.5c6.66699 5.33301 14.834 6.33301 24.501 3s14.5 -10.333 14.5 -21c0 -4 -2 -12.833 -6 -26.5s-12.167 -32.167 -24.5 -55.5s-27.333 -46 -45 -68s-43.334 -43.167 -77.001 -63.5
s-71.5 -34.5 -113.5 -42.5v-95c19.333 -2.66699 38.833 -7 58.5 -13s43.167 -21 70.5 -45s41 -53.667 41 -89c0 -60 -36.5 -101.667 -109.5 -125s-189.5 -35 -349.5 -35h-27v47h66c182.667 0 274 37.667 274 113c0 27.333 -13 52.166 -39 74.499s-69 35.166 -129 38.499v129
c-109.333 18 -198.666 70.5 -267.999 157.5s-104 187.167 -104 300.5z" />
    <glyph glyph-name="egrave" unicode="&#xe8;" horiz-adv-x="909" 
d="M57 451c0 128.667 41.3301 238.667 123.997 330s183.334 137 302.001 137c120 0 211.167 -39 273.5 -117s93.5 -173 93.5 -285c0 -20.667 -2.66699 -33 -8 -37s-19.666 -6 -42.999 -6h-572c0 -139.333 20.667 -241.666 62 -306.999c57.333 -91.333 134.333 -137 231 -137
c13.333 0 28 1.33301 44 4s40.333 9.83398 73 21.501s63.334 33.167 92.001 64.5s51.334 71.666 68.001 120.999c4 19.333 12.667 28.666 26 27.999c18 0 27 -8 27 -24c0 -12 -6.5 -31.5 -19.5 -58.5s-31.833 -56.5 -56.5 -88.5s-60.834 -60 -108.501 -84
s-100.167 -36 -157.5 -36c-120 0 -225.167 45.5 -315.5 136.5s-135.5 203.5 -135.5 337.5zM228.997 516h485.999c0 28.667 -2.5 59 -7.5 91s-14.667 70.167 -29 114.5s-38.166 80.5 -71.499 108.5s-74.666 42 -123.999 42c-22 0 -44.833 -4.66699 -68.5 -14
s-49.834 -25.333 -78.501 -48s-53 -59.667 -73 -111s-31.333 -112.333 -34 -183zM317.996 1239c0 18 6.83301 35.168 20.5 51.501s30.5 24.5 50.5 24.5c15.333 0 32.166 -7.5 50.499 -22.5s65.166 -59.5 140.499 -133.5l117 -115l-31 -40
c-27.333 13.333 -118.666 64.333 -273.999 153l-13 6c-6.66699 4 -11.667 7.16699 -15 9.5s-8.5 6.16602 -15.5 11.499s-12.167 10.333 -15.5 15s-6.66602 10.5 -9.99902 17.5s-5 14.5 -5 22.5z" />
    <glyph glyph-name="eacute" unicode="&#xe9;" horiz-adv-x="909" 
d="M57 451c0 128.667 41.3301 238.667 123.997 330s183.334 137 302.001 137c120 0 211.167 -39 273.5 -117s93.5 -173 93.5 -285c0 -20.667 -2.66699 -33 -8 -37s-19.666 -6 -42.999 -6h-572c0 -139.333 20.667 -241.666 62 -306.999c57.333 -91.333 134.333 -137 231 -137
c13.333 0 28 1.33301 44 4s40.333 9.83398 73 21.501s63.334 33.167 92.001 64.5s51.334 71.666 68.001 120.999c4 19.333 12.667 28.666 26 27.999c18 0 27 -8 27 -24c0 -12 -6.5 -31.5 -19.5 -58.5s-31.833 -56.5 -56.5 -88.5s-60.834 -60 -108.501 -84
s-100.167 -36 -157.5 -36c-120 0 -225.167 45.5 -315.5 136.5s-135.5 203.5 -135.5 337.5zM228.997 516h485.999c0 28.667 -2.5 59 -7.5 91s-14.667 70.167 -29 114.5s-38.166 80.5 -71.499 108.5s-74.666 42 -123.999 42c-22 0 -44.833 -4.66699 -68.5 -14
s-49.834 -25.333 -78.501 -48s-53 -59.667 -73 -111s-31.333 -112.333 -34 -183zM265.996 1044l134.998 132c65.333 65.333 106.666 104.833 123.999 118.5s33.333 20.5 48 20.5c20.667 0 37.834 -8.16699 51.501 -24.5s20.5 -33.5 20.5 -51.5
c0 -8 -1.33301 -15.167 -4 -21.5s-5.66699 -11.833 -9 -16.5s-8.16602 -9.33398 -14.499 -14.001s-11.166 -8 -14.499 -10l-16 -9.5c-7.33301 -4.33301 -12 -7.16602 -14 -8.49902c-178.667 -101.333 -270.667 -153 -276 -155z" />
    <glyph glyph-name="ecircumflex" unicode="&#xea;" horiz-adv-x="909" 
d="M57 451c0 128.667 41.3301 238.667 123.997 330s183.334 137 302.001 137c120 0 211.167 -39 273.5 -117s93.5 -173 93.5 -285c0 -20.667 -2.66699 -33 -8 -37s-19.666 -6 -42.999 -6h-572c0 -139.333 20.667 -241.666 62 -306.999c57.333 -91.333 134.333 -137 231 -137
c13.333 0 28 1.33301 44 4s40.333 9.83398 73 21.501s63.334 33.167 92.001 64.5s51.334 71.666 68.001 120.999c4 19.333 12.667 28.666 26 27.999c18 0 27 -8 27 -24c0 -12 -6.5 -31.5 -19.5 -58.5s-31.833 -56.5 -56.5 -88.5s-60.834 -60 -108.501 -84
s-100.167 -36 -157.5 -36c-120 0 -225.167 45.5 -315.5 136.5s-135.5 203.5 -135.5 337.5zM178.997 1024l274 305h2l272 -305l-36 -37l-236 234h-2l-238 -234zM228.997 516h485.999c0 28.667 -2.5 59 -7.5 91s-14.667 70.167 -29 114.5s-38.166 80.5 -71.499 108.5
s-74.666 42 -123.999 42c-22 0 -44.833 -4.66699 -68.5 -14s-49.834 -25.333 -78.501 -48s-53 -59.667 -73 -111s-31.333 -112.333 -34 -183z" />
    <glyph glyph-name="edieresis" unicode="&#xeb;" horiz-adv-x="909" 
d="M57 451c0 128.667 41.3301 238.667 123.997 330s183.334 137 302.001 137c120 0 211.167 -39 273.5 -117s93.5 -173 93.5 -285c0 -20.667 -2.66699 -33 -8 -37s-19.666 -6 -42.999 -6h-572c0 -139.333 20.667 -241.666 62 -306.999c57.333 -91.333 134.333 -137 231 -137
c13.333 0 28 1.33301 44 4s40.333 9.83398 73 21.501s63.334 33.167 92.001 64.5s51.334 71.666 68.001 120.999c4 19.333 12.667 28.666 26 27.999c18 0 27 -8 27 -24c0 -12 -6.5 -31.5 -19.5 -58.5s-31.833 -56.5 -56.5 -88.5s-60.834 -60 -108.501 -84
s-100.167 -36 -157.5 -36c-120 0 -225.167 45.5 -315.5 136.5s-135.5 203.5 -135.5 337.5zM147.997 1241c0 31.333 10.5 57.333 31.5 78s45.833 31 74.5 31c27.333 0 52.333 -10.667 75 -32s34 -47 34 -77s-11.333 -55.167 -34 -75.5s-47.667 -30.5 -75 -30.5
c-31.333 0 -56.833 10.5 -76.5 31.5s-29.5 45.833 -29.5 74.5zM228.997 516h485.999c0 28.667 -2.5 59 -7.5 91s-14.667 70.167 -29 114.5s-38.166 80.5 -71.499 108.5s-74.666 42 -123.999 42c-22 0 -44.833 -4.66699 -68.5 -14s-49.834 -25.333 -78.501 -48
s-53 -59.667 -73 -111s-31.333 -112.333 -34 -183zM544.996 1241c0 31.333 11 57.333 33 78s47.333 31 76 31s53.5 -10.333 74.5 -31s31.5 -46.667 31.5 -78c0 -30 -10.833 -55.167 -32.5 -75.5s-46.167 -30.5 -73.5 -30.5c-31.333 0 -57.333 10.5 -78 31.5
s-31 45.833 -31 74.5z" />
    <glyph glyph-name="igrave" unicode="&#xec;" horiz-adv-x="567" 
d="M-8 1239c0 18 6.83301 35.168 20.5 51.501s30.5 24.5 50.5 24.5c15.333 0 32.166 -7.5 50.499 -22.5s65.166 -59.5 140.499 -133.5l117 -115l-31 -40c-27.333 13.333 -118.666 64.333 -273.999 153l-13 6c-6.66699 4 -11.667 7.16699 -15 9.5s-8.5 6.16602 -15.5 11.499
s-12.167 10.333 -15.5 15s-6.66602 10.5 -9.99902 17.5s-5 14.5 -5 22.5zM72 0.000976562l-0.00195312 63c72.667 0 117.334 4.5 134.001 13.5s25 35.5 25 79.5v551c0 50.667 -8.5 82 -25.5 94s-58.833 18 -125.5 18v64l286 22v-751c0 -40.667 7.33301 -66 22 -76
s55.334 -15 122.001 -15v-63c-139.333 4 -210.333 6 -213 6c-18.667 0 -93.667 -2 -225 -6z" />
    <glyph glyph-name="iacute" unicode="&#xed;" horiz-adv-x="567" 
d="M68 0l-0.00195312 63c72.667 0 117.334 4.5 134.001 13.5s25 35.5 25 79.5v551c0 50.667 -8.5 82 -25.5 94s-58.833 18 -125.5 18v64l286 22v-751c0 -40.667 7.33301 -66 22 -76s55.334 -15 122.001 -15v-63c-139.333 4 -210.333 6 -213 6c-18.667 0 -93.667 -2 -225 -6z
M163.998 1044l136.999 133.998c66.667 65.333 108 104.5 124 117.5s31.333 19.5 46 19.5c20.667 0 37.834 -8.16699 51.501 -24.5s20.5 -33.5 20.5 -51.5c0 -10.667 -2.16699 -20.5 -6.5 -29.5s-11.5 -17.167 -21.5 -24.5s-17.167 -12.166 -21.5 -14.499
s-11.833 -6.16602 -22.5 -11.499c-178.667 -101.333 -270.667 -153 -276 -155z" />
    <glyph glyph-name="icircumflex" unicode="&#xee;" horiz-adv-x="567" 
d="M21 1024l274 305h2l272 -305l-36 -37l-236 234h-2l-238 -234zM70 0l-0.00195312 63c72.667 0 117.334 4.5 134.001 13.5s25 35.5 25 79.5v551c0 50.667 -8.5 82 -25.5 94s-58.833 18 -125.5 18v64l286 22v-751c0 -40.667 7.33301 -66 22 -76s55.334 -15 122.001 -15v-63
c-139.333 4 -210.333 6 -213 6c-18.667 0 -93.667 -2 -225 -6z" />
    <glyph glyph-name="idieresis" unicode="&#xef;" horiz-adv-x="681" 
d="M43 1242c0 31.333 10.8311 57.166 32.498 77.499s46.834 30.5 75.501 30.5s53.667 -10.167 75 -30.5s32 -46.166 32 -77.499c0 -30 -11 -55.333 -33 -76s-46.667 -31 -74 -31c-31.333 0 -57.166 10.667 -77.499 32s-30.5 46.333 -30.5 75zM124.998 0l-0.00195312 63
c72.667 0 117.334 4.5 134.001 13.5s25 35.5 25 79.5v551c0 50.667 -8.5 82 -25.5 94s-58.833 18 -125.5 18v64l286 22v-751c0 -40.667 7.33301 -66 22 -76s55.334 -15 122.001 -15v-63c-139.333 4 -210.333 6 -213 6c-18.667 0 -93.667 -2 -225 -6zM440.996 1242
c0 31.333 10.8311 57.166 32.498 77.499s46.834 30.5 75.501 30.5s53.667 -10.167 75 -30.5s32 -46.166 32 -77.499c0 -30 -11 -55.333 -33 -76s-46.667 -31 -74 -31c-31.333 0 -57.166 10.667 -77.499 32s-30.5 46.333 -30.5 75z" />
    <glyph glyph-name="eth" unicode="&#xf0;" 
d="M55 436c0 135.333 45.8359 248.999 137.503 340.999s196.167 138 313.5 138c100 0 184.667 -52.333 254 -157c-27.333 88.667 -62.5 165 -105.5 229s-99.5 130.333 -169.5 199l-219 -127l-28 -10c-13.333 0 -22.333 5.33301 -27 16l2 10l2 8
c27.333 20.667 69 46.667 125 78s90.667 51.333 104 60c-58.667 42 -109.5 74 -152.5 96s-77.333 36.667 -103 44s-40.834 12.333 -45.501 15c-10.667 4 -16 11 -16 21c0 15.333 11.667 22.666 35 21.999c30 0 78.167 -9.5 144.5 -28.5s134.833 -49.833 205.5 -92.5
c16.667 -9.33301 27 -14 31 -14c13.333 0 56.166 22.167 128.499 66.5s114.166 66.5 125.499 66.5c15.333 0 22.666 -6.66699 21.999 -20c0 -10.667 -9.33301 -21.667 -28 -33l-203 -117c82 -64 150.667 -133.167 206 -207.5s93.833 -146.666 115.5 -216.999
s36.334 -128 44.001 -173s11.5 -88.833 11.5 -131.5v-61c0 -151.333 -46.5 -269.166 -139.5 -353.499s-198.167 -126.5 -315.5 -126.5c-122.667 0 -229.167 44 -319.5 132s-135.5 197 -135.5 327zM227.003 454.999c0 -106.667 13.002 -189.999 39.002 -249.999
c20.667 -46.667 52.167 -87.334 94.5 -122.001s92.166 -52 149.499 -52c31.333 0 62 6.5 92 19.5s60 33.833 90 62.5s54.333 71 73 127s28 122 28 198c0 121.333 -27.333 223.333 -82 306s-122.334 124 -203.001 124c-91.333 0 -165 -44.333 -221 -133
c-40 -64 -60 -157.333 -60 -280z" />
    <glyph glyph-name="ntilde" unicode="&#xf1;" horiz-adv-x="1136" 
d="M66 0l-0.000976562 62.999c72.667 0 117.334 4.5 134.001 13.5s25 35.5 25 79.5v549c0 50.667 -8.83301 82.334 -26.5 95.001s-61.834 19 -132.501 19v64l288 22v-215c64 143.333 165 215 303 215c102.667 0 174.334 -25.333 215.001 -76c30 -34 48.167 -70 54.5 -108
s9.5 -106.333 9.5 -205v-391c1.33301 -28.667 13 -46.167 35 -52.5s63.667 -9.5 125 -9.5v-63c-139.333 4 -216 6 -230 6c-10.667 0 -87.667 -2 -231 -6v63c72.667 0 117.5 4.5 134.5 13.5s25.5 35.5 25.5 79.5v477c0 69.333 -10.667 124.5 -32 165.5
s-61.333 61.5 -120 61.5c-70.667 0 -134.334 -29.667 -191.001 -89s-85 -139 -85 -239v-376c0 -44 8.5 -70.5 25.5 -79.5s61.5 -13.5 133.5 -13.5v-63c-139.333 4 -215.666 6 -228.999 6c-10.667 0 -87.667 -2 -231 -6zM239.999 1091c32.667 39.333 56.5049 67 71.5049 83
s36.833 33.167 65.5 51.5s56.667 27.5 84 27.5c31.333 0 75 -16 131 -48s99.667 -48 131 -48c20.667 0 41.667 5.5 63 16.5s37 21.167 47 30.5l54 51l35 -31c-2.66699 -2.66699 -9.5 -10.5 -20.5 -23.5s-18.167 -21.167 -21.5 -24.5s-9.83301 -10.5 -19.5 -21.5
s-16.834 -18.5 -21.501 -22.5s-11.5 -10.167 -20.5 -18.5s-16.167 -14.166 -21.5 -17.499s-12.833 -7.66602 -22.5 -12.999s-17.834 -9 -24.501 -11s-14.5 -4 -23.5 -6s-17.5 -3 -25.5 -3c-32.667 0 -76.334 16 -131.001 48s-98.334 48 -131.001 48
c-10.667 0 -21.667 -1.33301 -33 -4s-22 -6.83398 -32 -12.501l-26.5 -15.5c-7.66699 -4.66699 -15.834 -10.834 -24.501 -18.501s-15.5 -13.5 -20.5 -17.5s-10.833 -9.33301 -17.5 -16l-10 -12z" />
    <glyph glyph-name="ograve" unicode="&#xf2;" 
d="M57 438.5c0 129.667 44.166 241.999 132.499 336.999s195.833 142.5 322.5 142.5c124 0 230.5 -47.167 319.5 -141.5s133.5 -207.166 133.5 -338.499c0 -128.667 -44.833 -237.667 -134.5 -327s-196.5 -134 -320.5 -134c-121.333 0 -227.166 44.5 -317.499 133.5
s-135.5 198.333 -135.5 328zM226.999 454.999c0 -132.667 17.334 -229 52.001 -289c53.333 -91.333 131 -137 233 -137c50.667 0 97.167 13.667 139.5 41s75.166 64 98.499 110c30 60 45 151.667 45 275c0 131.333 -18 226 -54 284c-53.333 88.667 -130.333 133 -231 133
c-44 0 -87.5 -11.5 -130.5 -34.5s-77.5 -57.167 -103.5 -102.5c-32.667 -60 -49 -153.333 -49 -280zM318 1239c0 18 6.83301 35.168 20.5 51.501s30.5 24.5 50.5 24.5c15.333 0 32.166 -7.5 50.499 -22.5s65.166 -59.5 140.499 -133.5l117 -115l-31 -40
c-27.333 13.333 -118.666 64.333 -273.999 153l-13 6c-6.66699 4 -11.667 7.16699 -15 9.5s-8.5 6.16602 -15.5 11.499s-12.167 10.333 -15.5 15s-6.66602 10.5 -9.99902 17.5s-5 14.5 -5 22.5z" />
    <glyph glyph-name="oacute" unicode="&#xf3;" 
d="M57 438.5c0 129.667 44.166 241.999 132.499 336.999s195.833 142.5 322.5 142.5c124 0 230.5 -47.167 319.5 -141.5s133.5 -207.166 133.5 -338.499c0 -128.667 -44.833 -237.667 -134.5 -327s-196.5 -134 -320.5 -134c-121.333 0 -227.166 44.5 -317.499 133.5
s-135.5 198.333 -135.5 328zM226.999 454.999c0 -132.667 17.334 -229 52.001 -289c53.333 -91.333 131 -137 233 -137c50.667 0 97.167 13.667 139.5 41s75.166 64 98.499 110c30 60 45 151.667 45 275c0 131.333 -18 226 -54 284c-53.333 88.667 -130.333 133 -231 133
c-44 0 -87.5 -11.5 -130.5 -34.5s-77.5 -57.167 -103.5 -102.5c-32.667 -60 -49 -153.333 -49 -280zM323 1044l134.998 132c65.333 65.333 106.666 104.833 123.999 118.5s33.333 20.5 48 20.5c20.667 0 37.834 -8.16699 51.501 -24.5s20.5 -33.5 20.5 -51.5
c0 -8 -1.33301 -15.167 -4 -21.5s-5.66699 -11.833 -9 -16.5s-8.16602 -9.33398 -14.499 -14.001s-11.166 -8 -14.499 -10l-16 -9.5c-7.33301 -4.33301 -12 -7.16602 -14 -8.49902c-178.667 -101.333 -270.667 -153 -276 -155z" />
    <glyph glyph-name="ocircumflex" unicode="&#xf4;" 
d="M57 438.5c0 129.667 44.166 241.999 132.499 336.999s195.833 142.5 322.5 142.5c124 0 230.5 -47.167 319.5 -141.5s133.5 -207.166 133.5 -338.499c0 -128.667 -44.833 -237.667 -134.5 -327s-196.5 -134 -320.5 -134c-121.333 0 -227.166 44.5 -317.499 133.5
s-135.5 198.333 -135.5 328zM226.999 454.999c0 -132.667 17.334 -229 52.001 -289c53.333 -91.333 131 -137 233 -137c50.667 0 97.167 13.667 139.5 41s75.166 64 98.499 110c30 60 45 151.667 45 275c0 131.333 -18 226 -54 284c-53.333 88.667 -130.333 133 -231 133
c-44 0 -87.5 -11.5 -130.5 -34.5s-77.5 -57.167 -103.5 -102.5c-32.667 -60 -49 -153.333 -49 -280zM236 1024l274 305h2l272 -305l-36 -37l-236 234h-2l-238 -234z" />
    <glyph glyph-name="otilde" unicode="&#xf5;" 
d="M57 438.5c0 129.667 44.166 241.999 132.499 336.999s195.833 142.5 322.5 142.5c124 0 230.5 -47.167 319.5 -141.5s133.5 -207.166 133.5 -338.499c0 -128.667 -44.833 -237.667 -134.5 -327s-196.5 -134 -320.5 -134c-121.333 0 -227.166 44.5 -317.499 133.5
s-135.5 198.333 -135.5 328zM169.999 1091c32.667 39.333 56.5049 67 71.5049 83s36.833 33.167 65.5 51.5s56.667 27.5 84 27.5c31.333 0 75 -16 131 -48s99.667 -48 131 -48c20.667 0 41.667 5.5 63 16.5s37 21.167 47 30.5l54 51l35 -31
c-2.66699 -2.66699 -9.5 -10.5 -20.5 -23.5s-18.167 -21.167 -21.5 -24.5s-9.83301 -10.5 -19.5 -21.5s-16.834 -18.5 -21.501 -22.5s-11.5 -10.167 -20.5 -18.5s-16.167 -14.166 -21.5 -17.499s-12.833 -7.66602 -22.5 -12.999s-17.834 -9 -24.501 -11s-14.5 -4 -23.5 -6
s-17.5 -3 -25.5 -3c-32.667 0 -76.334 16 -131.001 48s-98.334 48 -131.001 48c-10.667 0 -21.667 -1.33301 -33 -4s-22 -6.83398 -32 -12.501l-26.5 -15.5c-7.66699 -4.66699 -15.834 -10.834 -24.501 -18.501s-15.5 -13.5 -20.5 -17.5s-10.833 -9.33301 -17.5 -16l-10 -12
zM227.004 454.999c0 -132.667 17.334 -229 52.001 -289c53.333 -91.333 131 -137 233 -137c50.667 0 97.167 13.667 139.5 41s75.166 64 98.499 110c30 60 45 151.667 45 275c0 131.333 -18 226 -54 284c-53.333 88.667 -130.333 133 -231 133
c-44 0 -87.5 -11.5 -130.5 -34.5s-77.5 -57.167 -103.5 -102.5c-32.667 -60 -49 -153.333 -49 -280z" />
    <glyph glyph-name="odieresis" unicode="&#xf6;" 
d="M57 438.5c0 129.667 44.166 241.999 132.499 336.999s195.833 142.5 322.5 142.5c124 0 230.5 -47.167 319.5 -141.5s133.5 -207.166 133.5 -338.499c0 -128.667 -44.833 -237.667 -134.5 -327s-196.5 -134 -320.5 -134c-121.333 0 -227.166 44.5 -317.499 133.5
s-135.5 198.333 -135.5 328zM202.999 1241c0 31.333 10.5 57.333 31.5 78s45.833 31 74.5 31c27.333 0 52.333 -10.667 75 -32s34 -47 34 -77s-11.333 -55.167 -34 -75.5s-47.667 -30.5 -75 -30.5c-31.333 0 -56.833 10.5 -76.5 31.5s-29.5 45.833 -29.5 74.5z
M226.999 454.999c0 -132.667 17.334 -229 52.001 -289c53.333 -91.333 131 -137 233 -137c50.667 0 97.167 13.667 139.5 41s75.166 64 98.499 110c30 60 45 151.667 45 275c0 131.333 -18 226 -54 284c-53.333 88.667 -130.333 133 -231 133
c-44 0 -87.5 -11.5 -130.5 -34.5s-77.5 -57.167 -103.5 -102.5c-32.667 -60 -49 -153.333 -49 -280zM600 1241c0 31.333 11 57.333 33 78s47.333 31 76 31s53.5 -10.333 74.5 -31s31.5 -46.667 31.5 -78c0 -30 -10.833 -55.167 -32.5 -75.5s-46.167 -30.5 -73.5 -30.5
c-31.333 0 -57.333 10.5 -78 31.5s-31 45.833 -31 74.5z" />
    <glyph glyph-name="divide" unicode="&#xf7;" horiz-adv-x="1593" 
d="M115 512c0 27.333 21.668 41 65.001 41h1231c42 0 63.167 -13.667 63.5 -41s-18.834 -41 -57.501 -41h-1243c-39.333 0 -59 13.667 -59 41zM666.001 72c0 36.667 12.834 67 38.501 91s55.834 36 90.501 36c35.333 0 65.666 -12 90.999 -36s38 -54.5 38 -91.5
s-13 -67.667 -39 -92s-56 -36.5 -90 -36.5c-36.667 0 -67.334 13 -92.001 39s-37 56 -37 90zM666.002 952c0 36.667 12.832 67.333 38.499 92s55.667 37 90 37s64.5 -12.167 90.5 -36.5s39 -55 39 -92s-12.667 -67.5 -38 -91.5s-55.666 -36 -90.999 -36
c-38 0 -69 12.667 -93 38s-36 55 -36 89z" />
    <glyph glyph-name="oslash" unicode="&#xf8;" 
d="M70 436c0 128.667 42.332 240.667 126.999 336s189 143 313 143c69.333 0 140.333 -19.667 213 -59l135 236l41 -23l-137 -240c16.667 -12 33.167 -26.5 49.5 -43.5s36.333 -41.833 60 -74.5s42.667 -73 57 -121s21.5 -99.333 21.5 -154c0 -130 -43.667 -239 -131 -327
s-190.333 -132 -309 -132c-69.333 0 -139 18.667 -209 56l-139 -244l-41 23l141 245c-61.333 42 -108.666 96.5 -141.999 163.5s-50 138.833 -50 215.5zM212.999 436c0 -62.667 5.16602 -116.832 15.499 -162.499s20.166 -77 29.499 -94s23 -36.5 41 -58.5l391 680
c-57.333 45.333 -116.666 67.666 -177.999 66.999c-53.333 0 -102.166 -14 -146.499 -42s-78.833 -65.667 -103.5 -113c-32.667 -64.667 -49 -157 -49 -277zM333.998 86.002c57.333 -40.667 116.001 -60.999 176.001 -60.999c53.333 0 103.166 14 149.499 42
s82.5 69 108.5 123c27.333 57.333 41 139.333 41 246c0 143.333 -28 252.666 -84 327.999h-2z" />
    <glyph glyph-name="ugrave" unicode="&#xf9;" horiz-adv-x="1136" 
d="M66 819l-0.000976562 63.999l301 22v-680c0 -32.667 1.33301 -58.5 4 -77.5s9.5 -39.5 20.5 -61.5s29.333 -38 55 -48s59.167 -15 100.5 -15c74 0 133.833 30.333 179.5 91s68.5 136 68.5 226v365c0 50.667 -9 82.334 -27 95.001s-62.333 19 -133 19v64l301 22v-727
c0 -50.667 8.83301 -82.5 26.5 -95.5s62.167 -19.5 133.5 -19.5v-63l-295 -23v185c-57.333 -122.667 -145.333 -184.334 -264 -185.001c-60 0 -110.5 7.66699 -151.5 23s-71.833 32.5 -92.5 51.5s-36.5 46.833 -47.5 83.5s-17.167 66.334 -18.5 89.001s-2 56 -2 100v307
c0 92.667 -6.66699 147.167 -20 163.5s-59.666 24.5 -138.999 24.5zM356.999 1239c0 18 6.83301 35.168 20.5 51.501s30.5 24.5 50.5 24.5c15.333 0 32.166 -7.5 50.499 -22.5s65.166 -59.5 140.499 -133.5l117 -115l-31 -40c-27.333 13.333 -118.666 64.333 -273.999 153
l-13 6c-6.66699 4 -11.667 7.16699 -15 9.5s-8.5 6.16602 -15.5 11.499s-12.167 10.333 -15.5 15s-6.66602 10.5 -9.99902 17.5s-5 14.5 -5 22.5z" />
    <glyph glyph-name="uacute" unicode="&#xfa;" horiz-adv-x="1136" 
d="M66 819l-0.000976562 63.999l301 22v-680c0 -32.667 1.33301 -58.5 4 -77.5s9.5 -39.5 20.5 -61.5s29.333 -38 55 -48s59.167 -15 100.5 -15c74 0 133.833 30.333 179.5 91s68.5 136 68.5 226v365c0 50.667 -9 82.334 -27 95.001s-62.333 19 -133 19v64l301 22v-727
c0 -50.667 8.83301 -82.5 26.5 -95.5s62.167 -19.5 133.5 -19.5v-63l-295 -23v185c-57.333 -122.667 -145.333 -184.334 -264 -185.001c-60 0 -110.5 7.66699 -151.5 23s-71.833 32.5 -92.5 51.5s-36.5 46.833 -47.5 83.5s-17.167 66.334 -18.5 89.001s-2 56 -2 100v307
c0 92.667 -6.66699 147.167 -20 163.5s-59.666 24.5 -138.999 24.5zM390.999 1044l134.998 132c65.333 65.333 106.666 104.833 123.999 118.5s33.333 20.5 48 20.5c20.667 0 37.834 -8.16699 51.501 -24.5s20.5 -33.5 20.5 -51.5c0 -8 -1.33301 -15.167 -4 -21.5
s-5.66699 -11.833 -9 -16.5s-8.16602 -9.33398 -14.499 -14.001s-11.166 -8 -14.499 -10l-16 -9.5c-7.33301 -4.33301 -12 -7.16602 -14 -8.49902c-178.667 -101.333 -270.667 -153 -276 -155z" />
    <glyph glyph-name="ucircumflex" unicode="&#xfb;" horiz-adv-x="1136" 
d="M66 819l-0.000976562 63.999l301 22v-680c0 -32.667 1.33301 -58.5 4 -77.5s9.5 -39.5 20.5 -61.5s29.333 -38 55 -48s59.167 -15 100.5 -15c74 0 133.833 30.333 179.5 91s68.5 136 68.5 226v365c0 50.667 -9 82.334 -27 95.001s-62.333 19 -133 19v64l301 22v-727
c0 -50.667 8.83301 -82.5 26.5 -95.5s62.167 -19.5 133.5 -19.5v-63l-295 -23v185c-57.333 -122.667 -145.333 -184.334 -264 -185.001c-60 0 -110.5 7.66699 -151.5 23s-71.833 32.5 -92.5 51.5s-36.5 46.833 -47.5 83.5s-17.167 66.334 -18.5 89.001s-2 56 -2 100v307
c0 92.667 -6.66699 147.167 -20 163.5s-59.666 24.5 -138.999 24.5zM303.999 1024l274 305h2l272 -305l-36 -37l-236 234h-2l-238 -234z" />
    <glyph glyph-name="udieresis" unicode="&#xfc;" horiz-adv-x="1136" 
d="M66 819l-0.000976562 63.999l301 22v-680c0 -32.667 1.33301 -58.5 4 -77.5s9.5 -39.5 20.5 -61.5s29.333 -38 55 -48s59.167 -15 100.5 -15c74 0 133.833 30.333 179.5 91s68.5 136 68.5 226v365c0 50.667 -9 82.334 -27 95.001s-62.333 19 -133 19v64l301 22v-727
c0 -50.667 8.83301 -82.5 26.5 -95.5s62.167 -19.5 133.5 -19.5v-63l-295 -23v185c-57.333 -122.667 -145.333 -184.334 -264 -185.001c-60 0 -110.5 7.66699 -151.5 23s-71.833 32.5 -92.5 51.5s-36.5 46.833 -47.5 83.5s-17.167 66.334 -18.5 89.001s-2 56 -2 100v307
c0 92.667 -6.66699 147.167 -20 163.5s-59.666 24.5 -138.999 24.5zM271.999 1241c0 31.333 10.667 57.333 32 78s46.333 31 75 31c27.333 0 52.166 -10.667 74.499 -32s33.5 -47 33.5 -77s-11.167 -55.167 -33.5 -75.5s-47.166 -30.5 -74.499 -30.5
c-31.333 0 -57 10.5 -77 31.5s-30 45.833 -30 74.5zM669.999 1241c0 31.333 10.8311 57.333 32.498 78s46.834 31 75.501 31s53.667 -10.333 75 -31s32 -46.667 32 -78c0 -30 -11 -55.167 -33 -75.5s-46.667 -30.5 -74 -30.5s-52.166 10.167 -74.499 30.5
s-33.5 45.5 -33.5 75.5z" />
    <glyph glyph-name="yacute" unicode="&#xfd;" horiz-adv-x="1079" 
d="M39 -254c0 28.667 8.49902 50.502 25.499 65.502s37.167 22.5 60.5 22.5c24.667 0 45.167 -7.83301 61.5 -23.5s24.5 -36.5 24.5 -62.5c0 -50.667 -26.667 -79.334 -80 -86.001c26 -24.667 58 -37 96 -37c40.667 0 77.5 15 110.5 45s56.667 59.333 71 88
s31.833 69 52.5 121c19.333 40.667 36.333 81 51 121l-307 748c-13.333 32.667 -30.333 52.667 -51 60s-59 11 -115 11v64c61.333 -4 127.666 -6 198.999 -6c42 0 116.333 2 223 6v-64c-76.667 0 -115 -17.667 -115 -53c0 -4 4 -16.333 12 -37l228 -551l207 504
c8 19.333 12 35.666 12 48.999c0 56 -32 85.333 -96 88v64c90 -4 149.333 -6 178 -6c56 0 107 2 153 6v-64c-91.333 0 -154.666 -43.667 -189.999 -131l-361 -874c-65.333 -155.333 -152.666 -233.333 -261.999 -234c-52 0 -96.333 16 -133 48s-55 71.333 -55 118z
M466.999 1044l134.998 132c65.333 65.333 106.666 104.833 123.999 118.5s33.333 20.5 48 20.5c20.667 0 37.834 -8.16699 51.501 -24.5s20.5 -33.5 20.5 -51.5c0 -8 -1.33301 -15.167 -4 -21.5s-5.66699 -11.833 -9 -16.5s-8.16602 -9.33398 -14.499 -14.001
s-11.166 -8 -14.499 -10l-16 -9.5c-7.33301 -4.33301 -12 -7.16602 -14 -8.49902c-178.667 -101.333 -270.667 -153 -276 -155z" />
    <glyph glyph-name="thorn" unicode="&#xfe;" horiz-adv-x="1136" 
d="M55 -336h11.001c64 0 104.833 5.5 122.5 16.5s26.5 36.167 26.5 75.5v1493c0 49.333 -10.833 79.833 -32.5 91.5s-64.167 17.5 -127.5 17.5v63l297 23v-674c74 88.667 169 133 285 133s216.667 -44.333 302 -133s128 -198 128 -328c0 -134 -46.5 -245 -139.5 -333
s-198.167 -132 -315.5 -132c-96.667 0 -181.334 41.667 -254.001 125v-344c0 -40.667 8.66699 -66.5 26 -77.5s57.333 -16.5 120 -16.5h12v-63c-79.333 4 -158.333 6 -237 6h-9c-64 0 -135.667 -2 -215 -6v63zM358.001 236c0 -52 25.3311 -100.167 75.998 -144.5
s105.334 -66.5 164.001 -66.5c84.667 0 155.667 40.5 213 121.5s86 178.833 86 293.5c0 113.333 -26.667 210.333 -80 291s-119.666 121 -198.999 121c-64 0 -120.5 -19.5 -169.5 -58.5s-78.5 -74.833 -88.5 -107.5c-1.33301 -4 -2 -17.667 -2 -41v-409z" />
    <glyph glyph-name="ydieresis" unicode="&#xff;" horiz-adv-x="1079" 
d="M39 -254c0 28.667 8.49902 50.502 25.499 65.502s37.167 22.5 60.5 22.5c24.667 0 45.167 -7.83301 61.5 -23.5s24.5 -36.5 24.5 -62.5c0 -50.667 -26.667 -79.334 -80 -86.001c26 -24.667 58 -37 96 -37c40.667 0 77.5 15 110.5 45s56.667 59.333 71 88
s31.833 69 52.5 121c19.333 40.667 36.333 81 51 121l-307 748c-13.333 32.667 -30.333 52.667 -51 60s-59 11 -115 11v64c61.333 -4 127.666 -6 198.999 -6c42 0 116.333 2 223 6v-64c-76.667 0 -115 -17.667 -115 -53c0 -4 4 -16.333 12 -37l228 -551l207 504
c8 19.333 12 35.666 12 48.999c0 56 -32 85.333 -96 88v64c90 -4 149.333 -6 178 -6c56 0 107 2 153 6v-64c-91.333 0 -154.666 -43.667 -189.999 -131l-361 -874c-65.333 -155.333 -152.666 -233.333 -261.999 -234c-52 0 -96.333 16 -133 48s-55 71.333 -55 118z
M230.999 1241c0 31.333 11 57.333 33 78s47.333 31 76 31s53.5 -10.333 74.5 -31s31.5 -46.667 31.5 -78c0 -30 -10.833 -55.167 -32.5 -75.5s-46.167 -30.5 -73.5 -30.5c-31.333 0 -57.333 10.5 -78 31.5s-31 45.833 -31 74.5zM630.999 1241
c0 31.333 10.499 57.333 31.499 78s45.833 31 74.5 31c27.333 0 52.333 -10.667 75 -32s34 -47 34 -77s-11 -55.167 -33 -75.5s-46.667 -30.5 -74 -30.5c-31.333 0 -57.166 10.5 -77.499 31.5s-30.5 45.833 -30.5 74.5z" />
    <glyph glyph-name="Amacron" unicode="&#x100;" horiz-adv-x="1536" 
d="M66 0l0.000976562 63c121.333 2.66699 197.666 48.667 228.999 138l424 1224c5.33301 16.667 11 27.667 17 33s16.667 8 32 8c8 0 14.5 -0.666992 19.5 -2s9.16699 -4.33301 12.5 -9s5.66602 -8.33398 6.99902 -11.001s4 -9 8 -19l442 -1280
c10.667 -34 27 -56.167 49 -66.5s64 -15.5 126 -15.5h36v-63c-86 4 -175.333 6 -268 6c-147.333 0 -245.666 -2 -294.999 -6v63c113.333 0 170 20.667 170 62c0 2.66699 -2 12.334 -6 29.001l-108 313h-506l-95 -268c-2.66699 -5.33301 -4 -15.666 -4 -30.999
c0 -28.667 13.333 -53.334 40 -74.001s64.667 -31 114 -31v-63c-131.333 4 -210 6 -236 6c-44.667 0 -114 -2 -208 -6zM371.001 1630v68h795v-68h-795zM477.001 530h461l-231 666z" />
    <glyph glyph-name="amacron" unicode="&#x101;" 
d="M86 195c0 116 68.3301 204.669 204.997 266.002c82 39.333 207.667 64 377 74v75c0 84.667 -22.167 149.5 -66.5 194.5s-94.5 67.5 -150.5 67.5c-100 0 -174 -31.333 -222 -94c40.667 -1.33301 68.334 -12.166 83.001 -32.499s22 -40.833 22 -61.5
c0 -27.333 -8.5 -49.833 -25.5 -67.5s-39.833 -26.5 -68.5 -26.5c-27.333 0 -50 8.5 -68 25.5s-27 40.5 -27 70.5c0 66.667 30.167 122 90.5 166s133.5 66 219.5 66c112 0 205.333 -37.667 280 -113c23.333 -23.333 40.833 -50 52.5 -80s18.167 -54.833 19.5 -74.5
s2 -48.834 2 -87.501v-409c0 -8 1.33301 -18.667 4 -32s10.167 -28.5 22.5 -45.5s28.833 -25.5 49.5 -25.5c49.333 0 73.666 43.667 72.999 131v115h52v-115c0 -72.667 -19.167 -123.167 -57.5 -151.5s-75.166 -42.5 -110.499 -42.5c-45.333 0 -82.333 16.667 -111 50
s-45 72.666 -49 117.999c-20.667 -52 -54.5 -94.833 -101.5 -128.5s-102.5 -50.5 -166.5 -50.5c-49.333 0 -97.166 6.16699 -143.499 18.5s-88.666 35.666 -126.999 69.999s-57.5 77.5 -57.5 129.5zM85.9971 1126v66h738v-66h-738zM243.997 197.002
c0 -50.667 18.001 -92.333 54.001 -125s79.333 -49 130 -49c57.333 0 111.666 22.167 162.999 66.5s77 110.166 77 197.499v205c-151.333 -5.33301 -259.833 -38.166 -325.5 -98.499s-98.5 -125.833 -98.5 -196.5z" />
    <glyph glyph-name="Abreve" unicode="&#x102;" horiz-adv-x="1536" 
d="M66 0l0.000976562 63c121.333 2.66699 197.666 48.667 228.999 138l424 1224c5.33301 16.667 11 27.667 17 33s16.667 8 32 8c8 0 14.5 -0.666992 19.5 -2s9.16699 -4.33301 12.5 -9s5.66602 -8.33398 6.99902 -11.001s4 -9 8 -19l442 -1280
c10.667 -34 27 -56.167 49 -66.5s64 -15.5 126 -15.5h36v-63c-86 4 -175.333 6 -268 6c-147.333 0 -245.666 -2 -294.999 -6v63c113.333 0 170 20.667 170 62c0 2.66699 -2 12.334 -6 29.001l-108 313h-506l-95 -268c-2.66699 -5.33301 -4 -15.666 -4 -30.999
c0 -28.667 13.333 -53.334 40 -74.001s64.667 -31 114 -31v-63c-131.333 4 -210 6 -236 6c-44.667 0 -114 -2 -208 -6zM461.001 1825l44.9971 -0.00195312c2.66699 -39.333 13.834 -73.166 33.501 -101.499s43.5 -49.666 71.5 -63.999s55 -24.5 81 -30.5s51.333 -9 76 -9
c62.667 0 120.667 17 174 51s82 85.333 86 154h47c-1.33301 -84.667 -32.666 -153 -93.999 -205s-132.333 -78 -213 -78s-151.667 26 -213 78s-92.666 120.333 -93.999 205zM476.998 529.998h461l-231 666z" />
    <glyph glyph-name="abreve" unicode="&#x103;" 
d="M86 195c0 116 68.3301 204.669 204.997 266.002c82 39.333 207.667 64 377 74v75c0 84.667 -22.167 149.5 -66.5 194.5s-94.5 67.5 -150.5 67.5c-100 0 -174 -31.333 -222 -94c40.667 -1.33301 68.334 -12.166 83.001 -32.499s22 -40.833 22 -61.5
c0 -27.333 -8.5 -49.833 -25.5 -67.5s-39.833 -26.5 -68.5 -26.5c-27.333 0 -50 8.5 -68 25.5s-27 40.5 -27 70.5c0 66.667 30.167 122 90.5 166s133.5 66 219.5 66c112 0 205.333 -37.667 280 -113c23.333 -23.333 40.833 -50 52.5 -80s18.167 -54.833 19.5 -74.5
s2 -48.834 2 -87.501v-409c0 -8 1.33301 -18.667 4 -32s10.167 -28.5 22.5 -45.5s28.833 -25.5 49.5 -25.5c49.333 0 73.666 43.667 72.999 131v115h52v-115c0 -72.667 -19.167 -123.167 -57.5 -151.5s-75.166 -42.5 -110.499 -42.5c-45.333 0 -82.333 16.667 -111 50
s-45 72.666 -49 117.999c-20.667 -52 -54.5 -94.833 -101.5 -128.5s-102.5 -50.5 -166.5 -50.5c-49.333 0 -97.166 6.16699 -143.499 18.5s-88.666 35.666 -126.999 69.999s-57.5 77.5 -57.5 129.5zM202.997 1309l47 0.000976562c4 -68 32.667 -118.5 86 -151.5
s111.333 -49.5 174 -49.5c22 0 45.5 2.66699 70.5 8s52.333 14.833 82 28.5s54.667 34.5 75 62.5s31.833 62 34.5 102h47c-4 -86 -37 -154 -99 -204s-132 -75 -210 -75s-147.667 24.667 -209 74s-94 117.666 -98 204.999zM243.997 197.003
c0 -50.667 18.001 -92.333 54.001 -125s79.333 -49 130 -49c57.333 0 111.666 22.167 162.999 66.5s77 110.166 77 197.499v205c-151.333 -5.33301 -259.833 -38.166 -325.5 -98.499s-98.5 -125.833 -98.5 -196.5z" />
    <glyph glyph-name="Aogonek" unicode="&#x104;" horiz-adv-x="1536" 
d="M66 0l0.000976562 62.998c56 1.33301 101 11.333 135 30s56.833 37.834 68.5 57.501s24.167 48.834 37.5 87.501l408 1175c12 35.333 29 53 51 53c8 0 14.833 -1 20.5 -3s10.5 -6 14.5 -12s7 -11 9 -15s5 -12.5 9 -25.5s7.33301 -22.5 10 -28.5l428 -1230
c15.333 -39.333 35 -64 59 -74s70.667 -15 140 -15h12v-63c-65.333 2.66699 -115 4 -149 4h-4c-2.66699 0 -7.5 0.333008 -14.5 1s-11.833 1 -14.5 1h-2c-34 0 -70.5 -22.5 -109.5 -67.5s-58.5 -88.833 -58.5 -131.5c0 -45.333 18.167 -82.833 54.5 -112.5
s74.833 -44.5 115.5 -44.5c22 0 42.167 4.66699 60.5 14s31.666 19.5 39.999 30.5s16.5 23 24.5 36s12.667 20.167 14 21.5c9.33301 9.33301 19 10.666 29 3.99902c4 -4 6 -9.33301 6 -16c0 -34 -20.5 -73.167 -61.5 -117.5s-92.167 -66.5 -153.5 -66.5
c-57.333 0 -108.5 18.667 -153.5 56s-67.5 86 -67.5 146c0 78 50.667 160.667 152 248l-271 -6v63h4c108 0 162 22 162 66c0 10.667 -36.667 123.334 -110 338.001h-508c-8 -27.333 -21 -65.5 -39 -114.5s-32.167 -89.667 -42.5 -122s-15.5 -53.833 -15.5 -64.5
c0 -24.667 12 -47.5 36 -68.5s62.667 -32.5 116 -34.5v-63c-79.333 4 -159.333 6 -240 6c-66.667 0 -134 -2 -202 -6zM475.001 529.998h463l-231 666z" />
    <glyph glyph-name="aogonek" unicode="&#x105;" 
d="M84 197c0 36.667 8.82812 72.6689 26.4951 108.002s47 70.5 88 105.5s101.833 63.667 182.5 86s176.334 35.166 287.001 38.499v61c0 95.333 -22.667 164.5 -68 207.5s-95.666 64.5 -150.999 64.5c-91.333 0 -164.666 -30 -219.999 -90c36.667 0 63 -10.167 79 -30.5
s24 -41.5 24 -63.5c0 -27.333 -8.83301 -49.833 -26.5 -67.5s-39.5 -26.5 -65.5 -26.5c-24.667 0 -47 8.83301 -67 26.5s-30 41.5 -30 71.5c0 64 30.5 117.833 91.5 161.5s134.5 65.5 220.5 65.5c35.333 0 71.833 -5 109.5 -15s75.834 -26 114.501 -48
s70.334 -55.167 95.001 -99.5s37 -96.5 37 -156.5v-403c0 -90 24.667 -135.333 74 -136c26 0 46.333 15.667 61 47c8 19.333 12 49.666 12 90.999v102h54v-96v-23.5c0 -14.333 -0.666992 -26 -2 -35s-3.83301 -20.667 -7.5 -35s-10.167 -28.333 -19.5 -42
s-21 -25.834 -35 -36.501c-18 -15.333 -36.5 -25.666 -55.5 -30.999s-37.333 -8 -55 -8s-28.5 -0.666992 -32.5 -2c-19.333 -6.66699 -45.333 -28.834 -78 -66.501s-49 -76.5 -49 -116.5c0 -42 17.667 -78.667 53 -110s75 -47 119 -47c31.333 0 56.833 7.83301 76.5 23.5
s35 32.667 46 51s18.5 28.833 22.5 31.5c6.66699 2.66699 13.167 2 19.5 -2s9.5 -10 9.5 -18c0 -28.667 -19.5 -65.5 -58.5 -110.5s-91.167 -67.5 -156.5 -67.5c-57.333 0 -108.833 18.333 -154.5 55s-68.5 84.334 -68.5 143.001c0 86 57.333 172.667 172 260
c-42 34 -66.667 80.667 -74 140c-60 -117.333 -149.333 -176.333 -268 -177c-83.333 0 -159.5 17.833 -228.5 53.5s-103.5 91.167 -103.5 166.5zM243.995 199.002c0 -50.667 18.001 -92.334 54.001 -125.001s79.333 -49 130 -49c61.333 0 116.666 22.833 165.999 68.5
s74 112.834 74 201.501v197c-150 -6.66699 -258.167 -39 -324.5 -97s-99.5 -123.333 -99.5 -196z" />
    <glyph glyph-name="Cacute" unicode="&#x106;" horiz-adv-x="1478" 
d="M115 700c0 206 70.3359 381.501 211.003 526.501s307.667 217.5 501 217.5c60 0 116.667 -11 170 -33s92.333 -42.5 117 -61.5s54.667 -46.167 90 -81.5l103 151c10.667 16.667 21.5 25 32.5 25s17.5 -3.16699 19.5 -9.5s3 -19.5 3 -39.5v-486
c0 -22 -1.33301 -35.667 -4 -41s-12.334 -8 -29.001 -8c-13.333 0 -21.5 2 -24.5 6s-5.83301 13.667 -8.5 29c-20.667 147.333 -71.834 265 -153.501 353s-179.167 132 -292.5 132c-32.667 0 -67.167 -3.66699 -103.5 -11s-80.666 -25 -132.999 -53
s-98.666 -65.167 -138.999 -111.5s-75.166 -113.333 -104.499 -201s-44 -189.5 -44 -305.5c0 -114.667 14.667 -216 44 -304s64.166 -154.833 104.499 -200.5s86.666 -82.5 138.999 -110.5s97 -45.833 134 -53.5s71.833 -11.5 104.5 -11.5c117.333 0 221 41.667 311 125
s139.333 195.333 148 336c1.33301 6.66699 2 11.5 2 14.5s0.666992 6.16699 2 9.5s3.66602 5.66602 6.99902 6.99902s7.66602 2 12.999 2c18 0 27 -11.667 27 -35c0 -130 -49.833 -249.5 -149.5 -358.5s-228.167 -163.5 -385.5 -163.5c-194 0 -361.167 72 -501.5 216
s-210.5 320.333 -210.5 529zM641.003 1567c204.667 126.667 313.668 192 327.001 196c4 1.33301 9.66699 2 17 2c19.333 0 35.666 -8.16699 48.999 -24.5s20 -33.5 20 -51.5c0 -39.333 -28.667 -64.333 -86 -75l-307 -95z" />
    <glyph glyph-name="cacute" unicode="&#x107;" horiz-adv-x="909" 
d="M70 442.5c0 129.667 42.6689 241.331 128.002 334.998s190.666 140.5 315.999 140.5c83.333 0 156.333 -19.833 219 -59.5s94 -93.167 94 -160.5c0 -30 -8.83301 -53.5 -26.5 -70.5s-40.167 -25.5 -67.5 -25.5c-28.667 0 -51.5 8.83301 -68.5 26.5
s-25.5 40.167 -25.5 67.5c0 12 2 24 6 36s13.5 24.333 28.5 37s35.5 20 61.5 22c-49.333 50.667 -122.333 75.667 -219 75c-69.333 0 -132.666 -32.667 -189.999 -98s-86 -172.666 -86 -321.999c0 -78 9.5 -145.5 28.5 -202.5s44.167 -100.167 75.5 -129.5
s62.333 -50.833 93 -64.5s61 -20.5 91 -20.5c134 0 223.667 71.667 269 215c4 13.333 12.667 20 26 20c18 0 27 -6.66699 27 -20c0 -6.66699 -2.66699 -18.667 -8 -36s-16.333 -39.666 -33 -66.999s-36.834 -52.833 -60.501 -76.5s-56.334 -44.167 -98.001 -61.5
s-88.5 -26 -140.5 -26c-120 0 -223.333 45.167 -310 135.5s-130 200.333 -130 330zM354.002 1044l134.998 132c65.333 65.333 106.666 104.833 123.999 118.5s33.333 20.5 48 20.5c20.667 0 37.834 -8.16699 51.501 -24.5s20.5 -33.5 20.5 -51.5
c0 -8 -1.33301 -15.167 -4 -21.5s-5.66699 -11.833 -9 -16.5s-8.16602 -9.33398 -14.499 -14.001s-11.166 -8 -14.499 -10l-16 -9.5c-7.33301 -4.33301 -12 -7.16602 -14 -8.49902c-178.667 -101.333 -270.667 -153 -276 -155z" />
    <glyph glyph-name="Ccircumflex" unicode="&#x108;" horiz-adv-x="1478" 
d="M115 700c0 206 70.3359 381.501 211.003 526.501s307.667 217.5 501 217.5c60 0 116.667 -11 170 -33s92.333 -42.5 117 -61.5s54.667 -46.167 90 -81.5l103 151c10.667 16.667 21.5 25 32.5 25s17.5 -3.16699 19.5 -9.5s3 -19.5 3 -39.5v-486
c0 -22 -1.33301 -35.667 -4 -41s-12.334 -8 -29.001 -8c-13.333 0 -21.5 2 -24.5 6s-5.83301 13.667 -8.5 29c-20.667 147.333 -71.834 265 -153.501 353s-179.167 132 -292.5 132c-32.667 0 -67.167 -3.66699 -103.5 -11s-80.666 -25 -132.999 -53
s-98.666 -65.167 -138.999 -111.5s-75.166 -113.333 -104.499 -201s-44 -189.5 -44 -305.5c0 -114.667 14.667 -216 44 -304s64.166 -154.833 104.499 -200.5s86.666 -82.5 138.999 -110.5s97 -45.833 134 -53.5s71.833 -11.5 104.5 -11.5c117.333 0 221 41.667 311 125
s139.333 195.333 148 336c1.33301 6.66699 2 11.5 2 14.5s0.666992 6.16699 2 9.5s3.66602 5.66602 6.99902 6.99902s7.66602 2 12.999 2c18 0 27 -11.667 27 -35c0 -130 -49.833 -249.5 -149.5 -358.5s-228.167 -163.5 -385.5 -163.5c-194 0 -361.167 72 -501.5 216
s-210.5 320.333 -210.5 529zM553.003 1559l274 288l274 -288l-36 -35l-238 215l-238 -215z" />
    <glyph glyph-name="ccircumflex" unicode="&#x109;" horiz-adv-x="909" 
d="M70 442.5c0 129.667 42.6689 241.331 128.002 334.998s190.666 140.5 315.999 140.5c83.333 0 156.333 -19.833 219 -59.5s94 -93.167 94 -160.5c0 -30 -8.83301 -53.5 -26.5 -70.5s-40.167 -25.5 -67.5 -25.5c-28.667 0 -51.5 8.83301 -68.5 26.5
s-25.5 40.167 -25.5 67.5c0 12 2 24 6 36s13.5 24.333 28.5 37s35.5 20 61.5 22c-49.333 50.667 -122.333 75.667 -219 75c-69.333 0 -132.666 -32.667 -189.999 -98s-86 -172.666 -86 -321.999c0 -78 9.5 -145.5 28.5 -202.5s44.167 -100.167 75.5 -129.5
s62.333 -50.833 93 -64.5s61 -20.5 91 -20.5c134 0 223.667 71.667 269 215c4 13.333 12.667 20 26 20c18 0 27 -6.66699 27 -20c0 -6.66699 -2.66699 -18.667 -8 -36s-16.333 -39.666 -33 -66.999s-36.834 -52.833 -60.501 -76.5s-56.334 -44.167 -98.001 -61.5
s-88.5 -26 -140.5 -26c-120 0 -223.333 45.167 -310 135.5s-130 200.333 -130 330zM240.002 1024l274 305h2l272 -305l-36 -37l-236 234h-2l-238 -234z" />
    <glyph glyph-name="Cdotaccent" unicode="&#x10a;" horiz-adv-x="1478" 
d="M115 700c0 206 70.3359 381.501 211.003 526.501s307.667 217.5 501 217.5c60 0 116.667 -11 170 -33s92.333 -42.5 117 -61.5s54.667 -46.167 90 -81.5l103 151c10.667 16.667 21.5 25 32.5 25s17.5 -3.16699 19.5 -9.5s3 -19.5 3 -39.5v-486
c0 -22 -1.33301 -35.667 -4 -41s-12.334 -8 -29.001 -8c-13.333 0 -21.5 2 -24.5 6s-5.83301 13.667 -8.5 29c-20.667 147.333 -71.834 265 -153.501 353s-179.167 132 -292.5 132c-32.667 0 -67.167 -3.66699 -103.5 -11s-80.666 -25 -132.999 -53
s-98.666 -65.167 -138.999 -111.5s-75.166 -113.333 -104.499 -201s-44 -189.5 -44 -305.5c0 -114.667 14.667 -216 44 -304s64.166 -154.833 104.499 -200.5s86.666 -82.5 138.999 -110.5s97 -45.833 134 -53.5s71.833 -11.5 104.5 -11.5c117.333 0 221 41.667 311 125
s139.333 195.333 148 336c1.33301 6.66699 2 11.5 2 14.5s0.666992 6.16699 2 9.5s3.66602 5.66602 6.99902 6.99902s7.66602 2 12.999 2c18 0 27 -11.667 27 -35c0 -130 -49.833 -249.5 -149.5 -358.5s-228.167 -163.5 -385.5 -163.5c-194 0 -361.167 72 -501.5 216
s-210.5 320.333 -210.5 529zM718.003 1677c0 30 10.667 55.667 32 77s47 32 77 32s55.667 -10.667 77 -32s32 -47 32 -77s-10.667 -55.5 -32 -76.5s-47 -31.5 -77 -31.5s-55.667 10.5 -77 31.5s-32 46.5 -32 76.5z" />
    <glyph glyph-name="cdotaccent" unicode="&#x10b;" horiz-adv-x="909" 
d="M70 442.5c0 129.667 42.6689 241.331 128.002 334.998s190.666 140.5 315.999 140.5c83.333 0 156.333 -19.833 219 -59.5s94 -93.167 94 -160.5c0 -30 -8.83301 -53.5 -26.5 -70.5s-40.167 -25.5 -67.5 -25.5c-28.667 0 -51.5 8.83301 -68.5 26.5
s-25.5 40.167 -25.5 67.5c0 12 2 24 6 36s13.5 24.333 28.5 37s35.5 20 61.5 22c-49.333 50.667 -122.333 75.667 -219 75c-69.333 0 -132.666 -32.667 -189.999 -98s-86 -172.666 -86 -321.999c0 -78 9.5 -145.5 28.5 -202.5s44.167 -100.167 75.5 -129.5
s62.333 -50.833 93 -64.5s61 -20.5 91 -20.5c134 0 223.667 71.667 269 215c4 13.333 12.667 20 26 20c18 0 27 -6.66699 27 -20c0 -6.66699 -2.66699 -18.667 -8 -36s-16.333 -39.666 -33 -66.999s-36.834 -52.833 -60.501 -76.5s-56.334 -44.167 -98.001 -61.5
s-88.5 -26 -140.5 -26c-120 0 -223.333 45.167 -310 135.5s-130 200.333 -130 330zM406.002 1260c0 31.333 10.8311 57.166 32.498 77.499s46.834 30.5 75.501 30.5s53.667 -10.167 75 -30.5s32 -46.166 32 -77.499c0 -30 -11 -55.333 -33 -76s-46.667 -31 -74 -31
c-31.333 0 -57.166 10.667 -77.499 32s-30.5 46.333 -30.5 75z" />
    <glyph glyph-name="Ccaron" unicode="&#x10c;" horiz-adv-x="1478" 
d="M115 700c0 206 70.3359 381.501 211.003 526.501s307.667 217.5 501 217.5c60 0 116.667 -11 170 -33s92.333 -42.5 117 -61.5s54.667 -46.167 90 -81.5l103 151c10.667 16.667 21.5 25 32.5 25s17.5 -3.16699 19.5 -9.5s3 -19.5 3 -39.5v-486
c0 -22 -1.33301 -35.667 -4 -41s-12.334 -8 -29.001 -8c-13.333 0 -21.5 2 -24.5 6s-5.83301 13.667 -8.5 29c-20.667 147.333 -71.834 265 -153.501 353s-179.167 132 -292.5 132c-32.667 0 -67.167 -3.66699 -103.5 -11s-80.666 -25 -132.999 -53
s-98.666 -65.167 -138.999 -111.5s-75.166 -113.333 -104.499 -201s-44 -189.5 -44 -305.5c0 -114.667 14.667 -216 44 -304s64.166 -154.833 104.499 -200.5s86.666 -82.5 138.999 -110.5s97 -45.833 134 -53.5s71.833 -11.5 104.5 -11.5c117.333 0 221 41.667 311 125
s139.333 195.333 148 336c1.33301 6.66699 2 11.5 2 14.5s0.666992 6.16699 2 9.5s3.66602 5.66602 6.99902 6.99902s7.66602 2 12.999 2c18 0 27 -11.667 27 -35c0 -130 -49.833 -249.5 -149.5 -358.5s-228.167 -163.5 -385.5 -163.5c-194 0 -361.167 72 -501.5 216
s-210.5 320.333 -210.5 529zM539.003 1882l24 33l83 -49.5l65.5 -39c15.667 -9.66699 32 -19.167 49 -28.5s29.667 -16.5 38 -21.5s16.666 -9.5 24.999 -13.5s14.833 -6.66699 19.5 -8s9 -2 13 -2c5.33301 0 24.833 9.83301 58.5 29.5l121 71.5
c47 28 82.167 48.333 105.5 61l24 -33c-151.333 -130 -239.666 -205.167 -264.999 -225.5s-41.333 -30.5 -48 -30.5c-9.33301 0 -74.333 51.333 -195 154z" />
    <glyph glyph-name="ccaron" unicode="&#x10d;" horiz-adv-x="909" 
d="M70 442.5c0 129.667 42.6689 241.331 128.002 334.998s190.666 140.5 315.999 140.5c83.333 0 156.333 -19.833 219 -59.5s94 -93.167 94 -160.5c0 -30 -8.83301 -53.5 -26.5 -70.5s-40.167 -25.5 -67.5 -25.5c-28.667 0 -51.5 8.83301 -68.5 26.5
s-25.5 40.167 -25.5 67.5c0 12 2 24 6 36s13.5 24.333 28.5 37s35.5 20 61.5 22c-49.333 50.667 -122.333 75.667 -219 75c-69.333 0 -132.666 -32.667 -189.999 -98s-86 -172.666 -86 -321.999c0 -78 9.5 -145.5 28.5 -202.5s44.167 -100.167 75.5 -129.5
s62.333 -50.833 93 -64.5s61 -20.5 91 -20.5c134 0 223.667 71.667 269 215c4 13.333 12.667 20 26 20c18 0 27 -6.66699 27 -20c0 -6.66699 -2.66699 -18.667 -8 -36s-16.333 -39.666 -33 -66.999s-36.834 -52.833 -60.501 -76.5s-56.334 -44.167 -98.001 -61.5
s-88.5 -26 -140.5 -26c-120 0 -223.333 45.167 -310 135.5s-130 200.333 -130 330zM184.002 1292l27 31c182.667 -122.667 278.167 -184 286.5 -184s61.5 33.333 159.5 100l127 84l27 -31l-313 -301z" />
    <glyph glyph-name="Dcaron" unicode="&#x10e;" horiz-adv-x="1562" 
d="M72 0l-0.00292969 63h49c74 0 119.5 6.16699 136.5 18.5s25.5 38.5 25.5 78.5v1079c0 39.333 -8.66699 65.166 -26 77.499s-62.666 18.5 -135.999 18.5h-49v64h749c174.667 0 322.834 -69.667 444.501 -209s182.5 -306.666 182.5 -501.999
c0 -191.333 -61.167 -353.833 -183.5 -487.5s-270.166 -200.5 -443.499 -200.5h-749zM372.997 1882l21.999 33h2l83 -49.5l65.5 -39l48 -28.5l38 -21.5l25 -13.5c7.66699 -4 13.834 -6.66699 18.501 -8s9 -2 13 -2c5.33301 0 25.166 9.83301 59.499 29.5l122 71.5
c47 28 82.167 48.333 105.5 61l22 -33c-151.333 -130 -239.666 -205.167 -264.999 -225.5s-41.333 -30.5 -48 -30.5c-8 0 -57 39 -147 117zM458.996 145c0 -35.333 4.99902 -57.832 14.999 -67.499s38.333 -14.5 85 -14.5h207c90 0 165.333 18.5 226 55.5
s106.667 76.833 138 119.5c75.333 102.667 113 252.667 113 450c0 207.333 -35.333 359.666 -106 456.999c-91.333 126.667 -215.666 190 -372.999 190h-205c-46.667 0 -75 -4.66699 -85 -14s-15 -32 -15 -68v-1108z" />
    <glyph glyph-name="dcaron" unicode="&#x10f;" horiz-adv-x="1382" 
d="M70 440c0 130 45.332 239.999 135.999 329.999s197.334 135 320.001 135c104 0 190 -42.333 258 -127v443c0 50.667 -8.83301 82.334 -26.5 95.001s-61.834 19 -132.501 19v64l295 22v-1243c0 -50.667 8.83301 -82.5 26.5 -95.5s61.834 -19.5 132.501 -19.5v-63l-301 -23
v136c-70.667 -90 -162 -135.333 -274 -136c-117.333 0 -219 45 -305 135s-129 199.333 -129 328zM239.999 437.999c0 -126.667 19.666 -221.332 58.999 -283.999c54.667 -87.333 126.334 -131 215.001 -131c101.333 0 182 47.667 242 143
c15.333 23.333 22.666 48.666 21.999 75.999v420c0 27.333 -7.33301 52.333 -22 75c-56 82 -129.667 123 -221 123c-95.333 0 -172.666 -43.667 -231.999 -131c-42 -65.333 -63 -162.333 -63 -291zM1014 1399c0 28.667 9.49902 53.834 28.499 75.501s45.667 32.5 80 32.5
s65.333 -15.333 93 -46s41.5 -73.334 41.5 -128.001c0 -56 -13.5 -108.833 -40.5 -158.5s-54.833 -86.167 -83.5 -109.5s-50 -35 -64 -35c-15.333 0 -22.666 6.33301 -21.999 19c0 5.33301 8.5 15.5 25.5 30.5l56 50c20.333 18.333 39 46.333 56 84s25.5 78.167 25.5 121.5
c-24.667 -28.667 -54.667 -43 -90 -43c-30 0 -55.167 10 -75.5 30s-30.5 45.667 -30.5 77z" />
    <glyph glyph-name="Dcroat" unicode="&#x110;" horiz-adv-x="1564" 
d="M70 0v62.998h22c80.667 0 132.334 5.5 155.001 16.5s34 36.5 34 76.5v499c-12 0 -30.167 -0.333008 -54.5 -1s-42.5 -1 -54.5 -1c-42 0 -68.167 1.5 -78.5 4.5s-17.5 9.83301 -21.5 20.5v10c0 19.333 16.333 29 49 29c6.66699 0 15.5 0.333008 26.5 1s19.833 1 26.5 1
c12 0 29.667 -0.333008 53 -1s41.333 -1 54 -1v526c0 39.333 -11.333 64.5 -34 75.5s-74.334 16.5 -155.001 16.5h-22v64h710c136.667 0 250.667 -28.667 342 -86c101.333 -62.667 181 -150.667 239 -264s87 -233.666 87 -360.999c0 -176 -53 -329.167 -159 -459.5
s-238.667 -205.166 -398 -224.499c-22 -2.66699 -55.333 -4 -100 -4h-721zM459 136.998c1.33301 -35.333 9.49902 -56.5 24.499 -63.5s54.5 -10.5 118.5 -10.5h150c174.667 0 305 64.333 391 193c66.667 96.667 100 242 100 436c0 202 -35.333 353.667 -106 455
c-87.333 125.333 -215.666 188 -384.999 188h-35c-13.333 0 -32.333 0.333008 -57 1s-44 1 -58 1h-20c-49.333 0 -81.833 -4 -97.5 -12s-24.167 -29 -25.5 -63v-545h340c30 -2.66699 45 -13 45 -31s-15.667 -28.333 -47 -31h-338v-518z" />
    <glyph glyph-name="dcroat" unicode="&#x111;" horiz-adv-x="1136" 
d="M68 440c0 132.667 46 243 138 331s198 132 318 132c98 0 184.667 -41.667 260 -125v309h-440v64h440v57v36c0 4.66699 -1 14.167 -3 28.5s-5.33301 24 -10 29s-11.834 10.5 -21.501 16.5s-21.834 10.333 -36.501 13c-19.333 2.66699 -48.666 4 -87.999 4v64l297 22v-270
h135v-64h-135v-909c0 -48 8.83301 -79.167 26.5 -93.5s57.834 -21.5 120.501 -21.5h12v-63l-303 -23l-2 136c-70.667 -90 -162 -135.333 -274 -136c-114.667 0 -215.667 44.333 -303 133s-131 198.667 -131 330zM240 446c0 -140.667 22.999 -243.668 68.999 -309.001
c52 -75.333 120.333 -112.666 205 -111.999c68 0 129 23.833 183 71.5s81 94.834 81 141.501v419c0 49.333 -25.167 94.833 -75.5 136.5s-106.166 62.5 -167.499 62.5c-94 0 -170.667 -43 -230 -129c-43.333 -64.667 -65 -158.334 -65 -281.001z" />
    <glyph glyph-name="Emacron" unicode="&#x112;" horiz-adv-x="1392" 
d="M68 0l0.000976562 62.999h49c74 0 119.5 6.16699 136.5 18.5s25.5 38.5 25.5 78.5v1073c0 39.333 -8.66699 65.166 -26 77.499s-62.666 18.5 -135.999 18.5h-49v64h1153l57 -461h-51c-9.33301 78 -20.166 139.5 -32.499 184.5s-33.333 84.833 -63 119.5
s-68.667 58.834 -117 72.501s-111.5 20.5 -189.5 20.5h-264c-46.667 0 -75 -4.83301 -85 -14.5s-15 -32.167 -15 -67.5v-491h184c94 0 154.333 16.333 181 49s40 96 40 190h52v-542h-52c0 92.667 -13.333 155.667 -40 189s-87 50 -181 50h-184v-547
c0 -35.333 5.16699 -57.833 15.5 -67.5s38.5 -14.5 84.5 -14.5h273c58.667 0 109.5 3.83301 152.5 11.5s79.5 21 109.5 40s55.167 39.5 75.5 61.5s37.666 52.833 51.999 92.5s25.666 77.834 33.999 114.501s17.166 85 26.499 145h51l-86 -528h-1181zM303.001 1630v68h795
v-68h-795z" />
    <glyph glyph-name="emacron" unicode="&#x113;" horiz-adv-x="909" 
d="M57 451c0 128.667 41.3301 238.667 123.997 330s183.334 137 302.001 137c120 0 211.167 -39 273.5 -117s93.5 -173 93.5 -285c0 -20.667 -2.66699 -33 -8 -37s-19.666 -6 -42.999 -6h-572c0 -139.333 20.667 -241.666 62 -306.999c57.333 -91.333 134.333 -137 231 -137
c13.333 0 28 1.33301 44 4s40.333 9.83398 73 21.501s63.334 33.167 92.001 64.5s51.334 71.666 68.001 120.999c4 19.333 12.667 28.666 26 27.999c18 0 27 -8 27 -24c0 -12 -6.5 -31.5 -19.5 -58.5s-31.833 -56.5 -56.5 -88.5s-60.834 -60 -108.501 -84
s-100.167 -36 -157.5 -36c-120 0 -225.167 45.5 -315.5 136.5s-135.5 203.5 -135.5 337.5zM113.997 1126v66h738v-66h-738zM228.997 516h485.999c0 28.667 -2.5 59 -7.5 91s-14.667 70.167 -29 114.5s-38.166 80.5 -71.499 108.5s-74.666 42 -123.999 42
c-22 0 -44.833 -4.66699 -68.5 -14s-49.834 -25.333 -78.501 -48s-53 -59.667 -73 -111s-31.333 -112.333 -34 -183z" />
    <glyph glyph-name="Edotaccent" unicode="&#x116;" horiz-adv-x="1392" 
d="M68 0l0.000976562 62.999h49c74 0 119.5 6.16699 136.5 18.5s25.5 38.5 25.5 78.5v1073c0 39.333 -8.66699 65.166 -26 77.499s-62.666 18.5 -135.999 18.5h-49v64h1153l57 -461h-51c-9.33301 78 -20.166 139.5 -32.499 184.5s-33.333 84.833 -63 119.5
s-68.667 58.834 -117 72.501s-111.5 20.5 -189.5 20.5h-264c-46.667 0 -75 -4.83301 -85 -14.5s-15 -32.167 -15 -67.5v-491h184c94 0 154.333 16.333 181 49s40 96 40 190h52v-542h-52c0 92.667 -13.333 155.667 -40 189s-87 50 -181 50h-184v-547
c0 -35.333 5.16699 -57.833 15.5 -67.5s38.5 -14.5 84.5 -14.5h273c58.667 0 109.5 3.83301 152.5 11.5s79.5 21 109.5 40s55.167 39.5 75.5 61.5s37.666 52.833 51.999 92.5s25.666 77.834 33.999 114.501s17.166 85 26.499 145h51l-86 -528h-1181zM591.001 1677
c0 30 10.667 55.667 32 77s47 32 77 32s55.667 -10.667 77 -32s32 -47 32 -77s-10.667 -55.5 -32 -76.5s-47 -31.5 -77 -31.5s-55.667 10.5 -77 31.5s-32 46.5 -32 76.5z" />
    <glyph glyph-name="edotaccent" unicode="&#x117;" horiz-adv-x="909" 
d="M57 451c0 128.667 41.3301 238.667 123.997 330s183.334 137 302.001 137c120 0 211.167 -39 273.5 -117s93.5 -173 93.5 -285c0 -20.667 -2.66699 -33 -8 -37s-19.666 -6 -42.999 -6h-572c0 -139.333 20.667 -241.666 62 -306.999c57.333 -91.333 134.333 -137 231 -137
c13.333 0 28 1.33301 44 4s40.333 9.83398 73 21.501s63.334 33.167 92.001 64.5s51.334 71.666 68.001 120.999c4 19.333 12.667 28.666 26 27.999c18 0 27 -8 27 -24c0 -12 -6.5 -31.5 -19.5 -58.5s-31.833 -56.5 -56.5 -88.5s-60.834 -60 -108.501 -84
s-100.167 -36 -157.5 -36c-120 0 -225.167 45.5 -315.5 136.5s-135.5 203.5 -135.5 337.5zM228.997 516h485.999c0 28.667 -2.5 59 -7.5 91s-14.667 70.167 -29 114.5s-38.166 80.5 -71.499 108.5s-74.666 42 -123.999 42c-22 0 -44.833 -4.66699 -68.5 -14
s-49.834 -25.333 -78.501 -48s-53 -59.667 -73 -111s-31.333 -112.333 -34 -183zM374.996 1260c0 31.333 10.8311 57.166 32.498 77.499s46.834 30.5 75.501 30.5s53.667 -10.167 75 -30.5s32 -46.166 32 -77.499c0 -30 -11 -55.333 -33 -76s-46.667 -31 -74 -31
c-31.333 0 -57.166 10.667 -77.499 32s-30.5 46.333 -30.5 75z" />
    <glyph glyph-name="Eogonek" unicode="&#x118;" horiz-adv-x="1392" 
d="M68 0l0.00195312 63.0049h30c72.667 0 120.5 5.16699 143.5 15.5s35.5 34.833 37.5 73.5v1093c-1.33301 35.333 -13.333 58.5 -36 69.5s-71 16.5 -145 16.5h-30v62h1155l55 -461h-51c-9.33301 72.667 -20.5 131.5 -33.5 176.5s-29.167 83.167 -48.5 114.5
s-46 54.166 -80 68.499s-71.167 24.5 -111.5 30.5s-93.833 9 -160.5 9h-189c-62.667 0 -101.834 -4 -117.501 -12s-24.167 -29.333 -25.5 -64v-499h164c34 0 60.167 0.666992 78.5 2s40.5 5.66602 66.5 12.999s46.167 20.666 60.5 39.999s24.166 44.666 29.499 75.999
c4 23.333 6 58.666 6 105.999h52v-540h-52v16c0 90 -15.667 149.667 -47 179s-92.666 44 -183.999 44h-174v-551c0 -34 7.16699 -55.5 21.5 -64.5s46.166 -13.5 95.499 -13.5h223c58.667 0 106.667 2.16699 144 6.5s76.166 14 116.499 29s74.166 38.167 101.499 69.5
s50 72.333 68 123c20.667 56 38.334 135 53.001 237h51l-86 -528h-159c-20.667 0 -36.834 -3.33301 -48.501 -10s-27.167 -19.667 -46.5 -39c-48 -48 -71.667 -96 -71 -144c0 -45.333 17.667 -82.833 53 -112.5s73.666 -44.5 114.999 -44.5
c24.667 0 46.834 5.83301 66.501 17.5s33.834 24.667 42.501 39s17.167 27.166 25.5 38.499s15.833 17 22.5 17c5.33301 0 10.333 -2 15 -6c2.66699 -1.33301 4 -6.66602 4 -15.999c0 -34 -20.167 -73.167 -60.5 -117.5s-91.833 -66.5 -154.5 -66.5
c-57.333 0 -108.666 18.667 -153.999 56s-68 86 -68 146c0 79.333 48.667 160 146 242h-909z" />
    <glyph glyph-name="eogonek" unicode="&#x119;" horiz-adv-x="909" 
d="M55 449c0 124 41 232.668 123 326.001s184.333 140 307 140c109.333 0 197.5 -36.5 264.5 -109.5s100.5 -170.167 100.5 -291.5c0 -18 -3.16699 -29.667 -9.5 -35s-20.833 -8 -43.5 -8h-570c0 -139.333 20.667 -241.666 62 -306.999
c54.667 -88.667 131.667 -133 231 -133c64 0 119.667 18.667 167 56s81 80.666 101 129.999c15.333 34 28.333 51 39 51c13.333 0 20.333 -8.66699 21 -26c0 -28.667 -15.667 -65.667 -47 -111c-22 -31.333 -57.167 -65.166 -105.5 -101.499s-88.333 -71.5 -120 -105.5
s-47.5 -72.833 -47.5 -116.5s17.833 -80.834 53.5 -111.501s73.834 -46 114.501 -46c22 0 42.167 4.66699 60.5 14s32 19.5 41 30.5s17.667 23 26 36s13.166 20.167 14.499 21.5c8 9.33301 16 11.666 24 6.99902s12 -11.667 12 -21c0 -30 -19.333 -67.833 -58 -113.5
s-91.667 -68.5 -159 -68.5c-56 0 -106.833 18.667 -152.5 56s-68.5 86 -68.5 146c0 66.667 40.333 140.667 121 222c-10.667 -1.33301 -27 -2.33301 -49 -3c-120 0 -225.5 45.167 -316.5 135.5s-136.5 202.5 -136.5 336.5zM229 516.001h484.001
c-1.33301 68 -9.5 126.667 -24.5 176s-34.833 86 -59.5 110s-49.334 41 -74.001 51s-50 15 -76 15c-57.333 -1.33301 -112 -29.333 -164 -84s-80.667 -144 -86 -268z" />
    <glyph glyph-name="Ecaron" unicode="&#x11a;" horiz-adv-x="1392" 
d="M68 0l0.000976562 62.999h49c74 0 119.5 6.16699 136.5 18.5s25.5 38.5 25.5 78.5v1073c0 39.333 -8.66699 65.166 -26 77.499s-62.666 18.5 -135.999 18.5h-49v64h1153l57 -461h-51c-9.33301 78 -20.166 139.5 -32.499 184.5s-33.333 84.833 -63 119.5
s-68.667 58.834 -117 72.501s-111.5 20.5 -189.5 20.5h-264c-46.667 0 -75 -4.83301 -85 -14.5s-15 -32.167 -15 -67.5v-491h184c94 0 154.333 16.333 181 49s40 96 40 190h52v-542h-52c0 92.667 -13.333 155.667 -40 189s-87 50 -181 50h-184v-547
c0 -35.333 5.16699 -57.833 15.5 -67.5s38.5 -14.5 84.5 -14.5h273c58.667 0 109.5 3.83301 152.5 11.5s79.5 21 109.5 40s55.167 39.5 75.5 61.5s37.666 52.833 51.999 92.5s25.666 77.834 33.999 114.501s17.166 85 26.499 145h51l-86 -528h-1181zM338.001 1882
l23.9961 33h3l82.5 -49.5l65.5 -39l48.5 -28.5l37.5 -21.5c8.66699 -5 16.834 -9.5 24.501 -13.5s13.834 -6.66699 18.501 -8s9 -2 13 -2c5.33301 0 24.833 9.83301 58.5 29.5l121 71.5c47 28 82.167 48.333 105.5 61l25 -33
c-151.333 -130 -239.666 -205.167 -264.999 -225.5s-41.666 -30.5 -48.999 -30.5c-9.33301 0 -74 51.333 -194 154z" />
    <glyph glyph-name="ecaron" unicode="&#x11b;" horiz-adv-x="909" 
d="M57 451c0 128.667 41.3301 238.667 123.997 330s183.334 137 302.001 137c120 0 211.167 -39 273.5 -117s93.5 -173 93.5 -285c0 -20.667 -2.66699 -33 -8 -37s-19.666 -6 -42.999 -6h-572c0 -139.333 20.667 -241.666 62 -306.999c57.333 -91.333 134.333 -137 231 -137
c13.333 0 28 1.33301 44 4s40.333 9.83398 73 21.501s63.334 33.167 92.001 64.5s51.334 71.666 68.001 120.999c4 19.333 12.667 28.666 26 27.999c18 0 27 -8 27 -24c0 -12 -6.5 -31.5 -19.5 -58.5s-31.833 -56.5 -56.5 -88.5s-60.834 -60 -108.501 -84
s-100.167 -36 -157.5 -36c-120 0 -225.167 45.5 -315.5 136.5s-135.5 203.5 -135.5 337.5zM167.997 1292l26 31c182.667 -122.667 278.167 -184 286.5 -184s23.5 7.16699 45.5 21.5l244 162.5l24 -31l-311 -301h-2zM228.997 516h485.999c0 28.667 -2.5 59 -7.5 91
s-14.667 70.167 -29 114.5s-38.166 80.5 -71.499 108.5s-74.666 42 -123.999 42c-22 0 -44.833 -4.66699 -68.5 -14s-49.834 -25.333 -78.501 -48s-53 -59.667 -73 -111s-31.333 -112.333 -34 -183z" />
    <glyph glyph-name="Gcircumflex" unicode="&#x11c;" horiz-adv-x="1605" 
d="M115 700.5c0 207.667 70.6689 383.5 212.002 527.5s308 216 500 216c48 0 92.5 -5.5 133.5 -16.5s77.833 -27.333 110.5 -49s57.5 -39.667 74.5 -54s37.167 -33.166 60.5 -56.499l103 151c10.667 16.667 21.5 25 32.5 25s17.5 -3.16699 19.5 -9.5s3 -19.5 3 -39.5v-486
c0 -22 -1.33301 -35.667 -4 -41s-12.334 -8 -29.001 -8c-13.333 0 -21.333 2 -24 6s-5.66699 13.667 -9 29c-20.667 147.333 -72.167 265 -154.5 353s-179.5 132 -291.5 132c-32.667 0 -67.167 -3.66699 -103.5 -11s-81 -25 -134 -53s-99.667 -64.833 -140 -110.5
s-75.166 -112.334 -104.499 -200.001s-44 -189.5 -44 -305.5c0 -114.667 14.667 -216 44 -304s64.5 -154.833 105.5 -200.5s88.333 -82.834 142 -111.501s99.667 -46.834 138 -54.501s74.5 -11.5 108.5 -11.5c23.333 0 48.666 2.5 75.999 7.5s61.5 15 102.5 30
s74.5 40.5 100.5 76.5s39 80.667 39 134v131c0 40.667 -10 67.334 -30 80.001s-73.667 19 -161 19h-65v63c49.333 -4 159 -6 329 -6c15.333 0 98.666 2 249.999 6v-63c-65.333 0 -105.166 -4.83301 -119.499 -14.5s-21.5 -34.834 -21.5 -75.501v-357
c0 -31.333 -6 -47 -18 -47c-10.667 0 -31.834 15.333 -63.501 46s-54.5 57.667 -68.5 81c-32.667 -57.333 -84.5 -100.666 -155.5 -129.999s-146.833 -44 -227.5 -44c-196.667 0 -365.167 72.333 -505.5 217s-210.5 320.834 -210.5 528.501zM551.002 1559l274 288l274 -288
l-36 -35l-238 215l-238 -215z" />
    <glyph glyph-name="gcircumflex" unicode="&#x11d;" 
d="M57 -162c0 44 16.834 84.999 50.501 122.999s79.834 65.333 138.501 82c-60 38 -90 98.667 -90 182c0 64 21 120.667 63 170c-64 53.333 -96 123.666 -96 210.999c0 80.667 32 150.667 96 210s142.667 89 236 89c82 0 154.333 -24.667 217 -74
c65.333 64 137.666 96.333 216.999 97c35.333 0 61.5 -11 78.5 -33s25.5 -44.667 25.5 -68c0 -20.667 -6.5 -36 -19.5 -46s-26.167 -15 -39.5 -15c-16.667 0 -30.834 5.5 -42.501 16.5s-17.5 25.167 -17.5 42.5c0 28.667 11 47.334 33 56.001c-4 1.33301 -10.667 2 -20 2
c-66.667 0 -128.334 -26.667 -185.001 -80c56 -52 84 -118.333 84 -199s-32 -150.667 -96 -210s-142.333 -89 -235 -89c-76.667 0 -144.334 21.333 -203.001 64c-23.333 -27.333 -35 -59.666 -35 -96.999c0 -34 10.333 -64.333 31 -91s46.667 -42 78 -46
c9.33301 -1.33301 60.333 -2 153 -2c54.667 0 97 -0.666992 127 -2s66.5 -6.5 109.5 -15.5s81.5 -22.167 115.5 -39.5c88.667 -49.333 133.334 -127.333 134.001 -234c0 -78 -44.833 -141.5 -134.5 -190.5s-196.5 -73.5 -320.5 -73.5
c-125.333 0 -232.166 24.833 -320.499 74.5s-132.5 111.5 -132.5 185.5zM164.001 -162.001c0 -56 33 -105.499 99 -148.499s149 -64.5 249 -64.5c98 0 180.167 21.167 246.5 63.5s99.5 92.166 99.5 149.499c0 40.667 -11.667 74 -35 100s-58.833 44.167 -106.5 54.5
s-88.167 16.5 -121.5 18.5s-80.666 3 -141.999 3h-121c-46.667 -2.66699 -86.334 -21 -119.001 -55s-49 -74.333 -49 -121zM181.001 1024l274 305h2l272 -305l-36 -37l-236 234h-2l-238 -234zM276.001 604c0 -168 59.667 -252 179 -252c60 0 108.333 27.333 145 82
c22 36.667 33 94 33 172c0 168 -59.333 252 -178 252c-60 0 -108.667 -27.333 -146 -82c-22 -36.667 -33 -94 -33 -172z" />
    </font>
</defs>
</svg>
